<?xml version="1.0" encoding="utf-8"?>
<!-- Generator: Adobe Illustrator 24.0.0, SVG Export Plug-In . SVG Version: 6.00 Build 0)  -->
<svg version="1.1" id="Layer" xmlns="http://www.w3.org/2000/svg" xmlns:xlink="http://www.w3.org/1999/xlink" x="0px" y="0px"
	 viewBox="0 0 500.63 326.2" style="enable-background:new 0 0 500.63 326.2;" xml:space="preserve">
<style type="text/css">
	.st0{fill:#6D4D42;}
	.st1{fill:#563835;}
	.st2{fill:#898919;}
	.st3{fill:#BCBF47;}
	.st4{fill:#9E9B26;}
	.st5{fill:#91D366;}
	.st6{fill:#F7AB97;}
	.st7{fill:#492D2C;}
	.st8{fill:#FEBA2A;}
	.st9{fill:#EF9D0C;}
	.st10{fill:#EF3026;}
	.st11{fill:#FF3E39;}
	.st12{fill:#633313;}
	.st13{fill:#FF6464;}
	.st14{opacity:0.5;fill:#EF3026;}
</style>
<g id="persona3">
	<g>
		<path class="st0" d="M311.04,99.99c6.97,0.23,9.55-2,11.02-4.11c-0.38-0.47-0.98-0.94-1.81-1.35c-2.16-1.08-4.48-1.66-6.87-1.53
			c-1.28,0.07-4.02,0.6-6.35,1.58c-1,0.42-1.9,1.08-2.46,1.98C304.72,97.96,305.89,99.82,311.04,99.99z"/>
		<path class="st1" d="M307.12,101.43c2.07,1.09,6.72,1.61,11.01,0c1.66-0.62,2.48-1.2,4.11-3.36c0.49-0.64,0.44-1.43-0.18-2.19
			c-1.47,2.11-4.05,4.34-11.02,4.11c-5.15-0.17-6.32-2.03-6.47-3.43c-0.28,0.45-0.48,0.95-0.56,1.52
			C303.77,99.9,305.65,100.66,307.12,101.43z"/>
		<path class="st1" d="M318.2,97.13c-0.71-0.03-1.34,0.61-1.12,0.84c0.34,0.37,0.97,0.1,1.29-0.16
			C318.71,97.54,318.68,97.15,318.2,97.13z"/>
		<path class="st1" d="M306.56,96c-0.35-0.01-0.67,0.31-0.56,0.42c0.17,0.18,0.48,0.05,0.65-0.08C306.81,96.2,306.8,96.01,306.56,96
			z"/>
		<path class="st1" d="M310.85,96.59c-0.98,1.17,0.49,1.72,1.46,1.78c0.85,0.05,1.72-0.1,2.51-0.42c0.52-0.21,1.79-0.65,1.52-1.31
			C315.93,95.59,311.58,95.72,310.85,96.59z"/>
		<path class="st1" d="M309.79,97c-0.22-0.29-1.58-0.5-1.75,0.15c-0.12,0.44,0.88,0.49,1.16,0.48C309.5,97.61,310.1,97.4,309.79,97z
			"/>
		<path class="st1" d="M317.01,94.92c-0.07-0.09-0.48-0.15-0.53,0.04c-0.03,0.13,0.27,0.15,0.35,0.15
			C316.92,95.11,317.11,95.05,317.01,94.92z"/>
		<path class="st1" d="M319.51,95.82c-0.28-0.39-1.28-0.47-1.55-0.02c-0.27,0.47,0.54,0.53,0.92,0.5
			C319.26,96.26,319.86,96.31,319.51,95.82z"/>
		<path class="st1" d="M315.9,94.34c-0.18-0.25-0.83-0.3-0.99-0.01c-0.18,0.3,0.35,0.34,0.59,0.32
			C315.74,94.63,316.13,94.66,315.9,94.34z"/>
	</g>
	<g>
		<g>
			<path class="st1" d="M312.75,81.52l0.24-0.7c0,0,0.56-1.15,1-2.56c0.28-0.89,0.48-2.97,0.65-3.87c0.16-0.83,1.83-1.54,3.85-2.84
				c2.02-1.3,2.76-4.73,2.76-4.73l-1.62-0.48c0,0-1.14,3.92-2.38,4.56c-1.24,0.64-3.32,2.24-3.77,2.1c-0.64-0.2-2.44-2.36-2.98-3.21
				c-0.54-0.85-2.25-5.26-2.25-5.31c0-0.05-0.78-0.18-0.54,0.58c0.03,0.1,0.1,0.28,0.2,0.51c0.1-0.03,0.18-0.03,0.22,0.02
				c0.42,0.53,2.17,4.43,2.53,5.19c0.36,0.76,2.08,2.6,2.58,3.67c0.5,1.07-0.35,2.71-0.88,4.66c-0.53,1.95-1.29,3.67-2.26,3.21
				c-0.97-0.46-2.48-2.98-3.06-4.43c-0.58-1.45-1.16-3.21-1.51-3.93c-0.35-0.72-1.43-1.88-1.86-2.98c-0.03-0.08-0.05-0.15-0.07-0.22
				c0,0,0,0,0,0c-0.01-0.03-0.02-0.07-0.03-0.12c-0.05-0.2-0.07-0.37-0.08-0.54c-0.08-0.78-0.1-1.99-0.04-2.38
				c0.08-0.56,0.79-3.97,0.79-3.97s-1.1,0.02-1.33,0.74c-0.23,0.71-0.54,4.71-0.7,4.89c-0.16,0.18-1.71,0.05-2.33,0
				s-1.63-1.1-1.63-1.1l-0.39,0.47c0,0,1.02,1.55,2.02,1.38c2.08-0.35,4.72,2.87,5.36,4.32c0.64,1.45,1.24,3.95,1.93,5.41
				c0.25,0.53,1.16,1.49,1.92,2.86c0.76,1.37,1.16,1.8,1.27,2.82c0.07,0.67,0.02,2.4,0.08,3.23c0.09,1.37,0.6,7.85,0.6,7.85
				c1.01,1.57,2.81,0.38,2.9,0.11c0.1-0.27-1.34-6.56-1.57-7.47c-0.23-0.91-0.42-3.09-0.39-3.98c0.03-1.14,0.57-2.42,1.14-2.97
				c0.79-0.75,3.2-1.42,3.82-1.58c0.31-0.08,0.58-0.74,0.79-1.44c-0.66,0.5-1.34,0.84-1.88,1.09
				C314.68,80.91,312.75,81.52,312.75,81.52z"/>
			<path class="st1" d="M320.16,75.89c0.45-0.2,2.43-2.2,4.18-3.68c1.29-1.09,2.53-1.76,2.53-1.76s-0.16-0.48-0.33-0.65
				c-0.81,0.75-2.75,2.41-3.59,3.12C322.15,73.61,321,74.51,320.16,75.89z"/>
			<path class="st0" d="M319.2,75.11c-1.54,0.34-1.43,3.3-2.04,4.11c-0.61,0.81-4.16,1.6-4.16,1.6l-0.24,0.7
				c0,0,1.93-0.61,3.09-1.15c0.54-0.25,1.22-0.6,1.88-1.09c0.22-0.72,0.37-1.48,0.45-1.73c0.16-0.5,1.32-1.49,1.94-1.64
				c0.01,0,0.03-0.01,0.04-0.02c0.85-1.38,1.99-2.28,2.8-2.96c0.84-0.71,2.77-2.36,3.59-3.12c-0.05-0.05-0.1-0.07-0.14-0.05
				C324.41,70.76,320.74,74.76,319.2,75.11z"/>
			<path class="st0" d="M312.79,75.67c-0.32,1.45-1.59,5.91-2.13,6.09c-0.84,0.28-1.82-1.48-2.35-2.19c-0.32-0.43-1.69-3.89-2-4.81
				c-0.31-0.91-2.54-3.65-2.71-4.01c0.02,0.07,0.04,0.15,0.07,0.22c0.43,1.11,1.51,2.26,1.86,2.98c0.35,0.72,0.93,2.48,1.51,3.93
				c0.58,1.45,2.09,3.97,3.06,4.43c0.97,0.46,1.72-1.26,2.26-3.21c0.53-1.95,1.39-3.59,0.88-4.66c-0.5-1.07-2.22-2.9-2.58-3.67
				c-0.36-0.76-2.11-4.66-2.53-5.19c-0.04-0.05-0.12-0.05-0.22-0.02c0.62,1.48,2.41,5.18,2.9,5.98
				C311.8,73.16,313.02,74.68,312.79,75.67z"/>
		</g>
		<path class="st2" d="M305.72,54.69c-1.05-0.73-2.17-0.27-2.66,0.6c-0.2-0.29-0.5-0.48-0.93-0.47c-0.62,0.02-0.92,0.53-1.08,1.08
			c-0.36-0.62-0.93-1.24-1.63-0.91c-0.56,0.26-0.52,0.8-0.33,1.27c-0.6-0.25-1.3-0.36-1.72,0.23c-0.43,0.6,0.05,1.37,0.5,1.92
			c-0.84,1.55-0.69,4.21,0.86,5.04c2.48,1.35,4.63-1.5,5.53-3.36c0.35-0.72,0.65-1.48,1.06-2.17c0.3-0.5,0.98-1.04,1.13-1.6
			C306.62,55.68,306.25,55.05,305.72,54.69z"/>
		<path class="st2" d="M331.39,56.63c-0.37-0.14-1.31,0.21-1.31,0.21s-0.08-0.79-0.27-0.99c-0.41-0.45-0.93-0.44-1.37-0.2
			c-0.15-1.16-1.5-1.85-2.14-0.83c-0.34-0.65-0.96-1.22-1.76-0.82c-0.64,0.32-0.64,0.96-0.51,1.57c-1.03,0.73-1.45,2.63-0.71,3.59
			c0.67,0.88,1.97,0.54,2.92,0.53c0.97,0,1.94,0.08,2.9,0.23c0.36,0.06,0.95,0.29,1.33,0.14C331.66,59.63,333.09,57.29,331.39,56.63
			z"/>
		<path class="st2" d="M320.33,64.03c-1.95-1.29-4.83-2.37-7.08-1.16c-1.4,0.75-2.19,2.37-1.81,3.83c-0.02,0.01-0.03,0.01-0.05,0.02
			c-2.12,2.07,0.88,4.83,3.01,3.26c0.09,0.86,0.36,1.77,1.28,2.02c0.52,0.14,1.04,0.01,1.36-0.34c0.41,0.76,0.98,1.51,1.93,1.49
			c0.66-0.01,1.18-0.38,1.36-0.94c1.71,0.62,3.35-0.51,3.67-2.33C324.4,67.45,322.19,65.25,320.33,64.03z"/>
		<g>
			<path class="st3" d="M292.54,62.29c-0.93,1.45,0.43,3.99,2.83,3.6c-0.08,1.52,0.89,2.31,2.1,2.28c0.88,0.2,2.18-0.71,2.31-1.5
				c0.73,0.74,2.45,0.74,2.89-0.73c1.54,0.63,3.11-0.14,3.43-1.87c1.15,0.75,3.15,0.65,3.88-0.7c1.78,0.7,2.58-0.47,2.9-1.61
				c0.95,0.59,3.05,0.38,3.77-0.36c0,1.4,1.67,2.51,3.5,1.84c-0.28,0.87,1.4,2.12,2.8,1.35c0.27,1.52,2.36,1.52,2.86,0.97
				c0.59,0.89,2.33,0.98,2.96,0c0.17,0.55,1.12,0.59,1.41,0.16c2.48,3.01,5.45,1.1,6.11-1.68c-0.23-0.24-0.6-0.43-1.21-0.53
				c0.16-0.32,0.38-0.68,0.24-1.05c-0.3-0.83-1.86-0.76-2.85-0.71c0.58-0.91,1.07-2.17,0.06-2.94c-0.69-0.53-1.82-0.31-2.87,0.08
				c0.07-0.7-0.17-1.52-0.69-1.75c-0.41-0.18-0.89,0.21-1.13,0.5c-0.2,0.24-0.34,0.54-0.37,0.84c-0.85-0.33-1.72-0.36-2.61-0.14
				c0.27-0.92,0.44-2.05-0.24-2.79c-1.06-1.15-3.25-1.88-4.91-1.03c-0.49-1.23-1.75-1.94-2.29-2.11c-0.86-0.27-1.66,0.09-2.2,0.71
				c-0.96-1.52-2.94-3.05-4.73-2.84c-0.76,0.09-1.55,0.53-1.9,1.45c-1.52-0.43-2.87-0.62-4.11,0.48c-0.8,0.72-0.92,2.59-0.3,3.55
				c-0.47,0.11-1.03,0.28-1.58,0.67c-0.77,0.56-0.65,1.72-0.2,2.48c-0.4,0.02-0.78,0.17-1.07,0.44c-0.21,0.21-0.35,0.52-0.27,0.82
				c-0.32,0.05-0.64,0.12-0.95,0.2c-0.01-1.1-0.5-2.24-1.71-2.48c-0.91-0.18-1.75,0.3-2.1,1.04c-0.53-0.74-1.25-1.39-2.21-1.09
				c-0.4,0.13-0.7,0.38-0.88,0.69c0.05,0.54,0.22,1.49,0.85,2.05C293.6,61.02,292.8,61.9,292.54,62.29z"/>
			<path class="st4" d="M290.93,59.62c-0.63,0.94-0.43,2-0.01,3c-0.54,0-1.25,0.05-1.54,0.6c-0.36,0.69,1.22,1.03,1.88,1.33
				c-1.35,0.55-0.86,2.54,0.5,2.56c-0.58,0.72-0.99,1.61-0.43,2.47c0.51,0.77,1.24,0.7,1.91,0.37c-0.27,1.52,1.4,2.8,2.93,1.83
				c1.3,1.51,2.99-0.01,3.84-1.38c1.08,1.69,3.38,1.84,4.68,0.2c0.86,0.46,2.19,0.94,2.73-0.09c0.54-1.02,0.23-1.9-0.35-2.47
				c0.81,0.15,0.99-0.41,1.25-1.28c0.05-0.15,0.06-0.3,0.07-0.45c0.3,0.16,0.62,0.26,0.98,0.3c0.97,0.1,1.95-0.13,2.21-0.99
				c0.7,0.05,1.71,0.09,2.28-0.73c0.41-0.59,0.4-1.26,0.17-1.88c0.77,0.03,1.45-0.17,2.11-0.67c-0.62,1.25,0.18,2.63,1.47,3.04
				c-0.5,0.72-0.26,2,0.44,2.66c0.61,0.58,2.83,1.89,3.59,1c0.17,0.4,0.49,0.72,0.95,0.68c0.28-0.02,0.55-0.19,0.77-0.42
				c0.35,0.45,1.68,0.58,2.47,0.28c-0.13,0.8,0.15,1.63,0.75,2.29c0.41,0.46,1.09,0.65,1.58,0.71c-0.58,1.2-0.62,2.24-0.24,2.93
				c0.37,0.68,1.21,1.05,1.97,0.98c1.25-0.11,3.18-1.69,2.86-3.06c1.86-0.02,4.02-0.79,4.42-2.79c0.15-0.74-0.16-1.61-0.6-2.24
				c1.1-0.26,1.83-2.04-0.34-2.55c0.16-0.24,0.67-1.2,0.06-1.84c-0.65,2.78-3.63,4.69-6.11,1.68c-0.29,0.43-1.24,0.38-1.41-0.16
				c-0.63,0.98-2.37,0.89-2.96,0c-0.5,0.55-2.59,0.55-2.86-0.97c-1.4,0.77-3.08-0.47-2.8-1.35c-1.83,0.67-3.5-0.44-3.5-1.84
				c-0.72,0.74-2.82,0.95-3.77,0.36c-0.32,1.14-1.13,2.31-2.9,1.61c-0.73,1.36-2.73,1.46-3.88,0.7c-0.32,1.72-1.89,2.5-3.43,1.87
				c-0.44,1.48-2.16,1.48-2.89,0.73c-0.13,0.79-1.43,1.7-2.31,1.5c-1.21,0.03-2.18-0.76-2.1-2.28c-2.39,0.4-3.76-2.15-2.83-3.6
				c0.25-0.39,1.05-1.27,1.52-1.7c-0.63-0.55-0.8-1.51-0.85-2.05c-0.06,0.11-0.11,0.22-0.13,0.34
				C292.32,58.61,291.43,58.88,290.93,59.62z"/>
		</g>
		<path class="st3" d="M325.55,78.69c0.51-0.23,0.84-0.91,0.45-1.64c-0.46-0.85-1.46-0.78-2.39-0.88c0.19-0.22,0.28-0.93,0.01-1.21
			c-0.59-0.61-1.71-0.15-2.26,0.22c0.06-0.68-0.93-1.13-1.72-0.61c-0.41-1.15-2.36-0.57-1.91,0.89c-0.92,0.05-1.14,1.08-0.61,1.5
			c-0.74,0.43-0.91,1.27-0.18,1.97c-0.45,0.28-0.82,0.94-0.57,1.57c0.42,1.04,1.47,1.08,2.47,1.03c0.01,0.75,0.89,1.84,2.06,1.83
			c1.44-0.02,2.54-0.87,2.27-1.87c0.99,0.3,2.15,0.09,2.73-0.87C326.34,79.91,326.12,79.11,325.55,78.69z"/>
		<path class="st5" d="M307.42,53.11c0-0.02-0.01-0.05-0.03-0.05c-0.6-0.09-0.78,1.03-0.28,1.26c0.07,0.03,0.18,0,0.17-0.1
			c-0.02-0.2-0.11-0.38-0.07-0.58C307.24,53.44,307.38,53.3,307.42,53.11z"/>
		<path class="st5" d="M294.85,61.58c-0.06-0.03-0.13,0.02-0.11,0.09c0.05,0.19,0.14,0.36,0.15,0.57c0.02,0.17,0,0.26,0.08,0.41
			c0.04,0.06,0.13,0.08,0.18,0.02C295.45,62.36,295.19,61.77,294.85,61.58z"/>
		<path class="st5" d="M311.24,53.31c-0.06-0.03-0.13,0.02-0.11,0.09c0.05,0.19,0.14,0.36,0.16,0.57c0.02,0.17,0,0.26,0.08,0.41
			c0.04,0.06,0.13,0.08,0.18,0.02C311.84,54.08,311.58,53.49,311.24,53.31z"/>
		<path class="st5" d="M293.97,63.2c-0.48,0.01-0.56,0.61-0.21,0.85c0.06,0.04,0.13-0.02,0.14-0.08c0.01-0.23,0.1-0.44,0.16-0.66
			C294.07,63.26,294.03,63.2,293.97,63.2z"/>
		<path class="st5" d="M317.08,60.29c-0.48,0.01-0.56,0.61-0.21,0.85c0.06,0.04,0.13-0.02,0.14-0.08c0.01-0.23,0.1-0.44,0.16-0.66
			C317.18,60.34,317.14,60.29,317.08,60.29z"/>
		<path class="st5" d="M298.43,65.41c-0.05-0.03-0.17-0.09-0.22-0.02c-0.11,0.19-0.15,0.57-0.03,0.76c0.04,0.06,0.1,0.08,0.17,0.07
			c0.02-0.01,0.05-0.01,0.07-0.02c0.08-0.02,0.15-0.09,0.17-0.17C298.63,65.84,298.63,65.53,298.43,65.41z"/>
		<path class="st5" d="M293.53,67.36c-0.28,0.13-0.48,0.41-0.35,0.7c0.03,0.07,0.13,0.12,0.19,0.05c0.17-0.19,0.21-0.43,0.27-0.67
			C293.65,67.38,293.59,67.33,293.53,67.36z"/>
		<path class="st5" d="M319.77,76.13c-0.28,0.13-0.48,0.41-0.35,0.7c0.03,0.07,0.13,0.12,0.19,0.05c0.17-0.19,0.21-0.43,0.27-0.67
			C319.9,76.14,319.83,76.1,319.77,76.13z"/>
		<path class="st5" d="M298.68,62.34c-0.09,0.01-0.11,0.12-0.08,0.19c0.13,0.25,0.32,0.36,0.6,0.28c0.06-0.02,0.11-0.09,0.09-0.15
			C299.18,62.37,298.97,62.29,298.68,62.34z"/>
		<path class="st5" d="M303.42,63.01c-0.23,0.18-0.34,0.43-0.18,0.68c0.04,0.07,0.13,0.06,0.18,0c0.13-0.17,0.15-0.37,0.18-0.58
			C303.62,63,303.51,62.94,303.42,63.01z"/>
		<path class="st5" d="M321.81,80.6c-0.23,0.18-0.34,0.43-0.18,0.68c0.04,0.07,0.13,0.06,0.18,0c0.13-0.17,0.15-0.37,0.18-0.58
			C322,80.59,321.89,80.53,321.81,80.6z"/>
		<path class="st5" d="M327.13,60.8c-0.23,0.18-0.34,0.43-0.18,0.68c0.04,0.07,0.13,0.06,0.18,0c0.13-0.17,0.15-0.37,0.18-0.58
			C327.32,60.79,327.21,60.73,327.13,60.8z"/>
		<path class="st5" d="M322.12,76.53c-0.06-0.03-0.13,0.02-0.11,0.09c0.05,0.19,0.14,0.36,0.15,0.57c0.02,0.17,0,0.26,0.08,0.41
			c0.04,0.06,0.13,0.08,0.18,0.02C322.72,77.3,322.46,76.71,322.12,76.53z"/>
		<path class="st5" d="M328.31,63.86c-0.48,0.01-0.56,0.61-0.21,0.85c0.06,0.04,0.13-0.02,0.14-0.08c0.01-0.23,0.1-0.44,0.16-0.66
			C328.41,63.91,328.37,63.85,328.31,63.86z"/>
		<path class="st5" d="M332.77,66.06c-0.05-0.03-0.17-0.09-0.22-0.02c-0.11,0.19-0.15,0.57-0.03,0.76c0.04,0.06,0.1,0.08,0.17,0.07
			c0.02-0.01,0.05-0.01,0.07-0.02c0.08-0.02,0.15-0.09,0.17-0.17C332.97,66.49,332.97,66.18,332.77,66.06z"/>
		<path class="st5" d="M333.02,62.99c-0.09,0.01-0.11,0.12-0.08,0.19c0.13,0.25,0.32,0.36,0.6,0.28c0.06-0.02,0.11-0.09,0.09-0.15
			C333.52,63.03,333.31,62.95,333.02,62.99z"/>
		<path class="st5" d="M319.52,78.35c-0.04,0.01-0.05,0.05-0.03,0.08c0.12,0.26,0.36,0.57,0.66,0.57c0.08,0,0.13-0.06,0.14-0.14
			C320.32,78.48,319.84,78.27,319.52,78.35z"/>
		<path class="st5" d="M295.69,68.93c-0.01-0.09-0.11-0.14-0.18-0.07c-0.2,0.17-0.26,0.3-0.21,0.55c0.01,0.07,0.11,0.11,0.17,0.07
			C295.68,69.32,295.72,69.19,295.69,68.93z"/>
		<path class="st5" d="M306.44,56.85c-0.25-0.26-0.65-0.32-0.95-0.1c-0.04,0.03-0.06,0.1,0,0.13c0.25,0.11,0.53,0.19,0.79,0.23
			C306.44,57.13,306.56,56.97,306.44,56.85z"/>
		<path class="st5" d="M323.24,79.23c-0.25-0.26-0.65-0.32-0.95-0.1c-0.04,0.03-0.06,0.1,0,0.13c0.25,0.11,0.53,0.19,0.79,0.23
			C323.24,79.51,323.36,79.35,323.24,79.23z"/>
		<path class="st5" d="M308.99,59.04c-0.44,0.1-0.83,0.72-0.46,1.09c0.07,0.07,0.19,0.05,0.24-0.03c0.17-0.28,0.17-0.63,0.33-0.92
			C309.14,59.11,309.07,59.02,308.99,59.04z"/>
		<path class="st5" d="M323.2,62.64c-0.44,0.1-0.83,0.72-0.46,1.09c0.07,0.07,0.19,0.05,0.24-0.03c0.17-0.28,0.17-0.63,0.33-0.92
			C323.35,62.7,323.29,62.62,323.2,62.64z"/>
		<path class="st5" d="M316.54,57.45c-0.44,0.1-0.83,0.72-0.46,1.09c0.07,0.07,0.19,0.05,0.24-0.03c0.17-0.28,0.17-0.63,0.33-0.92
			C316.68,57.51,316.62,57.43,316.54,57.45z"/>
		<path class="st5" d="M321.89,60.48c-0.11,0.04-0.14,0.18-0.03,0.25c0.26,0.16,0.5,0.25,0.81,0.28c0.1,0.01,0.14-0.1,0.1-0.18
			C322.61,60.48,322.25,60.35,321.89,60.48z"/>
		<path class="st5" d="M308.28,63.05c-0.02-0.08-0.13-0.11-0.19-0.05c-0.2,0.22-0.3,0.51-0.06,0.73c0.07,0.06,0.16,0.04,0.21-0.03
			C308.39,63.5,308.33,63.28,308.28,63.05z"/>
		<path class="st5" d="M320.55,56.3c-0.02-0.08-0.13-0.11-0.19-0.05c-0.2,0.22-0.3,0.51-0.06,0.73c0.07,0.06,0.16,0.04,0.21-0.03
			C320.65,56.75,320.6,56.53,320.55,56.3z"/>
		<path class="st5" d="M312.06,57.13c-0.02-0.08-0.13-0.11-0.19-0.05c-0.2,0.22-0.3,0.51-0.06,0.73c0.07,0.06,0.16,0.04,0.21-0.03
			C312.17,57.58,312.11,57.36,312.06,57.13z"/>
	</g>
	<g>
		<path class="st6" d="M296.48,88.3c0.29-1.83,0.22-3.66-0.22-5.59l-3.27,0.08c0,0-0.95,2.06-1.19,3.6c-0.24,1.54,0.11,2.27,0.72,3
			c0.61,0.73,2.79-0.24,2.87-0.3C295.42,89.08,295.85,88.76,296.48,88.3z"/>
		<path class="st7" d="M289.34,104.8c-0.95,0.22-2.63-0.05-2.96,0.11c-0.33,0.15-0.78,1.33-1.44,2.05
			c-0.65,0.72-1.63,1.18-1.86,2.42c-0.23,1.24,0.23,2.22,1.47,1.57c1.24-0.65,6.62-4.28,6.62-4.28S290.05,104.64,289.34,104.8z"/>
		<path class="st7" d="M296.97,108.55c-0.95,0.22-2.63-0.05-2.96,0.11c-0.33,0.15-0.78,1.33-1.44,2.05
			c-0.65,0.72-1.63,1.18-1.86,2.42c-0.23,1.24,0.23,2.22,1.47,1.57c1.24-0.65,6.62-4.28,6.62-4.28S297.69,108.38,296.97,108.55z"/>
		<path class="st8" d="M301.07,102.16c0.08-0.18-3.61-8.08-4.38-10.23c-0.86,0.33-3.73-0.23-3.76,0.36
			c-0.15,2.91,0.82,6.03,1.8,8.47c-0.84,0.29-2.54,1.07-3.59,1.73c-0.86,0.54-2.75,2.31-2.75,2.31s0.73,0.22,0.99,0.96
			c0.26,0.74,0.45,2.12,0.45,2.12s4.3-1.6,5.29-2.12C296.61,104.96,300.51,103.47,301.07,102.16z"/>
		<path class="st8" d="M307.44,101.08c-2.14-4.41-5.44-8.8-5.44-8.8s-3.08-0.07-5.49,0.43c0.45,1.83,0.79,4.88,2.27,7.42
			c1.13,1.93,2.48,2.9,3.6,3.92c-1.28,0.54-3.37,1.75-4.65,2.45c-0.89,0.48-2.61,1.89-2.61,1.89s1.13,0.79,1.39,1.53
			c0.26,0.74,0.35,2.01,0.35,2.01s4.52-1.63,5.55-2.08c1.96-0.85,4.91-2.76,5.99-3.9C309.48,104.82,307.92,102.08,307.44,101.08z"/>
		<path class="st9" d="M300.76,102.61c-1.1-0.94-2.2-2.9-3.03-4.25c-0.23,0.01-0.85-0.15-1.07-0.21c0.02,0.13,0.72,1.53,1.4,2.88
			c0.24,0.48,0.09,1.06-0.35,1.36c-0.92,0.62-2,1.32-4.07,2.42c-1.19,0.63-4.06,1.63-4.06,1.63l0.26,1.44c0,0,5.28-1.82,7.51-3
			C299.09,103.94,300.47,103.01,300.76,102.61z"/>
		<path class="st10" d="M295.96,86.02c-0.11-1.75-0.38-2.77-0.38-2.77l1.17-3.72c0,0-1.64-0.83-2.75,0.49
			c-0.46,0.55-1.31,2.2-2.05,3.74C292.53,84.74,294.07,86.08,295.96,86.02z"/>
		<path class="st6" d="M299.23,72.23c-0.88-0.61-2.56-0.42-3.29,1.13c-0.4,0.86,0.17,3.16,0.26,4.77c0.07,1.3-0.36,2.06-0.36,2.06
			s0,0,1.12,0.46c1.12,0.46,2.28,0,2.28,0l-0.04-1.99c0,0,1.2-0.18,1.41-0.37c0.51-0.46,0.78-1.85,0.54-3.63
			C300.8,72,299.55,72.45,299.23,72.23z"/>
		<path class="st11" d="M298.35,94.63c-1.76,0.15-4.04-0.25-5.21-1.7c0.03-0.45,0.04-0.94,0.03-1.48c-0.07-3.29-0.2-5.68-0.04-6.98
			c0.24-1.85,2.02-4.95,2.02-4.95l4.07,0.61c0,0,1.34,0.56,1.76,1.48c0.42,0.92,0.5,1.5,0.56,4.74c0.03,1.71-0.18,4.21,0.07,6.04
			C300.62,93.7,300.29,94.47,298.35,94.63z"/>
		<path class="st10" d="M299.21,79.57c0,0-1.63,0.48-2.59-0.27c-1.36-1.06-1.51,0.43-1.51,0.43s0.57,0.8,1.71,1.16
			c1.14,0.36,2.16,0.29,3.28-0.26C300.11,79.89,299.21,79.57,299.21,79.57z"/>
		<path class="st12" d="M300.31,75.36c0.13-0.45,0.44-1.48,0.51-1.9c0.09-0.48,0.11-1.2-0.55-1.89c-0.66-0.69-2.95-0.91-3.78-0.43
			c-0.83,0.48-2.59,1.36-1.98,4.21c0.5,2.31,0.98,2.57,1.68,3.11c0.61,0.47,1.68,0.59,1.68,0.59s0.6-0.43,0.71-1.31
			c0.03-0.28,0-1.11,0-1.11s-0.61-1.21-0.14-1.64c0.5-0.46,1.02,0.27,1.14,0.57C300,76.6,300.41,77.09,300.31,75.36z"/>
		<path class="st8" d="M298.91,70.77c1.04,0.03,2.87-0.27,3.59,2.08c0.72,2.34-3.01,5.13-4.89,5.89c-1.9,0.76-4.19-0.72-3.73-3.57
			C294.32,72.42,296.97,70.71,298.91,70.77z"/>
		<path class="st9" d="M299.65,72.12c0,0,0.9,1.91-1.2,3.27c-2.09,1.36-3.74,0.65-4.1-0.23c-0.54-1.31-0.88-2.58,0.76-3.89
			C296.75,69.95,298.47,70.39,299.65,72.12z"/>
		<path class="st8" d="M302.58,93.38c-0.19-0.83-0.64-1.56-0.69-2.2c-0.14-1.67-0.14-5.82-0.14-5.82l-0.87,0.23
			c0,0-0.14,2.14-0.45,3.55c-0.31,1.41-1.56,3.68-2.97,4c-1.81,0.4-4.53-1.53-4.53-1.53s-0.12,0.9-0.01,2.13
			C293.38,93.9,297.46,97.26,302.58,93.38z"/>
		<path class="st8" d="M293.55,82.03c0.44-1.34,1.12-2.13,1.62-2.55c0,0.11,0.01,0.22,0.04,0.32c-0.6,1.1-1.4,3.55-1.4,8.23
			c0,2.72,0,3.99,0,3.99l-0.89-0.43C292.93,91.6,292.8,84.34,293.55,82.03z"/>
		<path class="st6" d="M303.23,86.01c0.38,1.16,0.97,2.34,1.09,3.2c0.8,0.81,3.65,3.48,4.27,3.95c0.25,0.19,1.32,0.5,1.98,1.15
			c0.6,0.59,2.16,0.91,1.87,1.45c-0.29,0.54-1.31,0.74-1.76,0.58c-0.72-0.26-1.91-1.19-2.58-1.97c-1.01-0.73-2.28-1.27-2.95-1.67
			c-0.91-0.54-2.52-1.61-3.29-2.7c-0.61-0.85-1.84-4.08-1.84-4.08l2.62-1.81L303.23,86.01z"/>
		<path class="st10" d="M300.07,86.95c1.42,0.51,2.81,0.43,3.62-0.68c-0.59-2.67-0.93-4.99-2.97-5.15c-1.88-0.14-2.1,1.35-1.89,3.05
			C298.89,84.65,299.38,85.77,300.07,86.95z"/>
		<path class="st8" d="M300.66,81.11c0,0-2.45,0.27-3.48,4.24c-1.11,4.28-1.23,7.65-1.23,7.65l-0.83-0.32c0,0,0.46-6.39,1.64-8.99
			c1.18-2.59,3.35-3.07,3.35-3.07L300.66,81.11z"/>
		<path class="st9" d="M302,92.03c0,0-2.3,1.7-4.87,1.7c-2.57,0-4.2-1.44-4.2-1.44l-0.01-1.04c0,0,2.69,1.39,4.08,1.29
			c3.35-0.25,4.83-1.69,4.83-1.69L302,92.03z"/>
		<path class="st9" d="M302.41,92.8c0,0-0.13,0.99-0.38,1.7c-0.33,0.97-0.51,1.64-0.51,1.64l0.45,0.66c0,0,0.29-0.68,0.62-1.63
			c0.28-0.84,0.38-1.54,0.38-1.54L302.41,92.8z"/>
		<path class="st10" d="M312.47,95.1c-0.31-0.28-0.66-0.5-1.02-0.69c0.34-0.15,0.66-0.35,0.29-0.44c-0.34-0.08-1.7-0.15-1.88-0.24
			c-0.87-0.41-2.81-2.41-2.81-2.41s-0.67,0.32-1.23,1.12c-0.32,0.46-0.51,1.11-0.51,1.11s2.38,0.9,3.12,1.64
			c0.74,0.74,2.63,2.24,3.83,1.62C313.46,96.18,313.14,95.7,312.47,95.1z"/>
	</g>
	<g>
		<path class="st11" d="M327.13,105.23c0,1.26-1.82,2.29-4.06,2.29s-4.06-1.02-4.06-2.29c0-1.26,1.82-2.29,4.06-2.29
			S327.13,103.97,327.13,105.23z"/>
		<polygon class="st11" points="319.99,97.37 319,105.23 327.13,105.23 326.13,97.37 		"/>
		<path class="st10" d="M315.86,98.93c0,0,2.95,4.48,3.3,5c0.35,0.52,1.44-1.28,0.83-2.18c-0.61-0.9-3.16-3.48-3.16-3.48
			L315.86,98.93z"/>
		<path class="st13" d="M326.13,97.37c0,0.95-1.38,1.73-3.07,1.73c-1.7,0-3.07-0.77-3.07-1.73c0-0.95,1.38-1.73,3.07-1.73
			C324.76,95.64,326.13,96.41,326.13,97.37z"/>
		<g>
			<path class="st14" d="M323.06,95.91c-0.38,0-0.74,0.05-1.06,0.14c0.83,0.22,1.4,0.7,1.4,1.25c0,0.55-0.57,1.02-1.4,1.25
				c0.32,0.09,0.68,0.14,1.06,0.14c1.36,0,2.46-0.62,2.46-1.38C325.52,96.53,324.42,95.91,323.06,95.91z"/>
		</g>
		<path class="st11" d="M314.06,98.03c0,0,1,0.76,1.81,0.89c0.49-0.11,0.76-0.34,0.97-0.66c-0.01-0.55-0.32-1.92-0.32-1.92
			L314.06,98.03z"/>
		<path class="st13" d="M316.47,96.27c0.25,0.4-0.11,1.08-0.82,1.53c-0.7,0.45-1.48,0.49-1.73,0.1c-0.25-0.4,0.11-1.08,0.82-1.53
			C315.45,95.91,316.22,95.87,316.47,96.27z"/>
		<path class="st14" d="M314.64,96.97c0.03,0.05-0.02,0.15-0.11,0.21c-0.1,0.06-0.2,0.07-0.24,0.01c-0.03-0.05,0.02-0.15,0.11-0.21
			C314.5,96.92,314.61,96.92,314.64,96.97z"/>
		<path class="st14" d="M315.56,96.39c0.03,0.05-0.02,0.15-0.11,0.21c-0.1,0.06-0.2,0.07-0.24,0.01c-0.03-0.05,0.02-0.15,0.11-0.21
			C315.42,96.34,315.52,96.33,315.56,96.39z"/>
		<path class="st14" d="M315.1,97.55c0.03,0.05-0.02,0.15-0.11,0.21c-0.1,0.06-0.2,0.07-0.24,0.01c-0.03-0.05,0.02-0.15,0.11-0.21
			C314.96,97.5,315.07,97.49,315.1,97.55z"/>
		<path class="st14" d="M316.02,96.96c0.03,0.05-0.02,0.15-0.11,0.21c-0.1,0.06-0.2,0.07-0.24,0.01c-0.03-0.05,0.02-0.15,0.11-0.21
			C315.88,96.92,315.98,96.91,316.02,96.96z"/>
		<path class="st14" d="M315.29,96.97c0.03,0.05-0.02,0.15-0.11,0.21c-0.1,0.06-0.2,0.07-0.24,0.01c-0.03-0.05,0.02-0.15,0.11-0.21
			C315.15,96.92,315.25,96.92,315.29,96.97z"/>
		<path class="st14" d="M316.2,96.39c0.03,0.05-0.02,0.15-0.11,0.21c-0.1,0.06-0.2,0.07-0.24,0.01c-0.03-0.05,0.02-0.15,0.11-0.21
			C316.06,96.34,316.17,96.33,316.2,96.39z"/>
		<path class="st14" d="M314.46,97.55c0.03,0.05-0.02,0.15-0.11,0.21s-0.2,0.07-0.24,0.01c-0.03-0.05,0.02-0.15,0.11-0.21
			C314.32,97.5,314.42,97.49,314.46,97.55z"/>
		<path class="st11" d="M316.81,98.22c0.1,0.16-0.04,0.43-0.32,0.61c-0.28,0.18-0.59,0.2-0.69,0.04c-0.1-0.16,0.04-0.43,0.32-0.61
			C316.41,98.08,316.71,98.06,316.81,98.22z"/>
		<path class="st11" d="M325.89,98.93c0,0,1.02-2.1,2.78-1.99c2.38,0.15,1.57,3.69,1.04,4.62c-1.14,2.02-3.21,2.86-3.21,2.86
			l-0.28-0.99c0,0,1.67-0.97,2.5-1.87c0.83-0.91,1.52-3.6-0.15-3.92c-1.66-0.32-2.44,2.99-2.44,2.99L325.89,98.93z"/>
	</g>
</g>
</svg>
