<?xml version="1.0" encoding="utf-8"?>
<!-- Generator: Adobe Illustrator 24.0.0, SVG Export Plug-In . SVG Version: 6.00 Build 0)  -->
<svg version="1.1" id="Layer" xmlns="http://www.w3.org/2000/svg" xmlns:xlink="http://www.w3.org/1999/xlink" x="0px" y="0px"
	 viewBox="0 0 500.63 326.2" style="enable-background:new 0 0 500.63 326.2;" xml:space="preserve">
<style type="text/css">
	.st0{fill:#CC9586;}
	.st1{fill:#995700;}
	.st2{fill:#4D3019;}
	.st3{fill:#FDBB89;}
	.st4{fill:#FDA130;}
	.st5{fill:#A65E2D;}
	.st6{fill:#CF7538;}
	.st7{fill:#80624C;}
	.st8{fill:#FFFBF2;}
	.st9{fill:#996A00;}
	.st10{fill:#E6D8B8;}
	.st11{fill:#A96647;}
	.st12{fill:#BFF8FF;}
	.st13{fill:#66462D;}
	.st14{fill:#CC8252;}
	.st15{fill:#808080;}
	.st16{fill:#B08E54;}
	.st17{fill:#5C4000;}
	.st18{fill:#CFAD70;}
	.st19{fill:#E3D3AA;}
	.st20{fill:#AA9D79;}
	.st21{fill:#C6B994;}
	.st22{fill:#EADCB3;}
	.st23{fill:#D1C194;}
	.st24{fill:#C4B687;}
	.st25{fill:#B9AB7A;}
	.st26{fill:#E8DBAE;}
	.st27{fill:#F4E7B9;}
	.st28{fill:#DACB9E;}
	.st29{fill:#F2E3B8;}
	.st30{fill:#BCAB72;}
	.st31{fill:#CCBC87;}
	.st32{fill:#008799;}
	.st33{fill:#EDC2A6;}
	.st34{fill:#FFE8D9;}
	.st35{fill:#593A3F;}
	.st36{fill:#8F7260;}
	.st37{fill:#5F8876;}
	.st38{fill:#7EB59D;}
	.st39{fill:#507364;}
	.st40{fill:#015965;}
	.st41{fill:#AAF2D2;}
	.st42{fill:#D6FFED;}
	.st43{fill:#F2F2F2;}
	.st44{fill:#999999;}
</style>
<g id="Casa">
	<polygon class="st0" points="158.38,188.89 171.31,187.46 263.54,140.56 240.89,130.65 	"/>
	<g>
		<g>
			<g>
				<polygon class="st1" points="176.23,176.81 251.67,137.94 249.68,85.81 174.24,124.68 				"/>
				<g>
					<polygon class="st2" points="251.59,136.08 176.17,174.95 176.07,172.4 251.49,133.53 					"/>
					<polygon class="st2" points="251.41,131.34 175.98,170.21 175.89,167.66 251.31,128.79 					"/>
					<polygon class="st2" points="251.23,126.6 175.8,165.47 175.71,162.92 251.13,124.05 					"/>
					<polygon class="st2" points="251.05,121.86 175.62,160.73 175.53,158.18 250.95,119.31 					"/>
					<polygon class="st2" points="250.86,117.12 175.44,155.99 175.35,153.44 250.77,114.57 					"/>
					<polygon class="st2" points="250.68,112.38 175.26,151.25 175.17,148.7 250.59,109.83 					"/>
					<polygon class="st2" points="250.5,107.64 175.08,146.51 174.99,143.96 250.41,105.09 					"/>
					<polygon class="st2" points="250.32,102.9 174.9,141.77 174.8,139.22 250.23,100.35 					"/>
					<polygon class="st2" points="250.14,98.16 174.72,137.03 174.62,134.48 250.05,95.61 					"/>
					<polygon class="st2" points="249.96,93.42 174.54,132.29 174.44,129.74 249.87,90.87 					"/>
					<polygon class="st2" points="249.78,88.68 174.36,127.55 174.26,125 249.68,86.12 					"/>
				</g>
				<polygon class="st3" points="176.23,176.79 126.04,155.59 124.06,103.46 148.54,98.11 174.25,124.66 				"/>
				<g>
					<polygon class="st4" points="176.07,172.4 176.16,174.95 125.98,153.75 125.88,151.2 					"/>
					<polygon class="st4" points="175.89,167.66 175.98,170.21 125.8,149.01 125.7,146.45 					"/>
					<polygon class="st4" points="175.71,162.92 175.8,165.47 125.61,144.27 125.52,141.72 					"/>
					<polygon class="st4" points="175.53,158.18 175.62,160.73 125.43,139.53 125.34,136.97 					"/>
					<polygon class="st4" points="175.35,153.44 175.44,155.99 125.25,134.79 125.16,132.24 					"/>
					<polygon class="st4" points="175.16,148.7 175.26,151.25 125.07,130.05 124.98,127.49 					"/>
					<polygon class="st4" points="174.98,143.96 175.08,146.51 124.89,125.31 124.8,122.75 					"/>
					<polygon class="st4" points="174.8,139.22 174.9,141.77 124.71,120.57 124.61,118.02 					"/>
					<polygon class="st4" points="174.62,134.47 174.72,137.03 124.53,115.83 124.43,113.27 					"/>
					<polygon class="st4" points="174.44,129.74 174.54,132.29 124.35,111.09 124.25,108.54 					"/>
					<polygon class="st4" points="174.26,124.99 174.36,127.55 124.17,106.34 124.07,103.79 					"/>
					<polygon class="st4" points="171.27,121.58 126.89,102.84 130.82,101.98 167.16,117.33 					"/>
					<polygon class="st4" points="163.63,113.68 134.18,101.25 138.1,100.39 159.52,109.44 					"/>
					<polygon class="st4" points="155.99,105.8 141.44,99.66 145.38,98.8 151.87,101.54 					"/>
				</g>
				<polygon class="st5" points="148.54,98.11 223.98,59.24 249.68,85.79 174.25,124.66 				"/>
				<polygon class="st6" points="124.06,103.46 199.5,64.59 223.98,59.24 148.54,98.11 				"/>
			</g>
			<g>
				<polygon class="st7" points="141.48,110.98 142.93,113.3 143.53,128.87 134.77,125.15 133.96,109.47 				"/>
				<g>
					<g>
						<polygon class="st8" points="132.35,123.55 133.77,122.88 142.07,126.38 140.65,127.06 						"/>
						<polygon class="st9" points="140.68,127.81 142.1,127.14 142.07,126.38 140.65,127.06 						"/>
						<polygon class="st10" points="132.38,124.31 132.35,123.55 140.65,127.06 140.68,127.81 						"/>
					</g>
					<g>
						<g>
							<g>
								<g>
									<g>
										<g>
											<g>
												<polygon class="st11" points="133.77,122.88 133.18,107.48 141.48,110.98 142.07,126.38 												"/>
												<polygon class="st8" points="132.66,107.73 133.18,107.48 141.48,110.98 140.96,111.23 												"/>
												<polygon class="st9" points="141.54,126.63 142.07,126.38 141.48,110.98 140.96,111.23 												"/>
												<polygon class="st10" points="133.24,123.13 132.66,107.73 140.96,111.23 141.54,126.63 												"/>
												<polygon class="st12" points="133.66,109.04 134.18,122.65 140.54,125.33 140.02,111.71 												"/>
												<polygon class="st9" points="134.76,109.5 135.24,122.24 140.5,124.45 140.54,125.33 134.18,122.65 133.66,109.04 
																									"/>
												<polygon class="st8" points="135.24,122.24 134.18,122.65 140.54,125.33 140.5,124.45 												"/>
											</g>
										</g>
									</g>
								</g>
							</g>
						</g>
					</g>
					<polygon class="st13" points="139.69,124.11 138.13,124.17 138.1,123.44 					"/>
					<g>
						<polygon class="st9" points="138.16,110.92 138.65,123.92 138.13,124.17 137.61,110.7 						"/>
						<polygon class="st10" points="137.61,110.7 138.13,124.17 137.13,123.75 136.62,110.28 						"/>
					</g>
				</g>
			</g>
			<g>
				<polygon class="st7" points="163.74,120.27 165.19,122.59 165.78,138.16 157.02,134.44 156.21,118.76 				"/>
				<g>
					<g>
						<polygon class="st8" points="154.61,132.84 156.03,132.17 164.33,135.67 162.91,136.35 						"/>
						<polygon class="st9" points="162.94,137.1 164.36,136.43 164.33,135.67 162.91,136.35 						"/>
						<polygon class="st10" points="154.64,133.6 154.61,132.84 162.91,136.35 162.94,137.1 						"/>
					</g>
					<g>
						<g>
							<g>
								<g>
									<g>
										<g>
											<g>
												<polygon class="st11" points="156.03,132.17 155.44,116.77 163.74,120.27 164.33,135.67 												"/>
												<polygon class="st8" points="154.91,117.02 155.44,116.77 163.74,120.27 163.21,120.52 												"/>
												<polygon class="st9" points="163.8,135.93 164.33,135.67 163.74,120.27 163.21,120.52 												"/>
												<polygon class="st10" points="155.5,132.42 154.91,117.02 163.21,120.52 163.8,135.93 												"/>
												<polygon class="st12" points="155.92,118.33 156.44,131.94 162.79,134.62 162.28,121 												"/>
												<polygon class="st9" points="157.02,118.79 157.5,131.53 162.76,133.74 162.79,134.62 156.44,131.94 155.92,118.33 
																									"/>
												<polygon class="st8" points="157.5,131.53 156.44,131.94 162.79,134.62 162.76,133.74 												"/>
											</g>
										</g>
									</g>
								</g>
							</g>
						</g>
					</g>
					<polygon class="st13" points="161.95,133.4 160.38,133.46 160.36,132.73 					"/>
					<g>
						<polygon class="st9" points="160.41,120.22 160.91,133.21 160.38,133.46 159.87,119.99 						"/>
						<polygon class="st10" points="159.87,119.99 160.38,133.46 159.39,133.04 158.87,119.57 						"/>
					</g>
				</g>
			</g>
			<polygon class="st14" points="176.34,179.6 176.23,176.8 251.67,137.92 251.78,140.72 			"/>
			<g>
				<polygon class="st15" points="220.85,156.69 219.93,131.86 218.91,130.21 220.06,157.08 				"/>
				<g id="XMLID_17774_">
					<g id="XMLID_17815_">
						<g id="XMLID_17821_">
							<g id="XMLID_17826_">
								<polygon id="XMLID_17835_" class="st16" points="208.53,136.25 209.31,136.57 210.28,162.09 209.5,161.77 								"/>
								<polygon id="XMLID_17834_" class="st9" points="209.31,136.57 218.08,132.03 219.05,157.57 210.28,162.11 								"/>
								<g id="XMLID_17831_">
									<polygon id="XMLID_17833_" class="st17" points="210.51,137.57 216.98,134.34 217.35,144.17 210.89,147.4 									"/>
									<polygon id="XMLID_17832_" class="st8" points="216.67,134.5 217.04,144.04 210.88,147.11 210.89,147.4 217.35,144.17 
										216.98,134.34 									"/>
								</g>
								<g id="XMLID_17828_">
									<polygon id="XMLID_17830_" class="st17" points="210.98,149.72 217.44,146.5 217.81,156.27 211.35,159.5 									"/>
									<polygon id="XMLID_17829_" class="st8" points="217.14,146.65 217.5,156.14 211.34,159.21 211.35,159.5 217.81,156.27 
										217.44,146.5 									"/>
								</g>
								<polygon id="XMLID_17827_" class="st18" points="217.3,131.74 218.08,132.06 209.31,136.57 208.53,136.25 								"/>
							</g>
							<polygon id="XMLID_17825_" class="st10" points="216.67,134.5 217.04,144.04 217.35,144.17 216.98,134.34 							"/>
							<polygon id="XMLID_17824_" class="st10" points="211.13,138.33 211.4,145.48 211.72,145.62 211.45,138.47 							"/>
							<polygon id="XMLID_17823_" class="st8" points="211.13,138.33 215.83,135.99 216.15,136.12 211.45,138.47 							"/>
							<polygon id="XMLID_17822_" class="st10" points="217.14,146.65 217.5,156.14 217.81,156.27 217.44,146.5 							"/>
						</g>
						<g id="XMLID_17817_">
							<polygon id="XMLID_17820_" class="st9" points="219.47,130.57 220.5,157.44 220.05,157.68 219.75,157.83 219.73,157.84 
								219.04,157.57 219.71,157.23 218.74,131.71 218.04,132.08 209.3,136.65 210.32,162.77 209.53,163.2 208.51,136.32 							"/>
							<polygon id="XMLID_17819_" class="st10" points="207.76,135.98 208.51,136.32 209.53,163.21 208.78,162.88 							"/>
							<polygon id="XMLID_17818_" class="st8" points="218.72,130.23 219.47,130.57 208.51,136.32 207.76,136 							"/>
						</g>
						<polygon id="XMLID_17816_" class="st10" points="219.75,157.83 219.73,157.84 219.04,157.57 219.01,157.56 218.04,132.06 
							218.74,131.7 						"/>
					</g>
					<g id="XMLID_17781_">
						<path id="XMLID_17814_" class="st19" d="M210.68,147.35l0.06,1.55l-0.03,1.1c0,0.07-0.05,0.14-0.12,0.18l-0.28,0.15
							l-0.09,0.04l-0.06,0.03c-0.03,0.02-0.07,0.02-0.1,0.01l-0.01,0l0,0c-0.03-0.01-0.05-0.04-0.05-0.07l-0.1-0.57l-0.08-1.99
							c0-0.08,0.04-0.15,0.12-0.19l0.57-0.3c0.03-0.02,0.07-0.02,0.1,0l0,0C210.66,147.29,210.68,147.32,210.68,147.35z"/>
						<polygon id="XMLID_17813_" class="st19" points="210.85,147.44 210.71,147.95 210.7,147.98 210.3,150.32 210.27,150.49 
							210.06,150.4 210.05,150.4 209.95,148.86 210.07,148.53 210.18,148.24 210.56,147.54 210.63,147.28 210.63,147.28 
							210.85,147.44 						"/>
						<path id="XMLID_17812_" class="st20" d="M210.91,147.51l0.06,1.48l-0.03,1.1c0,0.07-0.05,0.14-0.12,0.18l-0.42,0.22
							c-0.04,0.02-0.08,0.02-0.11,0c-0.03-0.01-0.05-0.04-0.05-0.07l-0.01-0.06l-0.09-0.52l-0.07-1.92
							c-0.01-0.08,0.04-0.15,0.12-0.19l0.39-0.2l0.13-0.07l0.06-0.03c0.03-0.02,0.07-0.02,0.1-0.01c0,0,0,0,0.01,0
							C210.88,147.45,210.9,147.48,210.91,147.51z"/>
						<path id="XMLID_17810_" class="st19" d="M210.91,147.51l0.03,0.86l-0.23-0.39l0,0l-0.5,0.77l-0.11,0.15l-0.22-0.09l-0.04-1.03
							c0-0.08,0.04-0.15,0.12-0.19l0.57-0.3c0.03-0.02,0.07-0.02,0.1,0l0,0l0.21,0.16c0,0,0,0,0.01,0
							C210.88,147.45,210.9,147.48,210.91,147.51z"/>
						<path id="XMLID_17809_" class="st21" d="M209.83,147.77l0.94,0.47l0.16-0.37l-0.01-0.36c0-0.03-0.02-0.06-0.05-0.07
							c0,0,0,0-0.01,0l-0.21-0.16l0,0c-0.03-0.01-0.07-0.01-0.1,0l-0.57,0.3C209.87,147.62,209.82,147.69,209.83,147.77
							L209.83,147.77z"/>
						<path id="XMLID_17808_" class="st22" d="M210.55,147.27c-0.01,0-0.01,0-0.02,0.01l-0.57,0.3c-0.01,0.01-0.03,0.02-0.04,0.02
							l0.66,0.35l0.23-0.49L210.55,147.27z"/>
						<path id="XMLID_17807_" class="st23" d="M210.85,147.44C210.85,147.44,210.85,147.44,210.85,147.44
							c-0.04-0.01-0.07-0.01-0.11,0l-0.06,0.03l-0.13,0.07l-0.39,0.2c-0.08,0.04-0.13,0.12-0.12,0.19l0.04,0.96l0.85-0.44
							l-0.04-0.94C210.9,147.48,210.88,147.45,210.85,147.44z"/>
						<path id="XMLID_17806_" class="st20" d="M210.08,147.93c0-0.07,0.04-0.14,0.11-0.17l0.57-0.3c0.01-0.01,0.02-0.01,0.04-0.01
							c0.01,0,0.02,0,0.03,0.01l0,0c0.02,0.01,0.04,0.03,0.04,0.05l0.04,0.93l-0.8,0.41L210.08,147.93z"/>
						<path id="XMLID_17805_" class="st20" d="M210.13,149.92l0.09,0.45l0.01,0.06c0,0.03,0.02,0.05,0.05,0.06
							c0.03,0.01,0.07,0.02,0.1,0l0.41-0.21c0.08-0.04,0.12-0.11,0.12-0.18l0.05-0.61l-0.03-0.78l-0.83,0.43L210.13,149.92z"/>
						<path id="XMLID_17801_" class="st19" d="M210.66,147.35c0.02-0.01,0.04-0.01,0.05-0.01l-0.04-0.03c-0.02,0-0.05,0-0.08,0.01
							l-0.57,0.3c-0.08,0.04-0.13,0.12-0.12,0.19l0.04,1.02l0.06,0.03l-0.04-1.02c0-0.08,0.04-0.15,0.12-0.19L210.66,147.35z"/>
						<path id="XMLID_17800_" class="st21" d="M210.68,147.31L210.68,147.31c-0.03,0-0.05,0-0.08,0.01l-0.57,0.3
							c-0.08,0.04-0.13,0.12-0.12,0.19l0.06,0.03l0,0c0-0.08,0.04-0.15,0.12-0.19l0.57-0.3c0.02-0.01,0.04-0.01,0.05-0.01
							L210.68,147.31z"/>
						<path id="XMLID_17799_" class="st22" d="M210.61,147.32C210.61,147.32,210.6,147.32,210.61,147.32l-0.58,0.3
							c-0.01,0.01-0.03,0.01-0.04,0.02l0.06,0.03c0.01-0.01,0.02-0.02,0.04-0.02l0.57-0.29L210.61,147.32z"/>
						<g id="XMLID_17782_">
							<g id="XMLID_17792_">
								<g id="XMLID_17794_">
									<path id="XMLID_17798_" class="st24" d="M210.55,149.76l-0.11-0.04c-0.06-0.03-0.08-0.1-0.06-0.19
										c0-0.01,0.01-0.02,0.01-0.03c0,0,0-0.01,0-0.01c0,0,0-0.01,0-0.01c0,0,0-0.01,0-0.01c0-0.01,0.01-0.02,0.01-0.02
										c0,0,0-0.01,0.01-0.01c0-0.01,0.01-0.01,0.01-0.02c0-0.01,0.01-0.01,0.01-0.02c0,0,0-0.01,0.01-0.01
										c0.01-0.01,0.01-0.01,0.02-0.02c0,0,0-0.01,0.01-0.01c0,0,0-0.01,0.01-0.01c0,0,0.01-0.01,0.01-0.01
										c0.01-0.01,0.02-0.02,0.03-0.02c0,0,0.01-0.01,0.01-0.01c0.01-0.01,0.02-0.01,0.03-0.02c0,0,0.01,0,0.01-0.01
										c0.01,0,0.02-0.01,0.02-0.01c0,0,0.01,0,0.01-0.01c0.01-0.01,0.02-0.01,0.03-0.01c0,0,0.01,0,0.01,0c0.01,0,0.01,0,0.02,0
										c0.01,0,0.01,0,0.02,0c0,0,0.01,0,0.01,0c0,0,0.01,0,0.01,0c0,0,0,0,0,0c0,0,0,0,0.01,0l0,0c0.01,0,0.02,0,0.03,0.01
										l0.11,0.04c0.05,0.02,0.08,0.08,0.07,0.16c0,0.01,0,0.02,0,0.03c0,0,0,0.01,0,0.01c-0.01,0.04-0.03,0.07-0.05,0.11
										c-0.02,0.04-0.05,0.07-0.08,0.1C210.71,149.75,210.62,149.79,210.55,149.76z"/>
									<path id="XMLID_17797_" class="st25" d="M210.79,149.69C210.79,149.69,210.79,149.68,210.79,149.69l-0.4-0.17c0,0,0,0,0,0
										c-0.02,0.09,0,0.17,0.06,0.19l0.11,0.04C210.62,149.79,210.71,149.75,210.79,149.69z"/>
									<path id="XMLID_17796_" class="st26" d="M210.89,149.55c0.01-0.02,0.03-0.05,0.03-0.07c0,0,0-0.01,0-0.01
										c0-0.01,0-0.02,0-0.03c0.01-0.07-0.01-0.13-0.07-0.16l-0.11-0.04c-0.01,0-0.02-0.01-0.03-0.01l0,0c0,0-0.01,0-0.01,0
										c0,0,0,0,0,0c-0.01,0-0.01,0-0.01,0c0,0-0.01,0-0.01,0c-0.01,0-0.01,0-0.02,0c-0.01,0-0.01,0-0.02,0c0,0-0.01,0-0.01,0
										c-0.01,0-0.02,0.01-0.03,0.01c0,0-0.01,0-0.01,0.01c-0.01,0-0.02,0.01-0.02,0.01c0,0-0.01,0-0.01,0.01
										c-0.01,0.01-0.02,0.01-0.03,0.02c0,0-0.01,0.01-0.01,0.01c-0.01,0.01-0.02,0.01-0.03,0.02c0,0-0.01,0.01-0.01,0.01
										c0,0,0,0-0.01,0.01c0,0-0.01,0.01-0.01,0.01c0,0-0.01,0.01-0.01,0.01L210.89,149.55z"/>
									<path id="XMLID_17795_" class="st27" d="M210.93,149.4c0-0.05-0.02-0.1-0.06-0.12l-0.11-0.04c-0.01,0-0.02-0.01-0.03-0.01
										l0,0c0,0-0.01,0-0.01,0c0,0,0,0,0,0c-0.01,0-0.01,0-0.01,0c0,0-0.01,0-0.01,0c-0.01,0-0.01,0-0.02,0c-0.01,0-0.01,0-0.02,0
										c0,0-0.01,0-0.01,0c-0.01,0-0.02,0.01-0.03,0.01c0,0-0.01,0-0.01,0.01c0,0,0,0,0,0L210.93,149.4z"/>
								</g>
								<path id="XMLID_17793_" class="st24" d="M210.57,149.76c0.09,0.04,0.23-0.04,0.32-0.17c0.09-0.13,0.08-0.27-0.01-0.31
									c-0.09-0.04-0.23,0.04-0.32,0.17C210.47,149.59,210.48,149.72,210.57,149.76z"/>
							</g>
							<g id="XMLID_17783_">
								<path id="XMLID_17791_" class="st28" d="M210.88,149.29c-0.03-0.01-0.07-0.01-0.11,0l0.02,0.41
									c0.04-0.03,0.07-0.06,0.1-0.11C210.98,149.47,210.97,149.33,210.88,149.29z"/>
								<path id="XMLID_17790_" class="st29" d="M210.58,149.42l0.05,0.11l0.28-0.14l-0.06-0.11
									C210.85,149.28,210.7,149.25,210.58,149.42z"/>
								<path id="XMLID_17789_" class="st28" d="M210.64,149.53l0.01,0.15l-0.09,0.08c0,0-0.07-0.04-0.06-0.14
									c0.01-0.12,0.09-0.2,0.09-0.2L210.64,149.53z"/>
								<g id="XMLID_17784_">
									<path id="XMLID_17788_" class="st30" d="M212.7,148.93c-0.04,0.01-0.06,0.04-0.08,0.07c-0.09-0.03-0.2-0.02-0.28,0.02
										l-1.1,0.57c-0.05,0.03-0.12,0.03-0.17,0.01l-0.43-0.06l0.01,0.15l0.26,0.1c0.19,0.07,0.41,0.07,0.59-0.02l1.16-0.6
										c0.04-0.02,0.06-0.05,0.05-0.08l0,0L212.7,148.93z"/>
									<path id="XMLID_17787_" class="st31" d="M211.04,149.82c0.11,0.02,0.22,0.02,0.33-0.01l-0.01-0.19l-0.33,0.01
										L211.04,149.82z"/>
									<path id="XMLID_17786_" class="st19" d="M211.03,149.59l-0.39-0.05l0.01,0.15l0.26,0.1c0.04,0.02,0.09,0.03,0.13,0.04
										L211.03,149.59z"/>
									<path id="XMLID_17785_" class="st29" d="M210.64,149.53l0.26,0.1c0.19,0.07,0.41,0.07,0.59-0.02l1.16-0.6
										c0.07-0.04,0.07-0.13-0.01-0.16l0,0c-0.1-0.04-0.22-0.04-0.31,0.01l-1.1,0.57c-0.05,0.03-0.12,0.03-0.17,0.01l-0.14-0.06
										L210.64,149.53z"/>
								</g>
							</g>
						</g>
					</g>
					<g id="XMLID_17779_">
						<polygon id="XMLID_17780_" class="st9" points="211.45,138.47 216.15,136.12 216.42,143.27 211.72,145.62 						"/>
					</g>
					<polygon id="XMLID_17778_" class="st10" points="211.59,150.53 211.87,157.69 212.18,157.82 211.91,150.67 					"/>
					<polygon id="XMLID_17777_" class="st8" points="211.59,150.53 216.3,148.19 216.61,148.32 211.91,150.67 					"/>
					<g id="XMLID_17775_">
						<polygon id="XMLID_17776_" class="st9" points="211.91,150.67 216.61,148.32 216.89,155.47 212.18,157.82 						"/>
					</g>
				</g>
			</g>
			<g>
				<polygon class="st15" points="195.35,143.2 196.66,144.47 197.46,160.67 186.94,166.16 184.43,165.4 				"/>
				<g>
					<g>
						<polygon class="st8" points="197.41,159.28 195.94,158.71 184.4,164.64 185.87,165.21 						"/>
						<polygon class="st10" points="185.9,165.97 184.43,165.4 184.4,164.64 185.87,165.21 						"/>
						<polygon class="st9" points="197.44,160.04 197.41,159.28 185.87,165.21 185.9,165.97 						"/>
					</g>
					<g>
						<g>
							<g>
								<g>
									<g>
										<g>
											<g>
												<polygon class="st11" points="195.94,158.71 195.35,143.2 183.81,149.13 184.4,164.64 												"/>
												<polygon class="st8" points="195.89,143.41 195.35,143.2 183.81,149.13 184.36,149.34 												"/>
												<polygon class="st10" points="184.95,164.86 184.4,164.64 183.81,149.13 184.36,149.34 												"/>
												<polygon class="st9" points="196.49,158.93 195.89,143.41 184.36,149.34 184.95,164.86 												"/>
												<polygon class="st32" points="194.98,144.8 195.5,158.51 185.86,163.46 185.34,149.75 												"/>
												<polygon class="st10" points="193.92,145.35 194.41,158.18 185.82,162.58 185.86,163.46 195.51,158.51 194.98,144.8 
																									"/>
												<polygon class="st8" points="195.51,158.52 192.94,159.83 190.66,161 185.86,163.46 185.83,162.58 190.32,160.28 
													191.05,159.9 194.41,158.18 												"/>
												<polygon class="st10" points="192.94,159.83 190.66,161 190.35,161.01 190.31,159.93 												"/>
											</g>
										</g>
									</g>
								</g>
							</g>
						</g>
					</g>
					<g>
						<polygon class="st10" points="189.3,147.71 189.8,160.8 190.35,161.01 189.83,147.44 						"/>
						<polygon class="st9" points="189.83,147.44 190.35,161.01 191.32,160.51 190.8,146.94 						"/>
					</g>
				</g>
			</g>
			<g>
				<polygon class="st15" points="243.42,118.45 244.74,119.73 245.53,135.92 235.02,141.42 232.51,140.65 				"/>
				<g>
					<g>
						<polygon class="st8" points="245.48,134.53 244.01,133.96 232.47,139.89 233.94,140.46 						"/>
						<polygon class="st10" points="233.97,141.22 232.5,140.65 232.47,139.89 233.94,140.46 						"/>
						<polygon class="st9" points="245.51,135.29 245.48,134.53 233.94,140.46 233.97,141.22 						"/>
					</g>
					<g>
						<g>
							<g>
								<g>
									<g>
										<g>
											<g>
												<polygon class="st11" points="244.01,133.96 243.42,118.45 231.88,124.38 232.47,139.89 												"/>
												<polygon class="st8" points="243.97,118.66 243.42,118.45 231.88,124.38 232.43,124.59 												"/>
												<polygon class="st10" points="233.02,140.1 232.47,139.89 231.88,124.38 232.43,124.59 												"/>
												<polygon class="st9" points="244.56,134.18 243.97,118.66 232.43,124.59 233.02,140.1 												"/>
												<polygon class="st32" points="243.05,120.05 243.58,133.76 233.93,138.71 233.41,125 												"/>
												<polygon class="st10" points="241.99,120.6 242.48,133.43 233.89,137.83 233.93,138.71 243.58,133.76 243.05,120.05 
																									"/>
												<polygon class="st8" points="243.58,133.76 241.01,135.08 238.74,136.25 233.93,138.71 233.9,137.83 238.39,135.53 
													239.12,135.15 242.48,133.43 												"/>
												<polygon class="st10" points="241.01,135.08 238.74,136.25 238.42,136.26 238.38,135.18 												"/>
											</g>
										</g>
									</g>
								</g>
							</g>
						</g>
					</g>
					<g>
						<polygon class="st10" points="237.37,122.96 237.87,136.05 238.42,136.26 237.9,122.69 						"/>
						<polygon class="st9" points="237.9,122.69 238.42,136.26 239.39,135.76 238.87,122.19 						"/>
					</g>
				</g>
			</g>
			<polygon class="st15" points="124.94,126.72 148.77,122.64 175.21,150.01 174.25,124.78 148.54,98.11 124.06,103.46 			"/>
			<g>
				<polygon class="st7" points="143.13,139.91 144.57,142.23 145.17,157.8 136.41,154.08 135.6,138.4 				"/>
				<g>
					<g>
						<polygon class="st8" points="130.43,150.99 131.84,150.31 143.72,155.31 142.3,155.99 						"/>
						<polygon class="st9" points="142.33,156.74 143.74,156.06 143.72,155.31 142.3,155.99 						"/>
						<polygon class="st10" points="130.46,151.74 130.43,150.99 142.3,155.99 142.33,156.74 						"/>
					</g>
					<g>
						<g>
							<g>
								<g>
									<g>
										<g>
											<g>
												<polygon class="st11" points="131.84,150.31 131.26,134.91 143.13,139.91 143.72,155.31 												"/>
												<polygon class="st8" points="130.73,135.16 131.26,134.91 143.13,139.91 142.6,140.16 												"/>
												<polygon class="st9" points="143.19,155.56 143.72,155.31 143.13,139.91 142.6,140.16 												"/>
												<polygon class="st10" points="131.32,150.56 130.73,135.16 142.6,140.16 143.19,155.56 												"/>
												<polygon class="st12" points="131.74,136.47 132.26,150.08 142.18,154.26 141.66,140.64 												"/>
												<polygon class="st9" points="132.83,136.93 133.32,149.67 142.15,153.38 142.18,154.26 132.26,150.08 131.74,136.47 
																									"/>
												<polygon class="st8" points="133.32,149.67 132.26,150.08 142.18,154.26 142.15,153.38 												"/>
											</g>
										</g>
									</g>
								</g>
							</g>
						</g>
					</g>
					<polygon class="st13" points="139.12,152.11 137.55,152.16 137.52,151.43 					"/>
					<g>
						<polygon class="st9" points="137.58,138.92 138.07,151.91 137.55,152.17 137.04,138.69 						"/>
						<polygon class="st10" points="137.04,138.69 137.55,152.17 136.55,151.75 136.04,138.27 						"/>
					</g>
				</g>
			</g>
			<g>
				<polygon class="st7" points="164.94,149.2 166.39,151.52 166.98,167.09 158.22,163.37 157.41,147.69 				"/>
				<g>
					<g>
						<polygon class="st8" points="152.24,160.28 153.66,159.6 165.53,164.6 164.11,165.28 						"/>
						<polygon class="st9" points="164.14,166.03 165.56,165.35 165.53,164.6 164.11,165.28 						"/>
						<polygon class="st10" points="152.27,161.03 152.24,160.28 164.11,165.28 164.14,166.03 						"/>
					</g>
					<g>
						<g>
							<g>
								<g>
									<g>
										<g>
											<g>
												<polygon class="st11" points="153.66,159.6 153.07,144.2 164.94,149.2 165.53,164.6 												"/>
												<polygon class="st8" points="152.54,144.45 153.07,144.2 164.94,149.2 164.42,149.45 												"/>
												<polygon class="st9" points="165,164.85 165.53,164.6 164.94,149.2 164.42,149.45 												"/>
												<polygon class="st10" points="153.13,159.86 152.54,144.45 164.42,149.45 165,164.85 												"/>
												<polygon class="st12" points="153.55,145.76 154.07,159.37 163.99,163.55 163.48,149.93 												"/>
												<polygon class="st9" points="154.65,146.22 155.13,158.96 163.96,162.67 163.99,163.55 154.07,159.37 153.55,145.76 
																									"/>
												<polygon class="st8" points="155.13,158.96 154.07,159.37 163.99,163.55 163.96,162.67 												"/>
											</g>
										</g>
									</g>
								</g>
							</g>
						</g>
					</g>
					<polygon class="st13" points="160.93,161.4 159.36,161.46 159.34,160.72 					"/>
					<g>
						<polygon class="st9" points="159.39,148.21 159.89,161.2 159.36,161.46 158.85,147.98 						"/>
						<polygon class="st10" points="158.85,147.98 159.36,161.46 158.37,161.04 157.85,147.56 						"/>
					</g>
				</g>
			</g>
			<polygon class="st15" points="175.21,150.01 250.6,111.09 250.46,106.62 174.75,138.62 			"/>
		</g>
		<polygon class="st15" points="174.46,130.23 177.97,128.64 174.25,124.78 		"/>
		<polygon class="st33" points="176.34,179.59 176.23,176.79 126.04,155.59 126.15,158.39 		"/>
		<g>
			<g>
				<polygon class="st34" points="108,164.98 158.27,186.09 176.23,176.79 126.06,155.65 				"/>
				<g>
					<polygon class="st33" points="129.58,157.14 126.43,157.26 126.38,155.9 126.62,155.89 					"/>
					<polygon class="st33" points="133.59,158.82 122.57,159.24 122.52,157.89 130.64,157.58 					"/>
					
						<rect x="118.63" y="159.69" transform="matrix(0.9993 -0.0381 0.0381 0.9993 -6.0131 4.8485)" class="st33" width="11.44" height="1.36"/>
					
						<rect x="114.75" y="161.72" transform="matrix(0.9993 -0.0381 0.0381 0.9993 -6.0936 4.672)" class="st33" width="9.84" height="1.36"/>
					
						<rect x="110.89" y="163.65" transform="matrix(0.9993 -0.0381 0.0381 0.9993 -6.1682 4.6017)" class="st33" width="13.8" height="1.36"/>
					
						<rect x="115.62" y="165.63" transform="matrix(0.9993 -0.0381 0.0381 0.9993 -6.2403 4.7794)" class="st33" width="13.61" height="1.36"/>
					
						<rect x="120.33" y="167.62" transform="matrix(0.9993 -0.0381 0.0381 0.9993 -6.3126 4.9674)" class="st33" width="13.99" height="1.36"/>
					
						<rect x="125.09" y="169.58" transform="matrix(0.9993 -0.0381 0.0381 0.9993 -6.3839 5.1427)" class="st33" width="13.61" height="1.36"/>
					
						<rect x="129.82" y="171.54" transform="matrix(0.9993 -0.0381 0.0381 0.9993 -6.455 5.3212)" class="st33" width="13.46" height="1.36"/>
					
						<rect x="134.54" y="173.56" transform="matrix(0.9993 -0.0381 0.0381 0.9993 -6.5284 5.5053)" class="st33" width="13.62" height="1.36"/>
					
						<rect x="139.29" y="175.53" transform="matrix(0.9993 -0.0381 0.0381 0.9993 -6.5998 5.6845)" class="st33" width="13.46" height="1.36"/>
					
						<rect x="143.99" y="177.51" transform="matrix(0.9993 -0.0381 0.0381 0.9993 -6.6719 5.8638)" class="st33" width="13.4" height="1.36"/>
					
						<rect x="148.72" y="179.52" transform="matrix(0.9993 -0.0381 0.0381 0.9993 -6.7452 6.0329)" class="st33" width="12.76" height="1.36"/>
					
						<rect x="153.49" y="181.57" transform="matrix(0.9993 -0.0381 0.0381 0.9993 -6.8213 6.1433)" class="st33" width="8.95" height="1.36"/>
					<polygon class="st33" points="163.14,183.57 160.29,185.04 158.26,185.11 158.21,183.76 					"/>
					<polygon class="st33" points="167.12,181.51 164.28,182.98 162.15,183.06 162.1,181.7 					"/>
					<polygon class="st33" points="171.01,179.5 168.16,180.97 166,181.05 165.95,179.69 					"/>
					<polygon class="st33" points="174.82,177.53 171.97,179 169.93,179.08 169.87,177.72 					"/>
					<polygon class="st33" points="176.23,176.8 175.84,177 173.8,177.08 173.75,175.75 					"/>
				</g>
				<polygon class="st33" points="108.11,167.78 108,164.99 158.27,186.09 158.38,188.89 				"/>
				<polygon class="st14" points="158.38,188.89 158.27,186.09 176.23,176.8 176.34,179.6 				"/>
			</g>
			<g>
				<g>
					<polygon class="st33" points="161.71,171.58 160.63,171.12 161.66,170.59 162.74,171.05 					"/>
					<polygon class="st35" points="162.14,183.06 163.17,182.53 162.74,171.05 161.71,171.58 					"/>
					<polygon class="st36" points="161.07,182.6 162.14,183.06 161.71,171.58 160.63,171.12 					"/>
				</g>
				<g>
					<polygon class="st33" points="165.59,169.57 164.51,169.12 165.54,168.59 166.62,169.04 					"/>
					<polygon class="st35" points="166.03,181.05 167.06,180.52 166.62,169.04 165.59,169.57 					"/>
					<polygon class="st36" points="164.95,180.6 166.03,181.05 165.59,169.57 164.51,169.12 					"/>
				</g>
				<g>
					<polygon class="st33" points="169.47,167.57 168.4,167.12 169.43,166.59 170.5,167.04 					"/>
					<polygon class="st35" points="169.91,179.05 170.94,178.52 170.5,167.04 169.47,167.57 					"/>
					<polygon class="st36" points="168.83,178.6 169.91,179.05 169.47,167.57 168.4,167.12 					"/>
				</g>
				<g>
					<polygon class="st33" points="173.35,165.57 172.28,165.11 173.31,164.58 174.38,165.04 					"/>
					<polygon class="st35" points="173.79,177.05 174.82,176.52 174.38,165.04 173.35,165.57 					"/>
					<polygon class="st36" points="172.72,176.59 173.79,177.05 173.35,165.57 172.28,165.11 					"/>
				</g>
				<g>
					<polygon class="st33" points="114.35,151.78 113.27,151.33 114.3,150.8 115.38,151.25 					"/>
					<polygon class="st35" points="114.78,163.26 115.81,162.73 115.38,151.25 114.35,151.78 					"/>
					<polygon class="st36" points="113.71,162.81 114.78,163.26 114.35,151.78 113.27,151.33 					"/>
				</g>
				<g>
					<polygon class="st33" points="118.23,149.78 117.15,149.33 118.18,148.8 119.26,149.25 					"/>
					<polygon class="st35" points="118.67,161.26 119.7,160.73 119.26,149.25 118.23,149.78 					"/>
					<polygon class="st36" points="117.59,160.81 118.67,161.26 118.23,149.78 117.15,149.33 					"/>
				</g>
				<g>
					<polygon class="st33" points="122.11,147.78 121.04,147.32 122.07,146.79 123.14,147.25 					"/>
					<polygon class="st35" points="122.55,159.26 123.58,158.73 123.14,147.25 122.11,147.78 					"/>
					<polygon class="st36" points="121.47,158.8 122.55,159.26 122.11,147.78 121.04,147.32 					"/>
				</g>
				<g>
					<polygon class="st33" points="125.99,145.77 124.92,145.32 125.95,144.79 127.02,145.24 					"/>
					<polygon class="st35" points="126.43,157.25 127.46,156.72 127.02,145.24 125.99,145.77 					"/>
					<polygon class="st36" points="125.36,156.8 126.43,157.25 125.99,145.77 124.92,145.32 					"/>
				</g>
				<g>
					<g>
						<polygon class="st33" points="157.82,173.58 156.75,173.13 157.78,172.6 158.85,173.05 						"/>
						<polygon class="st35" points="158.26,185.06 159.29,184.53 158.85,173.05 157.82,173.58 						"/>
						<polygon class="st36" points="157.19,184.61 158.26,185.06 157.82,173.58 156.75,173.13 						"/>
					</g>
					<g>
						<polygon class="st33" points="153.09,171.6 152.01,171.15 153.04,170.62 154.12,171.07 						"/>
						<polygon class="st35" points="153.53,183.08 154.56,182.55 154.12,171.07 153.09,171.6 						"/>
						<polygon class="st36" points="152.45,182.63 153.53,183.08 153.09,171.6 152.01,171.15 						"/>
					</g>
					<g>
						<polygon class="st33" points="148.35,169.62 147.28,169.17 148.31,168.64 149.38,169.09 						"/>
						<polygon class="st35" points="148.79,181.1 149.82,180.57 149.38,169.09 148.35,169.62 						"/>
						<polygon class="st36" points="147.71,180.65 148.79,181.1 148.35,169.62 147.28,169.17 						"/>
					</g>
					<g>
						<polygon class="st33" points="143.62,167.64 142.54,167.19 143.57,166.66 144.65,167.11 						"/>
						<polygon class="st35" points="144.05,179.12 145.08,178.59 144.65,167.11 143.62,167.64 						"/>
						<polygon class="st36" points="142.98,178.67 144.05,179.12 143.62,167.64 142.54,167.19 						"/>
					</g>
					<g>
						<polygon class="st33" points="138.88,165.66 137.81,165.21 138.84,164.68 139.91,165.13 						"/>
						<polygon class="st35" points="139.32,177.14 140.35,176.61 139.91,165.13 138.88,165.66 						"/>
						<polygon class="st36" points="138.24,176.69 139.32,177.14 138.88,165.66 137.81,165.21 						"/>
					</g>
					<g>
						<polygon class="st33" points="134.14,163.68 133.07,163.23 134.1,162.7 135.18,163.15 						"/>
						<polygon class="st35" points="134.58,175.16 135.61,174.63 135.18,163.15 134.14,163.68 						"/>
						<polygon class="st36" points="133.51,174.71 134.58,175.16 134.14,163.68 133.07,163.23 						"/>
					</g>
					<g>
						<polygon class="st33" points="129.41,161.7 128.33,161.25 129.36,160.72 130.44,161.17 						"/>
						<polygon class="st35" points="129.85,173.18 130.88,172.65 130.44,161.17 129.41,161.7 						"/>
						<polygon class="st36" points="128.77,172.73 129.85,173.18 129.41,161.7 128.33,161.25 						"/>
					</g>
					<g>
						<polygon class="st33" points="124.67,159.72 123.6,159.27 124.63,158.74 125.7,159.19 						"/>
						<polygon class="st35" points="125.11,171.2 126.14,170.67 125.7,159.19 124.67,159.72 						"/>
						<polygon class="st36" points="124.03,170.75 125.11,171.2 124.67,159.72 123.6,159.27 						"/>
					</g>
					<g>
						<polygon class="st33" points="119.94,157.75 118.86,157.29 119.89,156.76 120.97,157.21 						"/>
						<polygon class="st35" points="120.37,169.23 121.4,168.69 120.97,157.21 119.94,157.75 						"/>
						<polygon class="st36" points="119.3,168.77 120.37,169.23 119.94,157.75 118.86,157.29 						"/>
					</g>
					<g>
						<polygon class="st33" points="115.2,155.77 114.13,155.31 115.16,154.78 116.23,155.24 						"/>
						<polygon class="st35" points="115.64,167.25 116.67,166.71 116.23,155.24 115.2,155.77 						"/>
						<polygon class="st36" points="114.56,166.79 115.64,167.25 115.2,155.77 114.13,155.31 						"/>
					</g>
					<g>
						<polygon class="st33" points="110.46,153.79 109.39,153.33 110.42,152.8 111.5,153.26 						"/>
						<polygon class="st35" points="110.9,165.27 111.93,164.74 111.5,153.26 110.46,153.79 						"/>
						<polygon class="st36" points="109.83,164.81 110.9,165.27 110.46,153.79 109.39,153.33 						"/>
					</g>
				</g>
				<g>
					<g>
						<polygon class="st35" points="157.83,173.66 157.88,175.21 155.92,174.37 155.86,172.83 						"/>
						<polygon class="st33" points="175.37,164.59 173.41,163.76 155.86,172.83 157.83,173.66 						"/>
						<polygon class="st35" points="175.43,166.13 175.37,164.59 157.83,173.66 157.88,175.21 						"/>
					</g>
					<g>
						<polygon class="st35" points="110.38,153.8 110.43,155.34 108.47,154.5 108.41,152.96 						"/>
						<polygon class="st33" points="127.92,144.73 125.96,143.89 108.41,152.96 110.38,153.8 						"/>
						<polygon class="st35" points="127.98,146.27 127.92,144.73 110.38,153.8 110.43,155.34 						"/>
					</g>
					<g>
						<polygon class="st35" points="157.79,173.69 157.85,175.23 160.71,173.76 160.65,172.22 						"/>
						<polygon class="st33" points="108.4,152.95 111.26,151.48 160.65,172.22 157.79,173.69 						"/>
						<polygon class="st36" points="108.46,154.49 108.4,152.95 157.79,173.69 157.85,175.23 						"/>
					</g>
				</g>
			</g>
		</g>
		<g>
			<g>
				<g>
					<polygon class="st37" points="138.06,96.97 220.94,54.25 262.11,96.97 179.22,139.69 					"/>
					<polygon class="st10" points="102.94,104.71 185.83,61.99 220.94,54.25 138.06,96.97 					"/>
					<polygon class="st38" points="102.94,104.71 185.83,61.99 220.94,54.25 138.06,96.97 					"/>
				</g>
				<polygon class="st39" points="179.36,143.36 179.22,139.69 138.06,96.97 138.2,100.63 				"/>
				<polygon class="st40" points="262.11,96.97 262.25,100.63 179.36,143.36 179.22,139.69 				"/>
				<polygon class="st39" points="103.08,108.38 102.94,104.71 138.06,96.97 138.2,100.63 				"/>
			</g>
			<g>
				<g>
					<polygon class="st41" points="182.08,138.24 179.24,139.7 138.07,96.99 140.91,95.52 					"/>
					<polygon class="st41" points="187.08,135.66 184.24,137.12 143.07,94.41 145.92,92.94 					"/>
					<polygon class="st41" points="192.08,133.08 189.24,134.54 148.08,91.83 150.92,90.36 					"/>
					<polygon class="st41" points="197.08,130.5 194.24,131.96 153.08,89.25 155.92,87.78 					"/>
					<polygon class="st41" points="202.09,127.92 199.24,129.38 158.08,86.67 160.92,85.2 					"/>
					<polygon class="st41" points="207.09,125.34 204.25,126.8 163.08,84.09 165.92,82.62 					"/>
					<polygon class="st41" points="212.09,122.76 209.25,124.22 168.09,81.51 170.93,80.04 					"/>
					<polygon class="st41" points="217.09,120.18 214.25,121.64 173.09,78.93 175.93,77.46 					"/>
					<polygon class="st41" points="222.09,117.6 219.25,119.07 178.09,76.35 180.93,74.88 					"/>
					<polygon class="st41" points="227.1,115.02 224.26,116.49 183.09,73.77 185.93,72.3 					"/>
					<polygon class="st41" points="232.1,112.44 229.26,113.91 188.09,71.19 190.94,69.73 					"/>
					<polygon class="st41" points="237.1,109.86 234.26,111.33 193.1,68.61 195.94,67.15 					"/>
					<polygon class="st41" points="242.1,107.28 239.26,108.75 198.1,66.03 200.94,64.57 					"/>
					<polygon class="st41" points="247.11,104.7 244.26,106.17 203.1,63.45 205.94,61.99 					"/>
					<polygon class="st41" points="252.11,102.12 249.27,103.59 208.1,60.87 210.94,59.41 					"/>
					<polygon class="st41" points="257.11,99.54 254.27,101.01 213.1,58.29 215.95,56.83 					"/>
					<polygon class="st41" points="262.11,96.96 259.27,98.43 218.11,55.71 220.95,54.25 					"/>
				</g>
			</g>
			<g>
				<g>
					<polygon class="st42" points="140.95,95.49 138.12,96.95 103.02,104.69 105.84,103.23 105.84,103.23 					"/>
					<polygon class="st42" points="145.95,92.91 143.12,94.37 108.01,102.11 110.84,100.65 110.84,100.65 					"/>
					<polygon class="st42" points="150.95,90.33 148.12,91.79 113.01,99.53 115.84,98.08 115.84,98.08 					"/>
					<polygon class="st42" points="155.95,87.76 153.12,89.21 118.01,96.96 120.84,95.5 120.84,95.5 					"/>
					<polygon class="st42" points="160.95,85.18 158.12,86.64 123.01,94.38 125.84,92.92 125.84,92.92 					"/>
					<polygon class="st42" points="165.95,82.6 163.12,84.06 128.01,91.8 130.84,90.34 130.84,90.34 					"/>
					<polygon class="st42" points="170.95,80.02 168.12,81.48 133.01,89.22 135.84,87.77 135.84,87.77 					"/>
					<polygon class="st42" points="175.95,77.44 173.12,78.9 138.01,86.65 140.84,85.19 140.84,85.19 					"/>
					<polygon class="st42" points="180.95,74.87 178.12,76.32 143.01,84.07 145.84,82.61 145.84,82.61 					"/>
					<polygon class="st42" points="185.95,72.29 183.12,73.75 148.01,81.49 150.84,80.03 150.84,80.03 					"/>
					<polygon class="st42" points="190.95,69.71 188.12,71.17 153.01,78.91 155.84,77.46 155.84,77.46 					"/>
					<polygon class="st42" points="195.95,67.13 193.12,68.59 158.01,76.34 160.84,74.88 160.84,74.88 					"/>
					<polygon class="st42" points="200.95,64.56 198.12,66.01 163.01,73.76 165.84,72.3 165.84,72.3 					"/>
					<polygon class="st42" points="205.95,61.98 203.12,63.44 168.01,71.18 170.84,69.72 170.84,69.72 					"/>
					<polygon class="st42" points="210.95,59.4 208.12,60.86 173.01,68.6 175.84,67.14 175.84,67.14 					"/>
					<polygon class="st42" points="215.94,56.82 213.12,58.28 178.01,66.02 180.84,64.57 180.84,64.57 					"/>
					<polygon class="st42" points="220.94,54.25 218.12,55.7 183.01,63.45 185.84,61.99 185.84,61.99 					"/>
				</g>
			</g>
		</g>
		<g>
			<polygon class="st15" points="168.62,100.04 186.55,99.25 187.72,95.54 181.84,91.34 168.31,91.86 			"/>
			<g>
				<g>
					<polygon class="st3" points="168.31,91.86 163.06,89.64 168.1,87.05 173.34,89.26 					"/>
					<polygon class="st1" points="171.84,89.32 168.28,91.16 168.26,91.15 164.58,89.58 168.12,87.76 168.14,87.77 					"/>
					<polygon class="st4" points="171.84,89.32 168.28,91.16 168.26,91.15 168.14,87.77 					"/>
					<polygon class="st1" points="168.62,100.04 173.65,97.44 173.34,89.26 168.31,91.86 					"/>
					<polygon class="st4" points="163.25,94.45 168.62,100.04 168.31,91.86 163.06,89.64 					"/>
				</g>
				<g>
					<polygon class="st43" points="168.16,87.76 167.42,87.45 168.13,87.09 168.87,87.4 					"/>
					<polygon class="st15" points="168.31,91.86 169.02,91.49 168.87,87.4 168.16,87.76 					"/>
					<polygon class="st43" points="167.57,91.54 168.31,91.86 168.16,87.76 167.42,87.45 					"/>
				</g>
				<polygon class="st44" points="168.12,87.09 168.87,87.4 168.9,88.44 168.2,88.8 167.46,88.48 167.42,87.45 				"/>
				<g>
					<polygon class="st43" points="172.48,85.54 171.74,85.22 172.45,84.86 173.19,85.17 					"/>
					<polygon class="st15" points="172.63,89.63 173.35,89.26 173.19,85.17 172.48,85.54 					"/>
					<polygon class="st43" points="171.89,89.32 172.63,89.63 172.48,85.54 171.74,85.22 					"/>
				</g>
				<polygon class="st44" points="173.2,85.34 173.23,86.21 171.81,86.94 171.74,85.22 172.28,84.94 				"/>
				<g>
					<polygon class="st43" points="163.65,85.86 162.91,85.55 163.62,85.18 164.36,85.5 					"/>
					<polygon class="st15" points="163.8,89.95 164.51,89.59 164.36,85.5 163.65,85.86 					"/>
					<polygon class="st43" points="163.06,89.64 163.8,89.95 163.65,85.86 162.91,85.55 					"/>
				</g>
				<polygon class="st44" points="164.36,85.5 164.42,87.21 162.95,86.59 162.92,85.71 163.79,85.25 				"/>
				<g>
					<polygon class="st3" points="168.15,87.54 161.95,84.92 167.89,81.86 174.1,84.47 					"/>
					<polygon class="st1" points="168.18,88.4 174.13,85.33 174.1,84.47 168.15,87.54 					"/>
					<polygon class="st4" points="161.98,85.78 168.18,88.4 168.15,87.54 161.95,84.92 					"/>
				</g>
			</g>
		</g>
	</g>
</g>
</svg>
