<?xml version="1.0" encoding="utf-8"?>
<!-- Generator: Adobe Illustrator 24.0.0, SVG Export Plug-In . SVG Version: 6.00 Build 0)  -->
<svg version="1.1" id="Layer" xmlns="http://www.w3.org/2000/svg" xmlns:xlink="http://www.w3.org/1999/xlink" x="0px" y="0px"
	 viewBox="0 0 500.63 326.2" style="enable-background:new 0 0 500.63 326.2;" xml:space="preserve">
<style type="text/css">
	.st0{fill:#EAE6E1;}
	.st1{opacity:0.5;fill:#C6BFB0;}
	.st2{fill:#C6BFB0;}
	.st3{fill:#B7AE9C;}
	.st4{fill:#7F5047;}
	.st5{fill:#563729;}
	.st6{fill:#6D4338;}
	.st7{fill:#D8D2C7;}
	.st8{fill:#F7F6F5;}
	.st9{fill:#8E5E57;}
</style>
<g id="mesa">
	<g>
		<polygon class="st0" points="441.04,163.53 386.7,195.16 332.48,163.41 386.82,131.78 		"/>
		<g>
			<g>
				<polygon class="st1" points="334.53,164.61 388.87,132.98 388.65,132.85 334.31,164.48 				"/>
				<polygon class="st1" points="336.41,165.7 390.74,134.07 390.52,133.95 336.19,165.58 				"/>
				<polygon class="st1" points="338.28,166.82 392.62,135.19 392.4,135.06 338.06,166.69 				"/>
			</g>
			<g>
				<polygon class="st1" points="340.15,167.89 394.49,136.26 394.27,136.13 339.93,167.76 				"/>
				<polygon class="st1" points="342.03,169 396.37,137.37 396.15,137.25 341.81,168.88 				"/>
			</g>
		</g>
		<g>
			<g>
				<polygon class="st1" points="343.9,170.09 398.24,138.46 398.02,138.33 343.68,169.96 				"/>
				<polygon class="st1" points="345.78,171.21 400.11,139.58 399.89,139.45 345.56,171.08 				"/>
			</g>
			<g>
				<polygon class="st1" points="347.65,172.27 401.99,140.64 401.77,140.52 347.43,172.15 				"/>
				<polygon class="st1" points="349.52,173.39 403.86,141.76 403.64,141.63 349.3,173.26 				"/>
			</g>
		</g>
		<g>
			<g>
				<polygon class="st1" points="351.4,174.47 405.73,142.84 405.51,142.71 351.18,174.34 				"/>
				<polygon class="st1" points="353.27,175.59 407.61,143.96 407.39,143.83 353.05,175.46 				"/>
			</g>
			<g>
				<polygon class="st1" points="355.14,176.65 409.48,145.02 409.26,144.89 354.92,176.52 				"/>
				<polygon class="st1" points="357.02,177.77 411.35,146.14 411.13,146.01 356.8,177.64 				"/>
			</g>
		</g>
		<g>
			<g>
				<polygon class="st1" points="358.89,178.86 413.23,147.23 413.01,147.1 358.67,178.73 				"/>
				<polygon class="st1" points="360.76,179.98 415.1,148.35 414.88,148.22 360.54,179.85 				"/>
			</g>
			<g>
				<polygon class="st1" points="362.64,181.04 416.97,149.41 416.76,149.28 362.42,180.91 				"/>
				<polygon class="st1" points="364.51,182.16 418.85,150.53 418.63,150.4 364.29,182.03 				"/>
			</g>
		</g>
		<g>
			<g>
				<polygon class="st1" points="366.32,183.26 420.65,151.63 420.43,151.5 366.1,183.13 				"/>
			</g>
			<g>
				<polygon class="st1" points="368.19,184.32 422.53,152.69 422.31,152.56 367.97,184.19 				"/>
				<polygon class="st1" points="370.06,185.44 424.4,153.81 424.18,153.68 369.84,185.31 				"/>
			</g>
		</g>
		<g>
			<g>
				<polygon class="st1" points="371.94,186.52 426.27,154.89 426.05,154.76 371.72,186.39 				"/>
				<polygon class="st1" points="373.81,187.64 428.15,156.01 427.93,155.88 373.59,187.51 				"/>
			</g>
			<g>
				<polygon class="st1" points="375.68,188.7 430.02,157.07 429.8,156.94 375.46,188.57 				"/>
				<polygon class="st1" points="377.56,189.82 431.89,158.19 431.67,158.06 377.34,189.69 				"/>
			</g>
		</g>
		<g>
			<g>
				<polygon class="st1" points="379.43,190.91 433.77,159.28 433.55,159.15 379.21,190.78 				"/>
				<polygon class="st1" points="381.3,192.03 435.64,160.4 435.42,160.27 381.08,191.9 				"/>
			</g>
			<g>
				<polygon class="st1" points="383.18,193.09 437.51,161.46 437.29,161.33 382.96,192.96 				"/>
				<polygon class="st1" points="385.05,194.21 439.39,162.58 439.17,162.45 384.83,194.08 				"/>
			</g>
		</g>
		<polygon class="st2" points="332.48,163.41 332.48,165.04 386.7,196.79 386.7,195.16 		"/>
		<polygon class="st3" points="441.04,165.16 441.04,163.53 386.7,195.16 386.7,196.79 		"/>
	</g>
	<g>
		<g>
			<polygon class="st4" points="398.13,156.34 397.56,156.06 405.84,151.23 406.41,151.52 			"/>
			<polygon class="st5" points="398.13,157.03 406.41,152.21 406.41,151.52 398.13,156.34 			"/>
		</g>
		<g>
			<polygon class="st5" points="406.79,152.85 406.23,153.18 406.23,141.68 406.79,141.35 			"/>
			<polygon class="st6" points="405.67,152.85 406.23,153.18 406.23,141.68 405.67,141.35 			"/>
		</g>
		<g>
			<polygon class="st5" points="414.51,157.34 413.95,157.67 413.95,146.17 414.51,145.85 			"/>
			<polygon class="st5" points="413.95,152.31 413.4,152.64 413.4,141.14 413.95,140.81 			"/>
			<polygon class="st6" points="413.4,157.34 413.95,157.67 413.95,146.17 413.4,145.85 			"/>
		</g>
		<g>
			<polygon class="st5" points="398.5,157.67 397.94,157.99 397.94,146.49 398.5,146.17 			"/>
			<polygon class="st6" points="397.39,157.67 397.94,157.99 397.94,146.49 397.39,146.17 			"/>
		</g>
		<g>
			<polygon class="st4" points="406.79,141.35 406.23,141.03 397.39,146.17 397.94,146.49 			"/>
			<polygon class="st5" points="397.94,147.18 406.79,142.04 406.79,141.35 397.94,146.49 			"/>
		</g>
		<polygon class="st6" points="413.4,152.18 406.23,147.99 406.23,136.94 413.4,141.14 		"/>
		<polygon class="st5" points="407.08,137.44 406.86,137.32 406.86,147.07 407.08,147.2 		"/>
		<polygon class="st5" points="408.2,138.1 407.98,137.98 407.98,147.73 408.2,147.86 		"/>
		<polygon class="st5" points="409.32,138.75 409.1,138.62 409.1,148.38 409.32,148.51 		"/>
		<polygon class="st5" points="410.44,139.41 410.22,139.28 410.22,149.04 410.44,149.17 		"/>
		<polygon class="st5" points="411.57,140.06 411.34,139.93 411.34,149.69 411.57,149.82 		"/>
		<polygon class="st5" points="412.69,140.71 412.46,140.58 412.46,150.34 412.69,150.47 		"/>
		<g>
			<polygon class="st4" points="405.67,156.02 397.39,151.2 405.67,146.38 413.95,151.2 			"/>
			<polygon class="st4" points="405.67,161.13 405.1,160.85 413.38,156.02 413.95,156.31 			"/>
			<polygon class="st6" points="405.67,156.71 397.39,151.89 397.39,151.2 405.67,156.02 			"/>
			<polygon class="st5" points="405.67,156.71 413.95,151.89 413.95,151.2 405.67,156.02 			"/>
		</g>
		<g>
			<path class="st7" d="M409.09,151.75c2.12-1.14,3.19-1.1,3.76-0.89h0c0,0-5.76-3.37-6.61-3.83c-0.5-0.27-1.57-0.48-3.95,0.8
				c-2.56,1.38-3.46,3.34-3.46,3.34l6.81,3.9C405.74,154.85,406.68,153.05,409.09,151.75z"/>
			<path class="st3" d="M412.85,150.86c-0.57-0.21-1.65-0.25-3.76,0.89c-2.41,1.3-3.35,3.1-3.45,3.32l0.08,0.05L412.85,150.86z"/>
		</g>
		<polygon class="st5" points="405.67,161.82 413.95,157 413.95,156.31 405.67,161.13 		"/>
		<g>
			<polygon class="st5" points="406.23,162.16 405.67,162.49 405.67,150.99 406.23,150.66 			"/>
			<polygon class="st6" points="405.11,162.16 405.67,162.49 405.67,150.99 405.11,150.66 			"/>
		</g>
		<g>
			<polygon class="st4" points="414.51,145.85 413.95,145.52 405.11,150.66 405.67,150.99 			"/>
			<polygon class="st5" points="405.67,151.68 414.51,146.54 414.51,145.85 405.67,150.99 			"/>
		</g>
		<polygon class="st4" points="406.23,136.95 406.79,136.63 413.95,140.81 413.4,141.14 		"/>
	</g>
	<g>
		<g>
			<polygon class="st4" points="374.62,156.34 375.19,156.06 366.91,151.23 366.34,151.52 			"/>
			<polygon class="st5" points="374.62,157.03 366.34,152.21 366.34,151.52 374.62,156.34 			"/>
		</g>
		<g>
			<polygon class="st5" points="365.96,152.85 366.52,153.18 366.52,141.68 365.96,141.35 			"/>
			<polygon class="st6" points="367.08,152.85 366.52,153.18 366.52,141.68 367.08,141.35 			"/>
		</g>
		<g>
			<polygon class="st5" points="358.24,157.34 358.79,157.67 358.79,146.17 358.24,145.85 			"/>
			<polygon class="st5" points="358.79,152.31 359.35,152.64 359.35,141.14 358.79,140.81 			"/>
			<polygon class="st6" points="359.35,157.34 358.79,157.67 358.79,146.17 359.35,145.85 			"/>
		</g>
		<g>
			<polygon class="st5" points="374.25,157.67 374.81,157.99 374.81,146.49 374.25,146.17 			"/>
			<polygon class="st6" points="375.36,157.67 374.81,157.99 374.81,146.49 375.36,146.17 			"/>
		</g>
		<g>
			<polygon class="st4" points="365.96,141.35 366.52,141.03 375.36,146.17 374.81,146.49 			"/>
			<polygon class="st5" points="374.81,147.18 365.96,142.04 365.96,141.35 374.81,146.49 			"/>
		</g>
		<polygon class="st6" points="359.35,152.18 366.52,147.99 366.52,136.94 359.35,141.14 		"/>
		<polygon class="st5" points="365.67,137.44 365.89,137.32 365.89,147.07 365.67,147.2 		"/>
		<polygon class="st5" points="364.55,138.1 364.77,137.98 364.77,147.73 364.55,147.86 		"/>
		<polygon class="st5" points="363.43,138.75 363.65,138.62 363.65,148.38 363.43,148.51 		"/>
		<polygon class="st5" points="362.3,139.41 362.53,139.28 362.53,149.04 362.3,149.17 		"/>
		<polygon class="st5" points="361.18,140.06 361.41,139.93 361.41,149.69 361.18,149.82 		"/>
		<polygon class="st5" points="360.06,140.71 360.28,140.58 360.28,150.34 360.06,150.47 		"/>
		<g>
			<polygon class="st4" points="367.08,156.02 375.36,151.2 367.08,146.38 358.79,151.2 			"/>
			<polygon class="st4" points="367.08,161.13 367.65,160.85 359.37,156.02 358.79,156.31 			"/>
			<polygon class="st6" points="367.08,156.71 375.36,151.89 375.36,151.2 367.08,156.02 			"/>
			<polygon class="st5" points="367.08,156.71 358.79,151.89 358.79,151.2 367.08,156.02 			"/>
		</g>
		<g>
			<path class="st7" d="M363.66,151.75c-2.12-1.14-3.19-1.1-3.76-0.89h0c0,0,5.76-3.37,6.61-3.83c0.5-0.27,1.57-0.48,3.95,0.8
				c2.56,1.38,3.46,3.34,3.46,3.34l-6.81,3.9C367.01,154.85,366.07,153.05,363.66,151.75z"/>
			<path class="st3" d="M359.9,150.86c0.57-0.21,1.65-0.25,3.76,0.89c2.41,1.3,3.35,3.1,3.45,3.32l-0.08,0.05L359.9,150.86z"/>
		</g>
		<polygon class="st5" points="367.08,161.82 358.79,157 358.79,156.31 367.08,161.13 		"/>
		<g>
			<polygon class="st5" points="366.52,162.16 367.08,162.49 367.08,150.99 366.52,150.66 			"/>
			<polygon class="st6" points="367.64,162.16 367.08,162.49 367.08,150.99 367.64,150.66 			"/>
		</g>
		<g>
			<polygon class="st4" points="358.24,145.85 358.79,145.52 367.64,150.66 367.08,150.99 			"/>
			<polygon class="st5" points="367.08,151.68 358.24,146.54 358.24,145.85 367.08,150.99 			"/>
		</g>
		<polygon class="st4" points="366.52,136.95 365.96,136.63 358.79,140.81 359.35,141.14 		"/>
	</g>
	<g>
		<g>
			<g>
				<path class="st5" d="M390.31,167.45c-0.27-1.04-1.85-1.84-3.76-1.84c-1.91,0-3.49,0.8-3.76,1.84h-0.04v0.31
					c0,1.19,1.7,2.16,3.8,2.16c2.1,0,3.8-0.97,3.8-2.16v-0.31H390.31z"/>
				<path class="st4" d="M390.35,167.45c0,1.19-1.7,2.16-3.8,2.16c-2.1,0-3.8-0.97-3.8-2.16c0-1.19,1.7-2.16,3.8-2.16
					C388.65,165.3,390.35,166.26,390.35,167.45z"/>
			</g>
			<path class="st6" d="M388.58,166.11c-0.43-0.48-1.2-1.49-1.2-2.54c0-1.46,0-5.01,0-5.01h-0.6h-0.44h-0.6c0,0,0,3.55,0,5.01
				c0,1.07-0.8,2.09-1.23,2.56c-0.03,0.04-0.31,0.32-0.32,0.34c-0.13,0.17-0.2,0.36-0.2,0.56c0,0.8,1.15,1.45,2.56,1.45
				c1.41,0,2.56-0.65,2.56-1.45c0-0.2-0.08-0.4-0.21-0.58C388.88,166.43,388.63,166.16,388.58,166.11z"/>
			<g>
				<path class="st5" d="M396.73,154.37c-0.73-2.82-5.01-4.99-10.18-4.99c-5.18,0-9.46,2.17-10.18,4.99h-0.11v0.85
					c0,3.23,4.61,5.84,10.29,5.84c5.69,0,10.29-2.62,10.29-5.84v-0.85H396.73z"/>
			</g>
			<g>
				<path class="st3" d="M396.73,153.95c-0.73-2.82-5.01-4.99-10.18-4.99c-5.18,0-9.46,2.17-10.18,4.99h-0.11v0.85
					c0,3.23,4.61,5.84,10.29,5.84c5.69,0,10.29-2.62,10.29-5.84v-0.85H396.73z"/>
				<path class="st8" d="M396.84,153.95c0,3.23-4.61,5.84-10.29,5.84c-5.69,0-10.29-2.62-10.29-5.84c0-3.23,4.61-5.84,10.29-5.84
					C392.23,148.11,396.84,150.72,396.84,153.95z"/>
			</g>
		</g>
		<path class="st6" d="M385.83,134.49v19.25c0,0.23,0.32,0.41,0.72,0.41s0.72-0.18,0.72-0.41v-19.25H385.83z"/>
		<g>
			<polygon class="st9" points="385.81,112.38 363.08,129.48 383.15,141.16 			"/>
			<polygon class="st4" points="388.48,141.16 383.15,141.16 385.81,112.38 			"/>
			<polygon class="st4" points="363.08,129.48 363.08,126.38 385.81,112.38 			"/>
			<polygon class="st6" points="408.55,129.48 385.81,112.38 388.48,141.16 			"/>
			<polygon class="st5" points="408.55,129.48 408.55,126.38 385.81,112.38 			"/>
		</g>
	</g>
	<g>
		<g>
			<polygon class="st4" points="408.57,173.73 409.14,173.44 400.86,168.62 400.29,168.9 			"/>
			<polygon class="st5" points="408.57,174.42 400.29,169.6 400.29,168.9 408.57,173.73 			"/>
		</g>
		<g>
			<polygon class="st5" points="399.92,170.23 400.47,170.56 400.47,159.06 399.92,158.74 			"/>
			<polygon class="st6" points="401.03,170.23 400.47,170.56 400.47,159.06 401.03,158.74 			"/>
		</g>
		<g>
			<polygon class="st5" points="392.19,174.73 392.75,175.05 392.75,163.55 392.19,163.23 			"/>
			<polygon class="st6" points="393.3,174.73 392.75,175.05 392.75,163.55 393.3,163.23 			"/>
		</g>
		<polygon class="st5" points="408.2,175.05 408.76,175.38 408.76,163.88 408.2,163.55 		"/>
		<g>
			<polygon class="st4" points="399.92,158.74 400.47,158.41 409.31,163.55 408.76,163.88 			"/>
			<polygon class="st5" points="408.76,164.57 399.92,159.43 399.92,158.74 408.76,163.88 			"/>
		</g>
		<g>
			<polygon class="st4" points="401.03,173.41 409.31,168.58 401.03,163.76 392.75,168.58 			"/>
			<polygon class="st4" points="401.03,178.52 401.6,178.23 393.32,173.41 392.75,173.69 			"/>
			<polygon class="st6" points="401.03,174.1 409.31,169.28 409.31,168.58 401.03,173.41 			"/>
			<polygon class="st5" points="401.03,174.1 392.75,169.28 392.75,168.58 401.03,173.41 			"/>
		</g>
		<g>
			<path class="st7" d="M397.62,169.13c-2.12-1.14-3.19-1.1-3.76-0.89l0,0c0,0,5.76-3.37,6.61-3.83c0.5-0.27,1.57-0.48,3.95,0.8
				c2.56,1.38,3.46,3.34,3.46,3.34l-6.81,3.9C400.96,172.24,400.02,170.43,397.62,169.13z"/>
			<path class="st3" d="M393.85,168.25c0.57-0.21,1.65-0.25,3.76,0.89c2.41,1.3,3.35,3.1,3.45,3.32l-0.08,0.05L393.85,168.25z"/>
		</g>
		<polygon class="st5" points="401.03,179.21 392.75,174.39 392.75,173.69 401.03,178.52 		"/>
		<g>
			<polygon class="st5" points="400.47,179.54 401.03,179.87 401.03,168.37 400.47,168.04 			"/>
			<polygon class="st6" points="401.59,179.54 401.03,179.87 401.03,168.37 401.59,168.04 			"/>
		</g>
		<g>
			<polygon class="st4" points="392.19,163.23 392.75,162.9 401.59,168.04 401.03,168.37 			"/>
			<polygon class="st5" points="401.03,169.06 392.19,163.92 392.19,163.23 401.03,168.37 			"/>
		</g>
		<g>
			<polygon class="st5" points="401.03,173.46 401.59,173.79 401.59,162.65 401.03,162.33 			"/>
			<polygon class="st6" points="401.59,173.69 408.76,169.5 408.76,158.46 401.59,162.65 			"/>
			<polygon class="st5" points="407.9,158.96 408.13,158.83 408.13,168.58 407.9,168.71 			"/>
			<polygon class="st5" points="406.78,159.62 407,159.49 407,169.25 406.78,169.38 			"/>
			<polygon class="st5" points="405.66,160.27 405.88,160.14 405.88,169.9 405.66,170.02 			"/>
			<polygon class="st5" points="404.54,160.92 404.76,160.79 404.76,170.55 404.54,170.68 			"/>
			<polygon class="st5" points="403.42,161.57 403.64,161.44 403.64,171.2 403.42,171.33 			"/>
			<polygon class="st5" points="402.3,162.22 402.52,162.09 402.52,171.85 402.3,171.98 			"/>
			<polygon class="st4" points="408.76,158.46 408.2,158.14 401.03,162.33 401.59,162.65 			"/>
		</g>
		<polygon class="st6" points="409.31,175.05 408.76,175.38 408.76,163.88 409.31,163.55 		"/>
	</g>
	<g>
		<g>
			<polygon class="st4" points="363.99,173.73 363.42,173.44 371.7,168.62 372.27,168.9 			"/>
			<polygon class="st5" points="363.99,174.42 372.27,169.6 372.27,168.9 363.99,173.73 			"/>
		</g>
		<g>
			<polygon class="st5" points="372.65,170.23 372.09,170.56 372.09,159.06 372.65,158.74 			"/>
			<polygon class="st6" points="371.53,170.23 372.09,170.56 372.09,159.06 371.53,158.74 			"/>
		</g>
		<g>
			<polygon class="st5" points="380.37,174.73 379.82,175.05 379.82,163.55 380.37,163.23 			"/>
			<polygon class="st6" points="379.26,174.73 379.82,175.05 379.82,163.55 379.26,163.23 			"/>
		</g>
		<polygon class="st5" points="364.36,175.05 363.8,175.38 363.8,163.88 364.36,163.55 		"/>
		<g>
			<polygon class="st4" points="372.65,158.74 372.09,158.41 363.25,163.55 363.8,163.88 			"/>
			<polygon class="st5" points="363.8,164.57 372.65,159.43 372.65,158.74 363.8,163.88 			"/>
		</g>
		<g>
			<polygon class="st4" points="371.53,173.41 363.25,168.58 371.53,163.76 379.82,168.58 			"/>
			<polygon class="st4" points="371.53,178.52 370.96,178.23 379.24,173.41 379.82,173.69 			"/>
			<polygon class="st6" points="371.53,174.1 363.25,169.28 363.25,168.58 371.53,173.41 			"/>
			<polygon class="st5" points="371.53,174.1 379.82,169.28 379.82,168.58 371.53,173.41 			"/>
		</g>
		<g>
			<path class="st7" d="M374.95,169.13c2.12-1.14,3.19-1.1,3.76-0.89l0,0c0,0-5.76-3.37-6.61-3.83c-0.5-0.27-1.57-0.48-3.95,0.8
				c-2.56,1.38-3.46,3.34-3.46,3.34l6.81,3.9C371.6,172.24,372.54,170.43,374.95,169.13z"/>
			<path class="st3" d="M378.71,168.25c-0.57-0.21-1.65-0.25-3.76,0.89c-2.41,1.3-3.35,3.1-3.45,3.32l0.08,0.05L378.71,168.25z"/>
		</g>
		<polygon class="st5" points="371.53,179.21 379.82,174.39 379.82,173.69 371.53,178.52 		"/>
		<g>
			<polygon class="st5" points="372.09,179.54 371.53,179.87 371.53,168.37 372.09,168.04 			"/>
			<polygon class="st6" points="370.97,179.54 371.53,179.87 371.53,168.37 370.97,168.04 			"/>
		</g>
		<g>
			<polygon class="st4" points="380.37,163.23 379.82,162.9 370.97,168.04 371.53,168.37 			"/>
			<polygon class="st5" points="371.53,169.06 380.37,163.92 380.37,163.23 371.53,168.37 			"/>
		</g>
		<g>
			<polygon class="st5" points="371.53,173.46 370.97,173.79 370.97,162.65 371.53,162.33 			"/>
			<polygon class="st6" points="370.97,173.69 363.8,169.5 363.8,158.46 370.97,162.65 			"/>
			<polygon class="st5" points="364.66,158.96 364.44,158.83 364.44,168.58 364.66,168.71 			"/>
			<polygon class="st5" points="365.78,159.62 365.56,159.49 365.56,169.25 365.78,169.38 			"/>
			<polygon class="st5" points="366.9,160.27 366.68,160.14 366.68,169.9 366.9,170.02 			"/>
			<polygon class="st5" points="368.02,160.92 367.8,160.79 367.8,170.55 368.02,170.68 			"/>
			<polygon class="st5" points="369.14,161.57 368.92,161.44 368.92,171.2 369.14,171.33 			"/>
			<polygon class="st5" points="370.26,162.22 370.04,162.09 370.04,171.85 370.26,171.98 			"/>
			<polygon class="st4" points="363.8,158.46 364.36,158.14 371.53,162.33 370.97,162.65 			"/>
		</g>
		<polygon class="st6" points="363.25,175.05 363.8,175.38 363.8,163.88 363.25,163.55 		"/>
	</g>
</g>
</svg>
