<?xml version="1.0" encoding="utf-8"?>
<!-- Generator: Adobe Illustrator 24.0.0, SVG Export Plug-In . SVG Version: 6.00 Build 0)  -->
<svg version="1.1" id="Layer" xmlns="http://www.w3.org/2000/svg" xmlns:xlink="http://www.w3.org/1999/xlink" x="0px" y="0px"
	 viewBox="0 0 500.63 326.2" style="enable-background:new 0 0 500.63 326.2;" xml:space="preserve">
<style type="text/css">
	.st0{fill:#492D2C;}
	.st1{fill:#EF8C78;}
	.st2{fill:#788E1C;}
	.st3{fill:#E55C8D;}
	.st4{fill:#F4729C;}
	.st5{fill:#F7AB97;}
	.st6{fill:#563835;}
	.st7{fill:#687711;}
	.st8{fill:#898919;}
	.st9{fill:#FFFFFF;}
	.st10{fill:#D4D4D4;}
	.st11{fill:#BCBCBC;}
	.st12{fill:#EDEDED;}
	.st13{fill:#73D0FF;}
	.st14{fill:#9DDEFF;}
</style>
<g id="persona5">
	<g>
		<g>
			<g>
				<g>
					<path class="st0" d="M335.24,149.33c0,0-0.56,0.61-1.3,1.33c-0.69,0.67-0.9,0.86-1.54,1.49c-0.37,0.36-0.07,0.7,0.65,0.67
						c0.63-0.02,2.04-0.33,2.83-0.61c0.56-0.2,1.59-0.77,2.12-1.11s0.63-0.8,0.63-0.8v-1.12L335.24,149.33z"/>
					<path class="st0" d="M345.43,148.33c0,0-0.36,0.52-1.1,1.25c-0.69,0.67-0.89,0.94-1.5,1.74c-0.14,0.18-0.22,0.71,0.49,0.68
						c0.63-0.02,1.58-0.29,2.37-0.57c0.91-0.32,1.67-1.23,2.2-1.57c0.53-0.33,0.76-1.07,0.76-1.07l-0.36-1.1L345.43,148.33z"/>
					<path class="st1" d="M329.3,126.19c-0.18-0.01-0.37,0.01-0.61,0.12c-0.65-0.84,3.33-4.35,3.35-4.52
						c0.04-0.28,0.8-1.62,1.24-2.35c0.6-1,0.79-1.28,1.4-2.19l1.87,2.6l-2.26,2.5c0,0-3.04,2.1-3.3,3.46
						c-0.24,1.23-1.08,1.63-1.5,1.7c-0.41,0.08-1.2-0.23-1.16-0.28C328.36,127.21,328.87,126.65,329.3,126.19z"/>
					<path class="st2" d="M345.14,130.16c0.26-4.11-2-6.27-2-6.27c0.18-1.39-6.25,0.55-6.25,0.55s-1.38,7.45-1.96,11.37
						c-0.66,4.46-0.26,13.53-0.26,13.53s0.08,0.97,1.74,0.96c1.27,0,2.21-1.12,2.21-1.12l0.13-10.33l1.35-6.68c0,0,1.55,5.31,2,7.45
						c0.48,2.27,2.32,9,2.32,9s1.19,1.37,2.66,0.63c1.48-0.74,1.19-1.56,1.19-1.56s-0.29-4.77-2.19-9.04
						C345.93,135.4,345.02,132.05,345.14,130.16z"/>
					<path class="st3" d="M337.77,113.65c0,0-1.41,0.19-2.59,1.98c-0.63,0.95-1.9,3.4-1.9,3.4s1.27,0.32,2.82,1.82
						C338.16,118.99,339.32,114.52,337.77,113.65z"/>
					<path class="st4" d="M337.77,113.65c0,0-0.52,0.99-0.99,2.81c-0.47,1.82-0.3,10.27-0.3,10.27s1.96,1.39,5.24,1.11
						c1.95-0.16,2.94-1.37,2.94-1.37s1.4-9.22,1.24-10.41c-0.16-1.19-3.06-2.95-3.06-2.95S339.75,112.87,337.77,113.65z"/>
					<g>
						<path class="st1" d="M340.02,112.49l2.28-1.66c0.1,0.78,0.23,1.58,0.55,2.29c0.08,0.18,0.14,0.96-0.97,1.91
							c-1.11,0.95-2.24-0.32-2.24-0.32L340.02,112.49z"/>
						<path class="st5" d="M341.58,107.29c-0.95-0.72-3.18-0.95-4,1.36c-0.86,2.43,1.34,5.46,2.51,4.94
							c0.66-0.29,2.03-1.31,2.42-2.59C342.94,109.56,342.31,107.85,341.58,107.29z"/>
						<path class="st6" d="M337.38,109.42c0.39,0.4,0.96,0.84,2.13,0.65c0.96-0.16,1.65-0.61,1.65-0.61l0.2,1.28
							c0,0,0.19-0.03,0.34-0.12c0.02-0.51,0.2-0.67,0.48-0.52c0.32,0.17,0.33,0.9,0.33,0.9s0.87-1.52,0.7-3
							c-0.18-1.53-1.55-2.64-3.45-2.23c-1.67,0.36-2.43,1.61-2.64,2.58C337.01,108.84,337.21,109.24,337.38,109.42z"/>
					</g>
					<path class="st7" d="M343.69,110.13c0,0-0.49-2.62-0.62-3.19c-0.12-0.57-1.11-1.4-2.11-1.59c-0.99-0.19-2.47-0.15-3.02,1.07
						c-0.55,1.22-1.48,2.92-1.31,2.94c0.11,0.01,1.97-1.24,4.02-1.02C341.8,108.47,343.69,110.13,343.69,110.13z"/>
					<path class="st2" d="M344.59,125.08c0,0-2.43-0.99-2.49-3.16c-0.06-2.17,0.23-4.49,0.23-4.49l-4.69-0.89c0,0-1.2,3.71-1.2,4.76
						c0,1.05-0.24,6.92-0.24,6.92s7.03,0.13,7.93-0.06c0.9-0.19,0.9-0.19,0.9-0.19L344.59,125.08z"/>
					<path class="st7" d="M337.52,116.94c0.19-0.79,0.57-2.17,0.74-2.73c0.17-0.57,0.4-0.84,0.4-0.84l0.31-0.08
						c0.07,0.07,0.23,0.17,0.33,0.22c-0.11,0.26-0.28,0.69-0.44,1.26c-0.25,0.92-0.4,1.74-0.59,2.3
						C338.04,117.7,337.38,117.51,337.52,116.94z"/>
					<polygon class="st8" points="342.65,127.44 344.51,128.89 344.51,130 341.72,127.84 					"/>
				</g>
				<g>
					<path class="st9" d="M347.9,153.2c5.06,0,11.74-4.77,12.1-5.03c0,0,0.13-0.26-0.03-0.53c-0.21-0.37-0.5-0.2-0.5-0.2
						c-0.11,0.08-10.59,7.57-14.6,3.82c-2.49-2.33-3.88-9.83-5-15.85c-0.8-4.31-1.49-8.03-2.45-9.61c-0.96-1.59-2.17-2.44-3.57-2.52
						c-1.91-0.11-4.02,1.26-6.09,3.95l0.72,0.55c1.85-2.41,3.74-3.67,5.32-3.59c1.09,0.06,2.04,0.76,2.85,2.08
						c0.87,1.44,1.58,5.26,2.33,9.31c1.2,6.48,2.56,13.82,5.27,16.35C345.24,152.84,346.51,153.2,347.9,153.2z"/>
				</g>
				<path class="st5" d="M343.56,121.26c0,0-0.35,3.52-0.91,4.3c-0.4,0.57-1.89,1.87-3.09,2.52c-0.46,0.25-0.85-0.1-1.26-0.04
					c0.08,0.5,0.05,0.74,0.05,0.74s-0.96-0.44-1.13,0.35c-0.12,0.57,0.14,1.42,0.59,1.67c0.9,0.49,1.84-0.18,2.2-0.51
					c0.67-0.63,3.7-2.48,4.23-2.98c1.26-1.2,2.21-6.04,2.21-6.04S345.31,120.89,343.56,121.26z"/>
				<path class="st3" d="M344.93,114.67c0.62,0.33,1.8,1.24,2.01,3.52c0.23,2.5-0.47,4.16-0.47,4.16l-3.38-0.53
					C343.08,121.82,342.5,116.83,344.93,114.67z"/>
				<path class="st7" d="M344.39,114.21c0,0-1.46,1.87-2.1,3.54c-0.29,0.76-0.94,0.56-0.98,0.14c-0.02-0.18,0.07-1.25,1.1-2.72
					c0.73-1.04,1.22-1.53,1.22-1.53L344.39,114.21z"/>
				<path class="st7" d="M341.31,118.51c0,0-0.73-0.19-1.68-0.36c-1.07-0.19-1.83-0.35-1.83-0.35s-0.94,2.62,0.81,3.09
					c0.57,0.15,1.46,0.2,1.83-0.14C341.21,120.03,341.31,118.51,341.31,118.51z"/>
				<path class="st2" d="M337.87,107.53c-2.96-0.24-3.17,0.69-2.78,1.52c0.2,0.43,1.73,1.04,2.3,0.91c0-0.54,0.02-0.75,0-0.96
					c0.82,0,3.53-0.04,4.72,0.42c0.68,0.26,0.53,0.52,0.52,1.36c1.82,0.23,3.4-1.04,1.31-2.21
					C342.49,107.77,339.25,107.65,337.87,107.53z"/>
				<path class="st9" d="M341.73,117.56c0.27,0.07,0.22,0.56-0.09,0.49C341.34,117.97,341.38,117.47,341.73,117.56z"/>
				<path class="st9" d="M337.92,116.75c0.27,0.07,0.22,0.56-0.09,0.49C337.53,117.17,337.57,116.67,337.92,116.75z"/>
				<path class="st3" d="M343.23,113.37c0.03,0.02-0.76,1.46-1.55,2.01c-0.79,0.56-1.95,0.27-2.24-0.34s0-1.47,0-1.47l0.39,0.08
					c0,0-0.14,0.88,0.2,1.13c0.41,0.3,1.19,0.26,1.7-0.26c0.54-0.54,1.13-1.4,1.13-1.4L343.23,113.37z"/>
			</g>
			<path class="st1" d="M329.82,124.53c0,0,0.15,1.17,0,2c-0.15,0.83-0.68,0.31-0.72-0.19c-0.03-0.49-0.31-0.82-0.24-0.94
				C328.93,125.28,329.82,124.53,329.82,124.53z"/>
			<g>
				<path class="st10" d="M327,128.65c0.62,0.62,1.47,0.78,1.9,0.35c0.43-0.43,0.27-1.28-0.35-1.9c-0.62-0.62-1.47-0.78-1.9-0.35
					C326.22,127.18,326.38,128.03,327,128.65z"/>
				<path class="st10" d="M329.11,128.58c0,0-0.11,0.58-0.7,0.91c-0.59,0.32-2.57-1.78-2.25-2.25c0.32-0.47,0.69-0.63,0.69-0.63
					L329.11,128.58z"/>
				<path class="st11" d="M326.52,129.13c0.62,0.62,1.47,0.78,1.9,0.35c0.43-0.43,0.27-1.28-0.35-1.9c-0.62-0.62-1.47-0.78-1.9-0.35
					C325.74,127.66,325.89,128.51,326.52,129.13z"/>
				<path class="st10" d="M326.75,128.91c0.4,0.4,0.95,0.52,1.21,0.26s0.15-0.81-0.26-1.21c-0.4-0.4-0.95-0.52-1.21-0.26
					C326.23,127.96,326.34,128.51,326.75,128.91z"/>
				<polygon class="st10" points="327.96,129.17 324.48,131.83 323.8,131.15 326.49,127.7 				"/>
				<path class="st12" d="M323.91,131.73c0.19,0.19,0.45,0.24,0.58,0.11c0.13-0.13,0.08-0.39-0.11-0.58
					c-0.19-0.19-0.45-0.24-0.58-0.11C323.67,131.28,323.72,131.54,323.91,131.73z"/>
				<path class="st11" d="M324,131.63c0.13,0.13,0.3,0.17,0.38,0.09c0.08-0.08,0.04-0.25-0.09-0.38c-0.13-0.13-0.3-0.17-0.38-0.09
					C323.83,131.34,323.87,131.5,324,131.63z"/>
			</g>
		</g>
	</g>
	<g>
		<path class="st13" d="M321,139.78c-0.06,0.53-0.17,1.04-0.13,1.58c0.03,0.48,0.18,0.96,0.16,1.43c-0.02,0.47-0.18,0.9-0.1,1.37
			c0.11,0.64,0.22,1.28,0.34,1.91c0.12,0.68,0.24,1.36,0.44,2.02c0.14,0.47,0.32,0.92,0.49,1.38c0.34,0.93,0.6,1.88,0.82,2.84
			c0.12,0.5,0.25,1,0.33,1.5c0.1,0.58,0.55,1.52,0.09,2c-0.12,0.12-0.28,0.19-0.44,0.25c-0.22,0.08-0.44,0.17-0.66,0.25
			c-0.12,0.05-0.25,0.09-0.38,0.07c-0.23-0.03-0.41-0.24-0.62-0.35c-0.34-0.18-0.72-0.09-1.09-0.12c-0.55-0.04-1.12-0.4-1.36-0.97
			c-0.17-0.4-0.12-0.77-0.17-1.18c-0.04-0.33-0.12-0.67-0.15-1.01c-0.07-0.7-0.1-1.38-0.22-2.08c-0.24-1.41-0.62-2.79-0.88-4.19
			c-0.23-1.3-0.43-2.72-0.33-4.01c0.09-1.23,0.51-2.51,0.76-3.71c0.07-0.32,0.13-0.65,0.28-0.93c0.15-0.3,0.39-0.54,0.6-0.8
			c0.59-0.71,0.89-1.61,1.32-2.44c0.15-0.29,0.28-0.6,0.47-0.87c0.15-0.21,0.33-0.39,0.52-0.57c0.58-0.55,1.2-1.06,1.85-1.52
			c0.23-0.16,0.98-0.68,1.28-0.36c0.4,0.43-0.74,1.18-0.91,1.46c-0.1,0.17-0.16,0.36-0.23,0.54c-0.23,0.56-0.64,1-1.05,1.41
			c-0.34,0.34-0.69,0.67-0.89,1.13c-0.45,1.03-0.02,2.32-0.06,3.5C321.03,139.47,321.02,139.62,321,139.78z"/>
		<path class="st14" d="M317.43,154.07c0.29-0.04,0.6-0.03,0.81,0.02c0.15,0.04,0.31,0.07,0.46,0.11c0.02,0,0.04,0.01,0.06,0.02
			c0.03,0.03,0.04,0.07,0.05,0.11c0.08,0.39,0.16,0.65,0.53,0.69c0.29,0.03,0.57-0.03,0.86,0.1c0.15,0.07,0.28,0.21,0.42,0.3
			c0.23,0.16,0.5,0.2,0.76,0.24c0.35,0.05,0.69,0.11,1.04,0.16c0.42,0.07,0.96,0.04,1.19-0.4c0.18-0.33-0.3-1-0.15-1.18
			c0.02-0.02,0.04-0.03,0.07-0.03c0.64-0.14,1.28-0.26,1.95-0.08c0.09,0.02,0.18,0.06,0.24,0.13c0.11,0.15,0.03,0.37-0.11,0.46
			c-0.14,0.09-0.31,0.09-0.47,0.12c-0.39,0.08-0.71,0.41-0.83,0.83c-0.04,0.16-0.06,0.34-0.15,0.46c-0.06,0.09-0.16,0.15-0.25,0.2
			c-0.38,0.22-0.76,0.44-1.15,0.65c-0.17,0.09-0.35,0.19-0.54,0.18c-0.16,0-0.32-0.07-0.48-0.14c-0.31-0.13-0.62-0.27-0.93-0.4
			c-0.18-0.08-0.37-0.16-0.55-0.15c-0.14,0-0.27,0.05-0.4,0.08c-0.58,0.15-1.22,0.08-1.79-0.21c-0.25-0.13-0.48-0.29-0.73-0.43
			c-0.19-0.1-0.39-0.19-0.57-0.33c-0.18-0.14-0.33-0.33-0.38-0.56c-0.05-0.29,0.1-0.58,0.31-0.73
			C316.87,154.18,317.15,154.1,317.43,154.07z"/>
	</g>
</g>
</svg>
