<?xml version="1.0" encoding="utf-8"?>
<!-- Generator: Adobe Illustrator 24.0.0, SVG Export Plug-In . SVG Version: 6.00 Build 0)  -->
<svg version="1.1" id="Layer" xmlns="http://www.w3.org/2000/svg" xmlns:xlink="http://www.w3.org/1999/xlink" x="0px" y="0px"
	 viewBox="0 0 500.63 326.2" style="enable-background:new 0 0 500.63 326.2;" xml:space="preserve">
<style type="text/css">
	.st0{fill:#563835;stroke:#000000;stroke-miterlimit:10;}
</style>
<g>
	<g>
		<path class="st0" d="M109.48,173.17l3.23,1.86l-16.32,9.61l-3.23-1.86L109.48,173.17z"/>
		<path class="st0" d="M120.55,179.55l3.23,1.86l-13.21,7.78l5.6,3.23l-3.1,1.83l-8.83-5.08L120.55,179.55z"/>
		<path class="st0" d="M131.8,186.02l3.23,1.86l-16.32,9.61l-3.23-1.86L131.8,186.02z"/>
		<path class="st0" d="M138.34,189.79l3.23,1.86l-6.68,3.94l0.07,0.04l10.93-1.49l3.51,2.02l-10.8,1.36l-4.71,8.71l-3.53-2.03
			l3.44-6.04l-4.16,0.52l-4.38,2.58l-3.23-1.86L138.34,189.79z"/>
		<path class="st0" d="M151.7,197.48l8.92,5.13l-3.1,1.83l-5.69-3.28l-3.28,1.93l4.84,2.79l-3.08,1.81l-4.84-2.79l-3.75,2.21
			l5.91,3.4l-3.1,1.83l-9.13-5.26L151.7,197.48z"/>
		<path class="st0" d="M96.14,188.39c2.01,1.15,2.44,2.6,2.3,3.8l-4.04,0.32c0.03-0.86-0.17-1.53-1.39-2.23
			c-2.18-1.26-5.73-1-9,0.94c-3.35,1.97-3.98,3.89-1.3,5.43c0.57,0.33,1.33,0.56,2.01,0.57l2.8-1.65l-2.35-1.36l3-1.77l5.21,3
			l-7.51,4.42c-2.05,0.01-4.77-0.44-6.75-1.58c-3.84-2.21-4.01-5.66,1.47-8.89C85.99,186.22,92.28,186.17,96.14,188.39z"/>
		<path class="st0" d="M97.46,203.99l-4.36-2.51l-4.75,1.78l-3.27-1.88l20.79-7.04l3.84,2.21l-11.85,12.18l-3.4-1.96L97.46,203.99z
			 M99.68,201.92l1.15-1.09c1.24-1.18,2.79-2.53,4.1-3.76l-0.09-0.05c-2.05,0.83-4.35,1.72-6.37,2.46l-1.85,0.68L99.68,201.92z"/>
		<path class="st0" d="M107.03,214.02l3.16-5.03l-1.74-1l-5.88,3.46l-3.23-1.86l16.32-9.61l5.12,2.95c3.01,1.73,4.29,3.87,0.41,6.16
			c-2.4,1.41-4.95,1.72-7.23,1.31l-3.33,5.69L107.03,214.02z M111.37,206.26l1.64,0.94c1.68,0.97,3.42,1.01,5.02,0.06
			c1.6-0.94,1.24-1.79-0.44-2.76l-1.64-0.94L111.37,206.26z"/>
		<path class="st0" d="M129.06,207.7l4.01,2.31c4.36,2.51,4.67,5.58-0.93,8.88c-5.61,3.3-11.02,3.24-15.19,0.84l-4.21-2.42
			L129.06,207.7z M119.55,217.76c2.4,1.38,5.38,1.53,9.29-0.77c3.9-2.3,3.47-3.95,1.07-5.33l-0.61-0.35l-10.36,6.1L119.55,217.76z"
			/>
		<path class="st0" d="M142.88,215.65l8.92,5.13l-3.1,1.83l-5.69-3.28l-3.28,1.93l4.84,2.79l-3.08,1.81l-4.84-2.79l-3.75,2.21
			l5.91,3.4l-3.1,1.83l-9.13-5.26L142.88,215.65z"/>
		<path class="st0" d="M154.78,222.51l3.29,1.9l-4.4,6.91l-2.19,2.94l0.09,0.05c1.58-1.1,3.62-2.61,5.54-3.75l5.76-3.39l3.05,1.76
			l-16.32,9.61l-3.29-1.9l4.43-6.92l2.16-2.9l-0.09-0.05c-1.65,1.15-3.56,2.58-5.49,3.72l-5.78,3.4l-3.07-1.77L154.78,222.51z"/>
		<path class="st0" d="M169.25,230.84l3.23,1.86l-16.32,9.61l-3.23-1.86L169.25,230.84z"/>
		<path class="st0" d="M175.79,234.61l3.29,1.9l-4.4,6.91l-2.19,2.94l0.09,0.05c1.58-1.11,3.62-2.61,5.54-3.75l5.76-3.39l3.05,1.76
			l-16.32,9.61l-3.29-1.9l4.43-6.92l2.16-2.9l-0.09-0.05c-1.65,1.15-3.56,2.58-5.49,3.72l-5.78,3.4l-3.07-1.77L175.79,234.61z"/>
		<path class="st0" d="M196.88,246.41c2.01,1.15,2.44,2.6,2.3,3.8l-4.04,0.32c0.03-0.86-0.17-1.53-1.39-2.23
			c-2.18-1.26-5.73-1-9.01,0.94c-3.35,1.97-3.98,3.89-1.3,5.43c0.57,0.33,1.33,0.56,2.01,0.57l2.8-1.65l-2.35-1.36l3-1.77l5.21,3
			l-7.51,4.42c-2.05,0.01-4.77-0.44-6.75-1.58c-3.84-2.21-4.01-5.66,1.47-8.89C186.73,244.23,193.03,244.18,196.88,246.41z"/>
	</g>
</g>
</svg>
