<?xml version="1.0" encoding="utf-8"?>
<!-- Generator: Adobe Illustrator 24.0.0, SVG Export Plug-In . SVG Version: 6.00 Build 0)  -->
<svg version="1.1" id="Layer" xmlns="http://www.w3.org/2000/svg" xmlns:xlink="http://www.w3.org/1999/xlink" x="0px" y="0px"
	 viewBox="0 0 500.63 326.2" style="enable-background:new 0 0 500.63 326.2;" xml:space="preserve">
<style type="text/css">
	.st0{fill:none;}
	.st1{fill:#37310E;}
	.st2{fill:#1E8439;}
	.st3{fill:#1E9E39;}
	.st4{fill:#F7BE96;}
	.st5{fill:#D41D0B;}
	.st6{fill:#FF2C17;}
	.st7{fill:#3F9656;}
	.st8{fill:#CA9B76;}
	.st9{fill:#FCD1B3;}
	.st10{fill:#6A3120;}
	.st11{fill:#FFDEC7;}
	.st12{fill:#FF412E;}
	.st13{fill:#FFC45B;}
	.st14{fill:#F2A93F;}
	.st15{fill:#FFD77E;}
	.st16{fill:#BD1300;}
	.st17{fill:#BFBFBF;}
	.st18{fill:#8C8C8C;}
	.st19{fill:#2C2E3C;}
	.st20{fill:#C3C3C3;}
</style>
<g id="persona4">
	
		<ellipse transform="matrix(1 -5.420536e-03 5.420536e-03 1 -1.2393 1.4094)" class="st0" cx="259.39" cy="229.33" rx="7.64" ry="4.41"/>
	<g>
		<g>
			<path class="st1" d="M267.94,230.51c0,0,0.24,0.98,0.47,1.18c0.23,0.19,1.24,1.48,1.34,1.85c0.1,0.37,0.01,0.71-0.29,1.22
				c-0.3,0.5-1.21,0.8-1.89,0.16c-0.68-0.63-1.42-2.47-1.73-2.74c-0.31-0.27-0.83-0.87-0.83-0.87s-0.3-1.51,0.34-1.8
				C265.98,229.22,267.94,230.51,267.94,230.51z"/>
			<path class="st2" d="M268.13,211.14c0,0,1.07,6.42,1.33,8.37c0.26,1.95-1.04,10.18-1.17,10.8c-0.13,0.62-0.13,0.62-0.13,0.62
				s-0.85,0.39-1.58,0.37c-0.73-0.02-1.43-0.17-1.64-0.59c-0.21-0.42,0.2-6.57,0.45-7.5c0.49-1.85,0.28-2.93-0.08-4.64
				c-0.23-1.06-1.75-5.36-1.85-6.43C263.34,211.08,267.39,209.46,268.13,211.14z"/>
			<path class="st1" d="M261.82,226.85c0,0,0.16,1.16,0.22,1.64c0.06,0.48,0.43,2.12-0.2,2.51c-0.64,0.39-2.11,0.3-2.56-0.14
				c-0.45-0.44-0.6-1.08-0.61-1.62c0-0.54,0.17-1.38,0.13-1.87s1.23-0.92,1.23-0.92L261.82,226.85z"/>
			<path class="st3" d="M258.77,226.04c0.31-1.37,0.81-2.74,1.02-4.12c0.07-0.49,0.15-0.98,0.3-1.45c0.13-0.42,0.15-0.83,0.29-1.26
				c0.29-0.87-0.02-1.93-0.19-2.81c-0.18-0.93-0.43-1.88-0.59-2.82c-0.05-0.3-0.09-0.61-0.12-0.91c-0.11-1.21-0.1-2.45,0.15-3.64
				c0.59-2.86,0.97-3.28,0.97-3.28l4.38,4.74c-0.07,0.92-0.14,1.82-0.31,2.72c-0.19,0.99-0.06,2.15-0.07,3.15
				c-0.01,0.99,0.15,2.09,0,3.06c-0.3,2.03-1.05,3.99-1.92,5.84c-0.27,0.57-0.53,1.13-0.74,1.72c-0.18,0.5-0.79,0.72-1.29,0.76
				c-0.6,0.05-1.21-0.17-1.68-0.54C258.47,226.81,258.65,226.57,258.77,226.04z"/>
			<path class="st4" d="M270.93,217.42c0,0-0.15,0.95-0.1,1.56c0.05,0.61,0.39,1.75,0.4,1.98c0.01,0.23,0.05,1.04,0.04,1.28
				c-0.01,0.23-0.72,0.78-0.85,0.9c-0.13,0.11-0.34,0.19-0.44-0.34c-0.11-0.53-0.17-1.45-0.41-1.72c-0.24-0.26-0.52-0.42-0.55-1
				c-0.03-0.58,0.4-1.4,0.4-1.63c0-0.23-0.16-1.43-0.16-1.43S270.78,217.13,270.93,217.42z"/>
			<path class="st5" d="M268.63,206.42c0.12-0.41,0.34-0.82,0.33-1.25c-0.02-0.7-0.08-1.4-0.12-2.09c-0.08-1.42-0.16-2.83-0.23-4.25
				c-0.01-0.26-0.02-0.54,0.14-0.73c0.14-0.17,0.37-0.23,0.58-0.22c0.21,0.01,0.42,0.09,0.62,0.17c0.48,0.19,0.98,0.39,1.29,0.8
				c0.21,0.27,0.31,0.61,0.4,0.94c0.46,1.59,0.45,3.13,0.15,4.75c-0.16,0.87-0.31,1.73-0.45,2.6c-0.11,0.71,0.09,1.46-0.64,1.88
				c-0.32,0.19-0.71,0.25-1.08,0.25c-0.17,0-0.34-0.01-0.51-0.06C267.88,208.87,268.37,207.31,268.63,206.42z"/>
			<path class="st6" d="M269.15,197.49c0.74,0.21,1.28,1.49,1.44,2.16c0.14,0.56,0.22,1.33,0.13,1.89
				c-0.31,1.92-0.45,3.34-1.14,5.16c-0.53,1.37-0.89,2.8-1.48,4.16c-0.21,0.49-0.41,1.31-0.91,1.53c-0.51,0.23-1.09,0.34-1.64,0.45
				c-1.16,0.22-2.36-0.04-3.42-0.51c-0.87-0.39-1.61-1.43-1.83-2.36c-0.08-0.33-0.09-0.67-0.1-1c-0.07-1.44,0.27-3.02,0.54-4.44
				c0.1-0.52,0.2-1.04,0.23-1.56c0.05-0.92,0.16-1.78,0.41-2.64c0.09-0.31,0.19-0.61,0.32-0.92c0.2-0.5,0.41-0.55,0.85-0.78
				c0.46-0.24,0.91-0.5,1.4-0.7c0.47-0.19,0.96-0.31,1.45-0.4c0.43-0.08,0.84-0.23,1.29-0.2c0.27,0.01,0.52,0.08,0.78,0.14
				c0.6,0.13,0.61,0.06,1.23,0.03C268.84,197.45,269,197.45,269.15,197.49z"/>
			<path class="st2" d="M261.03,211.87c-0.32-0.23-0.52-0.49-0.77-0.78c-0.26-0.3-0.61-0.48-0.65-0.92
				c-0.11-1.06,0.08-2.05,0.23-3.09c0.08-0.54,0.03-1.07,0.12-1.61c0.13-0.74,0.27-1.47,0.4-2.2c0.01-0.05,0.02-0.11,0.06-0.15
				c0.04-0.04,0.11-0.06,0.15-0.02c0.02,0.02,0.03,0.05,0.04,0.08c0.13,0.62,0.12,1.25,0.21,1.88c0.08,0.51,0.36,0.98,0.57,1.44
				c0.26,0.57,1.01,0.73,1.59,0.8c0.32,0.04,0.67,0.03,0.93-0.16c0.4-0.28,0.24-0.57,0.27-1.06c0.54-0.01,1.08-0.04,1.61-0.1
				c1.35-0.15,3.19-0.68,4.12-1.66c-0.24,0.8-0.16,1.22-0.4,2.01c-0.02,0.07-0.04,0.14-0.02,0.21c0.05,0.17-0.23,0.46-0.12,0.6
				c0.11,0.14,0.05,0.33-0.01,0.49c-0.43,1.17-0.87,2.35-1.3,3.52c-0.16,0.44-0.33,0.88-0.58,1.28c-0.08,0.13-0.17,0.25-0.3,0.33
				c-0.24,0.14-0.54,0.1-0.81,0.09c-0.64-0.02-1.28,0.17-1.92,0.11c-0.22-0.02-0.43-0.06-0.64-0.11
				C262.83,212.65,261.84,212.43,261.03,211.87z"/>
			<path class="st3" d="M264.2,207.59c1.18,0.29,4.38-0.48,5.23-1.46l-0.94,2.52c-0.84,0.83-1.78,1.21-5.34,1.47L264.2,207.59z"/>
			<path class="st7" d="M268.71,204.74c0,0,0.8-4.4-0.61-5.93c-1.41-1.53-1.8-1.3-1.8-1.3s0.65-0.53,1.17-0.64
				c1.2,0.48,2.51,2.4,2.57,3.76c0.06,1.37-0.28,4.13-0.28,4.13l-1.15,0.55L268.71,204.74z"/>
			<path class="st4" d="M268.63,200.17c0,0-1.29,0.67-1.44,1.1s-0.99-0.15-1.25-0.4c-0.26-0.25-0.97-1.32-1.06-1.93
				c-0.1-0.61,0.08-1.07,0.34-1.39c0.26-0.32,0.36-0.2,0.54-0.76c0.17-0.56-0.11-2.02,0.35-2.01c0.46,0.01,1.75,1.86,1.94,2.59
				C268.24,198.11,268.63,200.17,268.63,200.17z"/>
			<path class="st8" d="M259.66,205.19c-0.17,0.16-0.26,0.37-0.13,0.6c0.17,0.3,0.4,0.58,0.58,0.88c0.35,0.61,0.7,1.22,1.05,1.83
				c0.78,1.35,1.55,2.7,2.33,4.05c0.93,1.62,1.87,3.25,2.8,4.87l1.01-0.54c-0.02-0.03-0.03-0.06-0.05-0.09
				c-1.02-1.72-2.04-3.44-3.06-5.17c-0.74-1.26-1.49-2.51-2.23-3.77c-0.33-0.57-0.67-1.13-1-1.7c-0.15-0.25-0.29-0.5-0.44-0.74
				c-0.13-0.22-0.22-0.58-0.52-0.45C259.88,205.02,259.76,205.1,259.66,205.19z"/>
			<path class="st4" d="M264.14,215.31c0,0,0.3,0.54,0.43,1.16c0.12,0.62,0.21,1.1,0.31,1.28c0.1,0.19,0.21,0.23,0.31,0.32
				c0.1,0.08,0.37,0.24,0.44,0.31c0.07,0.07,0.37,0.58,0.54,0.67c0.17,0.09,0.19,0.26,0.93,0c0.74-0.27,1.33-0.62,1.1-0.78
				c-0.23-0.16-1.58-0.26-1.63-0.51c-0.05-0.25,0.2-0.55,0.35-0.59c0.14-0.04,0.7,0.14,0.78,0.16c0.08,0.02,0.42,0.28,0.6,0.24
				c0.18-0.04,0.31-0.1,0.21-0.38c-0.09-0.28-0.5-0.5-0.61-0.54c-0.11-0.04-1.14-0.61-1.36-0.88c-0.16-0.2-0.42-0.31-0.57-0.51
				c-0.22-0.3-0.34-0.69-0.56-1.01c-0.15-0.21-0.74,0.11-0.93,0.19C264.48,214.45,263.8,214.51,264.14,215.31z"/>
			<path class="st8" d="M266.57,217.69l7.97,13.3l1-0.56l-8.17-13.28C267.38,217.15,266.5,216.89,266.57,217.69z"/>
			<path class="st9" d="M271.34,194.55c0,0.03,0.2,0.87,0.05,1.92c-0.16,1.05-0.3,0.86-0.41,1.1c-0.11,0.24-0.45,1.29-1.26,2.37
				c-0.81,1.08-0.94,0.76-1.17,0.77c-0.23,0-0.81-0.18-1.56-1.03c-0.75-0.84-0.92-1.21-0.89-1.64c0.04-0.43-0.39-1.64-0.01-2.49
				c0.38-0.85,2.19-2.1,3.11-1.74C270.11,194.17,271.34,194.55,271.34,194.55z"/>
			<g>
				<path class="st10" d="M266.73,197.22l0.44,0.25c0,0,0.13-0.42,0.46-0.58c0.33-0.16,0.81-0.65,0.89-1.05
					c0.07-0.39,0.79-0.14,1.43-0.01c0.64,0.14,0.94,0.06,1.08,0.02c0.14-0.04,0.42-0.12,0.42-0.12l-0.05,0.66
					c0,0,0.32-0.54,0.39-1.22c0.07-0.69,0.21-1.47-0.87-2.71c-1.08-1.24-3.29-0.55-3.29-0.55s-1.36-0.18-1.99,1.56
					c-0.63,1.74,0.13,3.54,0.13,3.54s-0.1-1.3,0.47-1.03C266.81,196.25,266.73,197.22,266.73,197.22z"/>
			</g>
			<path class="st11" d="M266.42,196.53c0,0-0.01-0.34-0.34-0.45c-0.33-0.11-0.5-0.04-0.41,0.67c0.09,0.7,0.31,0.85,0.52,0.8
				c0.05-0.01,0.11-0.45,0.14-0.5C266.35,197,266.36,196.84,266.42,196.53z"/>
			<path class="st12" d="M262.93,199.83c0.6,0.74,0.76,1.81,0.85,2.72c0.12,1.12,0.14,2.24,0.07,3.37c-0.06,0.86,0.09,1.76,0.25,2.6
				c0.15,0.78,0.38,1.54,0.61,2.31c0.14,0.48,0.26,0.98,0.44,1.44c0.16,0.42,0.37,0.82,0.46,1.26c0.11,0.59,0.18,1.09-0.31,1.52
				c-0.27,0.24-1.07,0.45-1.42,0.31c-0.26-0.1-0.25-0.53-0.31-0.77c-0.07-0.26-0.17-0.5-0.28-0.75c-0.58-1.33-1.17-2.66-1.75-4
				c-0.26-0.59-0.59-1.19-0.78-1.8c-0.19-0.63-0.25-1.28-0.35-1.93c-0.09-0.59-0.1-1.13-0.08-1.72c0.04-0.88,0.08-1.77,0.12-2.65
				c0.04-0.8,0.24-1.4,0.75-2.03c0.14-0.18,0.37-0.48,0.6-0.54c0.25-0.06,0.55,0.14,0.75,0.29
				C262.69,199.57,262.82,199.69,262.93,199.83z"/>
			<path class="st4" d="M269.61,220.86c0,0,0.06-0.57,0.05-0.74c-0.01-0.17,0.07-1.63,0.49-1.7c0.42-0.07,0.58,0.41,0.55,0.94
				s-0.06,0.85-0.19,1.13c-0.13,0.28-0.26,0.71-0.35,0.84s-0.24,0.64-0.4,0.74c-0.16,0.1-0.38,0.07-0.43-0.2
				C269.28,221.59,269.61,220.86,269.61,220.86z"/>
		</g>
	</g>
	<g>
		<path class="st13" d="M272.49,197.55c-1.16,1.11-3.68,0.78-5.63-0.73c-1.95-1.51-2.59-3.63-1.43-4.74
			c1.16-1.11,3.68-0.78,5.63,0.73C273.01,194.32,273.65,196.44,272.49,197.55z"/>
		<path class="st14" d="M272.42,194.4l-0.74-0.4c-0.24-0.34-0.56-0.67-0.97-0.96c-0.79-0.57-1.7-0.88-2.49-0.89l-0.73-0.39
			l-0.76,0.89c-0.04,0.05-0.09,0.09-0.12,0.14l-0.01,0.01l0,0c-0.56,0.79-0.07,2.08,1.2,3c1.38,1,3.15,1.19,3.95,0.43
			c0.19-0.18,0.3-0.4,0.36-0.63c0,0,0,0,0,0L272.42,194.4z"/>
		<path class="st15" d="M272.2,194.69c-0.69,0.64-2.26,0.46-3.5-0.4c-1.24-0.86-1.68-2.08-0.99-2.72c0.69-0.64,2.26-0.46,3.5,0.4
			C272.45,192.83,272.9,194.05,272.2,194.69z"/>
	</g>
	<path class="st7" d="M264.39,205.96c0,0,0.6-4.55-0.82-6.08c-1.41-1.53-1.55-1-1.55-1s0.65-0.53,1.17-0.64
		c1.2,0.48,2.26,2.09,2.32,3.46c0.06,1.37-0.03,4.43-0.03,4.43l-1.2,0.41L264.39,205.96z"/>
	<path class="st5" d="M268.68,208.87c0,0,0.27-2.32,1.23-3.12c0.96-0.8,1.33,2.55,1.33,2.55L268.68,208.87z"/>
	<path class="st16" d="M271.28,217.49c0,0-0.57,0.15-1.27,0c-0.7-0.15-1.33-0.47-1.33-0.47s-0.97-5.58-0.08-7.85
		c0-1,2.44-1.34,2.6-0.75C271.37,209.01,271.28,217.49,271.28,217.49z"/>
	<g>
		<path class="st17" d="M283.58,233.36l0.03,0.27c0,0-1.31,1.29-2.58,1.96c-1.28,0.68-2.1,0.91-3.02,1.15
			c-0.92,0.24-2.49,0.45-3.7,0.46c-1.21,0.02-1.21,0.02-1.21,0.02l-0.03-0.28c0,0,0.02,0,0.06-0.01c0.29-0.03,1.63-0.15,3.06-0.28
			c1.62-0.15,3.63-0.82,4.5-1.3c0.86-0.48,1.79-1.24,1.79-1.24L283.58,233.36z"/>
		<path class="st17" d="M285.93,235.92c0.04,0,0.06,0,0.06,0l0.06,0c0,0,0.03,0,0.1,0c-0.01-0.43-0.01-0.75-0.02-0.96
			c-0.01-0.21-0.02-0.33-0.02-0.33s0-0.02-0.01-0.05c0-0.02-0.02-0.08-0.02-0.07l0-0.01c0,0-0.01-0.02-0.04-0.05
			c-0.03-0.03-0.06-0.05-0.1-0.07c-0.08-0.05-0.2-0.11-0.33-0.18c-0.28-0.13-0.65-0.28-1.03-0.42c-0.76-0.28-1.53-0.51-1.53-0.51
			l0,0c0,0-1.91-0.55-5.73-1.66c-0.02,0.07-0.03,0.1-0.03,0.1l-0.02,0.06c0,0-0.01,0.02-0.02,0.06c3.82,1.1,5.72,1.66,5.72,1.66l0,0
			c0,0,0.77,0.24,1.52,0.51c0.38,0.14,0.75,0.28,1.01,0.41c0.13,0.06,0.24,0.12,0.31,0.16c0.03,0.02,0.06,0.04,0.06,0.05
			c0,0,0,0,0,0l0,0l0.01,0.05c0,0,0.01,0.1,0.02,0.31C285.92,235.18,285.93,235.49,285.93,235.92z"/>
		<path class="st17" d="M285.76,236.46c0.04,0,0.06,0,0.06,0l0.06,0c0,0,0.03,0,0.1,0c-0.01-0.43-0.01-0.75-0.02-0.96
			c-0.01-0.21-0.02-0.33-0.02-0.33s0-0.02-0.01-0.05c0-0.02-0.02-0.08-0.02-0.07l0-0.01c-0.02-0.06-0.19-0.19-0.49-0.36
			c-0.29-0.16-0.69-0.36-1.09-0.53c-0.41-0.17-0.82-0.32-1.13-0.42c-0.31-0.1-0.52-0.17-0.52-0.17l0,0c0,0-2-0.68-5.99-2.03
			c-0.02,0.06-0.03,0.1-0.03,0.1l-0.02,0.06c0,0-0.01,0.02-0.02,0.06c4,1.35,6,2.03,6,2.03l0,0c0,0,0.21,0.07,0.51,0.17
			c0.31,0.1,0.72,0.25,1.11,0.42c0.4,0.17,0.79,0.35,1.07,0.51c0.28,0.15,0.44,0.31,0.4,0.27h0c0,0,0-0.01,0,0.01
			c0,0.02,0.01,0.04,0.01,0.04s0.01,0.1,0.02,0.31C285.74,235.72,285.75,236.04,285.76,236.46z"/>
		<path class="st17" d="M285.49,237.01c0.04,0,0.06,0,0.06,0l0.06,0c0,0,0.03,0,0.1,0c-0.01-0.43-0.01-0.75-0.02-0.96
			c-0.01-0.21-0.02-0.33-0.02-0.33s0-0.02-0.01-0.05c0-0.02-0.02-0.08-0.02-0.07l0,0c0,0,0,0,0-0.01c-0.02-0.06-0.19-0.18-0.47-0.33
			c-0.27-0.15-0.64-0.33-1.02-0.51c-0.75-0.35-1.51-0.66-1.51-0.66l0,0c0,0-2.06-0.82-6.17-2.47c-0.02,0.06-0.04,0.1-0.04,0.1
			l-0.02,0.06c0,0-0.01,0.02-0.02,0.06c4.11,1.64,6.17,2.47,6.17,2.47l0,0c0,0,0.76,0.31,1.5,0.65c0.37,0.17,0.74,0.35,1,0.5
			c0.13,0.07,0.24,0.14,0.31,0.19c0.03,0.02,0.06,0.04,0.07,0.05c0,0,0,0,0,0l0,0l0,0c0,0,0-0.01,0,0.01c0,0.02,0.01,0.04,0.01,0.04
			s0.01,0.1,0.02,0.31C285.47,236.26,285.48,236.58,285.49,237.01z"/>
		<path class="st17" d="M285.05,237.87c0.04,0,0.06,0,0.06,0l0.06,0c0,0,0.03,0,0.1,0c-0.02-0.5-0.04-0.88-0.05-1.13
			c-0.02-0.25-0.03-0.38-0.03-0.38s0-0.03-0.01-0.05c0-0.02-0.02-0.08-0.02-0.08l0-0.01c-0.01-0.04-0.16-0.19-0.39-0.34
			c-0.24-0.16-0.56-0.36-0.89-0.54c-0.66-0.37-1.34-0.7-1.34-0.7l0,0c0,0-0.49-0.25-1.48-0.72c-0.99-0.47-2.48-1.16-4.47-2.07
			c-0.03,0.06-0.04,0.09-0.04,0.09l-0.03,0.06c0,0-0.01,0.02-0.03,0.06c1.99,0.9,3.48,1.6,4.47,2.07c0.99,0.47,1.47,0.72,1.47,0.72
			l0,0c0,0,0.67,0.33,1.33,0.7c0.33,0.18,0.65,0.37,0.88,0.53c0.11,0.08,0.21,0.15,0.26,0.2c0.03,0.02,0.05,0.04,0.05,0.05
			c0.01,0.01,0.01,0.01,0.01,0.01l0,0c0,0.01,0-0.01,0,0.02c0,0.02,0.01,0.04,0.01,0.04s0.02,0.12,0.03,0.37
			C285.01,237,285.03,237.37,285.05,237.87z"/>
		<path class="st17" d="M284.46,238.52c0.04,0,0.06,0,0.06,0l0.06,0c0,0,0.03,0,0.1,0c-0.02-0.5-0.04-0.88-0.05-1.13
			c-0.02-0.25-0.03-0.38-0.03-0.38s0-0.03-0.01-0.05c0-0.02-0.02-0.08-0.02-0.08l0-0.01c0,0-0.03-0.06-0.09-0.12
			c-0.06-0.06-0.14-0.14-0.25-0.23c-0.21-0.17-0.51-0.38-0.81-0.57c-0.6-0.39-1.22-0.75-1.22-0.75l0,0c0,0-1.84-1.08-5.51-3.24
			c-0.03,0.06-0.05,0.09-0.05,0.09l-0.03,0.05c0,0-0.01,0.02-0.03,0.05c3.67,2.16,5.51,3.24,5.51,3.24l0,0c0,0,0.62,0.36,1.21,0.75
			c0.3,0.19,0.59,0.4,0.79,0.56c0.1,0.08,0.18,0.15,0.23,0.21c0.05,0.05,0.06,0.07,0.06,0.07l0,0c0,0.01,0-0.01,0,0.02
			c0,0.02,0.01,0.04,0.01,0.04s0.02,0.12,0.03,0.37C284.42,237.64,284.44,238.02,284.46,238.52z"/>
		<path class="st17" d="M283.62,239.35c0.04,0,0.06,0,0.06,0l0.06,0c0,0,0.03,0,0.1,0c0.03-0.57,0.04-0.99,0.05-1.28
			c0.01-0.28,0-0.43,0-0.43s0-0.03,0-0.06c0-0.01,0-0.04-0.01-0.06c-0.01-0.02-0.01-0.03-0.01-0.03s0,0,0,0c0,0,0-0.01,0-0.01
			s-0.01-0.01-0.02-0.03c-0.02-0.03-0.04-0.06-0.07-0.09c-0.06-0.07-0.14-0.15-0.25-0.25c-0.21-0.19-0.5-0.43-0.8-0.66
			c-0.59-0.46-1.21-0.88-1.21-0.88l0,0c0,0-0.41-0.29-1.22-0.89c-0.81-0.6-2.02-1.51-3.61-2.74c-0.04,0.05-0.06,0.08-0.06,0.08
			l-0.04,0.05c0,0-0.01,0.02-0.04,0.05c1.59,1.24,2.8,2.15,3.61,2.75c0.81,0.6,1.23,0.89,1.23,0.89l0,0c0,0,0.61,0.43,1.2,0.88
			c0.29,0.23,0.58,0.46,0.78,0.65c0.1,0.09,0.18,0.17,0.23,0.23c0.02,0.03,0.04,0.05,0.05,0.06c0.01,0.01,0.02,0.03,0.02,0.03
			c0,0,0,0.01,0,0l0,0c0,0,0,0,0,0c0,0,0,0,0,0.01c0,0.02,0,0.05,0,0.05s0.01,0.13,0,0.42
			C283.66,238.37,283.65,238.79,283.62,239.35z"/>
		<path class="st17" d="M282.81,239.98c0.04,0,0.06,0,0.06,0l0.06,0c0,0,0.03,0,0.1,0c0.03-0.57,0.04-0.99,0.05-1.27
			c0.01-0.28,0-0.43,0-0.43s0-0.03,0-0.06c0-0.01,0-0.04-0.01-0.06c-0.01-0.02-0.01-0.03-0.01-0.03s0-0.01,0-0.01
			c0,0-0.02-0.05-0.07-0.11c-0.05-0.07-0.12-0.15-0.2-0.25c-0.18-0.2-0.42-0.44-0.67-0.68c-0.5-0.48-1.01-0.94-1.01-0.94l0,0
			c0,0-1.66-1.45-4.97-4.34c-0.04,0.05-0.07,0.08-0.07,0.08l-0.04,0.05c0,0-0.01,0.02-0.04,0.05c3.31,2.89,4.97,4.34,4.97,4.34l0,0
			c0,0,0.51,0.46,1.01,0.93c0.25,0.24,0.49,0.48,0.66,0.67c0.08,0.09,0.15,0.18,0.19,0.23c0.04,0.06,0.05,0.09,0.05,0.09
			c0,0,0,0,0,0s0,0,0,0c0,0,0,0,0,0.01c0,0.02,0,0.05,0,0.05s0.01,0.13,0,0.42C282.85,239,282.84,239.42,282.81,239.98z"/>
		<path class="st17" d="M281.99,240.49c0.04,0,0.06,0,0.06,0l0.06,0c0,0,0.03,0,0.1,0c0.03-0.57,0.04-0.99,0.05-1.27
			c0.01-0.28,0-0.43,0-0.43s0-0.03,0-0.06c0-0.01,0-0.04-0.01-0.06c-0.01-0.02-0.01-0.03-0.01-0.03s0-0.01,0-0.01
			c0,0-0.02-0.04-0.06-0.11c-0.04-0.07-0.11-0.15-0.19-0.26c-0.16-0.2-0.38-0.46-0.61-0.71c-0.45-0.5-0.92-0.99-0.92-0.99l0,0
			c0,0-1.46-1.6-4.39-4.81c-0.05,0.05-0.08,0.07-0.08,0.07l-0.05,0.04c0,0-0.02,0.01-0.05,0.04c2.93,3.21,4.39,4.81,4.39,4.81l0,0
			c0,0,0.47,0.49,0.92,0.99c0.23,0.25,0.45,0.5,0.6,0.7c0.08,0.1,0.14,0.18,0.17,0.24c0.04,0.06,0.05,0.09,0.05,0.09c0,0,0,0,0,0
			s0,0,0,0c0,0,0,0,0,0.01c0,0.02,0,0.05,0,0.05s0.01,0.13,0,0.42C282.03,239.5,282.02,239.92,281.99,240.49z"/>
		<path class="st17" d="M281.01,241.12c0.04,0,0.06,0,0.06,0l0.06,0c0,0,0.03,0,0.1,0.01c0.03-0.59,0.05-1.04,0.06-1.33
			c0.01-0.3,0-0.45,0-0.45s0-0.03,0-0.06c0-0.01,0-0.04-0.01-0.06c-0.01-0.02-0.01-0.03-0.01-0.03s0-0.01,0-0.01
			c0,0-0.01-0.01-0.02-0.03c-0.01-0.02-0.03-0.05-0.05-0.09c-0.04-0.07-0.11-0.18-0.19-0.3c-0.16-0.24-0.38-0.55-0.61-0.86
			c-0.45-0.61-0.93-1.21-0.93-1.21l0,0c0,0-1.23-1.61-3.68-4.82c-0.05,0.04-0.08,0.06-0.08,0.06l-0.05,0.04c0,0-0.02,0.01-0.05,0.04
			c2.46,3.22,3.69,4.83,3.69,4.83l0,0c0,0,0.47,0.59,0.93,1.2c0.23,0.31,0.44,0.61,0.6,0.85c0.16,0.24,0.24,0.4,0.24,0.4
			c0,0,0,0,0,0l0,0c0,0,0,0,0,0.02c0,0.02,0,0.05,0,0.05s0.01,0.14,0,0.44C281.06,240.09,281.04,240.53,281.01,241.12z"/>
		<path class="st17" d="M279.96,241.51c0.04,0,0.06,0,0.06,0l0.06,0c0,0,0.03,0,0.1,0.01c0.03-0.59,0.05-1.04,0.06-1.33
			c0.01-0.3,0-0.45,0-0.45s0-0.03,0-0.06c0-0.01,0-0.04-0.01-0.06c-0.01-0.02-0.01-0.03-0.01-0.03s0-0.01,0-0.01
			c0,0-0.09-0.17-0.22-0.42c-0.14-0.25-0.32-0.58-0.51-0.9c-0.38-0.65-0.77-1.3-0.77-1.3l0,0c0,0-0.98-1.74-2.95-5.21
			c-0.06,0.03-0.09,0.05-0.09,0.05l-0.05,0.03c0,0-0.02,0.01-0.05,0.03c1.97,3.47,2.96,5.21,2.96,5.21l0,0c0,0,0.38,0.65,0.76,1.3
			c0.19,0.33,0.38,0.65,0.51,0.9c0.14,0.25,0.22,0.41,0.22,0.41c0,0,0,0,0,0l0,0c0,0,0,0,0,0.02c0,0.02,0,0.05,0,0.05
			s0.01,0.14,0,0.44C280.01,240.48,279.99,240.92,279.96,241.51z"/>
		<path class="st17" d="M278.93,241.79c0.04,0,0.06-0.01,0.06-0.01l0.06-0.01c0,0,0.03,0,0.1-0.01c-0.06-0.63-0.09-0.94-0.09-0.94
			s-0.03-0.26-0.05-0.51c-0.02-0.13-0.03-0.26-0.04-0.35c-0.01-0.05-0.01-0.09-0.02-0.12c-0.01-0.04-0.02-0.07-0.02-0.07l0-0.01
			l-1.16-2.75l0,0c0,0-0.68-1.74-2.05-5.21c-0.06,0.02-0.1,0.04-0.1,0.04l-0.06,0.02c0,0-0.02,0.01-0.06,0.02
			c1.37,3.48,2.06,5.22,2.06,5.22l0,0l1.17,2.77l0,0c0,0,0,0,0,0.02c0,0.03,0.01,0.06,0.02,0.11c0.01,0.09,0.03,0.22,0.04,0.35
			c0.03,0.25,0.05,0.51,0.05,0.51S278.87,241.16,278.93,241.79z"/>
		<path class="st17" d="M277.8,242.06c0.04,0,0.06-0.01,0.06-0.01l0.06-0.01c0,0,0.03,0,0.1-0.01c-0.09-1.1-0.16-1.65-0.16-1.65
			s-0.01-0.09-0.02-0.18c-0.01-0.04-0.01-0.09-0.02-0.13c0-0.03-0.02-0.09-0.02-0.08l0,0c0,0.04-0.2-0.71-0.42-1.43
			c-0.22-0.72-0.45-1.44-0.45-1.44l0,0c0,0-0.03-0.11-0.1-0.32c-0.06-0.21-0.16-0.53-0.27-0.96c-0.22-0.86-0.52-2.15-0.8-3.9
			c-0.07,0.01-0.1,0.02-0.1,0.02l-0.06,0.01c0,0-0.02,0-0.06,0.01c0.28,1.76,0.58,3.06,0.8,3.93c0.11,0.43,0.2,0.75,0.27,0.97
			c0.07,0.21,0.1,0.32,0.1,0.32l0,0c0,0,0.22,0.72,0.45,1.44c0.11,0.36,0.21,0.72,0.29,0.99c0.08,0.27,0.13,0.45,0.14,0.47
			c0,0,0,0,0,0c0,0.01,0,0,0,0.03c0.01,0.03,0.01,0.07,0.02,0.12c0.01,0.09,0.02,0.17,0.02,0.17S277.7,240.97,277.8,242.06z"/>
		<path class="st17" d="M276.34,242.33c0.04,0,0.06,0,0.06,0l0.06,0c0,0,0.03,0,0.1-0.01c-0.08-1.19-0.14-1.78-0.14-1.78
			s-0.01-0.1-0.02-0.19c-0.01-0.05-0.01-0.1-0.02-0.14c0-0.04-0.02-0.09-0.02-0.09c0,0,0-0.01,0,0c0,0.03-0.03-0.15-0.05-0.33
			c-0.02-0.18-0.04-0.36-0.04-0.36l-0.25-2.37l0,0c0,0-0.15-1.71-0.45-5.14c-0.07,0-0.1,0.01-0.1,0.01l-0.06,0c0,0-0.02,0-0.06,0
			c0.3,3.43,0.45,5.15,0.45,5.15l0,0l0.25,2.37c0,0,0.02,0.18,0.04,0.37c0.02,0.18,0.05,0.37,0.07,0.4c0,0,0,0.01,0,0c0,0,0,0,0,0
			c0,0.01,0,0.01,0,0.02c0.01,0.03,0.01,0.08,0.02,0.12c0.01,0.09,0.02,0.19,0.02,0.19S276.26,241.14,276.34,242.33z"/>
		<path class="st17" d="M275.06,242.36c0.04,0,0.06-0.01,0.06-0.01l0.06-0.01c0,0,0.03,0,0.1-0.01c-0.13-1.45-0.2-2.18-0.2-2.18l0,0
			c-0.01,0.04,0.01-0.76,0.03-1.54c0.02-0.78,0.04-1.56,0.04-1.56l0,0c0,0,0.01-0.42,0.05-1.25c0.04-0.83,0.11-2.09,0.29-3.75
			c-0.07-0.01-0.1-0.01-0.1-0.01l-0.06-0.01c0,0-0.02,0-0.06-0.01c-0.18,1.67-0.25,2.92-0.29,3.76c-0.04,0.84-0.05,1.26-0.05,1.26
			l0,0c0,0-0.02,0.78-0.04,1.56c-0.02,0.79-0.05,1.54-0.03,1.58l0,0.01C274.86,240.2,274.93,240.92,275.06,242.36z"/>
		<path class="st17" d="M273.52,242.3c0.04,0,0.06,0,0.06,0l0.06,0c0,0,0.03,0,0.1,0c-0.02-1.44-0.03-2.16-0.03-2.16l0,0
			c0,0,0.01-0.19,0.06-0.47c0.04-0.28,0.11-0.66,0.19-1.04c0.15-0.76,0.31-1.52,0.31-1.52l0,0c0,0,0.37-1.68,1.11-5.04
			c-0.07-0.02-0.1-0.02-0.1-0.02l-0.06-0.01c0,0-0.02,0-0.06-0.01c-0.74,3.36-1.11,5.04-1.11,5.04l0,0c0,0-0.15,0.76-0.31,1.52
			c-0.07,0.38-0.14,0.76-0.19,1.05c-0.05,0.29-0.06,0.49-0.06,0.49l0,0C273.49,240.12,273.5,240.85,273.52,242.3z"/>
		<path class="st17" d="M272.27,242.25c0.04,0,0.06,0,0.06,0l0.06,0c0,0,0.03,0,0.1-0.01c-0.04-0.72-0.05-1.26-0.05-1.62
			c0-0.36,0.02-0.53,0.02-0.53l0,0c0,0,0.02-0.17,0.1-0.45c0.08-0.27,0.2-0.63,0.32-0.99c0.25-0.72,0.49-1.43,0.49-1.43l0,0
			c0,0,0.63-1.72,1.89-5.15c-0.06-0.02-0.1-0.04-0.1-0.04l-0.06-0.02c0,0-0.02-0.01-0.06-0.02c-1.26,3.44-1.9,5.15-1.9,5.15l0,0
			c0,0-0.25,0.72-0.5,1.44c-0.12,0.36-0.24,0.72-0.32,1c-0.08,0.27-0.11,0.48-0.11,0.48l0,0c0,0-0.02,0.19-0.02,0.56
			C272.22,240.98,272.24,241.53,272.27,242.25z"/>
		<path class="st17" d="M283.58,233.36l0.01,0.08c0,0-0.01-0.02-0.08,0.03c-0.06,0.05-0.02,0.18-0.02,0.18l-0.15,0.14
			c0,0-0.11-0.06-0.18,0.01c-0.07,0.07,0.01,0.17,0.01,0.17l-0.3,0.23c0,0-0.08-0.07-0.17,0c-0.08,0.07,0,0.17,0,0.17l-0.3,0.2
			c0,0-0.1-0.05-0.17,0c-0.07,0.05-0.01,0.16-0.01,0.16l-0.39,0.25c0,0-0.08-0.06-0.16-0.02c-0.08,0.05-0.03,0.17-0.03,0.17
			l-0.46,0.22c0,0-0.05-0.05-0.14-0.01c-0.09,0.05-0.03,0.16-0.03,0.16l-0.44,0.19c0,0-0.06-0.08-0.15-0.04
			c-0.1,0.03-0.06,0.16-0.06,0.16l-0.43,0.19c0,0-0.06-0.1-0.15-0.07c-0.1,0.04-0.06,0.16-0.06,0.16l-0.55,0.19
			c0,0-0.03-0.1-0.13-0.07c-0.1,0.03-0.09,0.14-0.09,0.14l-0.48,0.14c0,0-0.05-0.09-0.15-0.06c-0.1,0.04-0.06,0.13-0.06,0.13
			l-0.6,0.14c0,0-0.05-0.1-0.15-0.07c-0.09,0.03-0.07,0.13-0.07,0.13l-0.58,0.09c0,0-0.02-0.08-0.13-0.06
			c-0.11,0.02-0.08,0.12-0.08,0.12l-0.62,0.07c0-0.01-0.01-0.11-0.12-0.1c-0.11,0.01-0.1,0.12-0.1,0.12l-0.63,0.05
			c0,0,0-0.1-0.11-0.1c-0.11,0.01-0.11,0.13-0.11,0.13l-0.66,0.03c0,0,0.01-0.12-0.1-0.11c-0.12,0.01-0.13,0.1-0.13,0.1l-0.62,0
			c0,0,0-0.08-0.12-0.08c-0.12,0.01-0.12,0.08-0.12,0.08l-0.06-0.17c0.29-0.03,1.63-0.15,3.06-0.28c1.62-0.15,3.63-0.82,4.5-1.3
			c0.86-0.48,1.79-1.24,1.79-1.24L283.58,233.36z"/>
		<path class="st17" d="M283.58,233.36c0,0-1.31,1.29-2.58,1.96c-1.28,0.68-2.11,0.91-3.02,1.14c-0.92,0.24-2.49,0.45-3.7,0.47
			s-1.21,0.02-1.21,0.02l0.18-0.39c0,0,1.29-0.03,2.91-0.18s3.63-0.82,4.5-1.3c0.86-0.48,1.79-1.24,1.79-1.24l0.75-0.6
			L283.58,233.36z"/>
		<path class="st18" d="M273.88,233.28c0,0,0.02-0.05,0.06-0.12c0.03-0.06,0.07-0.14,0.11-0.23c0.11-0.23,0.26-0.53,0.37-0.76
			c0.17-0.36,0.18-0.66,0.12-1.04c-0.02-0.13-0.05-0.26-0.11-0.36c0.22,0.04,0.37,0.02,0.48-0.01c0.3-0.11,0.25-0.43,0.25-0.43
			c0.07,0.09,0.13,0.18,0.19,0.25c0.39,0.48,1.14,0.57,1.71,0.7c0.43,0.1,0.87,0.19,1.3,0.3c0.06,0.02,0.14,0.03,0.21,0.06
			c0.21,0.06,0.42,0.17,0.31,0.41c-0.04,0.09-0.1,0.19-0.2,0.31c-0.04,0.04-0.08,0.09-0.12,0.14c-0.06,0.06-0.12,0.12-0.19,0.19
			c-0.34,0.32-0.75,0.62-1.19,0.78c-0.64,0.23-1.46,0.26-2.1,0.25c-0.18,0-0.89,0.04-1.14-0.18
			C273.89,233.46,273.86,233.38,273.88,233.28z"/>
		<path class="st19" d="M278.83,232.04c0,0-0.01,0-0.05,0.06c-0.04,0.05,0,0.13,0,0.14c-0.01,0-0.07-0.01-0.12,0.04
			c-0.05,0.06,0,0.16,0,0.16l-0.03,0.05c0,0-0.06-0.05-0.13-0.01c-0.07,0.04-0.04,0.18-0.04,0.18l-0.03,0.02
			c0,0-0.08-0.03-0.13,0.01c-0.06,0.04-0.03,0.17-0.03,0.17l-0.03,0c0,0-0.09-0.03-0.14,0c-0.06,0.04-0.03,0.15-0.03,0.15
			s-0.08-0.05-0.15,0c-0.07,0.05-0.03,0.15-0.03,0.15l-0.11,0.09c0,0-0.06-0.09-0.15-0.04c-0.09,0.05-0.05,0.16-0.05,0.16
			l-0.03,0.02c0,0-0.06-0.08-0.14-0.04c-0.08,0.03-0.07,0.15-0.07,0.15l-0.22,0.12c0,0-0.09-0.12-0.18-0.09
			c-0.09,0.02-0.04,0.18-0.04,0.18l-0.03,0c0,0-0.08-0.14-0.17-0.12c-0.09,0.02-0.06,0.17-0.06,0.17l-0.16,0.03
			c0,0-0.05-0.13-0.15-0.11c-0.1,0.02-0.07,0.16-0.07,0.16l-0.16,0.01c0,0-0.02-0.16-0.14-0.15c-0.12,0.01-0.08,0.16-0.08,0.16
			l-0.14,0.01c0,0-0.01-0.16-0.12-0.16c-0.12,0.01-0.1,0.18-0.1,0.18l-0.2,0c0,0-0.01-0.18-0.11-0.17c-0.1,0.01-0.11,0.17-0.11,0.17
			l-0.11,0c0,0,0.02-0.16-0.08-0.16c-0.1-0.01-0.15,0.17-0.15,0.17l-0.14-0.01c0,0,0.06-0.16-0.07-0.18
			c-0.09-0.01-0.12,0.07-0.15,0.13c-0.03,0.05-0.04,0.05-0.09,0.04c-0.06-0.01-0.11-0.02-0.16-0.05c-0.09-0.05-0.14-0.14-0.17-0.24
			c-0.01-0.03-0.02-0.07-0.02-0.1c0,0,0-0.01,0-0.01c0,0,0.01,0,0.01,0c0.06,0.04,0.13,0.08,0.2,0.11c0.03,0.02,0.07,0.03,0.11,0.04
			c0.04,0.01,0.07,0.01,0.11,0.02c0.06,0.01,0.13,0.02,0.19,0.02c0.73,0.03,2.22,0.07,3.03-0.46c0.66-0.43,1.06-0.86,1.21-1.16
			L278.83,232.04z"/>
	</g>
	<path class="st20" d="M274.92,231.74c-0.21-0.48-1.18-1.72-1.34-2.02c-0.17-0.33,0.29-0.76,0.71-0.87
		c0.42-0.11,0.58,0.15,0.58,0.15s0.68,1.38,1.15,2.25l0,0.01C276.03,231.26,276.06,232.1,274.92,231.74z"/>
</g>
</svg>
