<?xml version="1.0" encoding="utf-8"?>
<!-- Generator: Adobe Illustrator 24.0.0, SVG Export Plug-In . SVG Version: 6.00 Build 0)  -->
<svg version="1.1" id="_x3C_Layer_x3E_" xmlns="http://www.w3.org/2000/svg" xmlns:xlink="http://www.w3.org/1999/xlink" x="0px"
	 y="0px" viewBox="0 0 2678.4 1326.24" style="enable-background:new 0 0 2678.4 1326.24;" xml:space="preserve">
<style type="text/css">
	.st0{fill:#FCECDB;}
	.st1{fill:#163560;}
	.st2{fill:#ED975D;}
	.st3{fill:#ED7D2B;}
	.st4{fill:#599DAD;}
	.st5{fill:#6BB7BF;}
	.st6{fill:#5AA9AD;}
	.st7{fill:#FFB27D;}
	.st8{fill:#F99746;}
	.st9{fill:#4A75CB;}
	.st10{fill:#2B478B;}
	.st11{fill:#2E3552;}
	.st12{fill:#82B378;}
	.st13{fill:#A8D29F;}
	.st14{fill:#F1A34F;}
	.st15{fill:#FFB973;}
	.st16{fill:#D86713;}
	.st17{fill:#D39E7A;}
	.st18{fill:#E0B594;}
	.st19{fill:#233862;}
	.st20{clip-path:url(#SVGID_2_);}
	.st21{fill:#2A4E96;}
	.st22{fill:#1E3D70;}
	.st23{fill:#DDEBFD;stroke:#000000;stroke-width:3;stroke-miterlimit:10;}
	.st24{fill:#739AF0;stroke:#000000;stroke-width:2;stroke-miterlimit:10;}
	.st25{fill:#DDEBFD;}
	.st26{fill:#A8C3F7;}
	.st27{opacity:0.5;fill:#82B378;}
	.st28{fill:#FFB93E;}
	.st29{fill:#FFA412;}
	.st30{fill:#E2810E;}
</style>
<g>
	<path class="st0" d="M1635.37,876.64c-140.55,129.26-315.42,129.01-493.3,57.34h-0.01C1037.96,892.06,927.85,819.31,868,725.55
		c-80.95-125.09-52.71-232.69,9.71-367.27c82.85-178.74,216.95-284.71,414.33-262.84c253.26,28.04,413.15,212.24,456.89,456.89
		C1770.98,675.56,1724.49,794.7,1635.37,876.64z"/>
	<path class="st0" d="M153.1,1248.82c0,0-154.82-522.67,129.29-680.99c284.12-158.32,455.39,94.27,555.3,226.12
		s531.45,392.86,793.13,147.38c275.69-258.61,412.46-332.01,609.16-338.25c196.7-6.24,115.52,205,280.99,286.71
		c165.47,81.7,85.17,343.63-68.25,362.53L153.1,1248.82z"/>
	<g>
		<path class="st1" d="M1977.59,1193.34c0,0-3.34,53.83-13.75,54.6c-1.38,0.1-52.82,0.1-52.82,0.1l-65.66-0.38
			c0,0,0.43-15.82,19.62-19.17c19.19-3.34,51.32-16.83,62.94-42.2C1940.15,1159.61,1977.59,1193.34,1977.59,1193.34z"/>
		<path class="st2" d="M2012.63,556.74c0,0-31,17.63-39.67,17.62c-8.68,0-42.74-6.58-52.23-1.73c-9.5,4.85-26.68,24.37-29.91,30.75
			c-5.8,11.46,23.34,6.4,37.12-3.37c2-1.42,4.49-1.94,6.88-1.42c7.13,1.56,21.96,4.25,29.11,1.6c9.62-3.56,60.31-7.52,60.31-7.52
			L2012.63,556.74z"/>
		<path class="st3" d="M2248.46,316.69c0,0-32.13,228.38-85.34,248.83c-26.25,10.09-142.28,32.97-176.6,35.27
			c0,0-8.41-6.82-6.36-34.58c0,0,121.56-44.63,138.83-68.9c25.7-36.12-15.96-147.57,16.29-181.49
			C2167.54,281.89,2221.86,267.31,2248.46,316.69z"/>
		<path class="st4" d="M2237.63,797.84c-9.37,15.9-20.21,30.8-31.39,44.91c-34.54,43.6-72.13,79.55-78.68,113.53
			c-1.3,6.77-3.37,14.07-6.07,21.75c-2.74,7.78-6.12,15.97-10.02,24.43c-14.66,31.83-36.57,67.5-58.45,99.93
			c-37.83,56.05-68.79,93.66-68.79,93.66s-9.92,7.74-38.29,7.73c-7.89,0-34.47-4.33-34.47-4.33c2.61-6.54,33.98-80.95,72.04-175.53
			c15.46-38.39,31.89-79.24,47.75-118.62c2.11-5.26,4.22-10.5,6.32-15.69c4.85-12.05,9.62-23.92,14.28-35.47
			c35.74-88.81,64.2-159.53,64.2-159.53s142.83-54.11,157.67-19.05C2285.96,704.47,2275.99,732.79,2237.63,797.84z"/>
		<path class="st1" d="M2128.64,1039.56c0,0,45.37,29.15,40.97,38.62c-0.59,1.26-25.66,46.17-25.66,46.17l-32.34,57.14
			c0,0-13.6-8.09-7.17-26.47c6.44-18.39,10.32-53.01-6.16-75.53C2080.94,1055.81,2128.64,1039.56,2128.64,1039.56z"/>
		<path class="st5" d="M2102.86,1095.46c0,0,31.94-29.66,36.94-48.01c0,0-116.84-139.99-142.19-171.37
			c-1.16-1.44-0.87-3.02,0.67-4.75c19.13-21.58,231.73-65.44,259.51-108.66c9.58-14.89,15-29.04,17.95-41.39
			c6.3-26.38,1.32-44.6,1.32-44.6l-212.32-6.14c0,0-176.78,110.07-196.8,185.12C1847.94,930.7,2102.86,1095.46,2102.86,1095.46z"/>
		<path class="st6" d="M1998.28,871.32c19.13-21.58,231.73-65.44,259.51-108.66c9.58-14.89,15-29.04,17.95-41.39V694.4l-90.24-14.19
			c0,0-25.59,78.74-101.38,108.27C2013.14,816.13,1999.69,865.21,1998.28,871.32z"/>
		<path class="st7" d="M2122.84,302.29C2165.79,313.4,2237,273.6,2237,273.6s-27.65-18.58-37.9-59.4c-0.52-2.06-0.98-4.16-1.41-6.33
			c-4.5-0.95-12.98-2.76-22.06-4.67l-32.81,29.39c0,0,0.75,12.21,4.85,33.18c0.71,3.66,1.53,7.59,2.47,11.77
			C2132.55,288.44,2122.84,302.29,2122.84,302.29z"/>
		<path class="st8" d="M2282.47,480.33c-6.15,82.75,1.94,208.59-5.04,230.39c-6.02,18.8-74.65,7.63-102.05,1.35
			c-10.14-2.32-22.42-5.64-35.11-9.57c-35.38-10.96-73.93-26.6-78.07-38.21c-0.16-0.46-0.3-0.9-0.38-1.34
			c-0.38-1.69-0.3-3.27,0.08-4.87c1.38-5.92,6.69-12.32,7.32-26.98c0.7-16.37,0.59-35.64,1.21-56.36c0.03-2.33,0.06-4.88,0.32-7.2
			l0.01-0.85c0.01-0.45,0.02-0.88,0.03-1.33c0.59-23.11,1.8-47.41,3.2-71.5c0.89-15.13,1.92-30.12,3.11-44.48
			c3.09-37.07,7.24-70.03,12.75-90.87c8.99-33.97,28.83-56.13,46.88-72.36l13.06-11.2c14.57,3.18,31.8,1.07,47.38-6.31
			c16.86-8.01,22.69-13.74,25.62-11.58C2261.73,287.1,2289.74,379.17,2282.47,480.33z"/>
		<path class="st3" d="M2140.28,702.5c-35.38-10.96-73.93-26.6-78.07-38.21c-0.16-0.46-0.3-0.9-0.38-1.34
			c0.02-1.62,0.04-3.25,0.08-4.87c1.38-5.92,6.69-12.32,7.32-26.98c0.7-16.37,0.59-35.64,1.21-56.36c0.03-2.33,0.06-4.88,0.32-7.2
			l0.01-0.85c0.01-0.45,0.02-0.88,0.03-1.33l143.03-182.23C2213.83,383.14,2309.98,583.35,2140.28,702.5z"/>
		<path class="st2" d="M2142.83,232.59c0,0,0.75,12.21,4.85,33.18c32.04-10.35,46.57-39.29,51.42-51.57
			c-0.52-2.06-0.98-4.16-1.41-6.33c-4.5-0.95-12.98-2.76-22.06-4.67L2142.83,232.59z"/>
		<path class="st7" d="M2138.52,251.08c0,0,69.86-11.66,61.93-55.06c-7.93-43.4-4.25-74.13-49.2-68.52
			c-44.94,5.61-50.56,23.75-51.43,38.88C2098.95,181.51,2120.14,253,2138.52,251.08z"/>
		<polygon class="st9" points="2035.09,609.95 1860.68,613.67 1811.1,461.07 1804.94,463.07 1857.35,624.4 2035.32,620.6 		"/>
		<path class="st7" d="M2031.76,629.09c0,0-57.18,15.08-78.63,13.49c-21.44-1.58-39.28-11.78-41.98-17.11s-8.37-14.77,6.23-13.02
			c14.6,1.74,34.53,4.85,35.15,2.04c0.62-2.8-11.9-2.54-11.9-2.54s-3.78-5.5,0.98-5.7c4.76-0.2,18.66-3.97,23.83-1.39
			c5.16,2.58,9.93,12.11,13.7,11.71c3.77-0.4,47.85-19.85,47.85-19.85L2031.76,629.09z"/>
		<path class="st8" d="M2234.28,326.06c0,0-6.76,230.53-57.39,256.73c-24.98,12.93-137.78,48.46-171.64,54.53
			c0,0-9.11-5.85-10.13-33.67c0,0,115.9-57.76,130.39-83.79c21.56-38.73-32.13-144.91-3.81-182.18
			C2150.01,300.4,2202.39,279.92,2234.28,326.06z"/>
		<path class="st10" d="M2199.1,214.2c0,0,0.8-14.89-8.39-23.42c0,0,3.2-14.93-2.71-17.39c-5.91-2.46-7.14,10.09-9.84,8.12
			c-2.71-1.97-14.76-11.32-19.93-25.1c-5.17-13.78-52.46,2.91-57.97,5.39c-5.51,2.48-23.23-6.62-26.67-14c0,0,9.84-7.87,14.27-13.78
			c4.43-5.91,35.43-45.77,78.74-34.45c43.31,11.32,49.21,31.99,46.75,49.71C2210.89,166.99,2216.84,208.25,2199.1,214.2z"/>
	</g>
	<path class="st11" d="M2641.97,1254.92H54.14c-1.62,0-2.94-1.32-2.94-2.94v-1c0-1.62,1.32-2.94,2.94-2.94h2587.83
		c1.62,0,2.94,1.32,2.94,2.94v1C2644.91,1253.6,2643.58,1254.92,2641.97,1254.92z"/>
	<g>
		<g>
			<path class="st12" d="M876.63,1074.03c0,0-27.93-32.58-1.72-53.28c0,0,19.14-11.59,34.75-10.65c0,0-22.12,37.08-14.96,40.77
				c7.16,3.69,21.66-43.1,21.66-43.1s43.56-4.22,57.57,2.51c0,0-37.24,30.47-29.39,32.29c7.84,1.81,48.06-28.1,48.06-28.1
				s40.54,6.9,38.38,31.63c-2.16,24.73-16.13,32.37-22.27,31.71c-6.14-0.66-42.05-14.37-42.84-9.34
				c-0.78,5.03,20.84,21.47,35.98,22.24c0,0-28.58,31.52-47.58,22.42c-19-9.1-20.62-23.52-32.46-28.93
				c-11.84-5.41-21.95-5.39-17.06,0.12c4.89,5.52,26.32,10.88,33.09,22.86c6.77,11.98,12.85,20.06-6.81,17.1
				c-19.65-2.96-51.6-17.34-53-33.81C876.63,1074.03,876.63,1074.03,876.63,1074.03z"/>
			<g>
				<path class="st12" d="M1011.06,1046.78c0,0-110.11-4.24-134.43,27.25c0,0-5.38,16.11-21.93,30.77l-2.58,7.03
					c0,0,19.08-20.12,25.91-21.34C878.03,1090.5,867.36,1051.48,1011.06,1046.78z"/>
				<path class="st12" d="M854.71,1104.8c0,0-23.63,17.48-25.28,48.71l4.29,0.38c0,0,7.55-32.29,21.19-44.92
					C868.56,1096.35,854.71,1104.8,854.71,1104.8z"/>
			</g>
		</g>
		<g>
			<path class="st13" d="M778.99,1033.06c0,0,44.43-24.88,23.69-58.64c0,0-16.58-20.73-34.36-26.06c0,0,9.48,50.35,0,51.53
				c-9.48,1.19-6.52-56.86-6.52-56.86s-46.79-22.51-65.16-20.73c0,0,29.02,49.16,19.55,47.98c-9.48-1.18-42.05-50.94-42.05-50.94
				s-47.98-8.88-55.68,19.55c-7.7,28.43,4.74,42.65,11.85,44.42c7.11,1.78,52.72,1.18,51.53,7.11c-1.19,5.92-31.99,15.4-49.16,10.07
				c0,0,18.96,46.79,43.83,44.42c24.88-2.37,32.58-17.77,47.98-18.95c15.4-1.18,26.65,2.96,18.95,7.11
				c-7.7,4.15-33.76,1.36-46.2,11.93c-12.44,10.58-22.51,17.09,0.59,21.83c23.1,4.74,64.56,1.78,72.86-15.99
				C778.99,1033.06,778.99,1033.06,778.99,1033.06z"/>
			<g>
				<path class="st12" d="M640.39,947.76c0,0,124.39,40.28,138.6,85.29c0,0-0.59,20.14,11.85,43.24v8.89
					c0,0-13.03-30.21-20.14-34.36C770.7,1050.83,798.54,1011.73,640.39,947.76z"/>
				<path class="st12" d="M790.84,1076.3c0,0,19.18,29.13,8.25,64.59l-4.94-1.33c0,0,4.79-39.06-5.25-58.7
					C778.87,1061.22,790.84,1076.3,790.84,1076.3z"/>
			</g>
		</g>
		<g>
			<path class="st13" d="M849.67,998.75c0,0-58.56-32.79-31.23-77.3c0,0,21.86-27.33,45.29-34.35c0,0-12.49,66.37,0,67.93
				c12.49,1.56,8.59-74.96,8.59-74.96s61.68-29.67,85.89-27.33c0,0-38.26,64.81-25.77,63.24c12.49-1.56,55.44-67.15,55.44-67.15
				s63.25-11.71,73.4,25.77c10.15,37.48-6.25,56.22-15.62,58.56c-9.37,2.34-69.49,1.56-67.93,9.37c1.56,7.81,42.16,20.3,64.81,13.27
				c0,0-24.99,61.68-57.78,58.56c-32.79-3.12-42.94-23.42-63.25-24.99c-20.3-1.56-35.14,3.9-24.99,9.37
				c10.15,5.46,44.51,1.79,60.9,15.73c16.4,13.94,29.67,22.53-0.78,28.78c-30.45,6.25-85.11,2.34-96.04-21.08
				C849.67,998.75,849.67,998.75,849.67,998.75z"/>
			<g>
				<path class="st12" d="M1032.37,886.31c0,0-163.97,53.09-182.71,112.43c0,0,0.78,26.55-15.62,57v11.71
					c0,0,17.18-39.82,26.55-45.29C860.6,1022.17,823.9,970.64,1032.37,886.31z"/>
				<path class="st12" d="M834.05,1055.75c0,0-25.29,38.4-10.87,85.14l6.51-1.75c0,0-6.31-51.48,6.91-77.38
					C849.83,1035.87,834.05,1055.75,834.05,1055.75z"/>
			</g>
		</g>
		<path class="st14" d="M847.69,1242.25c63.35,0,114.71-51.36,114.71-114.71H732.98C732.98,1190.89,784.34,1242.25,847.69,1242.25z"
			/>
		<path class="st15" d="M875.92,1241.37c-4.67,0.58-9.42,0.88-14.25,0.88c-63.35,0-114.7-51.36-114.7-114.71h28.5
			C775.46,1186.07,819.29,1234.35,875.92,1241.37z"/>
		<path class="st14" d="M963.99,1248.09H731.4l0,0c0-7.82,6.34-14.15,14.15-14.15h204.28
			C957.65,1233.93,963.99,1240.27,963.99,1248.09L963.99,1248.09z"/>
		<rect x="729.21" y="1127.54" class="st16" width="235.8" height="3.52"/>
	</g>
	<g>
		<path class="st17" d="M2410.43,1241.84c-27.28-27.87-75.35-47.06-130.87-49.32v-92.16h85.79c2.12,0,4.02-1.85,5.23-4.71
			c0.84-2,1.34-4.49,1.34-7.19v-4.16c0-6.55-2.96-11.9-6.57-11.9h-85.79V852.9c0-6.06-4.96-11.02-11.02-11.02l0,0
			c-6.06,0-11.02,4.96-11.02,11.02v219.5h-85.78c-3.61,0-6.57,5.36-6.57,11.9v4.16c0,2.79,0.54,5.36,1.43,7.39
			c1.2,2.75,3.06,4.51,5.14,4.51h85.78v92.16c-55.52,2.26-103.59,21.44-130.87,49.32c-1.98,2.02-3.85,4.09-5.6,6.2h295
			C2414.29,1245.93,2412.41,1243.87,2410.43,1241.84z"/>
		<path class="st18" d="M2279.56,1192.93c-38.74,3.58-72.04,22.29-91.31,48.91c-1.47,2.03-2.85,4.09-4.15,6.2h-27.29
			c1.3-2.11,2.68-4.17,4.15-6.2c21.51-29.71,60.46-49.54,104.95-49.54C2270.52,1192.3,2275.08,1192.52,2279.56,1192.93z"/>
	</g>
	<path class="st3" d="M2410.78,768.08h-292.12c-7.28,0-13.23,5.96-13.23,13.23v55.37c0,7.28,5.96,13.23,13.23,13.23h292.12
		c7.28,0,13.23-5.96,13.23-13.23v-55.37C2424.02,774.04,2418.06,768.08,2410.78,768.08z"/>
	<g>
		<g id="man_4_">
			<path class="st7" d="M793.7,346.88c-4.9,13.17-13.39,28.46-22.3,32.26c-10.1,4.31-14.32,10.4-14.32,10.4l-8.16-4.74l-9.74-5.66
				c0,0,0.23-1.08,0.71-2.84c0.47-1.75,1.2-4.2,2.19-6.91c0,0,2.99-3.84,1.16-8.67c-1.83-4.82-1.46-12.27,1.66-16.82
				c3.13-4.54,6.14-15.73,8.02-15.4c4.56,0.78-2.24,16.16-0.29,19.02c1.76,2.58,3.97,1.69,4.38,1.5c0.03-0.02,0.05-0.03,0.08-0.04
				c12.78-5.62,28.29-35.92,35.15-31.83C794.8,318.68,795.79,341.27,793.7,346.88z"/>
			<g>
				<path class="st10" d="M749.48,365.22l16.01,11.25c1.13,0.79,2.71,0.52,3.5-0.61l41.02-58.37c0.79-1.13,0.52-2.71-0.61-3.5
					l-16.01-11.25c-1.13-0.8-2.71-0.52-3.5,0.61l-41.02,58.37C748.07,362.85,748.35,364.43,749.48,365.22z"/>
				<path class="st19" d="M764.14,375.52l9.39,6.6c0.86,0.6,2.06,0.4,2.67-0.47l41.71-59.35c0.61-0.86,0.4-2.06-0.46-2.66l-9.39-6.6
					c-0.86-0.61-2.06-0.4-2.67,0.46l-41.71,59.35C763.07,373.72,763.28,374.92,764.14,375.52z"/>
			</g>
			<path class="st19" d="M519.77,281.47c0,0,81.48,142.11,111.04,168.26l108.38-80.8c0,0,15.73,4.82,22.61,20.61
				c0,0-65.82,134.09-130.62,139.78c-64.8,5.68-155.75-160.72-155.75-160.72L519.77,281.47z"/>
			<g>
				<path class="st19" d="M335.38,1248.04h-47.08c-5.93-3.22-11.21-10.59-12.88-21.57c-2.3-15.17-19.3-23.44-22.98-35.84
					c-3.67-12.4,15.17-29.86,15.17-29.86l3.15-4.06l3.28-4.21l31.25,7.36c0,0,0.77,7.44,1.24,16.92c0.34,6.84,0.52,14.74,0.14,21.67
					c-0.92,16.54,4.63,34.35,19.32,37.57C336.87,1238.39,336.38,1244.84,335.38,1248.04z"/>
				<path class="st19" d="M608.6,1248.04H500.94c-5.18-6.32-3.27-29.64-2.49-37.25c0.16-1.53,0.27-2.43,0.27-2.43
					s36.76-29.41,41.81-6.89c0.15,0.71,0.34,1.4,0.54,2.08c6.36,21.06,34.9,30.63,51.38,33.3
					C603.17,1238.59,607.13,1244.16,608.6,1248.04z"/>
				<path class="st8" d="M588.08,647.09c0,0-5.58,69.65-12.14,153.37c-8.92,113.73-19.64,253.43-20.7,279.89
					c-1.83,45.96-9.19,119.46-9.19,119.46s-17.45,17.46-52.38,10.1c0,0-31.12-104.93-40.01-215.96c-0.14-1.82-0.28-3.65-0.41-5.49
					c-8.27-113.03-21.13-351.03-21.13-351.03L588.08,647.09z"/>
				<path class="st3" d="M588.08,647.09c0,0-5.58,69.65-12.14,153.37l-122.29,193.5c-0.14-1.82-0.28-3.65-0.41-5.49
					c-8.27-113.03-21.13-351.03-21.13-351.03L588.08,647.09z"/>
				<path class="st8" d="M562.59,655.36c0,0-100.62,252.24-166.78,370.78c-66.16,118.54-86.84,151.62-86.84,151.62
					s-37.91-15.16-41.35-25.5c0,0,25.3-228.85,69.61-284.63c25.04-31.52,54.45-126.12,55.82-159.2c1.38-33.08,8.96-98.55,8.96-98.55
					L562.59,655.36z"/>
			</g>
			<path class="st7" d="M537.54,287.65c-39.32,12.41-107.35-21.08-107.35-21.08s36.25-27.21,34.35-83.78l30.4,24.5l20.65,16.64
				c0,0-0.09,9.81-2.34,27c-0.6,4.52-1.34,9.56-2.27,15.07C527.86,275.27,537.54,287.65,537.54,287.65z"/>
			<path class="st2" d="M515.6,223.93c0,0-0.09,9.81-2.34,27c-22.88-3.93-48.84-40.91-48.84-40.91c11.65-3.36,21.85-3.97,30.53-2.73
				L515.6,223.93z"/>
			<path class="st7" d="M527.62,223c0,0-64.95,10.79-71.04-29.76c-6.1-40.55-18.58-66.47,22.63-75.07s51.61,5.66,56.94,18.7
				C541.47,149.9,544.36,219.14,527.62,223z"/>
			<path class="st10" d="M592.42,652.89c-1.18,0.98-2.56,1.58-4.13,1.58c-14.77-0.2-57.82,8-94.26,4.26
				c-30.71-2.95-57.9-12.05-87.09-25.13c-3.88-1.74-12.8-6.5-12.6-10.83c0.13-4.74,0.6-11.63,1.19-20.29
				c2.07-30.13,5.67-81.96,2.16-141.76c-0.63-11.13-0.96-22.18-1-33.05c-0.3-81.04,15.77-152.32,48.06-176.44
				c2.76-1.98,19.69,6.3,35.25,13.97c14.38,7.09,28.75,7.87,42.33,5.13l13.58,12.01c16.54,15.36,34.66,36.23,42.53,67.93
				c6.7,26.97,10.63,75.61,12.8,126.02c0.98,22.84,1.78,45.88,1.98,67.74v0.78c0.19,2.17,0.19,4.53,0.19,6.7
				C594.2,607.6,593.41,652.1,592.42,652.89z"/>
			<path class="st19" d="M395.54,602.47c2.07-30.13,5.67-81.96,2.16-141.76c-0.63-11.13-0.96-22.18-1-33.05
				c13.45-32.63,24.45-56.29,24.45-56.29h33.9C455.04,371.37,479.9,541.15,395.54,602.47z"/>
			<g>
				<path class="st19" d="M385.15,684.4l-144.6-20.6c-18.82-2.68-36.41,10.52-39.09,29.34l-8.93,62.66
					c-2.68,18.82,10.52,36.41,29.34,39.09l144.6,20.61c18.82,2.68,36.41-10.52,39.09-29.34l8.93-62.66
					C417.17,704.67,403.96,687.08,385.15,684.4z"/>
				<path class="st10" d="M393.31,703.08L393.31,703.08c-4.06-10.18-12.83-18.21-23.96-20.93h-0.01c-0.01,0-0.02,0-0.03-0.01
					c-1.09-0.26-2.2-0.49-3.34-0.65l-28.79-4.1l1.92-13.52c0.43-3.02-0.34-6.03-2.18-8.48c-1.84-2.44-4.52-4.04-7.54-4.46
					l-7.51-1.07l-30.23-4.31l-5.45-0.78c-6.24-0.89-12.06,3.47-12.94,9.72l-1.92,13.52l-49.7-7.09
					c-18.89-2.69-36.54,10.56-39.24,29.45l-9.03,63.39c-2.69,18.89,10.56,36.54,29.45,39.23l144.34,20.58
					c2.55,0.37,5.07,0.43,7.53,0.24h0.01c0.01,0,0.01,0,0.02,0c3.95-0.3,7.75-1.29,11.27-2.84c10.61-4.68,18.67-14.58,20.42-26.85
					l9.04-63.38C396.31,714.55,395.48,708.51,393.31,703.08z M280.36,655.5c0.27-1.89,1.75-3.32,3.55-3.61
					c0.42-0.07,0.84-0.08,1.29-0.02l6.42,0.91l23.79,3.4l12.97,1.85c2.33,0.33,3.96,2.5,3.63,4.83l-1.92,13.52l-51.65-7.37
					L280.36,655.5z"/>
			</g>
			<path class="st7" d="M323.78,624.84c0.04-0.77,0.08-1.56,0.14-2.38c0.3-4.04,7.9-14.16,7.9-14.16l-19.04-9.88l-7.54,12.46
				c-11.38,9.06-11.59,9.22-9.52,26.57c1.8,15.04-8.04,15.22-7.8,25.95c0.23,10.74,14.07,5.46,14.07,5.46
				c21.44-10.07,23.22-15.13,22.56-25.34c2.03,2.89,4.31,4.57,6.24,3.31c1.7-1.11-1.7-5.5-3.18-15.68
				C327.4,629.62,325.6,627.07,323.78,624.84z"/>
			<path class="st10" d="M312.51,616.05c12.21,2.38,25.44,1.42,25.44,1.42s36.25-111.97,40.91-122.2
				c4.67-10.23,107.66-131.29,107.66-131.29L443.62,256.6c0,0-111.4,186.08-122.71,212.23c-18.69,43.21-25.18,140.08-25.18,140.08
				S302.92,614.18,312.51,616.05z"/>
			<path class="st10" d="M456.53,189.33c0,0,6.66-1.11,5.59-10.29c-1.08-9.18-1.06-21.18,6.4-18.94c7.46,2.24,7.84,8.21,10.9,4.72
				c3.07-3.49,3.12-18.19,25.33-19.21c22.21-1.02,31.23,6.71,41.56,2.17c10.33-4.54,10.87-20.17,10.87-20.17s-2.94,5.58-7.37,7.36
				c0,0,17.23-23.57-2.72-39.73c-19.95-16.16-40.29-5.58-51.83-4.88c-25.43,1.54-41.86,3.07-50.17,19.78
				C436.78,126.84,440.2,173.25,456.53,189.33z"/>
		</g>
	</g>
	<g>
		<defs>
			<path id="SVGID_1_" d="M1635.37,876.64c-140.55,129.26-315.42,129.01-493.3,57.34h-0.01C1037.96,892.06,927.85,819.31,868,725.55
				c-80.95-125.09-52.71-232.69,9.71-367.27c82.85-178.74,216.95-284.71,414.33-262.84c253.26,28.04,413.15,212.24,456.89,456.89
				C1770.98,675.56,1724.49,794.7,1635.37,876.64z"/>
		</defs>
		<clipPath id="SVGID_2_">
			<use xlink:href="#SVGID_1_"  style="overflow:visible;"/>
		</clipPath>
		<g class="st20">
			<g>
				<g>
					<path class="st2" d="M1376.32,629.96c0,0-65.72-13.23-76.7-12.18c-10.98,1.04-49.02,18.14-49.44,21.27
						c-0.43,3.13,1.46,5.62,8.12,5.89c6.66,0.27,28.46-3.11,27.14-0.42c-1.32,2.69-64,16.72-64.36,29.42
						c-0.36,12.7,34.77,35.36,63.98,36.18c29.21,0.82,85.66-34.57,90.57-35.13C1417.22,670.25,1376.32,629.96,1376.32,629.96z"/>
					<g>
						<path class="st3" d="M1735.28,483.9c-25.67,31.97-47.07,56.76-58.35,65.77c-8.96,7.16-20.31,14.49-33.31,21.83
							c-93.7,52.88-273.9,106.53-273.9,106.53s-0.13-0.09-0.36-0.26c-2.26-1.65-14.65-11.18-22.5-27.05
							c-6.86-13.88-5.45-22.49-3.41-27c1.24-2.75,2.71-3.99,2.71-3.99s215.95-138.01,233.22-152.39
							c9.79-8.15,45.26-90.73,74.15-160.74c4.04,5.86,7.95,11.81,11.74,17.84C1695.59,372.57,1718.98,426.3,1735.28,483.9z"/>
					</g>
					<g>
						<path class="st5" d="M1736.76,728.3c-1.36,3.86-2.79,7.7-4.28,11.51c-7,17.88-15.45,35.16-25.23,51.7v0.01
							c-5.8,9.84-12.07,19.42-18.78,28.71c-15.06,20.88-32.33,40.3-51.53,57.94c0.1-1.44,0.21-2.89,0.32-4.33
							c0.15-2.23,0.31-4.44,0.47-6.63c0.35-4.86,0.69-9.64,1.02-14.32c0.14-1.82,0.26-3.62,0.39-5.41
							c0.82-11.59,1.61-22.59,2.34-32.9c0.21-2.97,0.42-5.87,0.62-8.73c0.06-0.85,0.12-1.69,0.18-2.53
							c0.13-1.67,0.24-3.34,0.36-4.98c0.11-1.49,0.21-2.95,0.31-4.4c0.01-0.15,0.02-0.3,0.03-0.44c0.1-1.48,0.2-2.94,0.31-4.39
							c0.18-2.44,0.35-4.82,0.51-7.16c0.1-1.45,0.21-2.88,0.31-4.29c0.15-2.2,0.31-4.34,0.45-6.43c0.04-0.5,0.08-1.01,0.11-1.51
							c0.08-0.99,0.14-1.99,0.21-2.96c0.03-0.49,0.07-0.98,0.1-1.45c0.01-0.06,0.01-0.12,0.01-0.18c0.14-1.87,0.26-3.7,0.39-5.47
							c0.01-0.09,0.02-0.19,0.02-0.28c0.09-1.29,0.19-2.56,0.27-3.79c0.03-0.42,0.06-0.83,0.08-1.22c0.05-0.71,0.1-1.4,0.14-2.09
							c0.04-0.56,0.09-1.12,0.12-1.67c0.27-3.86,0.53-7.39,0.75-10.55c0.03-0.45,0.07-0.9,0.09-1.34c0.03-0.45,0.07-0.89,0.09-1.33
							c0.06-0.83,0.12-1.64,0.17-2.41c0.4-5.59,0.68-9.66,0.85-12.04c0.02-0.25,0.03-0.48,0.05-0.69c0.01-0.07,0.01-0.14,0.02-0.2
							c0.02-0.22,0.03-0.42,0.03-0.59c0.05-0.67,0.08-1.02,0.08-1.02L1736.76,728.3z"/>
						<path class="st4" d="M1736.76,728.3c-1.36,3.86-2.79,7.7-4.28,11.51c-7,17.88-15.45,35.16-25.23,51.7v0.01
							c-5.8,9.84-12.07,19.42-18.78,28.71c-15.06,20.88-32.33,40.3-51.53,57.94c0.1-1.44,0.21-2.89,0.32-4.33
							c0.15-2.23,0.31-4.44,0.47-6.63c0.35-4.86,0.69-9.64,1.02-14.32c0.14-1.82,0.26-3.62,0.39-5.41
							c0.82-11.59,1.61-22.59,2.34-32.9c0.21-2.97,0.42-5.87,0.62-8.73c0.06-0.85,0.12-1.69,0.18-2.53
							c0.13-1.67,0.24-3.34,0.36-4.98c0.11-1.49,0.21-2.95,0.31-4.4c0.01-0.15,0.02-0.3,0.03-0.44c0.1-1.48,0.2-2.94,0.31-4.39
							c0.18-2.44,0.35-4.82,0.51-7.16c0.1-1.45,0.21-2.88,0.31-4.29c0.15-2.2,0.31-4.34,0.45-6.43c0.04-0.5,0.08-1.01,0.11-1.51
							c0.08-0.99,0.14-1.99,0.21-2.96c0.03-0.49,0.07-0.98,0.1-1.45c0.01-0.06,0.01-0.12,0.01-0.18c0.14-1.87,0.26-3.7,0.39-5.47
							c0.01-0.09,0.02-0.19,0.02-0.28c0.09-1.29,0.19-2.56,0.27-3.79c0.03-0.42,0.06-0.83,0.08-1.22c0.05-0.71,0.1-1.4,0.14-2.09
							c0.04-0.56,0.09-1.12,0.12-1.67c0.27-3.86,0.53-7.39,0.75-10.55c0.03-0.45,0.07-0.9,0.09-1.34c0.03-0.45,0.07-0.89,0.09-1.33
							c0.06-0.83,0.12-1.64,0.17-2.41c0.4-5.59,0.68-9.66,0.85-12.04c0.02-0.25,0.03-0.48,0.05-0.69c0.01-0.07,0.01-0.14,0.02-0.2
							c0.02-0.22,0.03-0.42,0.03-0.59c0.05-0.67,0.08-1.02,0.08-1.02L1736.76,728.3z"/>
					</g>
					<path class="st8" d="M1751.02,552.39c10.96,61.28,5.04,121.18-14.26,175.91c-1.36,3.86-2.79,7.7-4.28,11.51
						c-7,17.88-15.45,35.16-25.23,51.7v0.01c-5.8,9.84-12.07,19.42-18.78,28.71c-19.25-2.78-34.92-5.06-44.57-5.3
						c-0.84-0.03-1.65-0.14-2.42-0.33c-2.16-0.5-4.06-1.58-5.72-3.1c-1.91-1.66-0.1-90.61,5.76-202.65
						c0.17-4.32,0.34-9.07,0.9-13.36l0.04-1.58c0.37-7.39,0.75-14.87,1.16-22.4c0.25-4.34,0.49-8.7,0.76-13.09
						c1.81-29.88,4.05-60.44,6.49-90.92c0.24-2.92,0.47-5.85,0.7-8.75c3.85-46.91,8.37-93.02,13.71-134.28
						c30.31,48.12,53.7,101.85,70.01,159.45C1741.6,506.18,1746.84,529.05,1751.02,552.39z"/>
				</g>
				<g>
					<path class="st21" d="M944.66,717.91c-1.07-31.37-2.67-68.72-4.78-109.07c-0.17-4.32-0.36-9.07-0.9-13.36l-0.07-1.58
						c-0.17-3.58-0.34-7.17-0.53-10.79c-0.1-2.04-0.21-4.08-0.32-6.13c-0.32-6.14-0.68-12.34-1.06-18.57
						c-1.81-29.88-4.06-60.44-6.48-90.92c-0.25-2.92-0.49-5.85-0.72-8.75c-3.55-43.46-7.69-86.23-12.54-125.09v-0.02
						c-0.03-0.22-0.06-0.43-0.09-0.65c-0.6-4.88-1.24-9.72-1.87-14.48c-1.27-9.58-2.58-18.89-3.95-27.85
						c-1.87,3.06-3.71,6.15-5.52,9.26c-10.71,18.31-20.68,37.54-29.96,57.56c-18.93,40.81-34.98,84.96-48.41,131.44
						c-0.08,0.3-0.17,0.59-0.25,0.88c-4.37,15.17-7.4,30.16-9.17,44.95v0.01c-0.26,2.1-0.49,4.21-0.7,6.31v0.01
						c-6.45,66.86,12.6,129.43,48.77,185.33c1.23,1.93,2.51,3.85,3.8,5.76c2.55,3.8,5.19,7.57,7.91,11.3
						c1.91,2.64,3.87,5.27,5.87,7.88c0.41,0.55,0.83,1.1,1.27,1.65c13.81,17.89,29.38,35,46.38,51.23c2.75,2.63,5.54,5.24,8.37,7.82
						c0.7,0.64,1.41,1.28,2.12,1.92c1.39-0.59,2.65-1.43,3.81-2.47C946.87,810.42,946.58,773.62,944.66,717.91z"/>
					<path class="st22" d="M944.66,717.91c-50.38-52.79-92.37-117.59-126.63-183.17v-0.01c1.78-14.79,4.8-29.78,9.17-44.95
						c0.08-0.3,0.17-0.59,0.25-0.88c13.43-46.48,29.48-90.63,48.41-131.44c30.92,44.2,52.6,84.88,53.93,101.26
						c0.24,2.91,0.47,5.83,0.72,8.75c2.41,30.48,4.67,61.05,6.48,90.92c0.38,6.23,0.74,12.43,1.06,18.57
						c0.11,2.05,0.22,4.09,0.32,6.13c0.19,3.61,0.36,7.21,0.53,10.79l0.07,1.58c0.54,4.29,0.73,9.04,0.9,13.36
						C942,649.19,943.59,686.54,944.66,717.91z"/>
					<g>
						<path class="st7" d="M1173.44,633.9c0,0,67.04,0.07,77.59,3.27c10.55,3.2,44.45,27.5,44.25,30.65
							c-0.2,3.15-2.55,5.22-9.12,4.17c-6.58-1.05-27.28-8.69-26.52-5.8c0.76,2.9,59.41,29.08,57.25,41.6
							c-2.16,12.52-41.09,27.76-69.88,22.77c-28.79-4.99-77.11-50.87-81.81-52.39C1125.36,665.28,1173.44,633.9,1173.44,633.9z"/>
						<g>
							<path class="st21" d="M1185.58,656.79c-6.11,10.49-14.16,17.85-19.38,21.92c-3.18,2.48-5.3,3.74-5.3,3.74
								s-129-48.3-222.5-99.34c-30.91-16.87-57.94-34.04-75.15-49.86c-7.78-7.15-20.39-23.1-35.78-44.34
								c13.43-46.48,29.48-90.63,48.41-131.44c9.28-20.03,19.25-39.25,29.96-57.56c3.73,11.11,7.57,22.47,11.43,33.72v0.02
								c20.48,59.75,41.48,117.04,48.96,124.18c16.24,15.54,222.17,168.09,222.17,168.09s2.66,2.58,3.39,8.13
								C1192.46,639.07,1191.54,646.56,1185.58,656.79z"/>
						</g>
					</g>
				</g>
			</g>
			<rect x="1087.54" y="182.79" class="st23" width="351.72" height="319.02"/>
			<rect x="1087.54" y="163.65" class="st24" width="351.72" height="19.13"/>
			<g>
				<path class="st25" d="M1099.34,169.39c-2.12,0-3.83,1.71-3.83,3.83c0,2.12,1.71,3.83,3.83,3.83c2.12,0,3.83-1.71,3.83-3.83
					C1103.17,171.1,1101.45,169.39,1099.34,169.39z"/>
				<path class="st25" d="M1114.33,169.39c-2.12,0-3.83,1.71-3.83,3.83c0,2.12,1.71,3.83,3.83,3.83c2.12,0,3.83-1.71,3.83-3.83
					C1118.16,171.1,1116.44,169.39,1114.33,169.39z"/>
				<path class="st25" d="M1129.42,169.39c-2.11,0-3.83,1.71-3.83,3.83c0,2.12,1.72,3.83,3.83,3.83c2.12,0,3.83-1.71,3.83-3.83
					C1133.25,171.1,1131.54,169.39,1129.42,169.39z"/>
			</g>
			<g>
				<path class="st26" d="M1193.16,224.35h134.37c3.51,0,6.38-2.87,6.38-6.38l0,0c0-3.51-2.87-6.38-6.38-6.38h-134.37
					c-3.51,0-6.38,2.87-6.38,6.38l0,0C1186.79,221.48,1189.65,224.35,1193.16,224.35z"/>
				<path class="st26" d="M1162.55,246.24h195.61c3.51,0,6.38-2.87,6.38-6.38c0-3.51-2.87-6.38-6.38-6.38h-195.61
					c-3.51,0-6.38,2.87-6.38,6.38C1156.17,243.37,1159.04,246.24,1162.55,246.24z"/>
				<path class="st26" d="M1146.01,303.86h235.75c2.57,0,4.68-2.1,4.68-4.68c0-2.57-2.1-4.68-4.68-4.68h-235.75
					c-2.57,0-4.68,2.1-4.68,4.68C1141.33,301.76,1143.44,303.86,1146.01,303.86z"/>
				<path class="st26" d="M1381.76,316.09h-235.75c-2.57,0-4.68,2.11-4.68,4.68v0c0,2.57,2.11,4.68,4.68,4.68h235.75
					c2.57,0,4.68-2.1,4.68-4.68v0C1386.44,318.19,1384.33,316.09,1381.76,316.09z"/>
				<path class="st26" d="M1381.76,337.67h-235.75c-2.57,0-4.68,2.1-4.68,4.68c0,2.57,2.11,4.68,4.68,4.68h235.75
					c2.57,0,4.68-2.11,4.68-4.68C1386.44,339.77,1384.33,337.67,1381.76,337.67z"/>
			</g>
			<g>
				<path class="st26" d="M1169.68,416.12h-23.67c-2.57,0-4.68,2.11-4.68,4.68c0,2.57,2.11,4.68,4.68,4.68h23.67
					c2.57,0,4.68-2.11,4.68-4.68C1174.36,418.23,1172.25,416.12,1169.68,416.12z"/>
				<path class="st26" d="M1209.23,416.12h-23.67c-2.57,0-4.68,2.11-4.68,4.68c0,2.57,2.11,4.68,4.68,4.68h23.67
					c2.57,0,4.68-2.11,4.68-4.68C1213.9,418.23,1211.8,416.12,1209.23,416.12z"/>
			</g>
			<g>
				<path class="st26" d="M1342.21,416.12h-23.67c-2.57,0-4.68,2.11-4.68,4.68c0,2.57,2.11,4.68,4.68,4.68h23.67
					c2.57,0,4.68-2.11,4.68-4.68C1346.89,418.23,1344.79,416.12,1342.21,416.12z"/>
				<path class="st26" d="M1381.76,416.12h-23.67c-2.57,0-4.68,2.11-4.68,4.68c0,2.57,2.11,4.68,4.68,4.68h23.67
					c2.57,0,4.68-2.11,4.68-4.68C1386.44,418.23,1384.33,416.12,1381.76,416.12z"/>
			</g>
			<g>
				<path class="st26" d="M1176.24,431.17c-13.75,0-24.93,11.18-24.93,24.93c0,13.75,11.19,24.93,24.93,24.93
					c13.75,0,24.93-11.19,24.93-24.93C1201.17,442.35,1189.98,431.17,1176.24,431.17z M1176.24,479.78
					c-13.06,0-23.68-10.62-23.68-23.68c0-13.06,10.62-23.68,23.68-23.68c13.06,0,23.68,10.62,23.68,23.68
					C1199.91,469.16,1189.29,479.78,1176.24,479.78z"/>
				<path class="st26" d="M1176.24,436.01c-11.08,0-20.09,9.01-20.09,20.09c0,11.08,9.01,20.09,20.09,20.09s20.09-9.01,20.09-20.09
					C1196.33,445.02,1187.31,436.01,1176.24,436.01z M1176.24,474.93c-10.38,0-18.84-8.45-18.84-18.83
					c0-10.39,8.45-18.83,18.84-18.83c10.38,0,18.83,8.45,18.83,18.83C1195.07,466.48,1186.62,474.93,1176.24,474.93z"/>
				<path class="st26" d="M1169.41,464.32c-2.68-0.22-4.06-1.48-4.12-3.74c-0.05-1.73,0.59-3.23,1.89-4.5
					c0.52,2.61,1.89,4.8,3.41,5.28c0.86,0.27,1.69-0.03,2.34-0.83c0.64-0.79,1.29-1.85,1.8-2.96c0.28,0.27,0.62,0.43,1,0.44
					c0.93,0.04,1.85-0.7,2.67-2.13c0.22-0.38,0.42-0.8,0.6-1.24c0.06,0.06,0.13,0.12,0.2,0.16c0.14,0.08,0.5,0.22,0.91-0.13
					c0.45-0.38,1.02-1.26,1.54-2.3c0.11,0.22,0.25,0.38,0.42,0.48c0.2,0.12,0.62,0.24,1.15-0.25c0.28-0.25,0.26-0.55,0.16-0.74
					c-0.14-0.25-0.58-0.43-1.23-0.54c0,0,0-0.01,0-0.01c0.69-1.59,1.17-3.26,0.92-3.87c-0.11-0.26-0.35-0.41-0.62-0.38
					c-0.46,0.04-0.78,0.5-0.98,1.41c-0.15,0.71-0.24,1.8-0.12,2.73c-0.01,0.01-0.01,0.02-0.01,0.03c-0.47-0.03-1-0.04-1.56-0.03
					c-0.01-0.39-0.09-0.72-0.24-0.95c-0.23-0.36-0.5-0.36-0.63-0.33c-0.36,0.08-0.48,0.51-0.54,0.88c-0.02,0.13-0.04,0.3-0.04,0.48
					c-1.65,0.13-3.47,0.43-5.11,0.87c-2.22,0.6-4.03,1.42-5.43,2.43c-0.05-0.79,0.02-1.76,0.58-2.11c0.65-0.41,1.83,0.1,2.23,0.33
					l0.4-0.68c-0.08-0.04-1.85-1.06-3.04-0.32c-0.74,0.46-1.05,1.44-0.94,2.93c0.01,0.14,0.02,0.29,0.04,0.43
					c-1.71,1.49-2.58,3.33-2.53,5.44c0.07,2.65,1.79,4.25,4.84,4.5c2,0.17,4.55-0.28,7.16-1.12c5.8-1.88,11.19-5.89,12.27-9.53
					C1187.22,459.01,1175.93,464.86,1169.41,464.32z M1182.34,448.15c-0.03,0.22-0.09,0.5-0.19,0.82
					C1182.21,448.63,1182.27,448.35,1182.34,448.15z M1179.72,451.99c0.46-0.01,0.88-0.01,1.25,0c-0.46,0.93-0.96,1.74-1.39,2.12
					c0,0-0.11-0.07-0.23-0.44C1179.52,453.1,1179.66,452.52,1179.72,451.99z M1175.51,452.43c0.98-0.18,1.92-0.29,2.79-0.36
					c0.02,0.53,0.09,1.1,0.22,1.59c-0.2,0.6-0.47,1.24-0.81,1.83c-0.65,1.13-1.36,1.77-1.95,1.74c-0.3-0.01-0.52-0.21-0.69-0.47
					C1175.73,455.1,1176.02,453.42,1175.51,452.43z M1174.74,452.67c0.37,0.51,0.29,1.63-0.1,2.93
					C1174.4,454.42,1174.54,453.09,1174.74,452.67z M1170.19,454.07c1.17-0.55,2.43-0.98,3.7-1.29c-0.22,0.85-0.19,2.1,0,3
					c0.08,0.39,0.19,0.73,0.33,1.02c-0.47,1.13-1.13,2.29-1.89,3.23c-0.45,0.55-0.95,0.75-1.5,0.58c-1.17-0.37-2.54-2.39-2.96-5.13
					C1168.51,454.96,1169.29,454.49,1170.19,454.07z"/>
				<path class="st26" d="M1188.77,454.45c0.05-0.16,0.1-0.31,0.13-0.46C1188.87,454.14,1188.82,454.29,1188.77,454.45z"/>
			</g>
			<g>
				<path class="st26" d="M1349.47,431.83c-14.08,0-25.54,11.46-25.54,25.54c0,14.08,11.46,25.54,25.54,25.54
					c14.08,0,25.54-11.46,25.54-25.54C1375.01,443.29,1363.56,431.83,1349.47,431.83z M1349.47,481.62
					c-13.37,0-24.25-10.88-24.25-24.25c0-13.37,10.88-24.25,24.25-24.25c13.37,0,24.25,10.88,24.25,24.25
					C1373.72,470.74,1362.85,481.62,1349.47,481.62z"/>
				<path class="st26" d="M1349.47,436.79c-11.35,0-20.58,9.23-20.58,20.58s9.23,20.58,20.58,20.58c11.35,0,20.58-9.23,20.58-20.58
					S1360.82,436.79,1349.47,436.79z M1349.47,476.66c-10.64,0-19.29-8.65-19.29-19.29c0-10.64,8.65-19.29,19.29-19.29
					c10.64,0,19.29,8.65,19.29,19.29C1368.76,468.01,1360.11,476.66,1349.47,476.66z"/>
				<path class="st26" d="M1362.31,455.68c0.05-0.16,0.1-0.32,0.13-0.47C1362.41,455.36,1362.36,455.52,1362.31,455.68z"/>
				<path class="st26" d="M1342.48,465.79c-2.74-0.23-4.16-1.52-4.22-3.83c-0.04-1.77,0.6-3.31,1.93-4.61
					c0.53,2.67,1.94,4.92,3.49,5.41c0.88,0.28,1.73-0.03,2.4-0.85c0.66-0.81,1.32-1.89,1.84-3.03c0.29,0.28,0.64,0.44,1.02,0.45
					c0.95,0.05,1.9-0.71,2.74-2.19c0.22-0.39,0.43-0.82,0.61-1.26c0.06,0.07,0.13,0.12,0.2,0.16c0.14,0.08,0.51,0.22,0.93-0.14
					c0.46-0.38,1.04-1.29,1.58-2.36c0.11,0.22,0.25,0.39,0.43,0.49c0.21,0.12,0.64,0.24,1.17-0.25c0.28-0.26,0.27-0.56,0.16-0.75
					c-0.14-0.26-0.59-0.44-1.26-0.55c0,0,0-0.01,0-0.01c0.71-1.63,1.2-3.33,0.94-3.97c-0.11-0.27-0.36-0.42-0.64-0.39
					c-0.47,0.05-0.8,0.52-1,1.45c-0.16,0.72-0.24,1.84-0.12,2.8c0,0.01-0.01,0.02-0.01,0.03c-0.48-0.04-1.02-0.04-1.6-0.03
					c-0.02-0.4-0.09-0.74-0.25-0.98c-0.24-0.37-0.51-0.37-0.65-0.34c-0.37,0.09-0.5,0.52-0.55,0.9c-0.02,0.14-0.04,0.31-0.04,0.5
					c-1.69,0.14-3.56,0.44-5.24,0.89c-2.27,0.61-4.13,1.46-5.56,2.49c-0.05-0.81,0.02-1.8,0.59-2.16c0.67-0.42,1.87,0.1,2.28,0.34
					l0.4-0.69c-0.08-0.04-1.89-1.09-3.11-0.33c-0.75,0.47-1.08,1.48-0.96,3c0.01,0.15,0.03,0.29,0.04,0.44
					c-1.75,1.53-2.65,3.42-2.59,5.57c0.07,2.71,1.83,4.35,4.96,4.61c2.05,0.17,4.66-0.28,7.33-1.15c5.94-1.92,11.46-6.04,12.57-9.76
					C1360.72,460.35,1349.17,466.35,1342.48,465.79z M1355.73,449.23c-0.03,0.22-0.09,0.51-0.19,0.84
					C1355.59,449.72,1355.66,449.43,1355.73,449.23z M1353.04,453.16c0.47-0.01,0.9-0.01,1.28,0c-0.47,0.95-0.98,1.79-1.43,2.17
					c0,0-0.11-0.07-0.24-0.45C1352.84,454.29,1352.98,453.7,1353.04,453.16z M1348.73,453.61c1-0.18,1.97-0.3,2.86-0.37
					c0.02,0.54,0.09,1.13,0.23,1.63c-0.21,0.62-0.48,1.27-0.83,1.87c-0.66,1.16-1.39,1.81-2,1.78c-0.3-0.01-0.53-0.22-0.71-0.48
					C1348.95,456.34,1349.25,454.63,1348.73,453.61z M1347.94,453.86c0.38,0.52,0.3,1.67-0.1,3
					C1347.59,455.65,1347.74,454.28,1347.94,453.86z M1343.28,455.29c1.2-0.57,2.49-1,3.79-1.32c-0.23,0.87-0.2,2.15,0,3.08
					c0.08,0.4,0.2,0.75,0.33,1.05c-0.48,1.16-1.15,2.34-1.93,3.3c-0.46,0.57-0.97,0.77-1.54,0.59c-1.2-0.37-2.61-2.44-3.03-5.26
					C1341.57,456.2,1342.36,455.72,1343.28,455.29z"/>
			</g>
			<g>
				<g>
					<path class="st13" d="M1470.18,751.03l-30.61,41.3l-3.01,4.06l-1.47,1.97l-3.77,5.09l-2.05,2.76l-3.77,5.09l-3.97,5.35
						l-3.71,5.01l-0.06,0.07v0.02l-3.49,4.7l-0.04,0.06l-0.52,0.7l-0.06,0.08c0,0.01,0,0.01-0.01,0.02l-0.65,0.88v0.01l-3.77,4.67
						v0.4l-3.52,4.76c-0.01,0-0.01,0-0.01,0l-4.55,6.15c-0.01,0-0.01,0-0.01,0l-3.43,4.63v0.01l-3.77,5.07v0.01l-6.3,8.49v0.01
						h-0.01l-0.62,0.84l-2.14,2.89v0.01l-4.95,6.68l-6.57,8.46v0.41l-3.41,4.6l-0.36,0.48v0.01l-4.74,6.39h-0.01l-4.41,5.96
						l-0.04,0.06h-0.01l-10.93,14.76c0,0.01,0,0.01,0,0.01l-16.28,21.96l-27.26,36.78l-3.39,4.58l-2,2.69
						c1.04,0.15,2.08,0.3,3.12,0.43c0.01,0.01,0.03,0.01,0.03,0.01c3.62,0.48,7.24,0.93,10.85,1.31c1.01,0.12,2.03,0.23,3.04,0.33
						c0.64,0.07,1.27,0.13,1.9,0.19c1.53,0.15,3.06,0.29,4.58,0.42c0.65,0.06,1.28,0.12,1.93,0.17c0.3,0.03,0.59,0.05,0.9,0.08
						c1.01,0.09,2.03,0.16,3.04,0.23c0.19,0.02,0.38,0.02,0.58,0.04c2.23,0.17,4.46,0.31,6.68,0.43c1.01,0.06,2.03,0.11,3.04,0.15
						c0.79,0.05,1.58,0.09,2.37,0.12c0.15,0.01,0.3,0.02,0.45,0.02c1.32,0.06,2.63,0.12,3.94,0.15c1.02,0.03,2.03,0.07,3.04,0.08
						c1.15,0.04,2.3,0.07,3.44,0.08c1.01,0.03,2.03,0.03,3.04,0.05c1.07,0.01,2.14,0.02,3.21,0.02c1.02,0.01,2.03,0.01,3.04,0
						c0.56,0.01,1.11,0,1.67-0.01c0.62,0,1.23,0,1.84-0.02c0.4,0,0.8-0.01,1.2-0.02c0.4,0,0.79-0.01,1.19-0.02
						c0.56-0.01,1.12-0.02,1.68-0.03c0.14,0,0.28,0,0.42-0.01c0.29,0,0.57-0.01,0.86-0.02c0.41-0.01,0.81-0.02,1.22-0.03
						c7.88-0.21,15.7-0.64,23.45-1.29h0.02c8.93-0.73,17.77-1.76,26.52-3.05c9.46-1.4,18.81-3.13,28.03-5.16
						c0.15-0.03,0.31-0.07,0.47-0.1c-0.01,0.04-0.02,0.08-0.03,0.12l8.68-2.13c1.21-0.29,2.41-0.59,3.61-0.89
						c11.4-2.89,22.58-6.25,33.54-10.06c1.84-0.64,3.66-1.28,5.48-1.95c0.45-0.16,0.91-0.33,1.36-0.5
						c3.41-1.24,6.79-2.53,10.14-3.88c0.91-0.36,1.82-0.72,2.73-1.09v-0.01c0.19-0.07,0.38-0.14,0.55-0.21v-0.01
						c1.07-0.43,2.13-0.88,3.19-1.32c0.8-0.33,1.59-0.66,2.38-1c0.93-0.39,1.86-0.79,2.79-1.2c0.59-0.25,1.19-0.52,1.79-0.78
						l0.01-0.01c1.04-0.46,2.07-0.92,3.11-1.39l0.01-0.01c10.17-4.57,20.11-9.55,29.78-14.92c1.02-0.56,2.04-1.13,3.05-1.71
						l0.01-0.01l53.27-71.88L1470.18,751.03z"/>
					<g>
						<path class="st12" d="M1389.62,899.13v4.25l3.1-4.18l0.04-0.06v-0.01H1389.62z M1383.79,904.74
							c-1.16,0.48-2.22,0.99-3.16,1.56l-6.8,9.17l-5.21,7.02l-0.01,9.23l6.17-8.31l14.82-20.01
							C1387.73,903.48,1385.78,903.93,1383.79,904.74z M1358.67,935.91l-0.77,1.05l-2.97,4l-13.4,18.07l-0.01,9.23l9.47-12.77
							l7.58-10.23l3.97-5.36l2.95-3.99h0.01v-0.01H1358.67z M1471.94,783.09l-31.88,43.01l-0.28,0.38l-1.93,2.6l-2.48,3.34
							l-1.29,1.72v0.03l-5.91,7.98l-2.46,2.91v0.4l-1.61,2.17l-2.16,2.91l-8.8,11.87v0.01l-0.19,0.25l-0.44,0.59v0.01l-2.8,3.77v0.4
							l-8.36,10.88l-3.24,4.37l-0.54,0.72l-8.98,12.11l-2.68,3.61l-0.04,0.06l-5.26,7.11l-6.8,9.17l-5.21,7.02l-3.77,5.09
							l-6.18,8.33l-0.77,1.05l-2.97,4l-13.4,18.07l-3.76,5.08l-6.37,8.58l-7.37,9.95c0.65,0.06,1.28,0.12,1.93,0.17
							c0.3,0.03,0.59,0.05,0.9,0.08c1.01,0.09,2.03,0.16,3.04,0.23c0.19,0.02,0.38,0.02,0.58,0.04l7.74-10.45h0.01l3.28-4.44
							l9.47-12.77l7.58-10.23l3.97-5.36l2.95-3.99h0.01v-0.01l3.1-4.19l6.17-8.31l14.82-20.01l0.02-0.02l3.1-4.18l0.04-0.06v-0.01
							l4.82-6.09v-0.4l3.76-5.08l3-4.06l5.36-7.23l3.77-5.08l4.25-5.73l1.62-2.19l0.63-0.84v-0.01l1.96-2.64l3.77-5.08l3.98-5.37
							l3.99-5.38l0.4-0.52v-0.02l3.76-5.08l2.89-3.9l1.35-1.79l0.01-0.03l3.47-4.68l0.3-0.4l0.76-1.02l14.53-19.6
							c6.6-8.9,19.15-10.77,28.05-4.17l74.21,55c9.8,7.27,11.86,21.09,4.59,30.89l-44.78,60.42l-2.63,3.56
							c0.8-0.33,1.59-0.66,2.38-1c0.93-0.39,1.86-0.79,2.79-1.2c0.59-0.25,1.19-0.52,1.79-0.78l0.01-0.01
							c1.04-0.46,2.07-0.92,3.11-1.39l0.01-0.01l58.17-78.47L1471.94,783.09z M1358.67,935.91l-0.77,1.05l-2.97,4l-13.4,18.07
							l-0.01,9.23l9.47-12.77l7.58-10.23l3.97-5.36l2.95-3.99h0.01v-0.01H1358.67z M1383.79,904.74c-1.16,0.48-2.22,0.99-3.16,1.56
							l-6.8,9.17l-5.21,7.02l-0.01,9.23l6.17-8.31l14.82-20.01C1387.73,903.48,1385.78,903.93,1383.79,904.74z M1389.62,899.13v4.25
							l3.1-4.18l0.04-0.06v-0.01H1389.62z"/>
					</g>
					<path class="st12" d="M1451.3,974.63c0.02-0.04,0.03-0.08,0.03-0.12c-0.15,0.03-0.31,0.07-0.47,0.1
						c-9.22,2.03-18.57,3.76-28.03,5.16c-8.75,1.29-17.59,2.32-26.52,3.05h-0.02c-7.75,0.65-15.57,1.08-23.45,1.29
						c-0.41,0.02-0.81,0.03-1.22,0.03c-0.29,0.01-0.57,0.02-0.86,0.02c-0.14,0.01-0.27,0.01-0.42,0.01
						c-0.08-1.14-0.1-2.28-0.09-3.42c0.03-2.69,0.3-5.37,0.82-8.03c1.24-6.45,3.91-12.72,8.08-18.36c0.03-0.04,0.06-0.08,0.09-0.12
						c2.01-2.68,4.25-5.09,6.69-7.2c1.21-1.04,2.46-2.01,3.76-2.91c3.58-2.49,7.46-4.42,11.52-5.76c1.24-0.42,2.5-0.77,3.77-1.07
						c2.94-0.71,5.94-1.12,8.97-1.22c1.26-0.05,2.52-0.04,3.77,0.02c2.81,0.13,5.6,0.53,8.36,1.18c1.27,0.3,2.52,0.65,3.76,1.07
						c1.44,0.48,2.86,1.03,4.25,1.66c1.28,0.57,2.52,1.21,3.76,1.9c1.35,0.76,2.67,1.61,3.96,2.53c0.24,0.16,0.48,0.33,0.71,0.51
						c1,0.74,1.96,1.51,2.88,2.32v0.01c0.06,0.04,0.12,0.09,0.17,0.14c0.71,0.63,1.39,1.27,2.06,1.93c1.36,1.36,2.57,2.74,3.77,4.23
						v0.05c0.51,0.65,0.99,1.31,1.45,1.99v0.06c1.45,2.04,2.7,4.23,3.76,6.45v0.05c0.49,1.05,0.94,2.13,1.34,3.2v0.01
						c0.87,2.31,1.55,4.68,2.02,7.1L1451.3,974.63z"/>
				</g>
				<path class="st27" d="M1412.99,828.18L1412.99,828.18l-3.77,4.73v0.35l-3.53,4.76l-4.55,6.15c-0.01,0-0.01,0-0.01,0l-3.43,4.63
					v0.01l-3.77,5.07v0.01l-6.3,8.49v0.01h-0.01l-0.62,0.84l-2.14,2.89v0.01l-4.95,6.68l-6.57,8.52v0.35l-3.41,4.6l-0.36,0.48v0.01
					l-4.74,6.39l-4.41,5.96l-0.04,0.06h-0.01l-10.93,14.76c0,0.01,0,0.01,0,0.01l-16.28,21.96l-27.26,36.78l-3.39,4.58l-2,2.69
					c1.04,0.15,2.08,0.3,3.12,0.43c0.01,0.01,0.03,0.01,0.03,0.01c3.62,0.48,7.24,0.93,10.85,1.31c1.01,0.12,2.03,0.23,3.04,0.33
					c0.64,0.07,1.27,0.13,1.9,0.19c1.53,0.15,3.06,0.29,4.58,0.42c0.65,0.06,1.28,0.12,1.93,0.17c0.3,0.03,0.59,0.05,0.9,0.08
					c1.01,0.09,2.03,0.16,3.04,0.23c0.19,0.02,0.38,0.02,0.58,0.04c2.23,0.17,4.46,0.31,6.68,0.43c1.01,0.06,2.03,0.11,3.04,0.15
					c0.79,0.05,1.58,0.09,2.37,0.12c0.15,0.01,0.3,0.02,0.45,0.02c0.78-3.69,1.68-7.42,2.69-11.18c1.53-5.7,3.3-11.45,5.26-17.21
					c1.5-4.44,3.13-8.87,4.84-13.29c0.67-1.75,1.36-3.49,2.07-5.24c0.14-0.35,0.28-0.7,0.42-1.05h0.01
					c2.08-5.15,4.28-10.26,6.53-15.3v-0.34c1.24-2.76,2.5-5.17,3.77-7.89c2.1-4.49,4.23-8.89,6.38-13.2
					c0.01-0.02,0.02-0.04,0.03-0.06c2.91-5.85,5.83-11.51,8.7-16.93c0.38-0.71,0.76-1.16,1.14-1.79v-0.34
					c1.27-2.39,2.53-4.74,3.77-7.01c1.84-3.4,3.65-6.67,5.39-9.8c0.16-0.28,0.31-0.57,0.48-0.85c1.1-1.97,2.17-3.55,3.21-5.4v-0.34
					c2.53-4.5,4.87-8.63,6.94-12.3c1.25-2.22,2.4-4.26,3.43-6.13c0.4-0.71,0.78-1.4,1.14-2.07c1.66-3.03,2.94-5.48,3.77-7.28
					c0.27-0.6,0.49-1.12,0.65-1.57L1412.99,828.18z"/>
			</g>
			<g>
				<g>
					<path class="st28" d="M1458,943.98l-0.02,20.78c0,0.21-0.01,0.42-0.03,0.62v0.01c-0.11,1.42-0.59,2.72-1.35,3.84
						c-0.91,1.34-2.22,2.41-3.76,2.99c-0.36,0.14-0.72,0.26-1.1,0.34c-0.12,0.03-0.24,0.05-0.36,0.08c-0.24,0.04-0.47,0.08-0.7,0.09
						c-0.23,0.03-0.47,0.03-0.71,0.03l-2.35-0.01h-9.79l-8.01-0.01h-3.76l-8.36-0.01h-3.77l-8.97-0.01h-3.76l-11.51-0.01h-3.76
						l-14.85-0.01l-4.8-0.01h-3.76l-16.79-0.02h-7.96l-6.36-0.01l-25.51-0.02h-6.08l-4.39-0.01h-1.79l-10.36-0.01l-15.23-0.01h-7.39
						v-0.01h-0.01c-4.25-0.92-8.51-1.89-12.77-2.9c-1.01-0.25-2.02-0.48-3.04-0.74c-2.83-0.68-5.67-1.39-8.51-2.12
						c-1.25-0.32-2.51-0.64-3.76-0.97c-2.15-0.55-4.3-1.12-6.45-1.71c-2.33-0.63-4.66-1.27-6.99-1.92
						c-1.02-0.29-2.03-0.58-3.04-0.87c-5.77-1.65-11.54-3.37-17.31-5.18h-0.01c-0.23-0.07-0.44-0.14-0.67-0.21
						c-1.74-0.54-3.48-1.09-5.21-1.66c-1.02-0.31-2.03-0.65-3.04-0.98c-16.26-5.29-32.44-11.19-48.43-17.63h4.62l86.55,0.06h3.77
						l23.29,0.02h5.22v0.01h11.2v0.01h14.2l0.01,0.01h12.19l0.01,0.01h1.14l18.9,0.01h4.39l3.76,0.01h2.5l18.87,0.01l6.28,0.01h7.19
						l3.1,0.01l17.35,0.01h3.64l3.77,0.01l7.86,0.01h15.55l11.51,0.01h0.42c0.01,0,0.01,0,0.01,0l3.33,0.01h8.98l3.77,0.01h5.21
						c0.01,0,0.02,0.01,0.02,0.01h0.34c0.36,0.02,0.71,0.06,1.06,0.13c0.5,0.09,0.99,0.22,1.46,0.41c1.54,0.6,2.85,1.66,3.76,3
						C1457.49,940.8,1458,942.33,1458,943.98z"/>
					<path class="st29" d="M1295.43,972.66h-1.79l-10.36-0.01l-15.23-0.01h-3.76l-3.64-0.01h-0.01c-4.25-0.92-8.51-1.89-12.77-2.9
						c-1.01-0.25-2.02-0.48-3.04-0.74c-2.83-0.68-5.67-1.39-8.51-2.12c-1.25-0.32-2.51-0.64-3.76-0.97
						c-2.15-0.55-4.3-1.12-6.45-1.71c-2.33-0.63-4.66-1.27-6.99-1.92c-1.02-0.29-2.03-0.58-3.04-0.87
						c-5.77-1.65-11.54-3.37-17.31-5.18h-0.01c-0.23-0.07-0.44-0.14-0.67-0.21c-1.74-0.54-3.48-1.09-5.21-1.66
						c-1.02-0.31-2.03-0.65-3.04-0.98c-16.26-5.29-32.44-11.19-48.43-17.63h4.62l86.55,0.06h3.77l23.29,0.02h5.12l0.1,0.01h8.81
						c1.2,5.22,3.15,11.4,6.37,17.63c3.05,5.92,7.24,11.89,13,17.13c0.35,0.32,0.71,0.64,1.08,0.95c0.07,0.07,0.14,0.13,0.22,0.2
						C1294.7,972.06,1295.07,972.37,1295.43,972.66z"/>
					<g>
						<rect x="1413.95" y="935.95" class="st29" width="3.76" height="36.8"/>
						<rect x="1401.21" y="935.94" class="st29" width="3.76" height="36.8"/>
						
							<rect x="1385.94" y="935.93" transform="matrix(1 1.036765e-03 -1.036765e-03 1 0.9902 -1.4383)" class="st29" width="3.76" height="36.8"/>
						<rect x="1362.54" y="935.91" class="st29" width="3.76" height="36.8"/>
						<rect x="1337.78" y="935.9" class="st29" width="3.76" height="36.8"/>
						<rect x="1299.84" y="935.87" class="st29" width="3.76" height="36.8"/>
						<rect x="1264.31" y="935.85" class="st29" width="3.76" height="36.8"/>
						<path class="st29" d="M1236.36,935.82l-0.03,31.06c-1.25-0.32-2.51-0.64-3.76-0.97l0.02-30.09H1236.36z"/>
						<rect x="1426.07" y="935.96" class="st29" width="3.76" height="36.8"/>
						<rect x="1434.08" y="935.96" class="st29" width="3.76" height="36.8"/>
						
							<rect x="1441.81" y="935.97" transform="matrix(1 1.036737e-03 -1.036737e-03 1 0.9902 -1.4962)" class="st29" width="3.76" height="36.8"/>
						<path class="st29" d="M1451.41,936.1l-0.02,36.54c-0.46,0.08-0.93,0.13-1.41,0.13l-2.35,0l0.03-36.8l2.35,0
							C1450.48,935.97,1450.95,936.02,1451.41,936.1z"/>
						<path class="st29" d="M1456.63,939.51l-0.02,29.72c-0.91,1.35-2.22,2.4-3.76,3l0.03-35.72
							C1454.41,937.11,1455.72,938.17,1456.63,939.51z"/>
					</g>
				</g>
				<g>
					<path class="st28" d="M1485.07,907.21l-0.01,20.78c0,1.66-0.51,3.19-1.38,4.47c-0.91,1.34-2.22,2.4-3.76,2.99
						c-0.47,0.19-0.96,0.32-1.46,0.41c-0.46,0.08-0.93,0.13-1.41,0.13l-331.01-0.23c-4.27,0-7.78-3.39-8-7.6
						c0-0.14-0.01-0.28-0.01-0.41l0.01-20.78c0-0.14,0-0.27,0.01-0.41c0.2-3.9,3.23-7.08,7.06-7.54c0.31-0.04,0.63-0.06,0.95-0.06
						l331.01,0.23c0.48,0,0.95,0.04,1.41,0.13c0.5,0.09,1,0.23,1.46,0.41c1.54,0.59,2.85,1.65,3.76,3
						C1484.57,904.01,1485.07,905.55,1485.07,907.21z"/>
					<path class="st29" d="M1322.51,935.88l-177.33-0.12c-3.81,0-6.94-3.39-7.14-7.6c0-0.14-0.01-0.28-0.01-0.41l0.01-20.78
						c0-0.14,0-0.27,0.01-0.41c0.18-3.9,2.88-7.08,6.3-7.54c0.27-0.04,0.56-0.06,0.85-0.06l155.56,0.11c0,0.02,0.01,0.04,0.01,0.06
						C1303.26,909.96,1309.04,924.91,1322.51,935.88z"/>
					<g>
						<rect x="1441.03" y="899.17" class="st29" width="3.76" height="36.8"/>
						<rect x="1428.29" y="899.16" class="st29" width="3.76" height="36.8"/>
						<rect x="1413.02" y="899.15" class="st29" width="3.76" height="36.8"/>
						<rect x="1389.61" y="899.13" class="st29" width="3.76" height="36.8"/>
						<rect x="1364.86" y="899.12" class="st29" width="3.76" height="36.8"/>
						<rect x="1326.91" y="899.09" class="st29" width="3.76" height="36.8"/>
						<rect x="1291.38" y="899.07" class="st29" width="3.76" height="36.8"/>
						<rect x="1259.66" y="899.04" class="st29" width="3.76" height="36.8"/>
						<rect x="1453.15" y="899.18" class="st29" width="3.76" height="36.8"/>
						<rect x="1461.16" y="899.18" class="st29" width="3.76" height="36.8"/>
						<rect x="1468.89" y="899.19" class="st29" width="3.76" height="36.8"/>
						<path class="st29" d="M1478.48,899.32l-0.02,36.54c-0.46,0.08-0.93,0.13-1.41,0.13l-2.35,0l0.03-36.8l2.35,0
							C1477.55,899.19,1478.02,899.24,1478.48,899.32z"/>
						<path class="st29" d="M1483.7,902.73l-0.02,29.72c-0.91,1.35-2.22,2.4-3.76,3l0.03-35.72
							C1481.48,900.33,1482.79,901.39,1483.7,902.73z"/>
					</g>
				</g>
				<g>
					<path class="st28" d="M1441.64,870.43l-0.01,20.78c0,1.66-0.51,3.19-1.38,4.47c-0.91,1.35-2.22,2.4-3.76,2.99
						c-0.47,0.19-0.96,0.32-1.47,0.41c-0.15,0.03-0.31,0.05-0.46,0.07c-0.12,0.02-0.25,0.03-0.37,0.04c-0.06,0-0.12,0.01-0.19,0.01
						c-0.13,0-0.26,0.01-0.39,0.01l-331.01-0.23c-4.27,0-7.78-3.39-8-7.6c0-0.14-0.01-0.27-0.01-0.41l0.01-20.78
						c0-0.14,0.01-0.27,0.01-0.41c0.22-4.21,3.74-7.59,8-7.59l331.01,0.23c0.14,0,0.28,0,0.42,0.01c0.34,0.02,0.66,0.06,0.99,0.12
						c0.5,0.09,1,0.23,1.46,0.41c0.24,0.09,0.47,0.2,0.7,0.31c0.14,0.07,0.28,0.14,0.41,0.22c0.01,0,0.03,0.01,0.04,0.03
						c0.14,0.08,0.27,0.16,0.4,0.25c0.03,0.01,0.05,0.03,0.07,0.04c0.12,0.08,0.24,0.17,0.36,0.26c0.28,0.21,0.55,0.44,0.8,0.7
						c0.08,0.08,0.16,0.16,0.23,0.23c0.01,0.01,0.03,0.03,0.04,0.04c0.05,0.05,0.09,0.1,0.14,0.15c0.01,0.01,0.02,0.02,0.03,0.03
						c0.08,0.09,0.16,0.19,0.23,0.29c0.11,0.14,0.22,0.28,0.32,0.43C1441.14,867.24,1441.64,868.78,1441.64,870.43z"/>
					<path class="st29" d="M1279.08,899.11l-177.33-0.12c-3.81,0-6.94-3.39-7.14-7.6c0-0.14-0.01-0.27-0.01-0.41l0.01-20.78
						c0-0.14,0.01-0.27,0.01-0.41c0.2-4.21,3.34-7.59,7.15-7.59l155.56,0.11c0.06,0.28,0.13,0.56,0.2,0.85
						c2.57,10.74,8.38,25.2,21.48,35.91C1279.03,899.07,1279.06,899.1,1279.08,899.11z"/>
					<g>
						<rect x="1397.59" y="862.4" class="st29" width="3.76" height="36.8"/>
						<rect x="1384.86" y="862.39" class="st29" width="3.76" height="36.8"/>
						<rect x="1369.59" y="862.38" class="st29" width="3.76" height="36.8"/>
						<rect x="1346.18" y="862.36" class="st29" width="3.76" height="36.8"/>
						<rect x="1321.43" y="862.35" class="st29" width="3.76" height="36.8"/>
						<rect x="1283.48" y="862.32" class="st29" width="3.76" height="36.8"/>
						<rect x="1247.95" y="862.3" class="st29" width="3.76" height="36.8"/>
						
							<rect x="1216.22" y="862.27" transform="matrix(1 1.036737e-03 -1.036737e-03 1 0.9137 -1.2624)" class="st29" width="3.76" height="36.8"/>
						<rect x="1409.71" y="862.41" class="st29" width="3.76" height="36.8"/>
						<rect x="1417.72" y="862.41" class="st29" width="3.76" height="36.8"/>
						<rect x="1425.46" y="862.42" class="st29" width="3.76" height="36.8"/>
						<path class="st29" d="M1435.05,862.55l-0.03,36.54c-0.46,0.08-0.93,0.13-1.41,0.13l-2.35,0l0.03-36.8l2.35,0
							C1434.12,862.42,1434.59,862.47,1435.05,862.55z"/>
						<path class="st29" d="M1440.27,865.96l-0.02,29.72c-0.91,1.35-2.22,2.4-3.76,2.99l0.02-35.72
							C1438.05,863.56,1439.36,864.62,1440.27,865.96z"/>
					</g>
				</g>
				<g>
					<path class="st28" d="M1466,834.5l-0.01,20.78c0,1.66-0.51,3.19-1.38,4.47c-0.91,1.34-2.22,2.4-3.76,3
						c-0.47,0.18-0.96,0.32-1.47,0.41c-0.46,0.08-0.93,0.13-1.41,0.13l-331.01-0.23c-1.28,0-2.5-0.31-3.58-0.85
						c-2.41-1.21-4.14-3.62-4.4-6.42c-0.01-0.11-0.02-0.22-0.02-0.33c0-0.14-0.01-0.27-0.01-0.41l0.01-20.78
						c0-0.14,0-0.27,0.01-0.41c0.2-3.9,3.23-7.08,7.06-7.53c0.31-0.04,0.62-0.06,0.95-0.06l331.01,0.23c0.48,0,0.95,0.04,1.41,0.13
						c0.5,0.09,1,0.23,1.46,0.41c1.54,0.59,2.85,1.65,3.76,3C1465.5,831.31,1466,832.85,1466,834.5z"/>
					<path class="st29" d="M1303.44,863.18l-177.33-0.12c-1.15,0-2.23-0.31-3.19-0.85c-2.16-1.21-3.69-3.62-3.92-6.42
						c-0.01-0.11-0.02-0.22-0.02-0.33c0-0.14-0.01-0.27-0.01-0.41l0.01-20.78c0-0.14,0-0.27,0.01-0.41c0.18-3.9,2.88-7.08,6.3-7.54
						c0.27-0.04,0.56-0.06,0.84-0.06l155.56,0.11c0,0.02,0.01,0.04,0.01,0.06c2.42,10.55,7.97,25.02,20.72,35.91
						C1302.75,862.62,1303.09,862.9,1303.44,863.18z"/>
					<g>
						<rect x="1421.95" y="826.47" class="st29" width="3.76" height="36.8"/>
						<rect x="1409.22" y="826.46" class="st29" width="3.76" height="36.8"/>
						<rect x="1393.95" y="826.45" class="st29" width="3.76" height="36.8"/>
						<rect x="1370.54" y="826.43" class="st29" width="3.76" height="36.8"/>
						<rect x="1345.79" y="826.41" class="st29" width="3.76" height="36.8"/>
						<rect x="1307.84" y="826.39" class="st29" width="3.76" height="36.8"/>
						<rect x="1272.31" y="826.36" class="st29" width="3.76" height="36.8"/>
						<rect x="1240.59" y="826.34" class="st29" width="3.76" height="36.8"/>
						<rect x="1434.07" y="826.47" class="st29" width="3.76" height="36.8"/>
						<rect x="1442.08" y="826.48" class="st29" width="3.76" height="36.8"/>
						<rect x="1449.82" y="826.49" class="st29" width="3.76" height="36.8"/>
						<path class="st29" d="M1459.41,826.62l-0.03,36.54c-0.46,0.08-0.93,0.13-1.41,0.13l-2.35,0l0.03-36.8l2.35,0
							C1458.48,826.49,1458.95,826.53,1459.41,826.62z"/>
						<path class="st29" d="M1464.63,830.03l-0.02,29.72c-0.91,1.34-2.22,2.4-3.76,2.99l0.02-35.72
							C1462.41,827.62,1463.72,828.68,1464.63,830.03z"/>
					</g>
				</g>
				<g>
					<path class="st28" d="M1441.69,797.75l-0.01,20.78c0,1.66-0.51,3.19-1.38,4.47c-0.91,1.35-2.22,2.4-3.76,3
						c-0.47,0.19-0.96,0.32-1.47,0.41c-0.16,0.03-0.31,0.05-0.46,0.07c-0.08,0.01-0.17,0.02-0.26,0.03
						c-0.09,0.01-0.17,0.01-0.26,0.02c-0.14,0.01-0.28,0.01-0.42,0.01l-331.01-0.23c-4.27,0-7.78-3.39-8-7.6
						c0-0.14-0.01-0.28-0.01-0.41l0.01-20.78c0-0.14,0-0.27,0.01-0.41c0.22-4.21,3.74-7.59,8-7.59l331.01,0.23
						c0.48,0,0.95,0.04,1.41,0.13c0.5,0.09,1,0.23,1.46,0.41c1.54,0.59,2.85,1.65,3.76,3
						C1441.19,794.55,1441.69,796.09,1441.69,797.75z"/>
					<path class="st29" d="M1279.13,826.42l-177.33-0.12c-3.81,0-6.94-3.39-7.14-7.6c0-0.14-0.01-0.28-0.01-0.41l0.01-20.78
						c0-0.14,0-0.27,0.01-0.41c0.2-4.21,3.34-7.59,7.15-7.59l155.56,0.11c2.47,10.82,8.23,25.77,21.68,36.76
						C1279.08,826.38,1279.11,826.41,1279.13,826.42z"/>
					<g>
						
							<rect x="1397.64" y="789.71" transform="matrix(1 1.036765e-03 -1.036765e-03 1 0.8386 -1.4505)" class="st29" width="3.76" height="36.8"/>
						<rect x="1384.91" y="789.7" class="st29" width="3.76" height="36.8"/>
						<rect x="1369.64" y="789.69" class="st29" width="3.76" height="36.8"/>
						<rect x="1346.23" y="789.67" class="st29" width="3.76" height="36.8"/>
						<rect x="1321.48" y="789.66" class="st29" width="3.76" height="36.8"/>
						<rect x="1283.53" y="789.63" class="st29" width="3.76" height="36.8"/>
						<rect x="1248" y="789.61" class="st29" width="3.76" height="36.8"/>
						<rect x="1216.27" y="789.58" class="st29" width="3.76" height="36.8"/>
						<rect x="1409.76" y="789.72" class="st29" width="3.76" height="36.8"/>
						<rect x="1417.77" y="789.72" class="st29" width="3.76" height="36.8"/>
						<rect x="1425.51" y="789.73" class="st29" width="3.76" height="36.8"/>
						<path class="st29" d="M1435.1,789.86l-0.02,36.54c-0.46,0.08-0.93,0.13-1.41,0.13l-2.35,0l0.03-36.8l2.35,0
							C1434.17,789.73,1434.64,789.78,1435.1,789.86z"/>
						<path class="st29" d="M1440.32,793.27L1440.3,823c-0.91,1.35-2.22,2.4-3.76,3l0.02-35.72
							C1438.1,790.87,1439.41,791.93,1440.32,793.27z"/>
					</g>
				</g>
			</g>
			<path class="st30" d="M1486.43,965.09c-7.51,2.39-15.13,4.56-22.84,6.51c-1.2,0.31-2.41,0.6-3.61,0.89
				c-2.86,0.71-5.75,1.38-8.64,2.01c-0.15,0.03-0.31,0.07-0.47,0.1c-9.22,2.03-18.57,3.76-28.03,5.16
				c-8.75,1.29-17.59,2.32-26.52,3.05h-0.02c-7.75,0.65-15.57,1.08-23.45,1.29c-0.41,0.02-0.81,0.03-1.22,0.03
				c-0.29,0.01-0.57,0.02-0.86,0.02c-0.14,0.01-0.27,0.01-0.42,0.01c-0.56,0.02-1.12,0.02-1.68,0.03c-0.4,0.01-0.79,0.02-1.19,0.02
				c-0.4,0.01-0.8,0.02-1.2,0.02c-0.61,0.02-1.22,0.02-1.84,0.02c-0.55,0.01-1.11,0.02-1.67,0.01c-1.01,0.01-2.02,0.01-3.04,0
				c-1.07,0-2.14-0.01-3.21-0.02c-1.01-0.02-2.03-0.03-3.04-0.05c-1.15-0.02-2.29-0.04-3.44-0.08c-1.01-0.02-2.02-0.05-3.04-0.08
				c-1.31-0.04-2.63-0.09-3.94-0.15c-0.15,0-0.3-0.01-0.45-0.02c-0.79-0.03-1.58-0.07-2.37-0.12c-1.01-0.04-2.03-0.09-3.04-0.15
				c-2.22-0.13-4.45-0.26-6.68-0.43c-0.2-0.02-0.38-0.03-0.58-0.04c-1.01-0.07-2.03-0.14-3.04-0.23c-0.31-0.03-0.6-0.05-0.9-0.08
				c-0.65-0.05-1.28-0.11-1.93-0.17c-1.52-0.13-3.05-0.26-4.58-0.42c-0.63-0.06-1.27-0.12-1.9-0.19c-1.01-0.1-2.03-0.21-3.04-0.33
				c-3.6-0.38-7.23-0.83-10.85-1.31c-0.01,0-0.03,0-0.03-0.01c-1.04-0.13-2.07-0.28-3.12-0.43c-0.35-0.05-0.7-0.1-1.04-0.15
				c-0.28-0.03-0.57-0.07-0.85-0.12c-0.71-0.09-1.44-0.2-2.15-0.32c-0.2-0.03-0.4-0.06-0.6-0.09c-0.04-0.01-0.08-0.01-0.12-0.02
				l-0.01-0.01c-0.06,0-0.12-0.01-0.18-0.03c-2.7-0.4-5.41-0.84-8.12-1.31c-0.94-0.16-1.89-0.32-2.84-0.49
				c-0.94-0.17-1.89-0.34-2.84-0.52c-1.06-0.2-2.13-0.4-3.19-0.6c-1.01-0.19-2.03-0.38-3.04-0.58c-4.96-0.97-9.91-1.99-14.88-3.07
				h-0.01v-0.01h-0.01c-4.25-0.92-8.51-1.89-12.77-2.9c-1.01-0.25-2.02-0.48-3.04-0.74c-0.48-0.12-0.98-0.24-1.46-0.36
				c-3.85-44.88,18.43-89.91,60.42-113.04c1.5-0.82,3.03-1.62,4.55-2.37c1.45-0.88,2.93-1.74,4.44-2.58
				c56.86-31.3,128.33-10.59,159.63,46.26C1484.31,918.53,1488.7,942.26,1486.43,965.09z"/>
			<g>
				<path class="st30" d="M1509.09,881.93c-10.51-19.11-25.58-34.14-43.09-44.47c-0.46-0.27-0.92-0.54-1.38-0.8
					c-1.24-0.71-2.49-1.4-3.76-2.06c-0.49-0.26-0.98-0.52-1.47-0.76c-1.24-0.64-2.49-1.25-3.76-1.83c-0.68-0.31-1.36-0.63-2.05-0.93
					c-1.25-0.55-2.5-1.08-3.77-1.58c-1.32-0.53-2.63-1.03-3.97-1.51c-0.1-0.03-0.2-0.07-0.3-0.1c-1.15-0.41-2.3-0.8-3.47-1.17
					c-0.26-0.08-0.53-0.17-0.8-0.25h-0.34c-0.29-0.14-0.48-0.26-0.89-0.38c-0.77-0.24-1.56-0.46-2.34-0.68
					c-0.39-0.11-0.79-0.22-1.18-0.32c-0.49-0.14-0.98-0.26-1.47-0.38c-1.25-0.32-2.51-0.62-3.77-0.89c-0.68-0.15-1.36-0.3-2.05-0.43
					c-1.25-0.25-2.51-0.49-3.76-0.7c-1.32-0.22-2.64-0.42-3.97-0.6c-1.23-0.16-2.46-0.31-3.71-0.43c-0.02-0.01-0.04-0.01-0.06-0.01
					c-1.41-0.14-2.82-0.25-4.24-0.35c-1.25-0.08-2.51-0.14-3.77-0.18c-2.78-0.08-5.57-0.08-8.36,0.03
					c-1.25,0.05-2.51,0.12-3.76,0.21c-2.99,0.21-5.98,0.54-8.98,1c-1.25,0.18-2.51,0.39-3.76,0.62c-3.86,0.71-7.7,1.61-11.51,2.73
					c-0.76,0.22-1.53,0.45-2.29,0.7c-0.01,0-0.01,0-0.01,0c-0.07,0.02-0.13,0.04-0.19,0.06c-0.12,0.03-0.24,0.08-0.35,0.11
					c-7.15,2.28-14.18,5.28-21,9.03c-0.03,0.02-0.06,0.03-0.08,0.05c-1.24,0.69-2.47,1.39-3.68,2.12c-0.22,0.13-0.44,0.26-0.65,0.4
					c-10.97,6.65-20.49,14.85-28.42,24.15c-0.25,0.28-0.48,0.57-0.71,0.85c-8.99,10.74-15.89,22.92-20.52,35.88
					c-0.01,0.02-0.02,0.04-0.02,0.06c-0.1,0.29-0.2,0.58-0.31,0.87c-1.52,4.36-2.78,8.81-3.77,13.33v0.34
					c-1.63,7.38-2.56,14.59-2.74,22.19v0.01c-0.29,11.58,1.14,23.28,4.39,34.74c0.19,0.69,0.39,1.37,0.6,2.06
					c0.67,2.21,1.41,4.41,2.23,6.6c0.2,0.03,0.39,0.07,0.6,0.09c0.71,0.11,1.44,0.22,2.15,0.32c0.28,0.05,0.57,0.09,0.85,0.12
					c0.35,0.05,0.7,0.1,1.04,0.15c1.04,0.15,2.08,0.3,3.12,0.43c0.01,0.01,0.03,0.01,0.03,0.01c3.62,0.48,7.24,0.93,10.85,1.31
					c1.01,0.12,2.03,0.23,3.04,0.33c0.64,0.07,1.27,0.13,1.9,0.19c1.53,0.15,3.06,0.29,4.58,0.42c0.65,0.06,1.28,0.12,1.93,0.17
					c0.3,0.03,0.59,0.05,0.9,0.08c1.01,0.09,2.03,0.16,3.04,0.23c0.19,0.02,0.38,0.02,0.58,0.04c2.23,0.17,4.46,0.31,6.68,0.43
					c1.01,0.06,2.03,0.11,3.04,0.15c0.79,0.05,1.58,0.09,2.37,0.12c0.15,0.01,0.3,0.02,0.45,0.02c1.32,0.06,2.63,0.12,3.94,0.15
					c1.02,0.03,2.03,0.07,3.04,0.08c1.15,0.04,2.3,0.07,3.44,0.08c1.01,0.03,2.03,0.03,3.04,0.05c1.07,0.01,2.14,0.02,3.21,0.02
					c1.02,0.01,2.03,0.01,3.04,0c0.56,0.01,1.11,0,1.67-0.01c0.62,0,1.23,0,1.84-0.02c0.4,0,0.8-0.01,1.2-0.02
					c0.4,0,0.79-0.01,1.19-0.02c0.56-0.01,1.12-0.02,1.68-0.03c0.14,0,0.28,0,0.42-0.01c0.29,0,0.57-0.01,0.86-0.02
					c0.41-0.01,0.81-0.02,1.22-0.03c7.88-0.21,15.7-0.64,23.45-1.29h0.02c8.93-0.73,17.77-1.76,26.52-3.05
					c9.46-1.4,18.81-3.13,28.03-5.16c0.15-0.03,0.31-0.07,0.47-0.1c-0.01,0.04-0.02,0.08-0.03,0.12l8.68-2.13
					c1.21-0.29,2.41-0.59,3.61-0.89c11.4-2.89,22.58-6.25,33.54-10.06c1.84-0.64,3.66-1.28,5.48-1.95c0.45-0.16,0.91-0.33,1.36-0.5
					c3.41-1.24,6.79-2.53,10.14-3.88c0.91-0.36,1.82-0.72,2.73-1.09v-0.01c0.19-0.07,0.38-0.14,0.55-0.21v-0.01
					c1.07-0.43,2.13-0.88,3.19-1.32c0.8-0.33,1.59-0.66,2.38-1c0.09-0.85,0.19-1.7,0.25-2.56
					C1525.24,926.52,1520.8,903.21,1509.09,881.93z"/>
				<path class="st28" d="M1500.11,886.87c-8.68-15.76-20.43-28.74-34.12-38.6c-0.45-0.33-0.91-0.65-1.38-0.98
					c-1.23-0.87-2.48-1.71-3.75-2.52c-0.49-0.31-0.98-0.62-1.47-0.93c-1.24-0.76-2.5-1.51-3.77-2.24c-0.68-0.39-1.36-0.77-2.05-1.14
					c-1.24-0.69-2.5-1.34-3.76-1.98c-1.31-0.65-2.64-1.28-3.97-1.89c-1.25-0.57-2.5-1.11-3.77-1.63c-0.45-0.19-0.9-0.37-1.35-0.55
					c-0.96-0.38-1.92-0.75-2.89-1.1c-0.82-0.31-1.65-0.6-2.47-0.88c-0.42-0.14-0.86-0.29-1.28-0.42c-2.75-0.92-5.54-1.73-8.36-2.43
					c-1.25-0.31-2.51-0.6-3.77-0.87c-2.73-0.6-5.48-1.09-8.25-1.48c-0.24-0.04-0.49-0.08-0.72-0.1c-1.25-0.18-2.5-0.32-3.76-0.45
					c-0.49-0.06-0.99-0.1-1.49-0.14h-0.37c-0.08-0.03-0.14-0.04-0.28-0.06c-0.01,0-0.01,0-0.02,0c-0.01,0-0.01,0-0.02,0
					s-0.01,0-0.02,0c-0.01,0-0.01,0-0.02,0c-0.01,0-0.01,0-0.02,0c-0.01,0-0.01,0-0.02,0s-0.01,0-0.02,0c-0.01,0-0.01,0-0.02,0
					c-0.01,0-0.01,0-0.02,0c-0.01,0-0.01,0-0.02,0c-0.01,0-0.01,0-0.02,0c-0.01,0-0.01,0-0.02,0s-0.01,0-0.02,0
					c-0.01,0-0.01,0-0.02,0c-0.01,0-0.01,0-0.02,0c-0.01,0-0.01,0-0.02,0c-0.01,0-0.01,0-0.02,0s-0.01,0-0.02,0s-0.01,0-0.02,0
					c-0.01,0-0.01,0-0.02,0c-0.01,0-0.01,0-0.02,0c-0.01,0-0.01,0-0.02,0c-0.01,0-0.01,0-0.02,0c-0.01,0-0.01,0-0.02,0
					c-0.01,0-0.01,0-0.02,0s-0.01,0-0.02,0c-0.01,0-0.01,0-0.02,0s-0.01,0-0.02,0c-0.01,0-0.01,0-0.02,0s-0.01,0-0.02,0
					c-0.01,0-0.01,0-0.02,0c-0.01,0-0.01,0-0.02,0c-0.01,0-0.01,0-0.02,0c-0.01,0-0.01,0-0.02,0c-0.01,0-0.01,0-0.02,0
					c-0.01,0-0.01,0-0.02,0c-0.01,0-0.01,0-0.02,0s-0.01,0-0.02,0c-0.01,0-0.01,0-0.02,0s-0.01,0-0.02,0c-0.01,0-0.01,0-0.02,0
					c-0.01,0-0.01,0-0.02,0c-0.01,0-0.01,0-0.02,0c-1.6-0.17-3.43-0.28-4.97-0.35c-1.26-0.05-2.51-0.08-3.76-0.08
					c-2.98-0.02-5.98,0.08-8.98,0.3c-0.47,0.03-0.94,0.07-1.41,0.11h-0.03c-0.01,0-0.01,0-0.02,0c-0.01,0-0.01,0-0.02,0
					c-0.01,0-0.01,0-0.02,0h-0.03c-0.01,0-0.01,0-0.02,0c-0.01,0-0.01,0-0.02,0c-0.01,0-0.01,0-0.02,0s-0.01,0-0.02,0
					c-0.01,0-0.01,0-0.02,0s-0.01,0-0.02,0h-0.01c-0.01,0-0.01,0-0.02,0H1387c-0.01,0-0.01,0-0.02,0h-0.01c-0.01,0-0.01,0-0.02,0
					c-0.01,0-0.01,0-0.02,0h-0.01c-0.01,0-0.01,0-0.02,0h-0.16c-0.06,0.02-0.1,0.03-0.2,0.06c-0.01,0-0.02,0-0.02,0
					c-0.01,0-0.01,0-0.02,0c-0.01,0-0.01,0-0.02,0c-0.01,0-0.01,0-0.02,0c-0.01,0-0.01,0-0.02,0s-0.01,0-0.02,0
					c-0.01,0-0.01,0-0.02,0c-0.01,0-0.01,0-0.02,0s-0.01,0-0.02,0c-0.01,0-0.01,0-0.02,0h-0.29c-4.01,0.37-7.8,0.95-11.79,1.76
					c-1.26,0.25-2.51,0.52-3.77,0.82c-7.1,1.65-14.13,3.99-21,7.05c-1.26,0.55-2.52,1.14-3.77,1.75c-0.22,0.1-0.43,0.21-0.65,0.32
					c-1.56,0.77-3.11,1.57-4.65,2.42c-10.76,5.92-20.22,13.29-28.29,21.72c-0.2,0.21-0.41,0.42-0.6,0.64
					c-0.07,0.07-0.14,0.14-0.2,0.21v0.01c-9.9,10.57-17.64,22.75-22.98,35.87c-0.01,0.02-0.02,0.04-0.03,0.06
					c-4.77,11.69-7.64,24.1-8.48,36.74c-0.4,5.84-0.35,11.73,0.15,17.62c0.54,6.42,1.61,12.83,3.24,19.17
					c0.4,1.6,0.84,3.18,1.33,4.76c0.95,0.17,1.9,0.33,2.84,0.49c2.71,0.47,5.41,0.91,8.12,1.31c0.06,0.02,0.12,0.03,0.18,0.03
					l0.01,0.01c0.04,0.01,0.08,0.01,0.12,0.02c0.2,0.03,0.39,0.07,0.6,0.09c0.71,0.11,1.44,0.22,2.15,0.32
					c0.28,0.05,0.57,0.09,0.85,0.12c0.35,0.05,0.7,0.1,1.04,0.15c1.04,0.15,2.08,0.3,3.12,0.43c0.01,0.01,0.03,0.01,0.03,0.01
					c3.62,0.48,7.24,0.93,10.85,1.31c1.01,0.12,2.03,0.23,3.04,0.33c0.64,0.07,1.27,0.13,1.9,0.19c1.53,0.15,3.06,0.29,4.58,0.42
					c0.65,0.06,1.28,0.12,1.93,0.17c0.3,0.03,0.59,0.05,0.9,0.08c1.01,0.09,2.03,0.16,3.04,0.23c0.19,0.02,0.38,0.02,0.58,0.04
					c2.23,0.17,4.46,0.31,6.68,0.43c1.01,0.06,2.03,0.11,3.04,0.15c0.79,0.05,1.58,0.09,2.37,0.12c0.15,0.01,0.3,0.02,0.45,0.02
					c1.32,0.06,2.63,0.12,3.94,0.15c1.02,0.03,2.03,0.07,3.04,0.08c1.15,0.04,2.3,0.07,3.44,0.08c1.01,0.03,2.03,0.03,3.04,0.05
					c1.07,0.01,2.14,0.02,3.21,0.02c1.02,0.01,2.03,0.01,3.04,0c0.56,0.01,1.11,0,1.67-0.01c0.62,0,1.23,0,1.84-0.02
					c0.4,0,0.8-0.01,1.2-0.02c0.4,0,0.79-0.01,1.19-0.02c0.56-0.01,1.12-0.02,1.68-0.03c0.14,0,0.28,0,0.42-0.01
					c0.29,0,0.57-0.01,0.86-0.02c0.41-0.01,0.81-0.02,1.22-0.03c7.88-0.21,15.7-0.64,23.45-1.29h0.02
					c8.93-0.73,17.77-1.76,26.52-3.05c9.46-1.4,18.81-3.13,28.03-5.16c0.15-0.03,0.31-0.07,0.47-0.1c-0.01,0.04-0.02,0.08-0.03,0.12
					l8.68-2.13c1.21-0.29,2.41-0.59,3.61-0.89c11.4-2.89,22.58-6.25,33.54-10.06c1.84-0.64,3.66-1.28,5.48-1.95
					c0.45-0.16,0.91-0.33,1.36-0.5c3.41-1.24,6.79-2.53,10.14-3.88C1516.42,932.33,1512.05,908.54,1500.11,886.87z"/>
				<g>
					<path class="st29" d="M1491.63,893.13c-7.16-13-16.65-23.94-27.66-32.55c-1.03-0.81-2.07-1.59-3.12-2.35
						c-0.48-0.36-0.98-0.71-1.47-1.04c-1.23-0.88-2.49-1.72-3.76-2.52c-0.68-0.43-1.36-0.86-2.05-1.28
						c-1.24-0.76-2.5-1.49-3.77-2.18c-1.31-0.73-2.63-1.43-3.97-2.09c-1.25-0.63-2.5-1.22-3.77-1.79c-1.4-0.64-2.81-1.24-4.24-1.8
						c-1.24-0.51-2.5-0.99-3.76-1.44c-0.14-0.05-0.26-0.1-0.4-0.14c-1.82-0.65-3.66-1.24-5.51-1.79c-0.82-0.25-1.63-0.48-2.45-0.7
						c-1.25-0.34-2.5-0.66-3.76-0.94c-2.97-0.69-5.96-1.25-8.98-1.69c-1.25-0.18-2.5-0.33-3.76-0.47c-0.37-0.04-0.76-0.09-1.14-0.12
						c-0.79-0.08-1.59-0.14-2.38-0.2c-0.01,0-0.01,0-0.01,0c-2.65-0.2-5.31-0.31-7.98-0.31c-1.26,0-2.52,0.03-3.77,0.07
						c-6.56,0.22-13.13,1.06-19.64,2.53c-1.26,0.28-2.52,0.59-3.77,0.93c-7.13,1.88-14.17,4.53-21,7.98
						c-1.12,0.57-2.24,1.16-3.35,1.77c-0.14,0.08-0.28,0.15-0.42,0.24c-5.82,3.24-11.27,6.95-16.3,11.13
						c-0.35,0.27-0.69,0.55-1.03,0.85c-1.11,0.93-2.18,1.89-3.25,2.87c-1.29,1.18-2.54,2.39-3.77,3.64
						c-8.41,8.53-15.32,18.43-20.44,29.37c-0.02,0.02-0.03,0.04-0.03,0.06c-0.05,0.09-0.09,0.18-0.13,0.27
						c-2.25,4.83-4.16,9.86-5.69,15.07v0.22c-0.05,0.09-0.1,0.14-0.15,0.28c-1.74,5.63-2.96,11.71-3.63,17.42c0,0.01,0,0.01,0,0.02
						c0,0.01,0,0.01,0,0.02c0,0.01,0,0.01,0,0.02s0,0.01,0,0.02c0,0.01,0,0.01,0,0.02c0,0.01,0,0.01,0,0.02c0,0.01,0,0.01,0,0.02
						c0,0.01,0,0.01,0,0.02s0,0.01,0,0.02c0,0.01,0,0.01,0,0.02c0,0.01,0,0.01,0,0.02c0,0.01,0,0.01,0,0.02c0,0.01,0,0.01,0,0.02
						c0,0.01,0,0.01,0,0.02s0,0.01,0,0.02c0,0.01,0,0.01,0,0.02c0,0.01,0,0.01,0,0.02c0,0.01,0,0.01,0,0.02c0,0.01,0,0.01,0,0.02
						c0,0.01,0,0.01,0,0.02c0,0.01,0,0.01,0,0.02c0,0.01,0,0.01,0,0.02c0,0.01,0,0.01,0,0.02c0,0.01,0,0.01,0,0.02
						c0,0.01,0,0.01,0,0.02s0,0.01,0,0.02s0,0.01,0,0.02c0,0.01,0,0.01,0,0.02s0,0.01,0,0.02c0,0.01,0,0.01,0,0.02
						c0,0.01,0,0.01,0,0.02c0,0.01,0,0.01,0,0.02c0,0.01,0,0.01,0,0.02s0,0.01,0,0.02c0,0.01,0,0.01,0,0.02c0,0.01,0,0.01,0,0.02
						c0,0.01,0,0.01,0,0.02s0,0.01,0,0.02c0,0.01,0,0.01,0,0.02c0,0.01,0,0.01,0,0.02s0,0.01,0,0.02c0,0.01,0,0.01,0,0.02
						c0,0.01,0,0.01,0,0.02c0,0.01,0,0.01,0,0.02c0,0.01,0,0.01,0,0.02s0,0.01,0,0.02c0,0.01,0,0.01,0,0.02
						c-0.1,0.88-0.19,1.78-0.26,2.67c-0.26,3.03-0.39,6.05-0.39,9.07c0,8.99,1.14,17.92,3.41,26.62c0.09,0.37,0.2,0.74,0.3,1.11
						c0.6,2.25,1.29,4.48,2.05,6.7c0.71,0.11,1.44,0.22,2.15,0.32c0.28,0.05,0.57,0.09,0.85,0.12c0.35,0.05,0.7,0.1,1.04,0.15
						c1.04,0.15,2.08,0.3,3.12,0.43c-0.39-1.04-0.77-2.08-1.12-3.13c-0.53-1.51-1.01-3.04-1.46-4.58c-0.44-1.54-0.85-2.69-1.22-4.24
						v-0.4c-2.51-10.51-3.29-21.34-2.3-32.16c0.58-6.4,1.79-12.79,3.61-19.11c0.77-2.63,1.62-5.22,2.59-7.75V909
						c1.27-3.38,2.73-6.66,4.35-9.86c0-0.02,0.01-0.04,0.03-0.06c3.64-7.19,8.11-13.87,13.33-19.93c1.21-1.41,2.46-2.79,3.77-4.13
						c4.13-4.32,8.69-8.27,13.6-11.81h0.01c0.4-0.29,0.79-0.58,1.2-0.85h0.08c1.87-1.32,3.71-2.57,5.69-3.75
						c1.15-0.71,2.32-1.38,3.5-2.03c0.09-0.05,0.18-0.1,0.27-0.14c6.78-3.72,13.82-6.56,20.99-8.58c1.25-0.36,2.51-0.68,3.77-0.99
						c6.5-1.56,13.09-2.45,19.65-2.69c1.24-0.05,2.48-0.08,3.72-0.08h0.04c1.14,0,2.29,0.02,3.43,0.06c0,0,0,0,0.01,0
						c1.16,0.04,2.34,0.1,3.5,0.19c1.53,0.1,3.06,0.25,4.57,0.42c1.26,0.14,2.51,0.31,3.75,0.51c3.02,0.46,6.02,1.05,8.98,1.79
						c0.72,0.18,1.44,0.37,2.16,0.56c0.54,0.14,1.07,0.3,1.61,0.45c1.33,0.38,2.66,0.8,3.98,1.23c1.47,0.49,2.93,1.02,4.38,1.57
						c1.27,0.49,2.52,1,3.76,1.53c1.43,0.62,2.84,1.27,4.24,1.95c1.27,0.62,2.52,1.27,3.77,1.94c1.34,0.72,2.66,1.48,3.96,2.26
						c1.27,0.76,2.52,1.55,3.77,2.38c0.69,0.45,1.37,0.92,2.05,1.39c0.44,0.31,0.89,0.62,1.33,0.94c0.01,0,0.01,0,0.01,0
						c11.67,8.44,21.69,19.51,29.09,32.93c11.1,20.15,14.92,42.98,11.09,65.32c1.84-0.64,3.66-1.28,5.48-1.95
						c0.45-0.16,0.91-0.33,1.36-0.5C1507.07,936.46,1502.85,913.51,1491.63,893.13z"/>
				</g>
				<g>
					<path class="st29" d="M1394.77,981.43c-2.01-2.02-3.75-4.85-5.23-8.5l-19.28,7.82c-0.02,1.14,0.01,2.28,0.09,3.42
						c0.14,0,0.28,0,0.42-0.01c0.29,0,0.57-0.01,0.86-0.02c0.41-0.01,0.81-0.02,1.22-0.03c7.88-0.21,15.7-0.64,23.45-1.29
						C1395.78,982.4,1395.27,981.94,1394.77,981.43z M1394.77,981.43c-2.01-2.02-3.75-4.85-5.23-8.5l-19.28,7.82
						c-0.02,1.14,0.01,2.28,0.09,3.42c0.14,0,0.28,0,0.42-0.01c0.29,0,0.57-0.01,0.86-0.02c0.41-0.01,0.81-0.02,1.22-0.03
						c7.88-0.21,15.7-0.64,23.45-1.29C1395.78,982.4,1395.27,981.94,1394.77,981.43z M1394.77,981.43c-2.01-2.02-3.75-4.85-5.23-8.5
						l-19.28,7.82c-0.02,1.14,0.01,2.28,0.09,3.42c0.14,0,0.28,0,0.42-0.01c0.29,0,0.57-0.01,0.86-0.02
						c0.41-0.01,0.81-0.02,1.22-0.03c7.88-0.21,15.7-0.64,23.45-1.29C1395.78,982.4,1395.27,981.94,1394.77,981.43z M1394.77,981.43
						c-2.01-2.02-3.75-4.85-5.23-8.5l-19.28,7.82c-0.02,1.14,0.01,2.28,0.09,3.42c0.14,0,0.28,0,0.42-0.01
						c0.29,0,0.57-0.01,0.86-0.02c0.41-0.01,0.81-0.02,1.22-0.03c7.88-0.21,15.7-0.64,23.45-1.29
						C1395.78,982.4,1395.27,981.94,1394.77,981.43z M1394.77,981.43c-2.01-2.02-3.75-4.85-5.23-8.5l-19.28,7.82
						c-0.02,1.14,0.01,2.28,0.09,3.42c0.14,0,0.28,0,0.42-0.01c0.29,0,0.57-0.01,0.86-0.02c0.41-0.01,0.81-0.02,1.22-0.03
						c7.88-0.21,15.7-0.64,23.45-1.29C1395.78,982.4,1395.27,981.94,1394.77,981.43z M1394.77,981.43c-2.01-2.02-3.75-4.85-5.23-8.5
						l-19.28,7.82c-0.02,1.14,0.01,2.28,0.09,3.42c0.14,0,0.28,0,0.42-0.01c0.29,0,0.57-0.01,0.86-0.02
						c0.41-0.01,0.81-0.02,1.22-0.03c7.88-0.21,15.7-0.64,23.45-1.29C1395.78,982.4,1395.27,981.94,1394.77,981.43z M1451.39,960.56
						c-0.42-1.82-1.01-3.66-1.77-5.53c-0.61-1.5-1.27-2.91-1.99-4.23c-0.65-1.17-1.33-2.28-2.06-3.3c-0.05-0.08-0.11-0.15-0.17-0.23
						v-0.01c-1.1-1.53-2.3-2.88-3.6-4.06c-0.02-0.02-0.03-0.03-0.04-0.04c-1.23-1.12-2.53-2.14-3.92-3.06
						c-1.2-0.77-2.45-1.48-3.76-2.11c-1.14-0.54-2.32-1.03-3.55-1.45c-0.23-0.08-0.47-0.16-0.7-0.23c-0.37-0.13-0.75-0.25-1.13-0.36
						c-0.01-0.01-0.01-0.01-0.01-0.01s0,0-0.01,0c-0.14-0.04-0.28-0.08-0.42-0.11c-3.53-1.02-7.36-1.67-11.51-1.95
						c-0.15-0.02-0.32-0.03-0.48-0.03c-1.08-0.07-2.17-0.12-3.29-0.17c-4.32-0.17-8.93-0.19-13.83-0.06
						c-2.11,0.07-4.05,0.08-5.81,0.03c-1.35-0.03-2.61-0.11-3.77-0.21c-0.07-0.01-0.14-0.01-0.2-0.02c-2.7-0.25-5-0.75-6.88-1.5
						c-1.89-0.76-3.42-1.8-4.59-3.11c-1.18-1.32-2.15-2.92-2.92-4.82c-0.08-0.2-0.15-0.39-0.22-0.59c-0.63-1.7-0.99-3.39-1.1-5.07
						c-0.06-0.99-0.01-1.94,0.15-2.87c0.14-0.83,0.37-1.65,0.69-2.44c0.67-1.67,1.76-3.22,3.27-4.64c0.81-0.76,1.75-1.45,2.84-2.09
						c0.94-0.57,2.01-1.08,3.16-1.56c1.99-0.81,3.94-1.26,5.81-1.34c0.01,0,0.02,0,0.02,0c1.28-0.06,2.53,0.05,3.76,0.33
						c1.1,0.24,2.18,0.62,3.24,1.14c3.97,1.95,7.21,6,9.71,12.16l6.69-2.71l3.77-1.53l11.51-4.67l1.97-0.8
						c-0.61-1.51-1.27-2.95-1.96-4.32v-0.4c-0.68-1.28-1.4-2.19-2.17-3.38c-0.01-0.03-0.03-0.04-0.04-0.06
						c-0.21-0.34-0.43-0.67-0.66-0.99c-0.93-1.38-1.94-2.66-2.99-3.85c-0.32-0.36-0.63-0.7-0.98-1.04v-0.02
						c-1.19-1.25-2.45-2.39-3.76-3.42c-1.35-1.07-2.76-2.02-4.24-2.85c-0.54-0.32-1.09-0.6-1.64-0.88c-0.7-0.34-1.41-0.66-2.13-0.94
						c-1.73-0.7-3.5-1.25-5.35-1.67c-0.99-0.22-1.98-0.39-3-0.53c-0.78-0.11-1.57-0.19-2.37-0.25c-0.29-0.02-0.57-0.03-0.86-0.04
						c-0.18-0.02-0.36-0.03-0.54-0.03c-2.92-0.1-5.91,0.11-8.97,0.65c-1.24,0.21-2.5,0.49-3.77,0.82c-0.11,0.02-0.21,0.05-0.32,0.08
						l-0.81-2l-3.81-9.38l-2.16-5.32l-4.4,1.79l-3.77,1.52l-5.09,2.07l5.08,12.54l0.36,0.88l1.24,3.06
						c-0.54,0.28-1.08,0.57-1.6,0.87c-1.68,0.93-3.26,1.9-4.74,2.95h-0.01c-2.14,1.5-4.08,3.11-5.82,4.84
						c-0.37,0.37-0.74,0.75-1.09,1.12c-0.03,0.02-0.04,0.03-0.06,0.06c-2.78,2.96-4.96,6.12-6.54,9.5c-0.8,1.71-1.43,3.47-1.89,5.25
						c0,0.01,0,0.01,0,0.01c-0.57,2.21-0.88,4.49-0.94,6.82c-0.08,4.22,0.76,8.51,2.52,12.87c0.32,0.78,0.66,1.55,1,2.28
						c0,0.01,0,0.01,0,0.01c0.88,1.84,1.84,3.53,2.9,5.05c0.29,0.42,0.59,0.84,0.9,1.23c0.85,1.12,1.77,2.14,2.75,3.07l0.33,0.31
						c1.14,1.04,2.35,2,3.63,2.85c1.19,0.81,2.45,1.53,3.76,2.17c1.22,0.6,2.49,1.11,3.82,1.56c2.82,0.96,5.87,1.67,9.15,2.11
						c1.65,0.23,3.36,0.39,5.13,0.49c0.51,0.03,1.03,0.05,1.56,0.08c1.22,0.05,2.48,0.09,3.76,0.11c3.64,0.07,7.47,0.01,11.51-0.18
						c0.11-0.01,0.23-0.01,0.34-0.02c1.19-0.07,2.34-0.11,3.42-0.13c2.18-0.03,4.15,0.03,5.92,0.2c1.08,0.09,2.1,0.24,3.05,0.43
						c1.38,0.26,2.63,0.63,3.77,1.08c0.01,0,0.02,0.01,0.03,0.01c1.92,0.77,3.52,1.86,4.79,3.26c1.28,1.39,2.35,3.17,3.22,5.32
						c0.12,0.22,0.22,0.32,0.33,0.48v0.4c0.55,1.61,0.82,3.2,0.82,4.8c0,0.74-0.07,1.47-0.2,2.19c-0.2,1.1-0.56,2.18-1.08,3.21
						c-0.66,1.34-1.59,2.61-2.77,3.8c9.46-1.4,18.81-3.13,28.03-5.16c0.15-0.03,0.31-0.07,0.47-0.1c0.16-0.64,0.3-1.28,0.41-1.94
						c0.25-1.45,0.41-2.92,0.45-4.43C1452.26,965.67,1452,963.14,1451.39,960.56z M1394.77,981.43c-2.01-2.02-3.75-4.85-5.23-8.5
						l-19.28,7.82c-0.02,1.14,0.01,2.28,0.09,3.42c0.14,0,0.28,0,0.42-0.01c0.29,0,0.57-0.01,0.86-0.02
						c0.41-0.01,0.81-0.02,1.22-0.03c7.88-0.21,15.7-0.64,23.45-1.29C1395.78,982.4,1395.27,981.94,1394.77,981.43z M1394.77,981.43
						c-2.01-2.02-3.75-4.85-5.23-8.5l-19.28,7.82c-0.02,1.14,0.01,2.28,0.09,3.42c0.14,0,0.28,0,0.42-0.01
						c0.29,0,0.57-0.01,0.86-0.02c0.41-0.01,0.81-0.02,1.22-0.03c7.88-0.21,15.7-0.64,23.45-1.29
						C1395.78,982.4,1395.27,981.94,1394.77,981.43z M1394.77,981.43c-2.01-2.02-3.75-4.85-5.23-8.5l-19.28,7.82
						c-0.02,1.14,0.01,2.28,0.09,3.42c0.14,0,0.28,0,0.42-0.01c0.29,0,0.57-0.01,0.86-0.02c0.41-0.01,0.81-0.02,1.22-0.03
						c7.88-0.21,15.7-0.64,23.45-1.29C1395.78,982.4,1395.27,981.94,1394.77,981.43z M1394.77,981.43c-2.01-2.02-3.75-4.85-5.23-8.5
						l-19.28,7.82c-0.02,1.14,0.01,2.28,0.09,3.42c0.14,0,0.28,0,0.42-0.01c0.29,0,0.57-0.01,0.86-0.02
						c0.41-0.01,0.81-0.02,1.22-0.03c7.88-0.21,15.7-0.64,23.45-1.29C1395.78,982.4,1395.27,981.94,1394.77,981.43z M1394.77,981.43
						c-2.01-2.02-3.75-4.85-5.23-8.5l-19.28,7.82c-0.02,1.14,0.01,2.28,0.09,3.42c0.14,0,0.28,0,0.42-0.01
						c0.29,0,0.57-0.01,0.86-0.02c0.41-0.01,0.81-0.02,1.22-0.03c7.88-0.21,15.7-0.64,23.45-1.29
						C1395.78,982.4,1395.27,981.94,1394.77,981.43z M1394.77,981.43c-2.01-2.02-3.75-4.85-5.23-8.5l-19.28,7.82
						c-0.02,1.14,0.01,2.28,0.09,3.42c0.14,0,0.28,0,0.42-0.01c0.29,0,0.57-0.01,0.86-0.02c0.41-0.01,0.81-0.02,1.22-0.03
						c7.88-0.21,15.7-0.64,23.45-1.29C1395.78,982.4,1395.27,981.94,1394.77,981.43z M1394.77,981.43c-2.01-2.02-3.75-4.85-5.23-8.5
						l-19.28,7.82l-4.67,1.89c0.22,0.54,0.44,1.08,0.68,1.6c0.4,0,0.8-0.01,1.2-0.02c0.4,0,0.79-0.01,1.19-0.02
						c0.56-0.01,1.12-0.02,1.68-0.03c0.14,0,0.28,0,0.42-0.01c0.29,0,0.57-0.01,0.86-0.02c0.41-0.01,0.81-0.02,1.22-0.03
						c7.88-0.21,15.7-0.64,23.45-1.29C1395.78,982.4,1395.27,981.94,1394.77,981.43z"/>
				</g>
			</g>
		</g>
	</g>
</g>
</svg>
