<?xml version="1.0" encoding="utf-8"?>
<!-- Generator: Adobe Illustrator 24.0.0, SVG Export Plug-In . SVG Version: 6.00 Build 0)  -->
<svg version="1.1" id="Слой_1" xmlns="http://www.w3.org/2000/svg" xmlns:xlink="http://www.w3.org/1999/xlink" x="0px" y="0px"
	 viewBox="0 0 2246.4 1916.12" style="enable-background:new 0 0 2246.4 1916.12;" xml:space="preserve">
<style type="text/css">
	.st0{fill:#E1EAED;}
	.st1{fill:url(#SVGID_1_);}
	.st2{fill:url(#SVGID_2_);}
	.st3{fill:#5577FF;}
	.st4{fill:#98A6B1;}
	.st5{fill:url(#SVGID_3_);}
	.st6{fill:url(#SVGID_4_);}
	.st7{fill:#385369;}
	.st8{fill:url(#SVGID_5_);}
	.st9{fill:#FFBB55;}
	.st10{fill:#FFD255;}
	.st11{fill:#FFD078;}
	.st12{fill:#FFFFFF;}
	.st13{fill:#FFD179;}
	.st14{fill:#EEA886;}
	.st15{fill:#152B3D;}
	.st16{fill:#FFC05C;}
	.st17{fill:#254380;}
	.st18{fill:#353A3D;}
	.st19{fill:#E55353;}
	.st20{fill:#6A75BA;stroke:#000000;stroke-miterlimit:10;}
	.st21{fill:#545D94;stroke:#000000;stroke-miterlimit:10;}
	.st22{fill:#EEA886;stroke:#000000;stroke-miterlimit:10;}
	.st23{fill:#207CD6;stroke:#000000;stroke-miterlimit:10;}
	.st24{fill:#2E334D;stroke:#000000;stroke-miterlimit:10;}
	.st25{fill:#FFC955;stroke:#000000;stroke-miterlimit:10;}
	.st26{fill:#A77860;stroke:#000000;stroke-miterlimit:10;}
	.st27{fill:#C29941;stroke:#000000;stroke-miterlimit:10;}
	.st28{fill:#E0E0E0;stroke:#000000;stroke-miterlimit:10;}
	.st29{fill:url(#SVGID_6_);}
	.st30{fill:url(#SVGID_7_);}
	.st31{fill:url(#SVGID_8_);}
	.st32{fill:url(#SVGID_9_);}
	.st33{fill:url(#SVGID_10_);}
	.st34{fill:url(#SVGID_11_);}
	.st35{fill:#E0E0E0;stroke:#000000;stroke-width:2;stroke-miterlimit:10;}
	.st36{fill:#D6D6D6;}
	.st37{fill:#E8E8E8;}
	.st38{fill:#C2C2C2;}
	.st39{fill:#F5F5F5;}
	.st40{fill:#4AAFFF;}
	.st41{fill:#1A598C;}
	.st42{fill:#2273B5;}
	.st43{fill:#3788CC;}
	.st44{fill:#E2F3FE;}
	.st45{fill:#C5CCD1;}
	.st46{fill:#292C47;}
	.st47{fill:#E2D2CA;}
	.st48{fill:#424773;}
	.st49{fill:#3A3F47;}
	.st50{fill:#323657;}
	.st51{fill:#FFC955;}
	.st52{fill:#967732;}
	.st53{fill:#706865;}
	.st54{fill:#BDAFAA;}
	.st55{fill:#CFCFCF;}
	.st56{fill:#202338;}
	.st57{fill:#2F6B8C;}
	.st58{fill:#D9AB48;}
	.st59{fill:#B58F3C;}
	.st60{fill:#C4B4AF;}
	.st61{fill:#EB4747;}
	.st62{fill:#EDDAD3;}
	.st63{fill:#DECCC6;}
	.st64{fill:#E3D1CA;}
	.st65{fill:#B39696;}
	.st66{fill:#DBB8B8;}
	.st67{fill:#F2CBCB;}
	.st68{fill:#163342;}
	.st69{fill:#B07C63;}
	.st70{fill:#EBA684;}
	.st71{fill:#464240;}
	.st72{fill:#F2F2F2;}
	.st73{fill:#A77860;}
	.st74{fill:#DE9D7D;}
	.st75{fill:#5E5853;}
	.st76{fill:#91887F;}
	.st77{fill:#4E568A;}
	.st78{fill:#6E6760;}
	.st79{fill:#807066;}
</style>
<path class="st0" d="M2133.22,1035.87c-5.48,235.23-467.82,986.75-979.89,805.31c-640.84-227.07-1050.3-193.25-1053.31-586.42
	c-2.45-319.32,287-854.55,1094.51-931.77C1638.23,280.57,2142.11,654.56,2133.22,1035.87z"/>
<g>
	<g>
		<g>
			<linearGradient id="SVGID_1_" gradientUnits="userSpaceOnUse" x1="627.3474" y1="644.2859" x2="989.3464" y2="1177.2855">
				<stop  offset="0" style="stop-color:#40D5E6"/>
				<stop  offset="1" style="stop-color:#5577FF"/>
			</linearGradient>
			<path class="st1" d="M749.08,1487.16l-131.78-93.78l29.41-65.88c-20.79-25.05-38.19-52.85-51.73-82.68l-72.18-2.29l-26.87-159.47
				l67.45-25.82c3.01-32.61,10.33-64.56,21.78-95.06l-49.36-52.6l93.76-131.78l65.88,29.41c25.04-20.78,52.84-38.17,82.7-51.73
				l2.29-72.16l159.47-26.89l25.8,67.45c32.62,3.01,64.58,10.33,95.09,21.78l52.6-49.36l131.78,93.76l-29.41,65.88
				c20.8,25.09,38.2,52.89,51.73,82.7l72.16,2.29l26.87,159.47l-67.43,25.8c-1.33,14.33-3.51,28.71-6.51,42.8l-0.86,4.04
				l-177.94-43.84l0.68-3.7c13.01-70.92-16.52-143.74-75.23-185.51c-83.67-59.54-200.19-39.91-259.73,43.76
				c-59.53,83.66-39.9,200.18,43.76,259.74c17.49,12.45,36.69,21.68,57.06,27.45l3.52,1l-34.11,180.2l-4.07-0.96
				c-14.83-3.5-29.6-7.99-43.96-13.37L749.08,1487.16z M627.28,1390.66l121.1,86.18l51.47-48.3l2.34,0.89
				c13.45,5.14,27.29,9.49,41.22,12.95l31.2-164.79c-19.95-6.06-38.77-15.34-56-27.6c-87.26-62.11-107.73-183.63-45.64-270.89
				c62.1-87.27,183.62-107.74,270.89-45.64c60.21,42.84,90.99,116.98,79.11,189.76l162.62,40.06c2.67-13.29,4.6-26.82,5.75-40.27
				l0.21-2.5l65.99-25.25l-24.69-146.55l-70.61-2.24l-1.02-2.29c-13.72-30.76-31.62-59.37-53.19-85.02l-1.61-1.92l28.78-64.46
				l-121.1-86.16l-51.47,48.3l-2.34-0.9c-31.29-11.98-64.18-19.52-97.76-22.39l-2.5-0.21l-25.25-66l-146.55,24.71l-2.24,70.61
				l-2.29,1.02c-30.81,13.74-59.42,31.64-85.02,53.19l-1.92,1.61l-64.46-28.78l-86.16,121.1l48.3,51.47l-0.9,2.34
				c-11.98,31.29-19.52,64.17-22.39,97.74l-0.21,2.5l-66,25.27l24.69,146.55l70.63,2.24l1.02,2.29c13.73,30.78,31.62,59.38,53.19,85
				l1.61,1.92L627.28,1390.66z"/>
		</g>
		<linearGradient id="SVGID_2_" gradientUnits="userSpaceOnUse" x1="648.5749" y1="321.5009" x2="1048.3895" y2="988.7416">
			<stop  offset="0" style="stop-color:#40D5E6"/>
			<stop  offset="1" style="stop-color:#5577FF"/>
		</linearGradient>
		<path class="st2" d="M969.76,655.74l-3.91-71.34l-153.58-22.19L788.3,629.5c-14.68,1.61-29.33,4.1-43.82,7.5l36.19,171.54
			c54.31-14.05,112.75-3.38,158.68,29.63l83.48-154.91C1005.83,672.57,988.07,663.4,969.76,655.74z"/>
		<g>
			<path class="st3" d="M931.22,1289.72v-8c76.94,0,145.17-46.13,173.82-117.54l7.42,2.98
				C1082.59,1241.62,1011.45,1289.72,931.22,1289.72z"/>
		</g>
		<g>
			<path class="st3" d="M931.22,1344.33v-8c56.76,0,110.23-18.58,154.63-53.73l4.96,6.27
				C1044.99,1325.15,989.8,1344.33,931.22,1344.33z"/>
		</g>
		<g>
			<path class="st3" d="M1113.26,1356.98l-4.48-6.63c49.9-33.71,89.06-80.57,113.24-135.51l7.32,3.22
				C1204.55,1274.39,1164.4,1322.42,1113.26,1356.98z"/>
		</g>
		<g>
			
				<rect x="1619.08" y="470.4" transform="matrix(0.7406 -0.672 0.672 0.7406 40.0171 1237.8169)" class="st4" width="8" height="193.36"/>
		</g>
		<linearGradient id="SVGID_3_" gradientUnits="userSpaceOnUse" x1="538.3257" y1="510.2067" x2="1001.6873" y2="1195.9828">
			<stop  offset="0" style="stop-color:#40D5E6"/>
			<stop  offset="1" style="stop-color:#5577FF"/>
		</linearGradient>
		<path class="st5" d="M1349.15,1021.32l-12.9-76.51l-71.39-2.26c-13.66-30.64-31.65-59.65-53.77-85.97l29.09-65.16l-126.45-89.98
			l-52.02,48.83c-13.13-5.03-26.46-9.25-39.91-12.67l-32.15,173.03c18.08,5.82,35.59,14.49,51.88,26.09
			c62.21,44.26,89.78,119.05,76.86,189.49l170.26,41.94c3.16-14.85,5.38-29.82,6.67-44.8l66.69-25.53L1349.15,1021.32z
			 M776.23,981.42c14.78-20.78,32.98-37.69,53.28-50.5l-86.89-152.27c-16.24,9.76-31.81,20.85-46.53,33.24l-65.16-29.09
			l-44.98,63.21l-44.98,63.21l48.83,52.04c-12.3,32.13-19.79,65.4-22.65,98.82l-66.73,25.54l12.9,76.51l12.89,76.51l71.39,2.26
			c13.68,30.65,31.63,59.63,53.79,85.95l-29.09,65.16l63.21,45.02l63.23,44.98l52.02-48.83c15.04,5.74,30.33,10.45,45.79,14.09
			l32.66-172.49c-20.35-5.75-40.07-15.08-58.29-28.03C735.33,1185.81,715.31,1067.02,776.23,981.42z"/>
		<linearGradient id="SVGID_4_" gradientUnits="userSpaceOnUse" x1="959.8536" y1="224.9485" x2="1277.5869" y2="677.719">
			<stop  offset="0" style="stop-color:#40D5E6"/>
			<stop  offset="1" style="stop-color:#5577FF"/>
		</linearGradient>
		<path class="st6" d="M1276.46,531.14c5.01-13.08,8.05-26.62,9.22-40.23l27.16-10.39l-5.25-31.15l-5.25-31.15l-29.06-0.92
			c-5.57-12.48-12.88-24.28-21.9-34.99l11.84-26.53l-25.74-18.31l-25.74-18.31l-21.18,19.88c-13.08-5.01-26.62-8.05-40.23-9.22
			l-10.39-27.16l-31.15,5.25l-31.15,5.25l-0.92,29.06c-12.48,5.57-24.28,12.88-34.99,21.9l-26.53-11.84L996.89,378l-18.31,25.74
			l19.88,21.18c-5.01,13.08-8.05,26.62-9.22,40.23l-27.16,10.39l5.25,31.15l5.25,31.15l29.06,0.92
			c5.57,12.48,12.88,24.28,21.9,34.99l-11.84,26.53l25.74,18.31l25.74,18.31l21.18-19.88c13.08,5.01,26.62,8.05,40.23,9.22
			l10.39,27.16l31.15-5.25l31.15-5.25l0.92-29.06c12.48-5.57,24.28-12.88,34.99-21.9l26.53,11.84l18.31-25.74l18.31-25.74
			L1276.46,531.14z M1092.55,541.13c-34.85-24.8-43-73.16-18.2-108.01c24.8-34.85,73.16-43,108.01-18.2
			c34.85,24.8,43,73.16,18.2,108.01C1175.76,557.79,1127.4,565.93,1092.55,541.13z"/>
		<g>
			<path class="st7" d="M1558.11,499.95c10.45,0,18.95-8.5,18.95-18.95h-4.46c0,7.99-6.5,14.49-14.49,14.49s-14.49-6.5-14.49-14.49
				c0-7.99,6.5-14.49,14.49-14.49h2.23v-229.4h-4.46v225.06c-9.4,1.11-16.72,9.13-16.72,18.82
				C1539.16,491.45,1547.66,499.95,1558.11,499.95z"/>
		</g>
		<g>
			
				<rect x="1552.97" y="352.88" transform="matrix(-1 -1.224647e-16 1.224647e-16 -1 3116.6187 814.0936)" class="st4" width="10.67" height="108.33"/>
		</g>
		<g>
			<polygon class="st4" points="1431.34,641.37 1425.41,635.99 1558.42,489.57 1563.54,495.51 			"/>
		</g>
		<linearGradient id="SVGID_5_" gradientUnits="userSpaceOnUse" x1="1396.4525" y1="519.0197" x2="1695.6528" y2="995.6219">
			<stop  offset="0" style="stop-color:#40D5E6"/>
			<stop  offset="1" style="stop-color:#5577FF"/>
		</linearGradient>
		<path class="st8" d="M1777.23,781.66c15.16-11.38,29.29-23.84,42.3-37.23l-121.77-126.19c-18.24,19.84-41.02,36.11-67.59,47.05
			c-76.49,31.48-161.65,9.49-213.96-48.69L1296.7,745.2c12.61,12.88,26.1,24.73,40.33,35.48l-13.91,70.06l71.61,29.85l71.62,29.83
			l39.93-59.21c33.22,4.75,67.33,4.97,101.4,0.27l39.66,59.33l71.74-29.55l71.74-29.55L1777.23,781.66z"/>
		<g>
			<g>
				<polygon class="st9" points="1455.15,1564.18 1698.57,1564.18 1621.85,1799.78 1629.03,1802.11 1708.96,1556.63 
					1449.67,1556.63 1370.5,1799.78 1377.67,1802.11 				"/>
			</g>
			<g>
				<polygon class="st9" points="1538,1799.78 1461.28,1564.18 1704.7,1564.18 1782.17,1802.11 1789.35,1799.78 1710.17,1556.63 
					1450.89,1556.63 1530.82,1802.11 				"/>
			</g>
			<g>
				<rect x="1432.5" y="1630.82" class="st9" width="297.93" height="7.54"/>
			</g>
			<g>
				<rect x="1401.81" y="1712.74" class="st9" width="356.46" height="7.54"/>
			</g>
		</g>
		<g>
			<g>
				<path class="st10" d="M787.38,443.34c-6.06-1.76-11.31-5.25-14.93-9.98c-4.11-5.36-5.66-11.67-4.37-17.78
					c1.67-12.2,0.53-25.41-0.77-34.57c-12.26-14.82-16.38-34.62-11.02-53.09c8.9-30.68,41.1-48.4,71.78-39.5
					c30.68,8.9,48.4,41.1,39.5,71.78c-4.85,16.7-16.75,30.17-32.72,37.06c-6.64,10.62-11.39,20.61-14.12,29.73
					c-2.76,12.45-16.74,20.03-31.22,16.89C788.79,443.73,788.08,443.55,787.38,443.34z M826.75,292.98
					c-28.17-8.17-57.74,8.1-65.91,36.27c-4.98,17.16-1.04,35.57,10.53,49.23l0.44,0.52l0.1,0.67c1.39,9.5,2.67,23.58,0.86,36.65
					l-0.03,0.18c-1.03,4.75,0.21,9.71,3.48,13.98c3.36,4.38,8.44,7.5,14.3,8.77c11.96,2.59,23.45-3.4,25.6-13.35l0.02-0.09
					l0.03-0.09c2.9-9.73,7.97-20.36,15.07-31.61l0.4-0.64l0.69-0.29c14.99-6.24,26.18-18.74,30.69-34.3
					C871.19,330.72,854.92,301.16,826.75,292.98z"/>
			</g>
			<g>
				<polygon class="st10" points="780.93,421.8 786.46,358.45 797.11,371.81 806.95,364.62 812.11,374.39 826.29,366.71 806,427.07 
					801.5,425.56 817.96,376.61 810.16,380.83 805.32,371.68 796.23,378.32 790.15,370.69 785.65,422.22 				"/>
			</g>
			<g>
				
					<rect x="768.4" y="438.04" transform="matrix(0.9773 0.2118 -0.2118 0.9773 112.4191 -156.9622)" class="st10" width="41.09" height="16.56"/>
			</g>
			<g>
				
					<rect x="764.31" y="421.39" transform="matrix(0.9773 0.2118 -0.2118 0.9773 110.0179 -157.7555)" class="st10" width="54.31" height="26.66"/>
			</g>
		</g>
		<g>
			<g>
				<g>
					<g>
						<polygon class="st11" points="342.7,1025.65 339.83,1024.67 363.84,954.76 417.5,939.9 435.96,863.26 477.28,844.45 
							485.9,784.93 488.89,785.36 480.04,846.52 438.56,865.41 420.03,942.34 366.19,957.25 						"/>
					</g>
				</g>
			</g>
			<g>
				<g>
					<path class="st12" d="M424.96,935.94c2.86,3.42,2.41,8.51-1.01,11.38c-3.42,2.86-8.52,2.41-11.38-1.01s-2.41-8.51,1.01-11.38
						C417,932.06,422.1,932.52,424.96,935.94z"/>
				</g>
			</g>
			<g>
				<g>
					<path class="st11" d="M424.92,948.48c-4.06,3.39-10.12,2.86-13.51-1.2c-3.39-4.06-2.86-10.12,1.2-13.51
						c4.06-3.39,10.12-2.86,13.51,1.2C429.51,939.02,428.98,945.08,424.92,948.48z M414.55,936.09c-2.77,2.32-3.14,6.47-0.82,9.24
						s6.47,3.14,9.25,0.82c2.77-2.32,3.14-6.47,0.82-9.25C421.47,934.13,417.33,933.77,414.55,936.09z"/>
				</g>
			</g>
			<g>
				<g>
					<path class="st12" d="M443.68,859.61c2.86,3.42,2.41,8.52-1.01,11.38c-3.42,2.86-8.51,2.41-11.38-1.01
						c-2.86-3.42-2.41-8.51,1.01-11.38C435.72,855.74,440.81,856.19,443.68,859.61z"/>
				</g>
			</g>
			<g>
				<g>
					<path class="st11" d="M443.64,872.15c-4.06,3.39-10.12,2.86-13.51-1.2c-3.39-4.06-2.86-10.12,1.2-13.51
						c4.06-3.39,10.12-2.86,13.51,1.2C448.23,862.69,447.69,868.75,443.64,872.15z M433.27,859.76c-2.78,2.32-3.14,6.47-0.82,9.24
						c2.32,2.78,6.47,3.14,9.24,0.82c2.78-2.32,3.14-6.47,0.82-9.24C440.19,857.81,436.05,857.44,433.27,859.76z"/>
				</g>
			</g>
			<g>
				<g>
					<path class="st12" d="M484.35,840.29c2.86,3.42,2.41,8.51-1.01,11.38c-3.42,2.86-8.52,2.41-11.38-1.01
						c-2.86-3.42-2.41-8.52,1.01-11.38C476.39,836.41,481.49,836.86,484.35,840.29z"/>
				</g>
			</g>
			<g>
				<g>
					<path class="st11" d="M484.31,852.82c-4.06,3.39-10.12,2.86-13.51-1.2c-3.39-4.06-2.86-10.12,1.2-13.51
						c4.06-3.39,10.12-2.86,13.51,1.2C488.91,843.37,488.37,849.43,484.31,852.82z M473.95,840.44c-2.78,2.32-3.14,6.47-0.82,9.24
						c2.32,2.77,6.47,3.14,9.25,0.82c2.77-2.32,3.14-6.47,0.82-9.24C480.87,838.48,476.72,838.11,473.95,840.44z"/>
				</g>
			</g>
			<g>
				<g>
					<path class="st12" d="M371.52,951.5c2.86,3.42,2.41,8.51-1.01,11.38c-3.42,2.86-8.52,2.41-11.38-1.01
						c-2.86-3.42-2.41-8.51,1.01-11.38C363.56,947.63,368.66,948.08,371.52,951.5z"/>
				</g>
			</g>
			<g>
				<g>
					<path class="st11" d="M371.48,964.04c-4.06,3.39-10.12,2.86-13.51-1.2c-3.39-4.06-2.86-10.12,1.2-13.51
						c4.06-3.39,10.12-2.86,13.51,1.2C376.08,954.59,375.54,960.65,371.48,964.04z M361.12,951.65c-2.78,2.32-3.14,6.47-0.82,9.25
						c2.32,2.78,6.47,3.14,9.25,0.82c2.77-2.32,3.14-6.47,0.82-9.24C368.04,949.7,363.89,949.33,361.12,951.65z"/>
				</g>
			</g>
		</g>
		<polygon class="st13" points="1998.95,584.2 2047.57,584.2 2032.69,553.33 1984.06,553.33 		"/>
		<polygon class="st13" points="1976.19,584.2 1987.78,584.2 1972.9,553.33 1961.31,553.33 		"/>
		<polygon class="st13" points="1808.19,547.44 2005.09,547.44 1998.55,532 1801.66,532 		"/>
		<g>
			<g>
				<g>
					<path class="st14" d="M1577.9,1145.06c0,0-4.7-8.23,2.75-30.27c7.21-21.32,32.17-19.39,40.1-5.73
						c7.93,13.66,5.25,22.14-6.42,37.57C1602.65,1162.05,1582.75,1152.11,1577.9,1145.06z"/>
				</g>
			</g>
			<g>
				<g>
					<path class="st14" d="M1635.87,1524.35c0,0,1.23,9.05,1.39,10.41c0.15,1.36,13.74-0.8,13.74-0.8l1.1-10.78
						C1652.1,1523.19,1637.57,1523.08,1635.87,1524.35z"/>
				</g>
			</g>
			<g>
				<g>
					<path class="st15" d="M1637.11,1533.62c0,0-4.3,5.46-8.47,7.83c-4.16,2.38-10.7,3.32-13.17,5.78
						c-1.78,1.78-6.47,9.43,10.82,9.27s25.62,1.08,27.48-1.85c1.85-2.93-2.68-21.65-2.68-21.65S1646.86,1534.2,1637.11,1533.62z"/>
				</g>
			</g>
			<g>
				<g>
					<path class="st14" d="M1541.82,1524.35c0,0,1.23,9.05,1.39,10.41c0.15,1.36,13.74-0.8,13.74-0.8l1.1-10.78
						C1558.04,1523.19,1543.51,1523.08,1541.82,1524.35z"/>
				</g>
			</g>
			<g>
				<g>
					<path class="st15" d="M1543.06,1533.62c0,0-4.3,5.46-8.47,7.83c-4.16,2.38-19.48,4.33-21.94,6.79
						c-1.78,1.78-4.73,8.93,19.59,8.26c17.28-0.48,25.62,1.08,27.48-1.85c1.85-2.93-2.68-21.65-2.68-21.65
						S1551.67,1533.96,1543.06,1533.62z"/>
				</g>
			</g>
			<g>
				<g>
					<path class="st16" d="M1631.3,1298.92c0,0,6.96,21.64,6.05,40.29c-0.92,18.65,3.6,39.06,5.45,58.54
						c2.06,21.72,10.49,73.14,10.79,84.76c0.31,11.62-1.31,48.72-1.31,48.72l-16.87,0.41c0,0-14.17-89.9-17.84-99.07
						c-3.67-9.17-21.87-74.57-22.48-81.91C1594.48,1343.33,1631.3,1298.92,1631.3,1298.92z"/>
				</g>
			</g>
			<g>
				<g>
					<path class="st16" d="M1561.36,1296.66c0,0-10.24,57.23-11.46,68.64c-1.22,11.42-2.04,55.24-2.65,62.38
						c-0.61,7.13-4.08,93.36-7.34,103.96h18.81c0,0,19.31-62.69,19.31-92.34c0-29.66,12.79-64.48,21.04-84.05
						c8.26-19.57,27.15-20.03,32.23-56.34C1631.3,1298.92,1568.23,1285.15,1561.36,1296.66z"/>
				</g>
			</g>
			<g>
				<g>
					<path class="st14" d="M1584.72,1150.88c0,0,2.12,6.17,0,10.58c-2.12,4.41,27.11,1.76,27.11,1.76s-1.32-9.11,2.5-16.6
						C1618.15,1139.14,1584.72,1150.88,1584.72,1150.88z"/>
				</g>
			</g>
			<g>
				<g>
					<path class="st16" d="M1632.65,1303.63c0,0-10.51,10.8-72.24-1.68l0.94-5.29l70.17,2.64L1632.65,1303.63z"/>
				</g>
			</g>
			<g>
				<g>
					<path class="st14" d="M1580.3,1162.89c0,0-10.79,1.1-13.88,1.69c-3.08,0.59-23.85-3.71-28.11-4.15
						c-4.26-0.44-22.42-12.89-23.01-14.35c-0.59-1.47-11.05-27.96-11.64-33.69c-0.59-5.73-10.19-2.77-9.37,1.18
						c1.54,7.38,3.52,25.31,4.6,30.5c1.17,5.61,4.31,18.32,6.07,19.88c1.76,1.56,18.12,14,34.13,19.29
						c16.01,5.29,28.06,13.07,28.06,13.07h78.9c0,0,30.69-43.87,31.35-50.48c0.66-6.61-21.44-50.54-25.84-56.05
						c-4.41-5.51-10.78,1.8-10.78,1.8s13.2,38.74,14.97,44.25c1.76,5.51-15.36,29.71-20.06,29.78c-4.7,0.07-16.77-1.47-22.13-1.69
						c-5.36-0.22-11.02-2.57-11.02-2.57L1580.3,1162.89z"/>
				</g>
			</g>
			<g>
				<g>
					<path class="st17" d="M1546.3,1192.2c0,0,9.66,6.42,10.54,17.44c0.88,11.02,4.41,28.42,6.17,34.37
						c1.76,5.95-1.54,49.13-1.98,52.21c-0.44,3.08,61.06,10.41,70.5,3.08c0,0,2.64-40.32,3.75-51.77
						c1.1-11.46,6.39-39.22,8.15-42.96c1.76-3.75,23.13-33.72,24.01-37.67c0,0-11.06-17.63-18.99-17.85c0,0-12.6,14.76-16.7,15.42
						c-4.11,0.66-29.28-3.95-29.29-3.99c0,0-2.75,3.74-17.36-0.67c0,0-17.4,1.96-20.22,2.32c-3.43,0.44-27.25-2.99-27.25-2.99
						s-9.56,16.14-7.88,24.29L1546.3,1192.2z"/>
				</g>
			</g>
			<g>
				<g>
					<path class="st14" d="M1504.22,1115.83c0,0-2.16-10.21,0.44-13.14c1.48-1.67,5.03-6.09,5.36-6.74c0.33-0.65,4.14-2.84,4.14-3.9
						c0-1.05-3.73-2.35-6.98,0.65c-3.25,3-5.28,3.65-6.57,3.33c-1.3-0.32-3.17-11.12-3.33-13.8c-0.16-2.68-1.2-9.74-2.87-9.25
						c-1.67,0.49-1.59,3.57-1.59,3.57s-1.95-5.36-3.25-4.3c-1.3,1.05-1.14,3.65-1.14,3.65s-2.43-3-3.08-0.81s0,4.14,0,4.14
						s-2.52-1.38-2.68,2.03c-0.16,3.41,0.73,13.39,2.52,16.96c1.79,3.57,8.47,12.91,9.27,16.56
						C1495.25,1118.43,1504.22,1115.83,1504.22,1115.83z"/>
				</g>
			</g>
			<g>
				<g>
					<path class="st14" d="M1642.95,1097.9c0,0-7.34-12.34-9.84-13.44c-2.5-1.1-6.02-1.73-9.11-3.93c-3.08-2.2-7.16-4.04-6.94-4.77
						c0.22-0.74,3.86-0.44,7.75,1.25c3.89,1.69,5.6,0.87,5.97-0.01c0.37-0.88-2.08-7.1-3.25-8.57c-1.18-1.47-9.55-9.89-8.15-11.14
						c1.4-1.25,6.83,3.38,7.71,4.33c0,0-4.33-9.11-2.64-9.55c1.69-0.44,4.85,2.79,4.85,2.79s-0.37-7.78,8,4.85
						c0,0-1.76-4.19,0.81-2.79c2.57,1.39,5.07,9.25,5.88,13.22c0.81,3.96,4.47,16.6,7.6,19.65
						C1654.7,1092.83,1642.95,1097.9,1642.95,1097.9z"/>
				</g>
			</g>
			<g>
				<g>
					<path class="st18" d="M1614.33,1146.63c0,0-3.87,0.34-12.09-2.5c-8.23-2.84-8.84-17.22-10.62-15.52
						c-3.63,3.48-7.06,1.08-8.43-0.98c0,0,4.02-5.29,2.15-7.83c-1.86-2.54-4.89-4.4-4.89-4.4s5.79-27.88,32.11-15.18
						C1643.41,1115.1,1614.33,1146.63,1614.33,1146.63z"/>
				</g>
			</g>
			<g>
				<g>
					<path class="st17" d="M1584.72,1161.46l0.93-4.03c0,0,16.8-0.34,25.97,0.99l0.96,4.82
						C1612.59,1163.24,1600.85,1168.56,1584.72,1161.46z"/>
				</g>
			</g>
			<g>
				<g>
					<path class="st14" d="M1588.87,1125.08c1.53-2.54,7.17-4.25,7.83,2.94c0.51,5.57-10.09,11.65-10.18,6.46
						C1586.42,1129.29,1587.85,1126.77,1588.87,1125.08z"/>
				</g>
			</g>
			<g>
				<g>
					<path class="st19" d="M1503.84,1113.48c0,0-6.09,0.14-9.03,2.8c0,0-0.19,1.72,0.5,3.05c0,0,5.26-2.45,9.29-2.91
						C1504.59,1116.42,1504.55,1114.19,1503.84,1113.48z"/>
				</g>
			</g>
			<g>
				<g>
					<path class="st18" d="M1496.67,1115.02c-0.56,1.33,0.06,2.86,1.39,3.42c1.33,0.56,2.86-0.06,3.42-1.39
						c0.56-1.33-0.06-2.86-1.39-3.42C1498.76,1113.08,1497.23,1113.7,1496.67,1115.02z"/>
				</g>
			</g>
		</g>
		<g>
			<g>
				<g>
					<path class="st20" d="M440.18,572.46c0,0-7.97-14.63-12.5-19.89c-4.53-5.26-19.59-9.21-17.54-15.94s22.22-3.8,27.78,2.78
						c5.56,6.58,22.52,8.92,23.1,11.7c0.58,2.78-5.89,17.98-9.52,20.47C447.85,574.06,440.18,572.46,440.18,572.46z"/>
					<path class="st21" d="M406.31,584.84c0,0-12.98-10.29-19.23-13.32c-6.25-3.03-21.64-0.67-22.43-7.66
						c-0.79-6.98,18.89-12.31,26.6-8.48c7.71,3.83,24.21-0.76,25.85,1.56c1.64,2.32,1.74,18.84-0.61,22.57
						C414.13,583.23,406.31,584.84,406.31,584.84z"/>
					<path class="st22" d="M435.13,611.64c0,0,5.67-38.75,5.41-45.47c-0.07-1.92,11.66-1.21,11.11,2.49
						c-1.19,8.04,4.22,39.18,3.28,44.89C453.99,619.24,434.65,615.23,435.13,611.64z"/>
					<path class="st22" d="M417.38,622.77c0,0-10.62-37.62-13.09-43.88c-1.1-2.79,9.72-7.1,11.18-2.13
						c2.3,7.79,19.43,34.29,20.84,39.89C437.71,622.26,418.36,626.26,417.38,622.77z"/>
					<path class="st23" d="M424.75,648.92c0,0-11.4-38.45-13.16-42.55l17.98-11.11c0,0,8.33,24.56,9.5,30.7
						C440.25,632.1,424.75,648.92,424.75,648.92z"/>
					<path class="st24" d="M743.08,547.32c0,0-17.37,4.39-25.63,17.52c-8.26,13.13-15.4,28.26-30.93,35.12
						c-15.53,6.86-15.63,24.54-14.42,27.27c1.21,2.73,48.9,56.34,59.31,58.41c10.41,2.07,29.89,0.63,27.81-13.15
						s-22.5-43.41-11.04-58.36c11.46-14.95,14.35-28.72,14.35-28.72L743.08,547.32z"/>
					<path class="st22" d="M740.05,611.44c0,0-0.51-0.17-1.36-0.25c-0.98-0.09-2.43-0.06-4.06,0.49c-0.41,0.14-0.95,0.41-1.59,0.79
						c-4.13,2.43-13.89,9.03-15.21,9.19c-1.52,0.18-0.24-22.6-0.24-22.6s5.2-9.2,5.85-15.25
						C724.1,577.76,740.05,611.44,740.05,611.44z"/>
					<path class="st23" d="M617.89,635.25c0,0-19.08-13.38-41.45-9.21c-22.37,4.17-24.78,14.62-32.46,15.1
						c-7.68,0.47-33.34-1.72-54.39,4.42c-21.05,6.14-38.82,6.8-41.23,5.04c-2.41-1.75,13.16-36.84,13.16-41.67l-26.1-6.8
						c0,0-7.46,31.14-10.38,38.16c-3.13,7.51-9.14,21.64-0.59,33.92c8.55,12.28,32.46,6.75,46.93,9.22
						c14.47,2.47,79.26,0.89,90.58,0.28c12.28-0.66,49.34-2.41,49.34-2.41L617.89,635.25z"/>
					<path class="st22" d="M774.6,565.91c0,0,1.22,18.85-2.97,24.5c-1.67,2.26-2.81,3.49-3.57,4.16c-1.07,0.93-1.91,2.11-2.38,3.45
						c-1.29,3.63-2.09,8.73-3.12,9.82c-1.12,1.19-4.38-1.83-5.56-1.84c-1.18-0.01-12.66,9.9-15.41,7.87
						c-2.75-2.03-19.5-19.02-18.09-30.68c1.41-11.65,6.55-29.05,25.41-28.95C767.77,554.35,773.16,561.22,774.6,565.91z"/>
					<path class="st25" d="M717.61,655.86c-0.36,0.77-7.3,11.85-14.89,18.27c-3.15,2.67-6.42,4.54-9.38,4.54
						c-0.9,0-1.78,0.01-2.64,0.04c-8.72,0.23-15.42,1.57-27.19,2.16c-12.23,0.61-41.89-1.1-42.77-1.1s-9.43,1.54-9.43,1.54
						c-3.07-3.73,5.04-45.84,6.58-46.06c1.54-0.22,11.4,3.51,20.83,1.97c9.43-1.54,13.16-2.41,27.2-18.86
						c14.04-16.45,28.07-20.62,33.99-19.3c5.92,1.32,17.69,0,17.69,0S718.12,654.77,717.61,655.86z"/>
					<path class="st24" d="M766.68,579.41c0,0,3.51,9.11,5.38,10.36c0,0,6.78-7.17,2.43-24.88c-4.36-17.7-20.79-19.37-31.4-17.57
						c-13.21,2.24-26.5,46.92-25.81,51.27c0.69,4.35,15.48-23.09,28.44-20.88C758.68,579.92,758.78,580.64,766.68,579.41z"/>
					<path class="st26" d="M738.7,611.19c-0.98-0.09-2.43-0.06-4.06,0.49c-0.41,0.14-0.95,0.41-1.59,0.79
						c-3.03-4.73-5.84-15.94-5.94-16.32C729.14,600.47,738.7,611.19,738.7,611.19z"/>
					<path class="st27" d="M702.71,674.14c-3.15,2.67-6.42,4.54-9.38,4.54c-0.9,0-1.78,0.01-2.64,0.04l4.3-34.91L702.71,674.14z"/>
					<path class="st22" d="M770.95,734.25l-8.42,7.66c-7.26-3.89-25.46-16.99-28.96-19.97c-3.67-3.13-28.16-23.61-31.52-28.28
						c-3.39-4.67-7.69-52.91-7.25-55.12c0.44-2.18,21.29-3.3,23.66,1.8c0,0,1.09,27.52,1.65,32.12c0.53,4.61,2.29,8.77,5.45,12.64
						c4.37,5.36,13.68,17.82,22.7,27.88C750.4,715.38,768.17,731.85,770.95,734.25z"/>
					<path class="st25" d="M720.17,640.95c0,0,1.32-36.64-10.6-36.19c-15.07,0.57-17.33,19.01-15.28,39.04
						C694.29,643.8,716.8,644.02,720.17,640.95z"/>
					<path class="st22" d="M766.9,730.66c0,0,1.12,1.76,2.75,2.31c2.8,0.95,6.95-0.88,9,2.8c2.05,3.67-7.83,12.85-10.48,13.41
						c-2.65,0.56-6.91-3.57-10.23-11.72C754.61,729.31,766.9,730.66,766.9,730.66z"/>
					<path class="st22" d="M777.77,734.62c0,0,5.04,3.83,10.13,8.76c4.47,4.32,9.02,9.99,7.87,11.06c-1.57,1.46-4.62-3.41-9.33-7.41
						c-4.34-3.68-4.1-2.26-4.1-2.26s-0.05-0.41,3.91,4.49c4.26,5.26,8.66,11.51,7.35,12.41c-0.82,0.57-0.86,0.72-2.72-0.96
						c0.86,1.18,0.66,1.57,0.2,1.95c-2.38,1.99-9.84-4.82-12.8-7.53c2.26,2.09,3.7,3.86,1.4,4.13c-2.63,0.31-12.75-9.78-16.72-13.06
						C758.64,742.64,777.77,734.62,777.77,734.62z"/>
				</g>
				<path class="st28" d="M626.47,636.93c0,0-4.02,28.83-2.04,43.02c0,0,2.1,1.56,6.27,0.3c0,0,1.04-31.48,3.38-42.65
					C634.08,637.59,632.79,636.62,626.47,636.93z"/>
			</g>
			<g>
				<rect x="627.42" y="117.9" class="st28" width="3.11" height="540.83"/>
			</g>
		</g>
		<g>
			<linearGradient id="SVGID_6_" gradientUnits="userSpaceOnUse" x1="1786.8185" y1="1549.1906" x2="1944.5128" y2="1549.1906">
				<stop  offset="0" style="stop-color:#40D5E6"/>
				<stop  offset="1" style="stop-color:#5577FF"/>
			</linearGradient>
			<path class="st29" d="M1800.6,1340.81c13.6-6.5,27.13,36.78,27.13,36.78c23.11,30.54,55.41-10.09,52.25,35.56
				c-5.53,79.88,91.95,25.12,46.98,108.52c-44.97,83.4,39.71,47.16,11.76,114.41c-27.95,67.25,8.28,147.46-33.77,114.5
				c0,0-37.02-81.19-75.21-106.31c-38.18-25.12,22.88-54.93,10.93-89.05c-17.35-49.56-59.16-47.61-29.02-100.87
				C1841.8,1401.1,1754.37,1362.92,1800.6,1340.81z"/>
			<g>
				<path class="st12" d="M1918.26,1720.03c-18.23-12.82-39.56-102.15-40.83-155.35c-0.65-27.25-8.71-38.61-15.82-48.63
					c-6.79-9.58-12.66-17.85-9.24-36.84c6.53-36.29-10.64-51.96-10.82-52.11l1.99-2.27c0.76,0.67,18.65,16.83,11.79,54.91
					c-3.19,17.74,2.07,25.16,8.74,34.56c6.99,9.86,15.7,22.12,16.37,50.3c1.37,57.1,23.17,141.44,39.55,152.96L1918.26,1720.03z"/>
			</g>
			<g>
				<linearGradient id="SVGID_7_" gradientUnits="userSpaceOnUse" x1="1902.4996" y1="1637.1853" x2="2045.1052" y2="1637.1853">
					<stop  offset="0" style="stop-color:#40D5E6"/>
					<stop  offset="1" style="stop-color:#5577FF"/>
				</linearGradient>
				<path class="st30" d="M1925.08,1726.65c-2.35,0-4.91-0.27-7.71-0.84c-7.02-1.42-11.63-5.13-13.69-11.02
					c-4.91-14.05,6.47-36.88,15.71-47.88c0.15-0.18,15.62-19.08,13.97-45.28c-0.28-4.39-0.73-8.46-1.13-12.04
					c-1.16-10.37-2-17.86,2.45-22.86c3.92-4.41,11.5-6.32,25.33-6.38c24.26-0.11,33.85-10.16,41.56-18.23
					c3.27-3.43,6.36-6.66,10.12-8.72l0,0c12.09-6.6,24.89-7.57,30.45-2.3c2.64,2.5,4.86,7.4,0.5,16.53
					c-3.99,8.35-9.17,13.63-13.33,17.88c-5.6,5.71-9.3,9.49-7.37,17.01c0.45,1.77,0.97,3.55,1.5,5.34
					c3.74,12.79,7.98,27.29-13.91,37.13c-4.65,2.09-8.88,3.75-12.61,5.21c-15.28,6-24.5,9.62-34.92,31.6
					c-2.02,4.26-3.79,8.29-5.52,12.19C1948.26,1712.58,1942.05,1726.65,1925.08,1726.65z M2013.13,1556.05
					c-3.34,1.83-6.14,4.76-9.39,8.15c-8.1,8.48-18.18,19.04-43.72,19.16c-12.72,0.06-19.84,1.72-23.09,5.37
					c-3.56,4-2.78,10.93-1.71,20.52c0.41,3.62,0.87,7.72,1.15,12.19c1.73,27.44-14,46.61-14.67,47.41
					c-9.15,10.89-19.51,32.57-15.18,44.95c1.68,4.81,5.53,7.86,11.44,9.06c20.62,4.17,26.31-8.73,35.74-30.1
					c1.73-3.92,3.52-7.97,5.55-12.26c10.92-23.06,21.11-27.06,36.54-33.11c3.7-1.45,7.9-3.1,12.48-5.16
					c19.5-8.76,15.98-20.79,12.25-33.53c-0.53-1.82-1.06-3.64-1.52-5.44c-2.35-9.17,2.28-13.89,8.14-19.87
					c4.21-4.3,8.99-9.17,12.77-17.07c1.98-4.14,3.61-9.76,0.15-13.04C2035.51,1548.97,2023.93,1550.16,2013.13,1556.05
					L2013.13,1556.05z"/>
			</g>
			<g>
				<linearGradient id="SVGID_8_" gradientUnits="userSpaceOnUse" x1="1914.6897" y1="1657.9222" x2="2021.7249" y2="1657.9222">
					<stop  offset="0" style="stop-color:#40D5E6"/>
					<stop  offset="1" style="stop-color:#5577FF"/>
				</linearGradient>
				<path class="st31" d="M1917.7,1744.05l-3.01-0.16c0.15-2.83,3.95-69.49,30.71-89c29.37-21.41,38.63-44.41,43.03-59.85
					c5.2-18.2,31.64-23.06,32.77-23.25l0.52,2.97c-0.26,0.05-25.71,4.74-30.39,21.11c-4.53,15.87-14.04,39.5-44.16,61.46
					C1921.56,1676,1917.74,1743.38,1917.7,1744.05z"/>
			</g>
			<linearGradient id="SVGID_9_" gradientUnits="userSpaceOnUse" x1="1876.038" y1="1571.7906" x2="2000.6901" y2="1571.7906">
				<stop  offset="0" style="stop-color:#40D5E6"/>
				<stop  offset="1" style="stop-color:#5577FF"/>
			</linearGradient>
			<path class="st32" d="M1978.9,1408.09c-19.03-6.52-15.07,30.14-23.11,57.28c-8.04,27.13-89.43,11.83-55.27,79.77
				c34.16,67.94-43.21,22.72-20.1,82.01c23.11,59.29,2.01,122.69,27.13,106.56c25.12-16.13,14.11-90.78,40.24-99.66
				c26.13-8.87,30.39-19.22,4.52-43.33c-25.87-24.12,67.78-48.06,44.67-96.75S2000.88,1415.63,1978.9,1408.09z"/>
			<g>
				<path class="st12" d="M1919.21,1730.87c-2.39-10.15-22.83-99.46-3.76-110.26c16.8-9.52,16.39-46.53,13.77-81.47
					c-2.32-30.94,37.41-45.4,39.1-46l1.01,2.84c-0.39,0.14-39.25,14.29-37.11,42.93c2.69,35.89,2.98,73.98-15.29,84.32
					c-14.48,8.2-1.15,79.98,5.21,106.95L1919.21,1730.87z"/>
			</g>
			<linearGradient id="SVGID_10_" gradientUnits="userSpaceOnUse" x1="1847.4329" y1="1750.5869" x2="1962.4592" y2="1750.5869">
				<stop  offset="0" style="stop-color:#FF9340"/>
				<stop  offset="1" style="stop-color:#FFCE45"/>
			</linearGradient>
			<polygon class="st33" points="1962.46,1699.06 1935.3,1802.11 1874.6,1802.11 1847.43,1699.06 			"/>
			<linearGradient id="SVGID_11_" gradientUnits="userSpaceOnUse" x1="1847.4329" y1="1750.5869" x2="1962.4592" y2="1750.5869">
				<stop  offset="0" style="stop-color:#C97332"/>
				<stop  offset="1" style="stop-color:#FFCE45"/>
			</linearGradient>
			<path class="st34" d="M1962.46,1699.06c0,0-59.8,11.23-59.8,103.05h-28.07l-27.16-103.05H1962.46z"/>
		</g>
		<g>
			<g>
				<path class="st35" d="M1804.01,625.66c-11.82-8.74-19.32-13.71-19.4-13.76l4.41-6.67c0.31,0.2,7.73,5.12,19.74,14
					L1804.01,625.66z"/>
			</g>
			<g>
				<path class="st35" d="M535.84,1153.48l-4.97-6.27c12.5-9.93,25.2-19.67,37.74-28.97l4.76,6.43
					C560.9,1133.92,548.27,1143.61,535.84,1153.48z M611.85,1097.18l-4.53-6.59c13.15-9.05,26.51-17.87,39.71-26.23l4.28,6.76
					C638.19,1079.42,624.92,1088.19,611.85,1097.18z M691.74,1046.62l-4-6.93c13.8-7.98,27.84-15.71,41.71-22.95l3.7,7.09
					C719.38,1031.02,705.45,1038.69,691.74,1046.62z M1795.41,1017.09l-0.41-7.99c16.37-0.85,31.92-2.99,46.23-6.36l1.84,7.79
					C1828.29,1014.02,1812.26,1016.22,1795.41,1017.09z M1747.51,1016.39c-14.82-1.08-30.34-2.88-47.44-5.52l1.22-7.91
					c16.88,2.61,32.19,4.39,46.8,5.45L1747.51,1016.39z M775.53,1002.91l-3.38-7.25c14.45-6.73,29.14-13.14,43.65-19.07l3.02,7.41
					C804.43,989.87,789.87,996.24,775.53,1002.91z M1653.19,1002.34c-13.92-2.86-29.11-6.22-46.45-10.28l1.82-7.79
					c17.26,4.04,32.38,7.39,46.23,10.23L1653.19,1002.34z M1888.5,994.31l-3.55-7.17c6.93-3.44,13.75-7.34,20.25-11.62
					c6.7-4.4,13.02-8.99,18.8-13.63l5.01,6.24c-5.97,4.8-12.5,9.54-19.41,14.08C1902.82,986.66,1895.73,990.73,1888.5,994.31z
					 M1560.56,980.91l-19-4.69c-8.93-2.21-17.95-4.44-27.08-6.68l1.91-7.77c9.13,2.24,18.16,4.47,27.09,6.68l18.99,4.69
					L1560.56,980.91z M862.99,967.23l-2.65-7.55c14.99-5.26,30.25-10.18,45.35-14.61l2.25,7.68
					C892.98,957.14,877.85,962.02,862.99,967.23z M1468.38,958.46c-16.55-3.87-31.67-7.27-46.23-10.39l1.68-7.82
					c14.61,3.13,29.78,6.54,46.38,10.42L1468.38,958.46z M953.59,940.65l-1.84-7.79c15.4-3.65,31.1-6.92,46.65-9.72l1.42,7.87
					C984.41,933.79,968.85,937.04,953.59,940.65z M1375.73,938.72c-15.9-2.98-31.59-5.68-46.65-8.01l1.22-7.91
					c15.13,2.34,30.91,5.05,46.9,8.05L1375.73,938.72z M1962.56,933.27l-6.52-4.63c9.26-13.03,15.62-26.98,18.89-41.45l7.8,1.76
					C1979.22,904.46,1972.44,919.37,1962.56,933.27z M1282.21,924.33c-15.85-1.85-31.69-3.38-47.06-4.53l0.6-7.98
					c15.49,1.16,31.43,2.69,47.4,4.56L1282.21,924.33z M1046.51,923.89l-0.99-7.94c15.63-1.96,31.59-3.52,47.43-4.66l0.57,7.98
					C1077.81,920.4,1062,921.95,1046.51,923.89z M1187.95,917.34c-15.81-0.46-31.49-0.54-47.25-0.22l-0.16-8
					c15.89-0.32,31.7-0.24,47.64,0.22L1187.95,917.34z M1975.8,841.61c-2.38-14.07-7.17-28.87-14.23-43.99l7.25-3.39
					c7.36,15.76,12.37,31.25,14.87,46.04L1975.8,841.61z M1938.01,757.27c-8.38-12.06-18.18-24.47-29.13-36.9l6-5.29
					c11.15,12.65,21.14,25.31,29.69,37.62L1938.01,757.27z M1876.22,686.4c-10.98-10.55-22.81-21.15-35.16-31.52l5.14-6.13
					c12.48,10.48,24.44,21.2,35.55,31.87L1876.22,686.4z"/>
			</g>
			<g>
				<path class="st35" d="M480.79,1199.33l-5.26-6.03c6.1-5.32,12.18-10.54,18.25-15.68l5.17,6.11
					C492.91,1188.84,486.85,1194.03,480.79,1199.33z"/>
			</g>
		</g>
		<g>
			<g>
				<g>
					<g>
						<polygon class="st36" points="339.87,1280.15 433.43,1227.82 401.28,1225.7 						"/>
					</g>
				</g>
			</g>
			<g>
				<g>
					<g>
						<polygon class="st37" points="339.87,1280.15 368.67,1233.84 392.82,1233.2 						"/>
					</g>
				</g>
			</g>
			<g>
				<g>
					<g>
						<polygon class="st38" points="411.92,1239.85 413.79,1251.65 339.87,1280.15 						"/>
					</g>
				</g>
			</g>
		</g>
		<g>
			<path class="st39" d="M1124.76,1561.09H899.15c-10.39,0-18.81-8.42-18.81-18.81v-268.11c0-10.39,8.42-18.81,18.81-18.81h225.62
				c10.39,0,18.81,8.42,18.81,18.81v268.11C1143.57,1552.67,1135.15,1561.09,1124.76,1561.09z"/>
			<g>
				<g>
					<path class="st40" d="M1040.14,1382.17c-10.07-28.16-36.99-45.46-65.35-44.6c-6.87,0.21-13.82,1.48-20.64,3.92
						c-20.66,7.39-35.48,23.85-41.56,43.29c-4.22,13.47-4.25,28.38,0.88,42.7c0.51,1.42,1.06,2.83,1.66,4.19
						c2.69,6.2,6.23,11.81,10.43,16.75c17.6,20.69,46.81,29.44,73.91,19.75C1034.44,1455.65,1052.65,1417.15,1040.14,1382.17z
						 M993.78,1452.31c-20.32,7.27-42.21,0.71-55.41-14.8c-3.15-3.7-5.8-7.91-7.82-12.56c-0.45-1.03-0.86-2.08-1.24-3.14
						c-3.84-10.74-3.82-21.91-0.66-32.01c4.56-14.58,15.67-26.92,31.16-32.46c5.11-1.83,10.33-2.78,15.48-2.94
						c21.26-0.64,41.45,12.33,49,33.44C1033.67,1414.07,1020.01,1442.93,993.78,1452.31z"/>
				</g>
			</g>
			<g>
				<g>
					<path class="st41" d="M928.65,1389.79l-16.07-5.02c6.09-19.44,20.9-35.9,41.56-43.29c6.82-2.44,13.77-3.71,20.64-3.92
						l0.5,16.83c-5.15,0.16-10.36,1.11-15.48,2.94C944.32,1362.87,933.22,1375.21,928.65,1389.79z"/>
				</g>
			</g>
			<g>
				<g>
					<path class="st42" d="M930.55,1424.95l-15.44,6.72c-0.59-1.37-1.15-2.77-1.66-4.19c-5.12-14.32-5.1-29.23-0.88-42.7l16.07,5.02
						c-3.16,10.1-3.18,21.28,0.66,32.01C929.69,1422.87,930.11,1423.92,930.55,1424.95z"/>
				</g>
			</g>
			<g>
				<g>
					<path class="st43" d="M925.54,1448.42c-4.2-4.93-7.73-10.54-10.43-16.75l15.44-6.72c2.02,4.65,4.67,8.86,7.82,12.56
						L925.54,1448.42z"/>
				</g>
			</g>
			<g>
				<g>
					<path class="st40" d="M1098.47,1423.26c-11.18-5.29-24.11-2.48-32.16,6.07c-1.95,2.07-3.61,4.47-4.89,7.18
						c-3.88,8.21-3.4,17.35,0.5,24.82c2.71,5.18,7.06,9.54,12.75,12.23c0.57,0.27,1.14,0.52,1.71,0.74c2.6,1.03,5.28,1.63,7.95,1.85
						c11.2,0.9,22.3-5.08,27.4-15.84C1118.29,1446.42,1112.36,1429.83,1098.47,1423.26z M1105.42,1457.34
						c-3.82,8.07-12.14,12.55-20.54,11.88c-2-0.16-4.01-0.62-5.96-1.39c-0.43-0.17-0.86-0.36-1.28-0.56
						c-4.26-2.02-7.53-5.29-9.56-9.17c-2.93-5.6-3.29-12.46-0.38-18.61c0.96-2.03,2.21-3.83,3.67-5.38
						c6.03-6.41,15.73-8.52,24.11-4.55C1105.9,1434.48,1110.35,1446.92,1105.42,1457.34z"/>
				</g>
			</g>
			<g>
				<g>
					<path class="st41" d="M1068.09,1458.1l-6.17,3.23c-3.91-7.47-4.39-16.62-0.5-24.82c1.28-2.71,2.94-5.11,4.89-7.18l5.07,4.78
						c-1.46,1.55-2.71,3.35-3.67,5.38C1064.8,1445.64,1065.16,1452.5,1068.09,1458.1z"/>
				</g>
			</g>
			<g>
				<g>
					<path class="st42" d="M1078.92,1467.83l-2.55,6.48c-0.57-0.23-1.15-0.47-1.71-0.74c-5.69-2.69-10.04-7.06-12.75-12.23
						l6.17-3.23c2.03,3.88,5.29,7.16,9.56,9.17C1078.07,1467.47,1078.49,1467.66,1078.92,1467.83z"/>
				</g>
			</g>
			<g>
				<g>
					<path class="st40" d="M1111.72,1375.58c5.29-11.18,2.48-24.11-6.07-32.16c-2.07-1.95-4.47-3.61-7.18-4.89
						c-8.21-3.88-17.35-3.4-24.82,0.5c-5.17,2.71-9.54,7.06-12.23,12.75c-0.27,0.57-0.52,1.14-0.74,1.71
						c-1.03,2.6-1.63,5.28-1.85,7.95c-0.9,11.2,5.08,22.3,15.84,27.4C1088.55,1395.4,1105.14,1389.47,1111.72,1375.58z
						 M1077.64,1382.54c-8.07-3.82-12.55-12.14-11.88-20.54c0.16-2,0.62-4.01,1.39-5.96c0.17-0.43,0.36-0.86,0.56-1.28
						c2.02-4.26,5.29-7.53,9.17-9.56c5.6-2.93,12.46-3.29,18.61-0.38c2.03,0.96,3.83,2.21,5.39,3.67
						c6.41,6.03,8.52,15.73,4.55,24.11C1100.5,1383.02,1088.06,1387.46,1077.64,1382.54z"/>
				</g>
			</g>
			<g>
				<g>
					<path class="st40" d="M1076.88,1345.2l-3.23-6.17c7.47-3.91,16.62-4.39,24.82-0.5c2.71,1.28,5.11,2.94,7.18,4.89l-4.78,5.07
						c-1.55-1.46-3.36-2.71-5.39-3.67C1089.34,1341.91,1082.48,1342.27,1076.88,1345.2z"/>
				</g>
			</g>
			<g>
				<g>
					<path class="st42" d="M1067.15,1356.04l-6.48-2.55c0.23-0.57,0.47-1.15,0.74-1.71c2.69-5.69,7.06-10.04,12.23-12.75l3.23,6.17
						c-3.88,2.03-7.16,5.29-9.17,9.56C1067.51,1355.18,1067.32,1355.61,1067.15,1356.04z"/>
				</g>
			</g>
			<g>
				<g>
					<path class="st43" d="M1058.82,1361.44c0.21-2.67,0.82-5.35,1.85-7.95l6.48,2.55c-0.77,1.95-1.22,3.96-1.39,5.96
						L1058.82,1361.44z"/>
				</g>
			</g>
			<polygon class="st44" points="1078.01,1494.5 1026.05,1494.5 1026.05,1493.46 1076.98,1493.46 1076.98,1473.83 1078.01,1473.83 
							"/>
			<polygon class="st44" points="980.16,1494.5 912.58,1494.5 912.58,1493.46 979.13,1493.46 979.13,1461.33 980.16,1461.33 			"/>
			<rect x="912.58" y="1482.72" class="st40" width="46.5" height="6.2"/>
			<rect x="1026.05" y="1482.72" class="st40" width="27.35" height="6.2"/>
			<rect x="902.05" y="1281.6" class="st40" width="22.26" height="4.76"/>
			<rect x="994.83" y="1299.51" class="st40" width="34.53" height="4.76"/>
			<rect x="950.18" y="1299.51" class="st40" width="21.08" height="4.76"/>
			<rect x="902.05" y="1299.51" class="st40" width="41.76" height="4.76"/>
			<rect x="931.08" y="1281.6" class="st40" width="32.98" height="4.76"/>
			<rect x="977.86" y="1299.51" class="st40" width="9.06" height="4.76"/>
			<rect x="1004.72" y="1281.87" class="st40" width="24.63" height="4.76"/>
			<rect x="1038.14" y="1299.51" class="st40" width="21.01" height="4.76"/>
			<rect x="972.16" y="1281.87" class="st40" width="26.11" height="4.76"/>
			<path class="st12" d="M1032.66,1589.8h-41.41c-6.93,0-12.55-5.62-12.55-12.55v-41.41c0-6.93,5.62-12.55,12.55-12.55h41.41
				c6.93,0,12.55,5.62,12.55,12.55v41.41C1045.21,1584.18,1039.59,1589.8,1032.66,1589.8z"/>
			<rect x="1008.81" y="1543.31" class="st45" width="6.29" height="26.46"/>
			
				<rect x="1008.81" y="1543.31" transform="matrix(-1.836970e-16 1 -1 -1.836970e-16 2568.4983 544.5896)" class="st45" width="6.29" height="26.46"/>
			<g>
				<polygon class="st46" points="1199.55,1448.33 1156.78,1471.84 1113.83,1404.25 1165.78,1386.2 				"/>
			</g>
			<g>
				<polygon class="st47" points="1196.84,1446.3 1156.84,1468.29 1116.67,1405.08 1165.26,1388.2 				"/>
			</g>
			<g>
				<path class="st14" d="M1211.49,1434.48c0,0-7.45-3.56-10.71-5.42c-3.27-1.86-11.67-4.42-12.35-5.02
					c-0.68-0.61-24.92-2.1-26.39-3.37c-1.47-1.27-2.9,2.97,3.38,4.35c6.28,1.38,15.03,4.74,15.5,7.2c0.48,2.46-6.45,3.04-7.15,5.06
					c-0.7,2.02,0.2,1.57,1.19,2c0.99,0.43,8.24-3.58,11.43-2.44c3.19,1.14,8.06-0.44,10.51,0.4c2.44,0.84,14.33,4.83,14.33,4.83
					L1211.49,1434.48z"/>
			</g>
			<g>
				<path class="st14" d="M1154.7,1463.36c0,0-6.25-5.63-9.28-7.98c-3.03-2.35-8.71-9.28-9.54-9.69
					c-0.84-0.4-11.68-22.66-13.45-23.55c-1.77-0.89,1.67-3.89,5.42,1.5c3.74,5.38,10.32,12.31,12.82,11.81
					c2.5-0.5,0.35-7.26,1.98-8.71c1.63-1.45,1.56-0.42,2.35,0.34c0.79,0.77-0.17,9.16,2.15,11.72c2.32,2.56,2.73,7.77,4.47,9.74
					c1.74,1.98,10.13,11.62,10.13,11.62L1154.7,1463.36z"/>
			</g>
			<g>
				<path class="st48" d="M1289.39,1764.23c0,0,1.35,9.39,1.52,10.8c0.17,1.41,15.05-0.83,15.05-0.83l1.21-11.18
					C1307.17,1763.02,1291.25,1762.91,1289.39,1764.23z"/>
			</g>
			<g>
				<path class="st46" d="M1290.76,1773.84c0,0-4.71,5.66-9.28,8.13c-4.56,2.47-11.73,3.44-14.42,6c-1.95,1.84-7.09,9.78,11.85,9.62
					c18.94-0.16,28.07,1.12,30.1-1.92s-2.94-22.45-2.94-22.45S1301.59,1774.82,1290.76,1773.84z"/>
			</g>
			<g>
				<path class="st48" d="M1182.77,1764.23c0,0,1.35,9.39,1.52,10.8c0.17,1.41,15.05-0.83,15.05-0.83l1.21-11.18
					C1200.54,1763.02,1184.63,1762.91,1182.77,1764.23z"/>
			</g>
			<g>
				<path class="st46" d="M1184.13,1773.84c0,0-4.71,5.66-9.27,8.13c-4.56,2.47-21.34,4.49-24.04,7.05
					c-1.95,1.84-5.18,9.26,21.47,8.57c18.93-0.49,28.07,1.12,30.1-1.92s-2.94-22.45-2.94-22.45S1195.22,1774.93,1184.13,1773.84z"/>
			</g>
			<g>
				<path class="st46" d="M1277.07,1522.94c0,0,13.98,22.21,12.94,42.3s5.07,42.01,7.17,62.98c2.34,23.39,11.92,78.75,12.27,91.26
					c0.35,12.51-1.49,52.46-1.49,52.46l-19.18,0.44c0,0-16.11-96.79-20.28-106.67c-4.17-9.88-24.87-80.28-25.56-88.18
					C1242.24,1569.62,1277.07,1522.94,1277.07,1522.94z"/>
			</g>
			<g>
				<path class="st46" d="M1203.46,1525.95c0,0-10.54,55.04-11.93,67.33c-1.39,12.29-2.32,59.48-3.01,67.16
					c-0.7,7.68-4.64,100.52-8.35,111.93h24.52c0,0,18.83-67.49,18.83-99.42c0-31.93,14.54-69.42,23.93-90.49
					c9.39-21.07,30.88-21.57,36.65-60.66C1284.11,1521.8,1211.28,1513.55,1203.46,1525.95z"/>
			</g>
			<g>
				<path class="st14" d="M1253.74,1336.16c0,0-18.77-7.01-27.42,7.28c-8.65,14.29-7.82,42.89,1.64,46.41
					c9.46,3.52,23.67,1.68,28.51-7.26c4.84-8.94,9.22-21.86,9.01-30.5S1258.66,1338.65,1253.74,1336.16z"/>
			</g>
			<g>
				<path class="st14" d="M1229.99,1390.5c0,0,0.78,5.07-0.51,7.56s24.31,2.56,24.31,2.56s2.08-13.58,6.02-25.05
					C1263.76,1364.1,1229.99,1390.5,1229.99,1390.5z"/>
			</g>
			<g>
				<path class="st49" d="M1259.82,1375.57c0,0-1.77,2.91-8.98,1.78c-7.21-1.13-16.01-10.73-19.03-11.78
					c-3.01-1.05-3.04-2.82-3.04-2.82l-1.89,2.75l-3.2,0.2c0,0,2.92-8.59-1.48-12.09c-4.4-3.5,4.57-27.79,27.7-19.7
					c0,0,17.77,4.9,17.12,15C1266.38,1359.03,1263.79,1370.54,1259.82,1375.57z"/>
			</g>
			<g>
				<path class="st47" d="M1227.96,1397.76c0,0,0.08-4.77,2.24-5.23c2.16-0.46,23.86-2.54,26.52-1.5v5.56
					C1256.72,1396.59,1251.61,1399.73,1227.96,1397.76z"/>
			</g>
			<g>
				<path class="st14" d="M1229.25,1359.08c0.41-1.7,4.71-6.54,6.37-1.35c1.65,5.19-2.49,12.16-4.81,11.57
					C1228.49,1368.69,1228.22,1363.37,1229.25,1359.08z"/>
			</g>
			<g>
				<path class="st50" d="M1141.84,1454.11c0.01-0.01,0.02-0.01,0.04,0C1141.73,1454.17,1141.71,1454.18,1141.84,1454.11z"/>
			</g>
			<g>
				<path class="st51" d="M1294.03,1575.49c0,0-12.69,3.76-32.32,5.92c-19.63,2.16-68.67-0.78-68.98-3.1
					c-0.31-2.32,10.55-86.34,9.93-90.67c-0.62-4.33-0.95-19.75-0.95-19.75c-0.24,4.22-4.55,21.48-9.74,30.89
					c-1.88,3.4-8.17,14.05-11.21,11.63c-14.69-11.73-37.44-55.93-38.88-56.31c1.21-0.53,10.78-4.93,12.12-5.38
					c1.18-0.39,11.77,10.83,18.2,17.79c2.86,3.1,4.9,5.35,4.9,5.35c1.85-4.17,8.61-30.46,10.71-39.55
					c4.73-20.52,4.01-21.37,4.01-21.37c14.36-4.34,36.15-13.18,36.15-13.18l28.76-1.17c0,0,26.39,5.81,36.79,10.51
					c0.99,0.44,0.99,23.54,3.7,29.6l-8.62,18.18c0,0-4.98,36.01-6.01,52.03C1282.1,1514.26,1294.03,1575.49,1294.03,1575.49z"/>
			</g>
			<g>
				<path class="st51" d="M1298.4,1466.69c-0.75,2.42-4.16,4.47-6.38,5.37c-1.42,0.57-3.01,0.76-4.6,0.46l-1.13-0.21v0l-19.71-3.66
					c0,0-4.31-49.66,26.92-61.56C1294.33,1407.36,1305.3,1444.45,1298.4,1466.69z"/>
			</g>
			<g>
				<path class="st52" d="M1292.02,1472.05C1292.02,1472.05,1292.02,1472.05,1292.02,1472.05c-1.42,0.58-3.01,0.76-4.6,0.46
					l-1.13-0.21v0l1.94-25.38L1292.02,1472.05z"/>
			</g>
			<g>
				<path class="st52" d="M1177.09,1471.87l-2.41,10.2c0,0-2.61-10.24-2.49-15.55C1175.06,1469.61,1177.09,1471.87,1177.09,1471.87z
					"/>
			</g>
			<g>
				<path class="st49" d="M1259.08,1337.85c0,0,24.6-3.08,0.42,38L1259.08,1337.85z"/>
			</g>
			<g>
				<polygon class="st46" points="1133.6,1400.62 1131.1,1396.33 1150.79,1389.53 1153.29,1393.8 				"/>
			</g>
		</g>
		<rect x="759.05" y="1392.14" class="st53" width="7.87" height="357.82"/>
		<rect x="582.21" y="1392.14" class="st53" width="7.87" height="357.82"/>
		<path class="st54" d="M777.99,1690.9H566.22c-13.05,0-23.63-10.58-23.63-23.63v-400.99c0-13.05,10.58-23.63,23.63-23.63h211.77
			c13.05,0,23.63,10.58,23.63,23.63v400.99C801.62,1680.32,791.04,1690.9,777.99,1690.9z"/>
		<path class="st12" d="M771.16,1673.39H573.05c-12.89,0-23.35-10.45-23.35-23.35v-376.82c0-12.89,10.45-23.35,23.35-23.35h198.12
			c12.89,0,23.35,10.45,23.35,23.35v376.82C794.51,1662.94,784.06,1673.39,771.16,1673.39z"/>
		<rect x="633.51" y="1239.26" class="st53" width="77.19" height="17.43"/>
		<g>
			<g>
				<path class="st55" d="M668.38,1448.16l-5.15-13.46c-5.12-0.62-10.14-1.77-15-3.44l-10.5,9.85l-29.39-20.92l5.87-13.15
					c-3.17-4.04-5.9-8.41-8.16-13.05l-14.4-0.46l-5.99-35.57l13.45-5.15c0.62-5.12,1.77-10.15,3.44-15l-9.85-10.5l20.92-29.39
					l13.15,5.87c4.04-3.17,8.41-5.9,13.05-8.16l0.46-14.4l35.57-5.99l5.15,13.45c5.12,0.62,10.15,1.77,15,3.44l10.5-9.85
					l29.39,20.92l-5.87,13.14c3.17,4.04,5.9,8.41,8.16,13.05l14.4,0.46l5.99,35.57l-13.45,5.15c-0.62,5.12-1.77,10.15-3.44,15
					l9.85,10.5l-20.92,29.39l-13.15-5.87c-4.04,3.17-8.41,5.9-13.05,8.16l-0.46,14.4L668.38,1448.16z M646.37,1422.03l2.34,0.9
					c5.67,2.17,11.63,3.54,17.72,4.06l2.5,0.21l4.58,11.97l22.65-3.82l0.41-12.81l2.29-1.02c5.58-2.49,10.76-5.73,15.41-9.64
					l1.92-1.61l11.7,5.22l13.32-18.72l-8.77-9.34l0.9-2.34c2.17-5.67,3.54-11.63,4.06-17.72l0.21-2.5l11.97-4.58l-3.82-22.66
					l-12.81-0.41l-1.02-2.29c-2.49-5.58-5.73-10.76-9.64-15.41l-1.61-1.92l5.22-11.7l-18.72-13.32l-9.34,8.76l-2.34-0.9
					c-5.67-2.17-11.63-3.54-17.72-4.06l-2.5-0.22l-4.58-11.97l-22.65,3.82l-0.41,12.81l-2.29,1.02c-5.58,2.49-10.76,5.73-15.41,9.64
					l-1.92,1.61l-11.7-5.22l-13.32,18.72l8.77,9.34l-0.9,2.34c-2.17,5.67-3.54,11.63-4.06,17.72l-0.21,2.5l-11.97,4.58l3.82,22.65
					l12.81,0.41l1.02,2.29c2.49,5.58,5.73,10.76,9.64,15.41l1.61,1.92l-5.22,11.7l18.72,13.32L646.37,1422.03z"/>
			</g>
			<g>
				<path class="st55" d="M648.89,1394.52l-0.1-0.08c-10.57-7.52-16.88-19.77-16.88-32.77c0-8.37,2.57-16.41,7.43-23.25l6.52,4.63
					c-3.89,5.48-5.95,11.92-5.95,18.62c0,10.42,5.06,20.23,13.53,26.26L648.89,1394.52z M704.91,1384.93l-6.53-4.63
					c3.88-5.47,5.92-11.89,5.92-18.58c0-10.42-5.06-20.23-13.53-26.26l4.57-6.57l0.04,0.03c10.6,7.54,16.92,19.8,16.92,32.8
					C712.31,1370.08,709.75,1378.1,704.91,1384.93z"/>
			</g>
		</g>
		<g>
			<path class="st55" d="M723.15,1528.82l-2.85-7.45c-2.04-0.31-4.04-0.77-6-1.38l-5.81,5.46l-17.94-12.77l3.25-7.28
				c-1.22-1.65-2.31-3.4-3.27-5.22l-7.97-0.25l-3.66-21.71l7.45-2.85c0.3-2.04,0.76-4.04,1.38-6l-5.46-5.81l12.77-17.94l7.28,3.25
				c1.65-1.22,3.4-2.31,5.22-3.27l0.25-7.97l21.71-3.66l2.85,7.45c2.04,0.31,4.04,0.77,6,1.38l5.81-5.46l17.94,12.77l-3.25,7.28
				c1.22,1.65,2.31,3.4,3.27,5.22l7.97,0.25l3.66,21.71l-7.45,2.85c-0.3,2.04-0.76,4.04-1.38,6.01l5.46,5.81l-12.77,17.94
				l-7.28-3.25c-1.65,1.22-3.4,2.31-5.22,3.27l-0.25,7.97L723.15,1528.82z M712.41,1510.79l2.34,0.9c2.8,1.07,5.75,1.75,8.76,2.01
				l2.5,0.22l2.27,5.93l8.79-1.48l0.2-6.35l2.29-1.02c2.76-1.23,5.33-2.84,7.62-4.77l1.92-1.61l5.79,2.59l5.17-7.27l-4.34-4.63
				l0.9-2.34c1.07-2.8,1.75-5.75,2.01-8.76l0.21-2.5l5.93-2.27l-1.48-8.79l-6.35-0.2l-1.02-2.29c-1.23-2.76-2.84-5.33-4.77-7.62
				l-1.61-1.92l2.59-5.79l-7.27-5.17l-4.63,4.34l-2.34-0.9c-2.8-1.07-5.75-1.75-8.76-2.01l-2.5-0.21l-2.27-5.93l-8.79,1.48
				l-0.2,6.35l-2.29,1.02c-2.76,1.23-5.32,2.84-7.62,4.77l-1.92,1.61l-5.79-2.59l-5.17,7.27l4.34,4.63l-0.9,2.34
				c-1.07,2.8-1.75,5.75-2.01,8.76l-0.21,2.5l-5.93,2.27l1.48,8.8l6.35,0.2l1.02,2.29c1.23,2.76,2.83,5.32,4.77,7.62l1.61,1.92
				l-2.59,5.79l7.27,5.17L712.41,1510.79z M726.29,1504.34c-4.61,0-9.25-1.38-13.28-4.25c-10.32-7.34-12.74-21.71-5.4-32.02
				c3.56-5,8.85-8.31,14.89-9.33c6.05-1.02,12.13,0.38,17.13,3.93c5,3.56,8.31,8.85,9.33,14.9c1.02,6.05-0.38,12.13-3.93,17.13
				C740.56,1500.99,733.48,1504.34,726.29,1504.34z M726.36,1466.42c-0.84,0-1.68,0.07-2.52,0.21c-3.94,0.66-7.39,2.82-9.71,6.08
				c-4.78,6.72-3.21,16.08,3.52,20.87c6.72,4.78,16.08,3.21,20.87-3.52c4.78-6.72,3.21-16.08-3.52-20.87
				C732.44,1467.37,729.44,1466.42,726.36,1466.42z"/>
		</g>
		<g>
			<g>
				<path class="st56" d="M476.43,1774.33c0,0,7.44,7.81,14.98,9.44c7.55,1.64,12.83,3.72,12.89,8.2
					c0.06,4.48-21.72,7.43-30.36,2.92c-12.89-6.74-14.2-4.71-15.63-8.08c-1.43-3.37,1.72-12.38,1.62-13.45
					C459.81,1772.03,476.43,1774.33,476.43,1774.33z"/>
			</g>
			<g>
				<path class="st57" d="M475.59,1770.59c0,0,0.98,3.66,0.84,3.74c-0.15,0.08-17.01,1.97-16.5-0.97c0.41-2.38,1-4.97,1-4.97
					L475.59,1770.59z"/>
			</g>
			<g>
				<path class="st56" d="M392.43,1776.36c0,0,5.47,7.61,12.79,9.36c7.21,1.73,11.89,5.02,12.24,9.38
					c0.35,4.36-17.01,10.06-29.21,2.41c-8.02-5.03-11-4.74-12.62-7.93c-1.62-3.19,0.85-12.14,0.68-13.18
					C376.12,1775.11,392.43,1776.36,392.43,1776.36z"/>
			</g>
			<g>
				<path class="st57" d="M392.21,1772.6c0,0,0.36,3.68,0.22,3.76c-0.14,0.08-16.21,2.93-16.11,0.03c0.08-2.3,1.02-5.16,1.02-5.16
					L392.21,1772.6z"/>
			</g>
			<g>
				<path class="st50" d="M458.58,1550.91c0,0,7.81,56.73,11,75.91c3.73,22.42,4.99,40.95,6.03,52.56c1.31,14.6,0.58,89.3,1.5,93.57
					c0.92,4.27-18.47,2.05-18.47,2.05s-14.21-97.39-18.11-112.94c-3.63-14.48-13.61-74.15-16.92-70.2
					c-3.31,3.95-14.03,71.93-16.48,83.35c-2.45,11.42-12.35,101.29-12.35,101.29s-16.48,3.58-20.97,0c0,0,1-80.14,2.57-101.54
					c0.59-8.16-5.16-97.66,8.63-133.75C392.3,1522.14,458.58,1550.91,458.58,1550.91z"/>
			</g>
			<path class="st58" d="M459.26,1553.62l0.88,8.52c0,0-23.79,9.64-81.72,9.65v-9.75L459.26,1553.62z"/>
			<g>
				<g>
					<g>
						<path class="st14" d="M525.99,1446.42c0,0,3.47,7.65,5.52,8.13c2.05,0.48,4.5,3.03,6.26,3.82c1.76,0.78,7.3,1.22,8.79,2.67
							c0.61,0.59,2.93,5.7,4.3,6.77c1.36,1.07,4.39,2.91,3.45,4.06c-0.94,1.15-4.08,0.24-4.08,0.24s1.18,1.05,0.67,2.32
							c-0.99,2.47-2.65,2.58-2.65,2.58s0.53,1.86-0.14,2.78c-1.48,2.03-3.09,2.08-3.09,2.08s-0.14,1.43-1.43,2.55
							c-1.65,1.43-3.68,0.61-3.68,0.61s-1.65,2.27-3.17,1.83c-1.52-0.44-2.4-1.58-3.49-2.25c-1.08-0.67-8.66-9.41-11.45-17.58
							c-2.79-8.17-7.64-14.82-7.64-14.82L525.99,1446.42z"/>
					</g>
				</g>
			</g>
			<g>
				<path class="st51" d="M524.42,1485.11c0,0-26.92,12.25-36.49,9.89c-4.42-1.09-10.25-7.19-15.79-14.37
					c-1.82-2.36-3.61-4.84-5.32-7.3c0,0,0-0.01,0-0.01c-6.79-9.81-12.11-19.21-12.11-19.21s-20.08-23.53-3.97-34.01
					c0,0,5.85-2.19,11.21,3.56c5.37,5.75,11.68,17.79,13.09,20.86c1.41,3.06,21.13,31.51,22.15,32.15c1.02,0.64,9.64-1.63,16.55-2.2
					c11.27-0.94,9.03-1.42,9.03-1.42L524.42,1485.11z"/>
			</g>
			<path class="st51" d="M435.67,1414.85c0,0,20.67,4.27,23.12,6.44c2.66,2.31,7.36,24.95,7.64,31.25
				c0.28,6.3-2.49,32.64-5.15,42.45c-2.66,9.81,3.5,51.56-1.43,58.44c0,0-42.59,13.66-83.51,8.34c0,0,8.78-39.4,7.15-52.84
				c-2.1-17.22-7.15-56.89-7.15-56.89s5.47-26.71,9.11-29.79c3.64-3.08,28.97-8.1,28.97-8.1L435.67,1414.85z"/>
			<path class="st59" d="M389.65,1468.76c0,0-3.9,25.4-3.63,27.03C386.29,1497.41,368.35,1490.68,389.65,1468.76z"/>
			<g>
				<path class="st60" d="M299.56,1608.64l-17.95-29.8c-3.04-5.05-1.42-11.61,3.63-14.65l44.98-27.1
					c5.05-3.04,11.61-1.41,14.65,3.63l17.95,29.8c3.04,5.05,1.41,11.61-3.63,14.65l-44.98,27.1
					C309.16,1615.32,302.6,1613.69,299.56,1608.64z"/>
				
					<rect x="446.83" y="1302.19" transform="matrix(0.5161 0.8565 -0.8565 0.5161 1499.73 308.4232)" class="st61" width="60.16" height="358.58"/>
				
					<rect x="287.27" y="1454.28" transform="matrix(0.8565 -0.5161 0.5161 0.8565 -688.7566 450.8424)" class="st42" width="358.58" height="20.05"/>
				
					<rect x="466.88" y="1302.19" transform="matrix(0.516 0.8566 -0.8566 0.516 1499.7869 308.4728)" class="st43" width="20.05" height="358.58"/>
				
					<rect x="477.23" y="1319.36" transform="matrix(0.5161 0.8565 -0.8565 0.5161 1519.42 307.8461)" class="st40" width="20.05" height="358.58"/>
				<polygon class="st62" points="646,1414.71 614.96,1363.19 684.65,1349.13 702.58,1345.51 691,1359.67 				"/>
				<path class="st63" d="M625.31,1380.36c-4.6,2.77-10.64,1.17-13.5-3.57c-2.86-4.74-1.45-10.83,3.15-13.6L625.31,1380.36z"/>
				<path class="st64" d="M635.65,1397.54c-4.6,2.77-10.64,1.17-13.5-3.57c-2.86-4.74-1.45-10.83,3.15-13.6L635.65,1397.54z"/>
				<path class="st62" d="M646,1414.71c-4.6,2.77-10.64,1.17-13.5-3.57c-2.86-4.74-1.45-10.83,3.15-13.6L646,1414.71z"/>
				
					<rect x="300.85" y="1547.48" transform="matrix(0.8565 -0.5161 0.5161 0.8565 -759.0498 384.3785)" class="st65" width="22.03" height="20.05"/>
				
					<rect x="312.19" y="1563.67" transform="matrix(0.5161 0.8565 -0.8565 0.5161 1504.6836 486.0085)" class="st66" width="20.05" height="22.04"/>
				
					<rect x="322.54" y="1580.84" transform="matrix(0.5161 0.8565 -0.8565 0.5161 1524.396 485.4492)" class="st67" width="20.05" height="22.03"/>
				<polygon class="st63" points="625.31,1380.36 702.58,1345.51 614.96,1363.19 				"/>
				<polygon class="st64" points="635.65,1397.54 702.58,1345.51 625.31,1380.36 				"/>
				<polygon class="st62" points="635.65,1397.54 702.58,1345.51 646,1414.71 				"/>
				<polygon class="st40" points="691,1359.67 684.65,1349.13 702.58,1345.51 				"/>
			</g>
			<g>
				<g>
					<g>
						<g>
							<g>
								<path class="st14" d="M431.99,1554.13c0,0-1.91-0.16-2.71-0.64c0,0-1.39-0.98-2.42-1.62c-0.33-0.2-0.62-0.37-0.82-0.46
									c-0.83-0.37-2.76-0.94-4.5-2.4c-1.74-1.45-7.63-9.65-7.63-9.65l3.52-4.44l2.71-4.63c0,0,13.72,2.12,15.5,3.29
									c0.17,0.12,0.34,0.23,0.49,0.36c1.41,1.13,1.98,2.57,2.65,3.25c0.25,0.25,2.51,2.91,2.34,3.94c-0.25,1.43-1,2.32-1.91,2.71
									c0,0-0.61,2.78-2.11,3.96c0,0-0.48,2.58-2.76,3.52C434.33,1551.32,433.55,1553.88,431.99,1554.13z"/>
							</g>
						</g>
					</g>
				</g>
			</g>
			<path class="st51" d="M396.82,1421.69c2.71,1.05,5.58,7.61,3.45,20.46c-2.29,13.8-6.84,19.69-8.68,22.91
				c-1.83,3.23-11.9,23.1-10.09,25.72c1.81,2.61,18.91,19.48,19.9,20.86c0.99,1.37,20.08,18.65,20.08,18.65l-9.72,13.58
				c0,0-41.22-32.2-44.43-35.41c-3.22-3.21-12.83-9.97-9.27-21.2c3.61-11.41,10.11-38.13,11.26-40.22
				C370.46,1444.96,378.9,1414.75,396.82,1421.69z"/>
			<g>
				<g>
					<path class="st14" d="M549.81,1471.09c0,0-6.61-7.36-9.9-7.23c-3.29,0.13-1.05,2.92-1.05,2.92s-2.17-2.79-4.52-1.32
						c-2.35,1.47,0.44,4.6,0.44,4.6s-2.2-1.68-3.94,0.64c-1.74,2.32,1.15,4.39,1.15,4.39s-4.37-0.65-3.43,2.92
						c1.57,6.02,8.07,8.89,8.07,8.89s1.86,0.73,3.38-1.63c0,0,4.1,1.54,5.24-3.19c0,0,4.93-1.14,3.42-4.95
						C548.65,1477.14,553.6,1475.23,549.81,1471.09z"/>
				</g>
			</g>
			<path class="st51" d="M445.02,1416.95c0,0,1.24-5.65-16.46-6.96c-17.7-1.31-29.67,2.67-30,7.75
				c-0.33,5.08,44.83,17.75,44.83,17.75L445.02,1416.95z"/>
			<path class="st14" d="M427.13,1350.95c0,0,24.86-9.2,23.31,23.84c-1.55,33.04-7.38,36.39-23.73,31.78
				c-16.35-4.61-17.72-25.46-19.85-35.49C404.72,1361.04,419,1352.39,427.13,1350.95z"/>
			<path class="st14" d="M439.76,1420.08c0,0-5.96,2.63-25.36-5.92c0,0,0.55-13.3-3.26-25.72c-3.81-12.42,26.03,16.56,26.03,16.56
				c-0.31,0.22-0.37,1.46-0.19,3.19c0.15,1.47,0.47,3.29,0.96,5.13C439.03,1417.49,438.78,1416.75,439.76,1420.08z"/>
			<path class="st68" d="M410.3,1387.46c0,0-0.07-8.82,3.6-9.64c3.67-0.81,5.56,4.29,5.56,4.29l2.96-0.16c0,0-2.64-8.94,0.86-10.99
				c3.5-2.05,24.43-0.25,27.06-3.26c2.63-3.01-1.18-20.89-6.89-22.65c-5.71-1.75-21.31-5.31-31.22,3.51c0,0-8.51,3.67-8.85,10.69
				C403.02,1366.27,407.31,1382.67,410.3,1387.46z"/>
			<path class="st69" d="M437.94,1413.33c-19.27-3.24-22.15-14.2-22.19-14.37c7.49,9.66,21.23,9.24,21.23,9.24
				C437.14,1409.67,437.46,1411.49,437.94,1413.33z"/>
			<path class="st14" d="M418.05,1374.07c-1.1-2.91-7.3-2.54-6.66,2.07c0.63,4.62,5.76,11.72,7.82,10.39
				C421.26,1385.2,419.57,1378.09,418.05,1374.07z"/>
		</g>
		<g>
			<g>
				<g>
					<path class="st37" d="M1253.32,446.09c0,0,10.25,17.37,14.57,20.2c5.87,3.85,2.19,7.75-0.6,7.75c-2.79,0-17.03,1.02-20.17-2.54
						c-3.14-3.56-4.7-14.24-7.61-17.03c-2.92-2.79-5.93-13.89,1.42-16.58C1247.43,435.5,1253.32,446.09,1253.32,446.09z"/>
				</g>
			</g>
			<g>
				<g>
					<path class="st70" d="M1248.88,438.44c0,0,11.73,20.34,13.76,23.35c2.02,3-3.81,3-7.42,1.57c-3.61-1.43-12.7-16.02-14.01-18.67
						c-1.56-3.17-0.28-6.8-0.28-6.8L1248.88,438.44z"/>
				</g>
			</g>
			<g>
				<g>
					<polygon class="st37" points="1236.99,449.39 1239.7,470.24 1241.14,470.31 1240.69,455.3 					"/>
				</g>
			</g>
			<g>
				<g>
					<path class="st37" d="M1151.71,446.09c0,0,10.25,17.37,14.57,20.2c5.87,3.85,2.19,7.75-0.6,7.75c-2.79,0-17.03,1.02-20.17-2.54
						c-3.14-3.56-4.69-14.24-7.61-17.03c-2.92-2.79-6.03-14.17,1.42-16.58C1145.86,435.77,1151.71,446.09,1151.71,446.09z"/>
				</g>
			</g>
			<g>
				<g>
					<path class="st70" d="M1147.89,438.49c0,0,11.12,20.3,13.14,23.3c2.02,3-3.81,3-7.42,1.57c-3.61-1.43-12.7-16.02-14.01-18.67
						c-1.56-3.17-0.28-6.8-0.28-6.8L1147.89,438.49z"/>
				</g>
			</g>
			<g>
				<g>
					<polygon class="st37" points="1135.39,449.39 1138.09,470.24 1139.53,470.31 1139.08,455.3 					"/>
				</g>
			</g>
			<g>
				<g>
					<path class="st70" d="M1106.25,288.01l92.72,42.25c0,0,10.35,3.37,11.51,14.86c3.62,35.87,30.45,92.77,30.45,92.77
						c8.61,4.21,7.95,0.56,7.95,0.56c-5.43-17.41-12.03-89.19-14.39-118.05c-0.5-6.11-0.81-10.3-0.88-11.64
						c-0.05-0.91-1.04-2.1-2.76-3.49c-12.72-10.32-65.08-31.68-65.08-31.68C1126.48,272.59,1106.25,288.01,1106.25,288.01z"/>
				</g>
			</g>
			<g>
				<g>
					<path class="st70" d="M1088.77,306.15c2.87,25.06,38.65,22.19,38.65,22.19h43.36c0,0-11.39,25.34-15.79,46.72
						c-4.67,22.69-15.67,62.83-15.67,62.83s0.72,1.36,8.56,0.6c0,0,34.04-67.84,47.07-84.89c2.8-3.67,10.83-23.59,12.22-35.47
						c0.47-4,0.18-7.09-1.31-8.34c-1.5-1.26-4.96-3.63-9.57-6.54c-13.58-8.56-37.17-21.75-50.31-24.7
						c-17.6-3.96-45.44-11.37-45.44-11.37S1085.9,281.09,1088.77,306.15z"/>
				</g>
			</g>
			<path class="st71" d="M1118.28,113.1c0,0-6.49-12.32-3.33-25.44c3.16-13.12,15.34-26.19,33.16-20.19
				c17.83,6,32.24,19.85,21.55,35.86c-10.69,16.01,9.67,23.24,4.48,30.86c-5.19,7.62-3.22,15.58-1.02,17.35
				c2.2,1.77,9.28,8.09,8.5,15.57c-0.78,7.48-34.59-21.8-34.59-21.8S1128.63,108.32,1118.28,113.1z"/>
			<path class="st61" d="M1172.62,270.58c0,0-2.69,13.04-71.94-3.42C1100.68,267.16,1123.9,259.45,1172.62,270.58z"/>
			<g>
				<path class="st72" d="M1099.89,270.82c-1.07,2.05-2.14,4.1-3.22,6.15c25.31,0.74,50.63,1.47,75.94,2.21
					c-4-13.41-2.71-31.56-2-45.35c0.86-16.83,10.15-28.54,9.16-45.56c5.01,0.81,5.87,0.96,10.89,1.73
					c-7.67-21.85-10.3-32.68-34.13-41.09c-7.76-2.74-12.86-3.28-21.25-2.59c-27.59,2.28-35.92,2.6-49.47,27.61
					c21.22,3.38,17.72,11,24.16,32.1c3.14,10.29,6.41,21.78,4.73,32.63C1113.05,249.35,1099.89,261.07,1099.89,270.82z"/>
			</g>
			<g>
				<path class="st14" d="M1143.94,154.2c-11.29-2.13-8.89-8.42-8.89-8.42s0.53-3.55,0.73-8.03c0.05-1.15,0.08-2.36,0.08-3.58
					c0-1.86-0.09-3.76-0.31-5.56c-0.92-7.58,20.5-3.06,20.5-3.06s-1.24,15.34,1.72,19.94
					C1160.71,150.1,1155.23,156.33,1143.94,154.2z"/>
			</g>
			<g>
				<path class="st14" d="M1122.39,145.75c0,0,22.78,26.3,31.2,32.4c0,0,9.67-8.74,3.71-31.83
					C1157.3,146.32,1146.31,140.81,1122.39,145.75z"/>
			</g>
			<path class="st14" d="M1123.01,82.44c0,0-11.83,22.79-0.1,44.39c11.73,21.59,34.79-9.4,36.28-13.04
				c1.49-3.64,9.4-24.21-6.33-30.46C1137.14,77.08,1126.36,76.25,1123.01,82.44z"/>
			<path class="st71" d="M1126.94,90.53c0,0-8.14,10.7-9.11,18.6c0,0-3.24-14.94,5.92-29.3c9.17-14.36,32.48-0.68,35.6,5.05
				c3.12,5.74,12.27,10.79-3.1,35.44C1156.26,120.32,1128.62,101.11,1126.94,90.53z"/>
			<path class="st73" d="M1145.85,129.1c0,0-2.05,4.49-10.08,8.66c0.05-1.15,0.09-2.38,0.09-3.61
				C1135.86,134.15,1141.28,133.52,1145.85,129.1z"/>
			<path class="st74" d="M1026.28,250.31c0,0-5.62,2.5-8.29,1.37c-2.67-1.13-6.79-1.35-8.09-1.36c-1.74,0-7.19-1.95-7.09,0.18
				c0.09,2.13,8.84,3.61,10.63,4.27c1.79,0.66-5.35,4.6-6.02,6.34c-0.66,1.75,7.4,13.21,11.95,9.95c4.55-3.27,7.01-9.79,7.94-10.2
				c0.93-0.41,3.41-2.25,3.41-2.25L1026.28,250.31z"/>
			<path class="st74" d="M1008.28,260.1c0,0-13.19,10.94-13.4,12.41c-0.21,1.48,0.49,2.17,1.77,1.2
				c1.28-0.97,13.08-10.19,13.08-10.19s-13.22,15.61-13.66,16.77c-0.26,0.68,1.01,2.09,1.75,1.63c0.74-0.46,14.79-15.15,14.79-15.15
				s-12.31,14.6-12.38,15.69c-0.06,0.96,1.42,1.99,2.42,0.97c0.99-1.02,13.25-13.9,13.25-13.9s-8.24,11.21-7.73,12.19
				c0.31,0.6,1.35,1.87,3.38-1.09c2.03-2.96,7.6-9.42,7.6-9.42L1008.28,260.1z"/>
			<g>
				<path class="st56" d="M1166.26,328.34h-38.84c0,0-35.77,2.87-38.64-22.19c-2.87-25.06,11.76-38.98,11.76-38.98
					s18.9,5.03,35.4,9.02c8.26-1.75,18.22-2.9,29.84-2.6c0,0,69.95,23.11,67.84,35.28C1233.63,308.87,1204.37,293.23,1166.26,328.34
					z"/>
			</g>
			<polygon class="st75" points="1140.98,284.95 1215.02,283.86 1177.64,302.84 			"/>
			<path class="st72" d="M1163.98,275.49c0,0-16.66,6.45-37.08,0.62l-0.96-7.62l42.04,2.34L1163.98,275.49z"/>
			<polygon class="st76" points="1177.64,302.84 1140.98,288.64 1140.98,284.95 1180.53,299.21 			"/>
			<g>
				<path class="st77" d="M1163.72,279.01c-0.2,2.73,2.57,4.71,5.09,3.63l4.3-1.84c1.29-0.55,2.04-1.91,1.82-3.3
					c-1.79-11.2-5.63-54.79-0.02-62.28c2.07-2.76,3.37-5.19,4.1-7.3c3.71,9.55,8.32,21.86,10.15,28.48l34.98,46.54l11.73,2.98
					c-14.64-35.27-26.39-53.95-26.39-53.95c-2.29-6.15-8.85-24.76-14.67-41.33c-3.67-10.46-7.04-20.11-8.86-25.3
					c-0.92-2.63-2.73-4.85-5.12-6.27c-5.42-3.24-14.45-8.34-22.64-12.32c-0.03-0.02-0.07-0.03-0.1-0.05
					c-0.26-0.13-0.52-0.25-0.79-0.38c-0.01,0-0.01,0-0.01,0c0,0,0,0,0,0c15.57,23.55,9.5,90.07,6.42,132.61
					C1163.73,278.95,1163.72,278.98,1163.72,279.01z"/>
				<path class="st77" d="M1105.93,148.32c-4.99,0.77-17.35,12.77-23.92,24.89c-7.49,13.83-15.12,29.57-20.84,34.75
					c-10.51,9.53-39.94,43.19-41.34,42.38c-0.54-0.31,8.07,10.05,9.17,10.54c0.54,0.24,48.37-41.2,52.96-47.51
					c4.36-5.99,16-31.1,19.49-30.55c0,0,0,0.01,0.01,0.02c0,0,0,0.01,0,0.01c0.26,0.57,4.5,9.75,8.52,23.18
					c0.07,0.22,0.13,0.44,0.2,0.67c2.77,9.36,2.51,19.53,1.01,30.95c-1.13,8.63-7.57,22.72-11.45,29.58
					c-0.47,0.82-0.35,2.39,0.15,3.59c0,0,0,0,0,0c0.3,0.71,0.74,1.29,1.28,1.49l14.04,5.2l3.3,1.22c2.38,0.88,4.87,0.42,6.73-0.93
					c1.53-1.11,2.63-2.82,2.9-4.88c3.12-24.01,7.07-48.55,10.22-57.79c13.81-40.55-5.4-71.03-5.4-71.03
					S1110.31,146.69,1105.93,148.32z"/>
			</g>
			<polygon class="st78" points="1177.64,302.84 1199.66,242.71 1270.66,243.87 1249.67,299.28 			"/>
			<path class="st79" d="M1222.38,269.31c-2.17,4.33-1.51,9.05,1.46,10.54c2.97,1.49,7.14-0.82,9.31-5.15
				c2.17-4.33,1.51-9.05-1.46-10.54C1228.71,262.67,1224.54,264.98,1222.38,269.31z"/>
			<path class="st71" d="M1147.53,105.14c0,0,4.55,7.08,0.34,13.18c-4.2,6.11,1.06,12.11,1.97,18.56
				c0.91,6.46-17.54,23.63,2.98,32.28c20.52,8.64,27.05-5.64,21.81-13.51c-5.23-7.86-8.95-14.24-9.39-25.45
				C1164.81,118.99,1161.12,101.52,1147.53,105.14z"/>
			<polygon class="st51" points="995.24,30.13 1090.05,30.13 1090.05,98.85 1090.05,113.32 1075.58,98.85 995.24,98.85 			"/>
		</g>
	</g>
</g>
</svg>
