<?xml version="1.0" encoding="utf-8"?>
<!-- Generator: Adobe Illustrator 24.0.0, SVG Export Plug-In . SVG Version: 6.00 Build 0)  -->
<svg version="1.1" id="Layer" xmlns="http://www.w3.org/2000/svg" xmlns:xlink="http://www.w3.org/1999/xlink" x="0px" y="0px"
	 viewBox="0 0 500.63 326.2" style="enable-background:new 0 0 500.63 326.2;" xml:space="preserve">
<style type="text/css">
	.st0{fill:#D8D2C7;}
	.st1{fill:#C6BFB0;}
	.st2{fill:#EAE6E1;}
	.st3{fill:#949CC4;}
	.st4{fill:#7984AD;}
	.st5{fill:#B2B7DC;}
	.st6{fill:#FEBA2A;}
	.st7{fill:#7F5047;}
	.st8{fill:#895952;}
	.st9{fill:#9B6A46;}
	.st10{fill:#6D4338;}
	.st11{fill:#719133;}
	.st12{fill:#7FA53F;}
	.st13{fill:#93BC53;}
	.st14{fill:#A6CC62;}
	.st15{fill:#6F8900;}
	.st16{fill:#FFD348;}
	.st17{opacity:0.5;fill:#FEBA2A;}
	.st18{fill:#F9A91C;}
	.st19{fill:#C3C8E5;}
	.st20{fill:#ED2020;}
	.st21{fill:#FFC5B3;}
	.st22{fill:#FFE36C;}
	.st23{fill:#FF3E39;}
	.st24{fill:#FFA08D;}
	.st25{fill:#563729;}
</style>
<g id="persona2">
	<g>
		<g>
			<g>
				<path class="st0" d="M219.89,196.21c0.67,0.33,1.54,0.63,2.26,0.41c0.45-0.14,0.85-0.44,1.24-0.72c0.23-0.16,1.21-0.83,1.52-0.8
					c0.1-0.02,0.21-0.03,0.32-0.03c-0.04-0.42-0.17-0.83-0.43-1.07c-0.28-0.25-0.71-0.28-1.04-0.36c-0.55-0.14-1.12-0.17-1.64-0.4
					c-0.63-0.28-1.7-0.98-2.66,0.16c-0.45,0.54-0.79,1.17-0.83,1.76c0.01,0.01,0.03,0.02,0.04,0.03
					C219.12,195.49,219.37,195.96,219.89,196.21z"/>
				<path class="st1" d="M218.88,196.07c0.53,0.72,1.46,1.39,2.3,1.55c0.9,0.17,1.9-0.27,2.76-0.54c0.62-0.19,1.1-0.49,1.25-1.22
					c0.05-0.23,0.06-0.51,0.04-0.79c-0.11,0-0.21,0.01-0.32,0.03c-0.32-0.03-1.29,0.64-1.52,0.8c-0.39,0.28-0.78,0.58-1.24,0.72
					c-0.72,0.22-1.59-0.08-2.26-0.41c-0.52-0.26-0.77-0.72-1.22-1.04c-0.01-0.01-0.03-0.02-0.04-0.03
					C218.61,195.48,218.68,195.79,218.88,196.07z"/>
			</g>
			<path class="st2" d="M224.51,194.14c-0.1-0.25-0.71-0.12-1.1-0.14c-0.66-0.03-0.92-0.56-1.57-0.56c-0.43,0-0.63,0.12-0.43,0.27
				c0.23,0.18,0.35,0.39,0.57,0.56c0.21,0.16,0.3,0.27,0.43,0.5c0.03,0.05,0.03,0.11,0.06,0.15c0.3,0.39,1.02-0.13,1.34-0.26
				C223.94,194.62,224.65,194.47,224.51,194.14z"/>
			<path class="st1" d="M223.04,195.43c-0.05-0.09-0.39,0.05-0.46-0.06c-0.26-0.39-0.32-0.46-0.64-0.65
				c-0.46-0.28-0.94-0.7-0.83-0.47c0.15,0.33,0.74,0.73,0.67,1.26c-0.07,0.53-0.18,0.67,0.27,0.52
				C222.5,195.88,223.24,195.81,223.04,195.43z"/>
			<path class="st1" d="M220.09,195.65c-0.1,0.02-0.14,0.3,0.32,0.33c0.46,0.03,0.74,0,0.86-0.2c0.12-0.2,0.3-0.52,0.09-0.46
				c-0.21,0.06-0.22,0.27-0.49,0.33C220.61,195.71,220.48,195.59,220.09,195.65z"/>
			<path class="st2" d="M220.25,193.34c-0.1,0.03-0.18,0.11-0.25,0.21c-0.15,0.19-0.22,0.3-0.41,0.44
				c-0.09,0.07-0.17,0.13-0.22,0.25c-0.18,0.39,0.25,0.85,0.54,0.48c0.05-0.06,0.07-0.18,0.1-0.24c0.05-0.08,0.11-0.15,0.19-0.2
				c0.1-0.07,0.2-0.13,0.3-0.19c0.16-0.1,0.34-0.23,0.4-0.44C221,193.26,220.51,193.17,220.25,193.34z"/>
		</g>
		<g>
			<g>
				<path class="st3" d="M203.43,197.13c1.07,0.09,2.21-0.05,3.25-0.37c1.03-0.32,2.02-0.88,2.71-1.8c0.41-0.54,0.65-1.21,0.65-1.85
					c-1.28-1.93-4.15-1.39-5.92-0.55c-1.19,0.56-2.59,1.41-3.07,2.83c-0.03,0.1-0.06,0.21-0.08,0.32
					C201.44,196.6,202.49,197.05,203.43,197.13z"/>
				<path class="st4" d="M201.09,197.23c0.21,0.78,0.97,1.3,1.66,1.58c1.27,0.51,2.7,0.69,4.02,0.37c1.11-0.27,2.15-0.91,2.88-1.88
					c0.69-0.91,1.16-2.23,0.77-3.4c-0.1-0.31-0.23-0.57-0.39-0.8c0,0.64-0.24,1.31-0.65,1.85c-0.69,0.92-1.68,1.48-2.71,1.8
					c-1.04,0.32-2.17,0.46-3.25,0.37c-0.95-0.08-1.99-0.53-2.47-1.42C200.87,196.22,200.9,196.77,201.09,197.23z"/>
				<path class="st5" d="M205.84,192.66c-1.14-0.01-1.72,0.83-2.67,1.46c-0.68,0.45-2.01,1.32-1.03,1.87
					c0.99,0.57,2.25,0.58,3.29,0.15c0.91-0.38,1.92-1.21,2.03-2.36C207.54,192.79,206.7,192.59,205.84,192.66z"/>
			</g>
			<g>
				<path class="st6" d="M208.27,178.49c0,0-0.32-0.61-0.75-0.26c-0.43,0.35-0.6,0.78-0.55,1.08c0.06,0.29,0.65,0.47,0.65,0.47
					L208.27,178.49z"/>
				<path class="st6" d="M205.34,186.75c0,0-0.63-0.14-0.67,0.45c-0.04,0.59,0.14,1.02,0.38,1.16c0.24,0.15,0.75-0.23,0.75-0.23
					L205.34,186.75z"/>
				<path class="st6" d="M219.91,180.42c0,0,0.32-0.61,0.75-0.26c0.43,0.35,0.6,0.78,0.55,1.08c-0.06,0.29-0.65,0.47-0.65,0.47
					L219.91,180.42z"/>
				<path class="st6" d="M221.43,186.16c0,0,0.62-0.17,0.69,0.42c0.06,0.58-0.1,1.02-0.33,1.18c-0.23,0.16-0.76-0.2-0.76-0.2
					L221.43,186.16z"/>
				<g>
					<g>
						<path class="st7" d="M220.44,188.98l-1.82-0.02c0,0.02,0,0.04,0,0.07c0,5.46-3.27,9.88-7.31,9.88c-1.29,0-2.5-0.45-3.55-1.24
							c1.34,2.16,3.35,3.54,5.6,3.54c4.03,0,7.31-4.42,7.31-9.88C220.68,190.54,220.57,189.71,220.44,188.98z"/>
						<path class="st8" d="M218.63,189.03c0-0.02,0-0.04,0-0.07l-12.3-0.1c-0.13,0.73-0.26,1.68-0.26,2.46
							c0,2.42,0.64,4.63,1.71,6.35c1.05,0.79,2.26,1.24,3.55,1.24C215.35,198.92,218.63,194.49,218.63,189.03z"/>
					</g>
					<path class="st9" d="M220.47,189.38c0,2.43-3.18,4.39-7.1,4.39c-3.92,0-7.1-1.97-7.1-4.39c0-2.43,3.18-4.39,7.1-4.39
						C217.29,184.99,220.47,186.96,220.47,189.38z"/>
					<path class="st10" d="M220.12,189.3c0,2.26-3.02,4.08-6.75,4.08c-3.73,0-6.75-1.83-6.75-4.08c0-2.26,3.02-4.08,6.75-4.08
						C217.1,185.22,220.12,187.04,220.12,189.3z"/>
				</g>
				<g>
					<path class="st11" d="M221.62,186.25c-0.01-0.31-0.13-0.61-0.13-0.61l0.34,0.12c0,0,0-0.34-0.08-0.5
						c-0.11-0.23-0.31-0.26-0.31-0.26s0.37-0.24,0.5-0.52c-0.19-0.17-0.38-0.16-0.47-0.17c0-0.1,0-0.21-0.01-0.3
						c-0.03-0.33-0.08-0.51-0.22-0.74c0.31,0.13,0.52,0.09,0.52,0.09s-0.22-0.22-0.34-0.38c-0.12-0.17-0.22-0.39-0.22-0.39
						s0.24-0.04,0.36-0.18c0.13-0.15,0.19-0.38,0.19-0.38s-0.13,0.09-0.36,0.07c-0.16-0.01-0.44-0.11-0.44-0.11s0.03-0.42-0.07-0.63
						c-0.16-0.32-0.41-0.44-0.41-0.44s0.28-0.04,0.35-0.09c0.11-0.09,0.24-0.25,0.24-0.25s-0.3,0.02-0.49-0.06
						c-0.05-0.02-0.11-0.04-0.16-0.06c-0.12,0.13-0.34,0.16-0.34,0.16s0.1,0.22,0.22,0.39c0.12,0.17,0.34,0.38,0.34,0.38
						s-0.21,0.04-0.52-0.09c0.14,0.23,0.2,0.41,0.22,0.74c0.01,0.1,0.01,0.2,0.01,0.3c0.08,0.01,0.28,0.01,0.47,0.17
						c-0.12,0.28-0.5,0.52-0.5,0.52s0.19,0.03,0.31,0.26c0.08,0.16,0.08,0.5,0.08,0.5l-0.34-0.12c0,0,0.12,0.3,0.13,0.61
						c0.01,0.35,0.32,0.5,0.32,0.5s-0.15,0.16-0.28,0.2c-0.11,0.04-0.33,0.05-0.33,0.05s0.09,0.1,0.22,0.42
						c0.1,0.25-0.06,0.48-0.19,0.63c-0.1,0.11-0.22,0.21-0.22,0.21s0.07,0.1,0.14,0.51c0.07,0.41,0.34,0.63,0.34,0.63
						s-0.21,0.11-0.5,0.05c-0.16-0.03-0.35-0.15-0.35-0.15s0.1,0.24-0.04,0.46c-0.14,0.21-0.32,0.23-0.32,0.23s0.03,0.29,0.1,0.46
						c0.06,0.15,0.27,0.31,0.27,0.31s-0.17,0.11-0.37,0.07c-0.12-0.02-0.31-0.14-0.31-0.14s0.05,0.26,0.06,0.46
						c0.01,0.17-0.03,0.46-0.12,0.58c-0.22-0.14-0.27-0.23-0.33-0.44c0,0.21-0.32,0.7-0.51,0.85c-0.12,0.1-0.6,0.23-0.6,0.23
						s0.02,0.45-0.11,0.65c-0.12,0.2-0.19,0.35-0.19,0.35s-0.18-0.13-0.3-0.46c-0.1,0.31-0.23,0.42-0.4,0.53
						c-0.2,0.13-0.55,0.06-0.55,0.06s-0.02,0.31-0.46,0.38c-0.19,0.03-0.4-0.11-0.4-0.11s-0.06,0.3-0.35,0.37
						c-0.35,0.08-0.51-0.11-0.51-0.11s-0.13,0.25-0.33,0.41c-0.13-0.11-0.19-0.3-0.19-0.3s-0.16,0.29-0.55,0.3
						c-0.15,0-0.5-0.08-0.71-0.14c-0.12,0.22-0.38,0.44-0.38,0.44s-0.17-0.21-0.26-0.35c-0.12,0.02-0.31,0.05-0.46,0.05
						c-0.39-0.01-0.55-0.3-0.55-0.3s-0.06,0.19-0.19,0.3c-0.2-0.16-0.33-0.41-0.33-0.41s-0.16,0.19-0.51,0.11
						c-0.29-0.07-0.35-0.37-0.35-0.37s-0.21,0.14-0.4,0.11c-0.44-0.07-0.46-0.38-0.46-0.38s-0.35,0.07-0.55-0.06
						c-0.17-0.11-0.3-0.22-0.4-0.53c-0.11,0.33-0.3,0.46-0.3,0.46s-0.07-0.15-0.19-0.35c-0.12-0.2-0.11-0.65-0.11-0.65
						s-0.47-0.13-0.6-0.23c-0.03-0.02-0.06-0.05-0.09-0.08c-0.01,0.1-0.04,0.25-0.08,0.36c-0.06,0.15-0.27,0.31-0.27,0.31
						s0.17,0.11,0.37,0.07c0.12-0.02,0.31-0.14,0.31-0.14s-0.05,0.26-0.06,0.46c-0.01,0.17,0.03,0.46,0.12,0.58
						c0.22-0.14,0.27-0.23,0.33-0.44c0,0.21,0.32,0.7,0.51,0.85c0.12,0.1,0.6,0.23,0.6,0.23s-0.02,0.45,0.11,0.65
						c0.12,0.2,0.19,0.35,0.19,0.35s0.18-0.13,0.3-0.46c0.1,0.31,0.23,0.42,0.4,0.53c0.2,0.13,0.55,0.06,0.55,0.06
						s0.02,0.31,0.46,0.38c0.19,0.03,0.4-0.11,0.4-0.11s0.06,0.3,0.35,0.37c0.35,0.08,0.51-0.11,0.51-0.11s0.13,0.25,0.33,0.41
						c0.13-0.11,0.19-0.3,0.19-0.3s0.16,0.29,0.55,0.3c0.15,0,0.35-0.03,0.46-0.05c0.09,0.15,0.26,0.35,0.26,0.35
						s0.26-0.22,0.38-0.44c0.21,0.06,0.56,0.14,0.71,0.14c0.39-0.01,0.55-0.3,0.55-0.3s0.06,0.19,0.19,0.3
						c0.2-0.16,0.33-0.41,0.33-0.41s0.16,0.19,0.51,0.11c0.29-0.07,0.35-0.37,0.35-0.37s0.21,0.14,0.4,0.11
						c0.44-0.07,0.46-0.38,0.46-0.38s0.35,0.07,0.55-0.06c0.17-0.11,0.3-0.22,0.4-0.53c0.11,0.33,0.3,0.46,0.3,0.46
						s0.07-0.15,0.19-0.35c0.12-0.2,0.11-0.65,0.11-0.65s0.47-0.13,0.6-0.23c0.19-0.15,0.51-0.64,0.51-0.85
						c0.06,0.21,0.11,0.3,0.33,0.44c0.08-0.13,0.13-0.41,0.12-0.58c-0.02-0.2-0.06-0.46-0.06-0.46s0.19,0.12,0.31,0.14
						c0.2,0.03,0.37-0.07,0.37-0.07s-0.21-0.16-0.27-0.31c-0.07-0.16-0.1-0.46-0.1-0.46s0.18-0.02,0.32-0.23s0.04-0.46,0.04-0.46
						s0.18,0.12,0.35,0.15c0.29,0.06,0.5-0.05,0.5-0.05s-0.27-0.22-0.34-0.63c-0.07-0.41-0.14-0.51-0.14-0.51s0.12-0.1,0.22-0.21
						c0.13-0.14,0.29-0.37,0.19-0.63c-0.13-0.32-0.22-0.42-0.22-0.42s0.23-0.02,0.33-0.05c0.13-0.04,0.28-0.2,0.28-0.2
						S221.63,186.6,221.62,186.25z"/>
					<path class="st12" d="M220.48,184.29c-0.01-0.31-0.13-0.61-0.13-0.61l0.34,0.12c0,0,0-0.34-0.08-0.5
						c-0.11-0.23-0.31-0.26-0.31-0.26s0.37-0.24,0.5-0.52c-0.19-0.17-0.38-0.16-0.47-0.17c0-0.1,0-0.21-0.01-0.3
						c-0.03-0.33-0.08-0.51-0.22-0.74c0.31,0.13,0.52,0.09,0.52,0.09s-0.22-0.22-0.34-0.38c-0.12-0.17-0.22-0.39-0.22-0.39
						s0.22-0.04,0.34-0.16c0,0,0.01-0.01,0.01-0.01c0.13-0.15,0.19-0.38,0.19-0.38s-0.13,0.09-0.36,0.07
						c-0.07,0-0.16-0.02-0.24-0.05c-0.11-0.03-0.19-0.06-0.19-0.06s-0.07-0.35,0.19-0.54c-0.22-0.13-0.58-0.15-0.58-0.15
						s0.08-0.09,0.14-0.18c-0.13-0.14-0.25-0.2-0.25-0.2l0.37-0.15c0,0-0.07-0.25-0.39-0.31c-0.31-0.05-0.6,0.03-0.6,0.03
						s-0.29-0.52-0.11-0.78c-0.36-0.01-0.76,0.18-0.76,0.18s0.09-0.42-0.11-0.85c-0.1,0.12-0.57,0.38-0.57,0.38
						s-0.04-0.09-0.11-0.23c-0.1-0.21-0.1-0.38-0.03-0.67c-0.26-0.02-0.62,0.14-0.83,0.38c-0.08-0.21-0.18-0.65-0.18-0.65
						c-0.24,0-0.7,0.32-0.7,0.42c0,0-0.13-0.31-0.3-0.37c-0.27-0.1-0.46,0.08-0.46,0.08s-0.13-0.11-0.21-0.3
						c-0.1-0.25-0.06-0.43-0.06-0.43s-0.39,0.19-0.46,0.56c-0.4-0.05-0.68,0.07-0.84,0.21c-0.03-0.14-0.07-0.28-0.12-0.38
						c-0.16-0.27-0.38-0.39-0.38-0.39s0.04,0.18-0.06,0.43c-0.08,0.19-0.21,0.3-0.21,0.3s-0.19-0.19-0.46-0.08
						c-0.17,0.06-0.3,0.37-0.3,0.37c0-0.1-0.46-0.42-0.7-0.42c0,0-0.1,0.44-0.18,0.65c-0.21-0.24-0.57-0.4-0.83-0.38
						c0.07,0.29,0.07,0.46-0.03,0.67c-0.06,0.14-0.11,0.23-0.11,0.23s-0.47-0.26-0.57-0.38c-0.2,0.44-0.11,0.85-0.11,0.85
						s-0.28-0.05-0.47-0.05c-0.19,0-0.53,0.02-0.53,0.02s0.09,0.16,0.11,0.4c0.01,0.12-0.06,0.39-0.06,0.39s-0.25-0.05-0.47-0.02
						c-0.22,0.03-0.43,0.11-0.43,0.11s0.04,0.16,0.08,0.26c0.04,0.11,0.19,0.27,0.19,0.27s-0.31,0.22-0.47,0.5
						c-0.13,0.24-0.18,0.51-0.18,0.51s-0.3,0.1-0.49,0.17c-0.19,0.08-0.49,0.06-0.49,0.06s0.13,0.15,0.24,0.25
						c0.07,0.06,0.35,0.09,0.35,0.09s-0.25,0.12-0.41,0.44c-0.1,0.21-0.07,0.63-0.07,0.63s-0.27,0.1-0.44,0.11
						c-0.23,0.01-0.36-0.07-0.36-0.07s0.06,0.23,0.19,0.38c0.12,0.14,0.36,0.18,0.36,0.18s-0.1,0.22-0.22,0.39
						c-0.12,0.17-0.34,0.38-0.34,0.38s0.21,0.04,0.52-0.09c-0.14,0.23-0.2,0.41-0.22,0.74c-0.01,0.1-0.01,0.2-0.01,0.3
						c-0.08,0.01-0.28,0.01-0.47,0.17c0.12,0.28,0.5,0.52,0.5,0.52s-0.19,0.03-0.31,0.26c-0.08,0.16-0.08,0.5-0.08,0.5l0.34-0.12
						c0,0-0.12,0.3-0.13,0.61c-0.01,0.35-0.32,0.5-0.32,0.5s0.15,0.16,0.28,0.2c0.11,0.04,0.33,0.05,0.33,0.05s-0.09,0.1-0.22,0.42
						c-0.1,0.25,0.06,0.48,0.19,0.63c0.1,0.11,0.22,0.21,0.22,0.21s-0.15,0.71-0.17,0.91c-0.01,0.08,0,0.18,0.02,0.29
						c0.02,0.12,0.05,0.23,0.1,0.3c0.21-0.13,0.33-0.43,0.33-0.44c0,0.01,0.19,0.47,0.29,0.61c0.04,0.06,0.09,0.11,0.13,0.16
						c0.03,0.03,0.06,0.06,0.09,0.08c0.12,0.1,0.6,0.23,0.6,0.23s-0.02,0.45,0.11,0.65c0.12,0.2,0.19,0.35,0.19,0.35
						s0.18-0.13,0.3-0.46c0.1,0.31,0.23,0.42,0.4,0.53c0.2,0.13,0.55,0.06,0.55,0.06s0.02,0.31,0.46,0.38
						c0.19,0.03,0.4-0.11,0.4-0.11s0.06,0.3,0.35,0.37c0.35,0.08,0.51-0.11,0.51-0.11s0.13,0.25,0.33,0.41
						c0.13-0.11,0.19-0.3,0.19-0.3s0.16,0.29,0.55,0.3c0.15,0,0.35-0.03,0.46-0.05c0.09,0.15,0.26,0.35,0.26,0.35
						s0.26-0.22,0.38-0.44c0.21,0.06,0.56,0.14,0.71,0.14c0.39-0.01,0.55-0.3,0.55-0.3s0.06,0.19,0.19,0.3
						c0.2-0.16,0.33-0.41,0.33-0.41s0.16,0.19,0.51,0.11c0.29-0.07,0.35-0.37,0.35-0.37s0.21,0.14,0.4,0.11
						c0.44-0.07,0.46-0.38,0.46-0.38s0.35,0.07,0.55-0.06c0.17-0.11,0.3-0.22,0.4-0.53c0.11,0.33,0.3,0.46,0.3,0.46
						s0.07-0.15,0.19-0.35c0.12-0.2,0.11-0.65,0.11-0.65s0.47-0.13,0.6-0.23c0.19-0.15,0.51-0.64,0.51-0.85
						c0.06,0.21,0.11,0.3,0.33,0.44c0.08-0.13,0.13-0.41,0.12-0.58c-0.02-0.2-0.06-0.46-0.06-0.46s0.19,0.12,0.31,0.14
						c0.2,0.03,0.37-0.07,0.37-0.07s-0.21-0.16-0.27-0.31c-0.07-0.16-0.1-0.46-0.1-0.46s0.18-0.02,0.32-0.23
						c0.14-0.21,0.04-0.46,0.04-0.46s0.18,0.12,0.35,0.15c0.29,0.06,0.5-0.05,0.5-0.05s-0.27-0.22-0.34-0.63
						c-0.07-0.41-0.14-0.51-0.14-0.51s0.12-0.1,0.22-0.21c0.13-0.14,0.29-0.37,0.19-0.63c-0.13-0.32-0.22-0.42-0.22-0.42
						s0.23-0.02,0.33-0.05c0.13-0.04,0.28-0.2,0.28-0.2S220.49,184.64,220.48,184.29z"/>
					<path class="st13" d="M217.62,184.12c0,0-0.15-0.3-0.39-0.48c0.05-0.15,0.47-0.17,0.47-0.17s-0.11-0.15-0.24-0.2
						c-0.12-0.06-0.33-0.04-0.33-0.04s0.1-0.34,0.08-0.56c-0.02-0.22-0.07-0.41-0.16-0.56c0.09,0.01,0.38,0.05,0.38,0.05
						s-0.12-0.26-0.23-0.36c-0.1-0.1-0.34-0.24-0.34-0.24s0.08-0.36-0.01-0.69c-0.09-0.33-0.24-0.49-0.45-0.62
						c0.07-0.07,0.46-0.1,0.46-0.1s-0.32-0.28-0.54-0.34c-0.23-0.06-0.43-0.06-0.43-0.06s0.02-0.27-0.14-0.47
						c-0.16-0.19-0.29-0.22-0.45-0.29c0.21-0.11,0.28-0.39,0.28-0.39s-0.32,0.07-0.55,0.04c-0.26-0.03-0.45-0.12-0.45-0.12
						s-0.2-0.57-0.87-0.51c0.2-0.18,0.09-0.57,0.09-0.57s-0.38,0.26-0.76,0.39c0.05-0.22,0-0.56,0-0.56s-0.07,0.08-0.42,0.3
						c-0.06,0.04-0.12,0.08-0.17,0.12c-0.04-0.05-0.08-0.1-0.12-0.15c-0.3-0.3-0.35-0.4-0.35-0.4s-0.12,0.31-0.12,0.54
						c-0.34-0.22-0.65-0.57-0.65-0.57s-0.18,0.35-0.03,0.58c-0.64-0.23-0.96,0.27-0.96,0.27s-0.2,0.03-0.46,0
						c-0.24-0.03-0.53-0.19-0.53-0.19s0,0.29,0.19,0.45c-0.17,0.03-0.3,0.01-0.5,0.16c-0.19,0.15-0.24,0.42-0.24,0.42
						s-0.2-0.05-0.43-0.06c-0.23,0-0.6,0.19-0.6,0.19s0.37,0.13,0.43,0.22c-0.23,0.07-0.41,0.19-0.57,0.49
						c-0.16,0.3-0.16,0.67-0.16,0.67s-0.26,0.07-0.38,0.14c-0.12,0.07-0.3,0.29-0.3,0.29s0.29,0.03,0.38,0.05
						c-0.12,0.12-0.21,0.3-0.28,0.5c-0.07,0.2-0.04,0.56-0.04,0.56s-0.19-0.07-0.33-0.05c-0.13,0.02-0.28,0.14-0.28,0.14
						s0.4,0.12,0.42,0.28c-0.28,0.11-0.48,0.36-0.48,0.36s0.13,0.48,0.38,0.58c-0.11,0.16-0.4,0.33-0.4,0.33s0.16,0.18,0.29,0.18
						c0.06,0,0.1-0.02,0.13-0.03c-0.05,0.06-0.14,0.19-0.13,0.38c0.01,0.26,0.04,0.54,0.04,0.54l0.25-0.18c0,0-0.12,0.26-0.08,0.65
						c0.03,0.27,0.24,0.51,0.34,0.55c-0.09,0.18-0.53,0.05-0.53,0.05s0.12,0.21,0.34,0.29s0.3,0.08,0.3,0.08s-0.02,0.18,0,0.42
						c0.02,0.24,0.15,0.36,0.15,0.36l0.13-0.24c0,0-0.01,0.51,0.04,0.88c0.29,0.21,0.61,0.04,0.61,0.04s0.06,0.5-0.22,0.57
						c0.33,0.23,0.59-0.07,0.59-0.07s-0.02,0.32,0.11,0.47s0.35,0.22,0.35,0.22l0.02-0.31c0,0,0.2,0.3,0.42,0.41
						c0.22,0.1,0.45,0.1,0.45,0.1s0.22,0.43,0.04,0.64c0.11,0.06,0.26,0.05,0.36-0.13c0.07-0.12,0.1-0.27,0.1-0.27
						s0.01,0.27,0.13,0.39c0.12,0.13,0.34,0.18,0.34,0.18s-0.12-0.27-0.08-0.36c0.04-0.08,0.18-0.07,0.27,0.01
						c0.1,0.08,0.16,0.35,0.16,0.35s0.12-0.12,0.22-0.26c0.07,0.16,0.15,0.3,0.15,0.3s0.11-0.24,0.23-0.3
						c0.11-0.06,0.25-0.03,0.27,0.06c0.02,0.09-0.16,0.32-0.16,0.32s0.23,0,0.37-0.09c0.14-0.09,0.21-0.35,0.21-0.35
						s0,0.15,0.04,0.28c0.06,0.2,0.21,0.26,0.33,0.22c-0.13-0.25,0.17-0.61,0.17-0.61s0.22,0.06,0.46,0.02
						c0.24-0.04,0.5-0.28,0.5-0.28l-0.05,0.31c0,0,0.23-0.01,0.39-0.12c0.16-0.11,0.21-0.43,0.21-0.43s0.19,0.36,0.55,0.22
						c-0.25-0.15-0.09-0.61-0.09-0.61s0.28,0.24,0.61,0.12c0.12-0.35,0.22-0.84,0.22-0.84l0.07,0.26c0,0,0.15-0.08,0.22-0.31
						c0.07-0.23,0.09-0.41,0.09-0.41s0.08,0.02,0.31,0c0.23-0.02,0.39-0.19,0.39-0.19s-0.46,0.02-0.51-0.18
						c0.1-0.01,0.36-0.19,0.45-0.45c0.12-0.36,0.06-0.65,0.06-0.65l0.21,0.24c0,0,0.09-0.26,0.15-0.51
						c0.05-0.19-0.01-0.34-0.05-0.41c0.02,0.02,0.05,0.05,0.12,0.06c0.12,0.03,0.32-0.1,0.32-0.1s-0.24-0.24-0.32-0.42
						C217.39,184.56,217.62,184.12,217.62,184.12z"/>
					<path class="st14" d="M214.82,182.77c0,0-0.05-0.11-0.14-0.18c-0.09-0.07-0.26-0.13-0.26-0.13s0.09-0.19,0.08-0.33
						c-0.01-0.24-0.14-0.37-0.14-0.37s0.08-0.04,0.19-0.03c0.11,0.01,0.26,0.07,0.26,0.07s-0.09-0.15-0.19-0.25
						c-0.1-0.1-0.22-0.11-0.3-0.17c0.04-0.11,0.02-0.19-0.01-0.39c-0.01-0.11-0.23-0.32-0.23-0.32s0.1,0.05,0.21,0.08
						c0.1,0.02,0.21,0,0.21,0s-0.11-0.08-0.18-0.2c-0.08-0.13-0.23-0.18-0.23-0.18s0.15-0.06,0.19-0.13
						c0.07-0.11,0.07-0.26,0.07-0.26s-0.12,0.11-0.2,0.15c-0.12,0.05-0.2,0.03-0.32,0.01c0,0-0.01-0.19-0.15-0.33
						c-0.15-0.14-0.26-0.24-0.26-0.24s0.11-0.05,0.17-0.09c0.06-0.04,0.09-0.13,0.09-0.13s-0.14-0.05-0.27-0.07
						c-0.13-0.02-0.25,0.07-0.25,0.07s-0.02-0.16-0.19-0.28c-0.14-0.1-0.35-0.16-0.35-0.16s0.06-0.04,0.09-0.12
						c0.03-0.08,0.04-0.16,0.04-0.16s-0.21,0-0.35,0c-0.14,0-0.26,0.09-0.26,0.09s0-0.14-0.04-0.23c-0.06-0.13,0.04-0.24,0.04-0.24
						s-0.14,0-0.25,0.11c-0.1,0.1-0.17,0.22-0.17,0.22s0.01-0.09-0.07-0.21c-0.08-0.12-0.21-0.2-0.21-0.2
						c0.04,0.13-0.11,0.32-0.11,0.32s-0.16-0.24-0.32-0.29c-0.08,0.26-0.32,0.29-0.32,0.29s-0.15-0.19-0.11-0.32
						c0,0-0.13,0.08-0.21,0.2c-0.07,0.11-0.07,0.21-0.07,0.21s-0.07-0.12-0.17-0.22c-0.11-0.11-0.25-0.11-0.25-0.11
						s0.1,0.11,0.04,0.24c-0.04,0.09-0.04,0.23-0.04,0.23s-0.12-0.09-0.26-0.09c-0.14,0-0.35,0-0.35,0s0.01,0.08,0.04,0.16
						c0.03,0.08,0.09,0.12,0.09,0.12s-0.22,0.06-0.35,0.16c-0.18,0.12-0.19,0.28-0.19,0.28s-0.12-0.08-0.25-0.07
						c-0.13,0.02-0.27,0.07-0.27,0.07s0.03,0.09,0.09,0.13c0.06,0.04,0.17,0.09,0.17,0.09s-0.11,0.09-0.26,0.24
						c-0.15,0.14-0.15,0.33-0.15,0.33c-0.12,0.01-0.21,0.04-0.32-0.01c-0.08-0.04-0.2-0.15-0.2-0.15s0,0.15,0.07,0.26
						c0.04,0.06,0.19,0.13,0.19,0.13s-0.15,0.05-0.23,0.18c-0.08,0.12-0.18,0.2-0.18,0.2s0.11,0.02,0.21,0
						c0.12-0.03,0.21-0.08,0.21-0.08s-0.21,0.21-0.23,0.32c-0.02,0.19-0.05,0.27-0.01,0.39c-0.08,0.06-0.2,0.07-0.3,0.17
						c-0.1,0.1-0.19,0.25-0.19,0.25s0.15-0.05,0.26-0.07c0.11-0.01,0.19,0.03,0.19,0.03s-0.13,0.13-0.14,0.37
						c-0.01,0.14,0.08,0.33,0.08,0.33s-0.17,0.06-0.26,0.13c-0.09,0.07-0.14,0.18-0.14,0.18s0.13-0.05,0.22-0.04
						c0.1,0.01,0.21,0.04,0.21,0.04s-0.12,0.16-0.16,0.25c-0.04,0.09-0.08,0.24-0.08,0.24s0.09-0.02,0.16-0.05
						c0.07-0.02,0.14-0.08,0.14-0.08s0.11,0.41,0.19,0.52c-0.06,0.15-0.33,0.14-0.33,0.14s0.05,0.12,0.14,0.18
						c0.12,0.08,0.31,0.01,0.31,0.01s-0.11,0.11-0.15,0.25c-0.02,0.1-0.02,0.2-0.02,0.2s0.09-0.1,0.15-0.14
						c0.08-0.05,0.22-0.05,0.22-0.05s0,0.17,0.08,0.3c0.06,0.09,0.24,0.17,0.24,0.17s0.03,0.18-0.02,0.29
						c-0.06,0.11-0.19,0.15-0.19,0.15s0.17,0.03,0.28-0.03c0.11-0.06,0.16-0.12,0.16-0.12s-0.06,0.24,0,0.37
						c0.06,0.13,0.14,0.18,0.14,0.18s-0.02-0.3,0.05-0.33c0.17,0.35,0.55,0.29,0.55,0.29s0.12,0.15,0.08,0.25
						c-0.04,0.1-0.12,0.15-0.12,0.15s0.21,0.04,0.29-0.05c0.08-0.08,0.1-0.2,0.1-0.2s0.11,0.16,0.21,0.26
						c0.11,0.11,0.09,0.27,0.09,0.27s0.08-0.06,0.1-0.14c0.01-0.1-0.05-0.26-0.05-0.26s0.12,0.15,0.36,0.16c0.03,0,0.06,0,0.09-0.01
						c0.01,0.05,0.02,0.09,0.03,0.14c0.02,0.09,0.24,0.21,0.24,0.21s-0.08-0.11-0.03-0.23c0.02-0.04,0.06-0.08,0.11-0.11
						c0.05,0.03,0.09,0.07,0.11,0.11c0.05,0.12-0.03,0.23-0.03,0.23s0.22-0.12,0.24-0.21c0.01-0.04,0.02-0.09,0.03-0.14
						c0.03,0,0.06,0.01,0.09,0.01c0.24-0.01,0.36-0.16,0.36-0.16s-0.06,0.16-0.05,0.26c0.01,0.09,0.1,0.14,0.1,0.14
						s-0.02-0.15,0.09-0.27c0.1-0.1,0.21-0.26,0.21-0.26s0.02,0.12,0.1,0.2c0.08,0.08,0.29,0.05,0.29,0.05s-0.08-0.05-0.12-0.15
						c-0.04-0.1,0.08-0.25,0.08-0.25s0.39,0.06,0.55-0.29c0.07,0.03,0.05,0.33,0.05,0.33s0.08-0.05,0.14-0.18
						c0.06-0.13,0-0.37,0-0.37s0.05,0.06,0.16,0.12c0.11,0.06,0.28,0.03,0.28,0.03s-0.14-0.05-0.19-0.15
						c-0.06-0.11-0.02-0.29-0.02-0.29s0.19-0.07,0.24-0.17c0.07-0.13,0.08-0.3,0.08-0.3s0.14,0,0.22,0.05
						c0.06,0.04,0.15,0.14,0.15,0.14s0.01-0.1-0.02-0.2c-0.03-0.14-0.15-0.25-0.15-0.25s0.19,0.07,0.31-0.01
						c0.09-0.06,0.14-0.18,0.14-0.18s-0.27,0.01-0.33-0.14c0.08-0.11,0.19-0.52,0.19-0.52s0.07,0.06,0.14,0.08
						c0.07,0.02,0.16,0.05,0.16,0.05s-0.03-0.14-0.08-0.24c-0.04-0.09-0.16-0.25-0.16-0.25s0.11-0.04,0.21-0.04
						C214.7,182.72,214.82,182.77,214.82,182.77z"/>
					<g>
						<path class="st12" d="M207.82,179.82c0,0,0.23,0.12,0.52,0.25c0.29,0.12,0.72,0.27,0.72,0.27s-0.17-0.37-0.52-0.52
							C208.2,179.68,207.82,179.82,207.82,179.82z"/>
						<path class="st12" d="M211.49,183.52c0,0-0.2,0.17-0.42,0.42c-0.23,0.24-0.53,0.61-0.53,0.61s0.38-0.02,0.65-0.3
							C211.45,183.97,211.49,183.52,211.49,183.52z"/>
						<path class="st12" d="M213.99,187.61c0,0-0.2,0.17-0.42,0.42c-0.23,0.24-0.53,0.61-0.53,0.61s0.38-0.02,0.65-0.3
							C213.95,188.05,213.99,187.61,213.99,187.61z"/>
						<path class="st12" d="M210.88,187.91c0,0-0.2,0.17-0.42,0.42c-0.23,0.24-0.53,0.61-0.53,0.61s0.38-0.02,0.65-0.3
							C210.84,188.35,210.88,187.91,210.88,187.91z"/>
						<path class="st12" d="M208.66,183.61c0,0-0.42,0.07-0.74-0.14c-0.31-0.21-0.31-0.21-0.31-0.21s0.21-0.16,0.43-0.53
							c0.22-0.36,0.54-0.4,0.54-0.4s-0.39,0.58-0.54,0.82C208.33,183.33,208.53,183.39,208.66,183.61z"/>
						<path class="st12" d="M207.75,185.43c0,0-0.42,0.07-0.74-0.14c-0.31-0.21-0.31-0.21-0.31-0.21s0.21-0.16,0.43-0.53
							c0.22-0.36,0.54-0.4,0.54-0.4s-0.39,0.58-0.54,0.82C207.42,185.15,207.62,185.2,207.75,185.43z"/>
						<path class="st12" d="M209.84,181.94c0,0-0.34-0.28-0.43-0.67c-0.08-0.39-0.08-0.39-0.08-0.39s0.25,0.05,0.64-0.03
							c0.39-0.08,0.64,0.15,0.64,0.15s-0.65,0.1-0.91,0.15C209.79,181.49,209.89,181.68,209.84,181.94z"/>
						<path class="st12" d="M207.5,181.24c0,0,0.47,0.23,0.71,0.22c0.24-0.01,0.56-0.2,0.56-0.2s-0.29-0.34-0.58-0.27
							C207.9,181.07,207.5,181.24,207.5,181.24z"/>
						<path class="st12" d="M206.34,183.64c0,0,0.47,0.23,0.71,0.22c0.24-0.01,0.56-0.2,0.56-0.2s-0.29-0.34-0.58-0.27
							C206.74,183.47,206.34,183.64,206.34,183.64z"/>
						<path class="st12" d="M209.59,179.19c0,0,0.29,0.37,0.35,0.58c0.06,0.22,0,0.56,0,0.56s-0.33-0.17-0.35-0.45
							C209.57,179.6,209.59,179.19,209.59,179.19z"/>
						<path class="st12" d="M214.78,187.13c0,0,0.29,0.37,0.35,0.58c0.06,0.22,0,0.56,0,0.56s-0.33-0.17-0.35-0.45
							C214.76,187.53,214.78,187.13,214.78,187.13z"/>
						<path class="st12" d="M210.02,184.23c0,0,0.29,0.37,0.35,0.58c0.06,0.22,0,0.56,0,0.56s-0.33-0.17-0.35-0.45
							C210,184.64,210.02,184.23,210.02,184.23z"/>
						<path class="st12" d="M212.56,186.44c0,0,0.29,0.37,0.35,0.58c0.06,0.22,0,0.56,0,0.56s-0.33-0.17-0.35-0.45
							C212.54,186.85,212.56,186.44,212.56,186.44z"/>
						<path class="st12" d="M209.27,186.26c0,0,0.29,0.37,0.35,0.58c0.06,0.22,0,0.56,0,0.56s-0.33-0.17-0.35-0.45
							C209.25,186.67,209.27,186.26,209.27,186.26z"/>
						<path class="st12" d="M212.49,182.01c0,0,0.23,0.12,0.52,0.25c0.29,0.12,0.72,0.27,0.72,0.27s-0.17-0.37-0.52-0.52
							C212.88,181.86,212.49,182.01,212.49,182.01z"/>
						<path class="st12" d="M210.72,186.92c0,0,0.23,0.12,0.52,0.25c0.29,0.12,0.72,0.27,0.72,0.27s-0.17-0.37-0.52-0.52
							C211.1,186.77,210.72,186.92,210.72,186.92z"/>
						<path class="st12" d="M215.37,181.23c0,0,0.23,0.12,0.52,0.25c0.29,0.12,0.72,0.27,0.72,0.27s-0.17-0.37-0.52-0.52
							C215.75,181.08,215.37,181.23,215.37,181.23z"/>
						<path class="st12" d="M213.87,181.61c0,0,0.14-0.45,0-0.82c-0.14-0.37-0.14-0.37-0.14-0.37s-0.18,0.2-0.54,0.37
							c-0.36,0.17-0.45,0.52-0.45,0.52s0.59-0.32,0.83-0.45C213.68,181.21,213.69,181.43,213.87,181.61z"/>
						<path class="st12" d="M211.34,185.1c0,0,0.17,0.44,0.49,0.62c0.33,0.18,0.33,0.18,0.33,0.18s0.02-0.28,0.18-0.67
							c0.17-0.39,0.03-0.72,0.03-0.72s-0.25,0.67-0.36,0.94C211.73,185.26,211.58,185.1,211.34,185.1z"/>
						<path class="st12" d="M214.32,186.38c0,0,0.31,0.32,0.68,0.34c0.37,0.02,0.37,0.02,0.37,0.02s-0.09-0.26-0.08-0.7
							c0.01-0.43-0.24-0.67-0.24-0.67s0.02,0.72,0.02,1.02C214.74,186.35,214.54,186.28,214.32,186.38z"/>
						<path class="st12" d="M211.31,188.1c0,0-0.05,0.47,0.16,0.8c0.2,0.33,0.2,0.33,0.2,0.33s0.14-0.24,0.46-0.49
							c0.32-0.25,0.34-0.62,0.34-0.62s-0.51,0.45-0.72,0.63C211.58,188.44,211.52,188.22,211.31,188.1z"/>
						<path class="st11" d="M212.5,190.66c0,0-0.2,0.17-0.42,0.42c-0.23,0.24-0.53,0.61-0.53,0.61s0.38-0.02,0.65-0.3
							C212.46,191.1,212.5,190.66,212.5,190.66z"/>
						<path class="st15" d="M213.28,193.01c0,0-0.2,0.17-0.42,0.42c-0.23,0.24-0.53,0.61-0.53,0.61s0.38-0.02,0.65-0.3
							C213.24,193.46,213.28,193.01,213.28,193.01z"/>
						<path class="st15" d="M220.56,188.48c0,0-0.2,0.17-0.42,0.42c-0.23,0.24-0.53,0.61-0.53,0.61s0.38-0.02,0.65-0.3
							C220.52,188.92,220.56,188.48,220.56,188.48z"/>
						<path class="st15" d="M221.57,184.04c0,0-0.2,0.17-0.42,0.42c-0.23,0.24-0.53,0.61-0.53,0.61s0.38-0.02,0.65-0.3
							C221.54,184.48,221.57,184.04,221.57,184.04z"/>
						<path class="st15" d="M210.62,192.8c0,0-0.25,0.02-0.56,0.08c-0.31,0.06-0.75,0.17-0.75,0.17s0.32,0.23,0.68,0.16
							C210.36,193.15,210.62,192.8,210.62,192.8z"/>
						<path class="st15" d="M221.1,187.7c0,0-0.25,0.02-0.56,0.08c-0.31,0.06-0.75,0.17-0.75,0.17s0.32,0.23,0.68,0.16
							C220.83,188.04,221.1,187.7,221.1,187.7z"/>
						<path class="st11" d="M211.07,189.49c0,0,0.29,0.37,0.35,0.58c0.06,0.22,0,0.56,0,0.56s-0.33-0.17-0.35-0.45
							C211.05,189.9,211.07,189.49,211.07,189.49z"/>
						<path class="st15" d="M213.64,192.77c0,0,0.29,0.37,0.35,0.58c0.06,0.22,0,0.56,0,0.56s-0.33-0.17-0.35-0.45
							C213.62,193.18,213.64,192.77,213.64,192.77z"/>
						<path class="st15" d="M217.46,191.33c0,0,0.29,0.37,0.35,0.58c0.06,0.22,0,0.56,0,0.56s-0.33-0.17-0.35-0.45
							C217.44,191.74,217.46,191.33,217.46,191.33z"/>
						<path class="st11" d="M215.8,189.84c0,0,0.41-0.2,0.61-0.19c0.2,0,0.49,0.17,0.49,0.17s-0.25,0.3-0.5,0.23
							C216.15,189.98,215.8,189.84,215.8,189.84z"/>
						<path class="st11" d="M214.78,189.15c0,0,0.29,0.37,0.35,0.58c0.06,0.22,0,0.56,0,0.56s-0.33-0.17-0.35-0.45
							C214.76,189.56,214.78,189.15,214.78,189.15z"/>
						<path class="st11" d="M219.85,184.24c0,0-0.15,0.46-0.29,0.62c-0.14,0.16-0.44,0.27-0.44,0.27s-0.03-0.4,0.19-0.56
							C219.51,184.42,219.85,184.24,219.85,184.24z"/>
						<path class="st11" d="M219.78,180.53c0,0-0.15,0.46-0.29,0.62c-0.14,0.16-0.44,0.27-0.44,0.27s-0.03-0.4,0.19-0.56
							C219.45,180.71,219.78,180.53,219.78,180.53z"/>
						<path class="st11" d="M209.23,189.97c0,0,0.23,0.12,0.52,0.25c0.29,0.12,0.72,0.27,0.72,0.27s-0.17-0.37-0.52-0.52
							C209.61,189.82,209.23,189.97,209.23,189.97z"/>
						<path class="st15" d="M215.73,192.4c0,0,0.23,0.12,0.52,0.25c0.29,0.12,0.72,0.27,0.72,0.27s-0.17-0.37-0.52-0.52
							C216.12,192.25,215.73,192.4,215.73,192.4z"/>
						<path class="st11" d="M212.89,189.97c0,0,0.23,0.12,0.52,0.25c0.29,0.12,0.72,0.27,0.72,0.27s-0.17-0.37-0.52-0.52
							C213.27,189.82,212.89,189.97,212.89,189.97z"/>
						<path class="st11" d="M209.82,191.14c0,0-0.05,0.47,0.16,0.8c0.2,0.33,0.2,0.33,0.2,0.33s0.14-0.24,0.46-0.49
							c0.32-0.25,0.34-0.62,0.34-0.62s-0.51,0.45-0.72,0.63C210.09,191.49,210.03,191.27,209.82,191.14z"/>
						<path class="st15" d="M211.03,192.78c0,0-0.05,0.47,0.16,0.8c0.2,0.33,0.2,0.33,0.2,0.33s0.14-0.24,0.46-0.49
							c0.32-0.25,0.34-0.62,0.34-0.62s-0.51,0.45-0.72,0.63C211.3,193.12,211.24,192.91,211.03,192.78z"/>
						<path class="st11" d="M217.65,186.02c0,0,0.41,0.16,0.75,0.01c0.34-0.14,0.34-0.14,0.34-0.14s-0.18-0.2-0.33-0.6
							c-0.15-0.4-0.47-0.51-0.47-0.51s0.29,0.65,0.39,0.92C218.01,185.81,217.81,185.83,217.65,186.02z"/>
						<path class="st11" d="M218.2,180.76c0,0,0.33-0.31,0.38-0.71c0.06-0.4,0.06-0.4,0.06-0.4s-0.25,0.07-0.64,0.01
							c-0.39-0.05-0.63,0.19-0.63,0.19s0.66,0.05,0.92,0.08C218.22,180.31,218.13,180.51,218.2,180.76z"/>
						<path class="st12" d="M211.94,177.83c0,0-0.34,0.42-0.41,0.67c-0.07,0.25,0,0.65,0,0.65s0.38-0.2,0.41-0.52
							C211.97,178.3,211.94,177.83,211.94,177.83z"/>
						<path class="st12" d="M213.72,177.82c0,0-0.33,0.41-0.4,0.66c-0.07,0.24,0,0.63,0,0.63s0.38-0.19,0.4-0.51
							C213.74,178.28,213.72,177.82,213.72,177.82z"/>
						<path class="st12" d="M212.8,179.94c0,0-0.08,0.48-0.2,0.66c-0.12,0.18-0.4,0.34-0.4,0.34s-0.08-0.4,0.11-0.58
							C212.5,180.18,212.8,179.94,212.8,179.94z"/>
						<path class="st12" d="M214.77,178.82c0,0-0.22,0.42-0.39,0.55c-0.17,0.13-0.48,0.18-0.48,0.18s0.04-0.4,0.28-0.51
							C214.41,178.93,214.77,178.82,214.77,178.82z"/>
						<path class="st12" d="M209.45,183.76c0,0-0.39,0.23-0.51,0.41c-0.12,0.18-0.18,0.53-0.18,0.53s0.37-0.04,0.47-0.29
							C209.34,184.15,209.45,183.76,209.45,183.76z"/>
						<path class="st12" d="M209,186.86c0,0-0.39,0.23-0.51,0.41c-0.12,0.18-0.18,0.53-0.18,0.53s0.37-0.04,0.47-0.29
							C208.89,187.25,209,186.86,209,186.86z"/>
						<path class="st12" d="M210.21,178.05c0,0,0.42,0.1,0.6,0.32c0.18,0.22,0.23,0.5,0.23,0.5s-0.47-0.22-0.6-0.39
							C210.31,178.32,210.21,178.05,210.21,178.05z"/>
						<path class="st12" d="M210.26,182.57c0,0-0.27,0.17-0.34,0.46c-0.07,0.29,0.01,0.76,0.01,0.72c0-0.04,0.21-0.24,0.27-0.56
							C210.26,182.87,210.26,182.57,210.26,182.57z"/>
						<path class="st12" d="M213.88,185.47c0,0-0.27,0.17-0.34,0.46c-0.07,0.29,0.01,0.76,0.01,0.72c0-0.04,0.21-0.24,0.27-0.56
							S213.88,185.47,213.88,185.47z"/>
						<path class="st12" d="M208.31,185.67c0,0-0.27,0.17-0.34,0.46c-0.07,0.29,0.01,0.76,0.01,0.72c0-0.04,0.21-0.24,0.27-0.56
							S208.31,185.67,208.31,185.67z"/>
						<path class="st12" d="M209.82,182.23c0,0-0.37-0.17-0.6,0c-0.23,0.17-0.46,0.34-0.46,0.34s0.19,0.02,0.46,0
							C209.49,182.55,209.82,182.23,209.82,182.23z"/>
						<path class="st12" d="M210.11,187.77c0,0-0.37-0.17-0.6,0c-0.23,0.17-0.46,0.34-0.46,0.34s0.19,0.02,0.46,0
							C209.78,188.09,210.11,187.77,210.11,187.77z"/>
						<path class="st11" d="M213.28,191.15c0,0-0.33,0.26-0.31,0.56c0.01,0.3,0.02,0.61,0.02,0.61s0.11-0.17,0.24-0.43
							C213.36,191.62,213.28,191.15,213.28,191.15z"/>
						<path class="st15" d="M218.55,190.3c0,0-0.33,0.26-0.31,0.56c0.01,0.3,0.02,0.61,0.02,0.61s0.11-0.17,0.24-0.43
							C218.63,190.78,218.55,190.3,218.55,190.3z"/>
						<path class="st15" d="M220.7,185.65c0,0-0.19,0.39-0.06,0.66c0.13,0.26,0.26,0.53,0.26,0.53s0.03-0.2,0.04-0.5
							C220.96,186.04,220.7,185.65,220.7,185.65z"/>
						<path class="st11" d="M207.74,188.42c0,0,0.29,0.37,0.35,0.58c0.06,0.22,0,0.56,0,0.56s-0.33-0.17-0.35-0.45
							C207.72,188.83,207.74,188.42,207.74,188.42z"/>
						<path class="st11" d="M205.51,186.91c0,0,0.4-0.22,0.6-0.23c0.2-0.01,0.49,0.14,0.49,0.14s-0.24,0.31-0.49,0.26
							C205.87,187.03,205.51,186.91,205.51,186.91z"/>
						<path class="st11" d="M207.47,189.01c0,0-0.39,0.23-0.51,0.41c-0.12,0.18-0.18,0.53-0.18,0.53s0.37-0.04,0.47-0.29
							C207.36,189.4,207.47,189.01,207.47,189.01z"/>
						<path class="st11" d="M206.78,187.83c0,0-0.27,0.17-0.34,0.46c-0.07,0.29,0.01,0.76,0.01,0.72c0-0.04,0.21-0.24,0.27-0.56
							C206.78,188.13,206.78,187.83,206.78,187.83z"/>
						<path class="st11" d="M206.06,184.85c0,0-0.27,0.17-0.34,0.46c-0.07,0.29,0.01,0.76,0.01,0.72s0.21-0.24,0.27-0.56
							C206.06,185.15,206.06,184.85,206.06,184.85z"/>
						<path class="st11" d="M208.58,189.93c0,0-0.37-0.17-0.6,0s-0.46,0.34-0.46,0.34s0.19,0.02,0.46,0
							C208.25,190.25,208.58,189.93,208.58,189.93z"/>
						<path class="st12" d="M211.95,179.31c-0.04,0.01-0.31,0.25-0.38,0.52c-0.07,0.27-0.07,0.52-0.07,0.52s0.3-0.27,0.38-0.47
							C211.96,179.68,211.95,179.31,211.95,179.31z"/>
						<path class="st12" d="M210.49,179.89c0,0,0.16,0.45,0.32,0.56c0.16,0.11,0.43,0.37,0.43,0.37s0.01-0.17-0.2-0.49
							C210.83,180,210.49,179.89,210.49,179.89z"/>
						<path class="st12" d="M210.75,181.85c0,0-0.05,0.44,0.18,0.61c0.23,0.17,0.62,0.37,0.62,0.37s-0.07-0.43-0.32-0.59
							C210.99,182.07,210.75,181.85,210.75,181.85z"/>
						<path class="st12" d="M211.04,181.57c0,0,0.37-0.24,0.64-0.19c0.27,0.04,0.5,0.08,0.5,0.08s-0.33,0.35-0.57,0.32
							C211.37,181.73,211.04,181.57,211.04,181.57z"/>
						<path class="st12" d="M214.4,184.75c0,0,0.37-0.24,0.64-0.19c0.27,0.04,0.5,0.08,0.5,0.08s-0.33,0.35-0.57,0.32
							C214.73,184.91,214.4,184.75,214.4,184.75z"/>
						<path class="st12" d="M214.97,180.45c0,0,0.37-0.24,0.64-0.19c0.27,0.04,0.5,0.08,0.5,0.08s-0.33,0.35-0.57,0.32
							C215.3,180.61,214.97,180.45,214.97,180.45z"/>
						<path class="st11" d="M217.44,181.84c0,0,0.37-0.24,0.64-0.19c0.27,0.04,0.5,0.08,0.5,0.08s-0.33,0.35-0.57,0.32
							C217.77,182,217.44,181.84,217.44,181.84z"/>
						<path class="st11" d="M215.37,177.83c0,0,0.37-0.24,0.64-0.19c0.27,0.04,0.5,0.08,0.5,0.08s-0.33,0.35-0.57,0.32
							C215.7,177.99,215.37,177.83,215.37,177.83z"/>
						<path class="st12" d="M212.68,182.47c0,0-0.23,0.46-0.16,0.74c0.07,0.29,0.21,0.57,0.21,0.57s0.13-0.26,0.09-0.61
							C212.78,182.83,212.68,182.47,212.68,182.47z"/>
						<path class="st12" d="M216.22,184.71c0,0-0.23,0.46-0.16,0.74c0.07,0.29,0.21,0.57,0.21,0.57s0.13-0.26,0.09-0.61
							C216.31,185.07,216.22,184.71,216.22,184.71z"/>
						<path class="st11" d="M217.26,189.43c0,0,0.29,0.37,0.35,0.58c0.06,0.22,0,0.56,0,0.56s-0.33-0.17-0.35-0.45
							C217.24,189.84,217.26,189.43,217.26,189.43z"/>
						<path class="st15" d="M219.23,190.06c0,0,0.29,0.37,0.35,0.58c0.06,0.22,0,0.56,0,0.56s-0.33-0.17-0.35-0.45
							C219.21,190.47,219.23,190.06,219.23,190.06z"/>
						<path class="st11" d="M214,190.74c0,0,0.29,0.37,0.35,0.58c0.06,0.22,0,0.56,0,0.56s-0.33-0.17-0.35-0.45
							C213.98,191.15,214,190.74,214,190.74z"/>
						<path class="st11" d="M216.8,188.69c0,0,0.31,0.32,0.68,0.34c0.37,0.02,0.37,0.02,0.37,0.02s-0.09-0.26-0.08-0.7
							c0.01-0.43-0.24-0.67-0.24-0.67s0.02,0.72,0.02,1.02C217.21,188.66,217.02,188.58,216.8,188.69z"/>
						<path class="st11" d="M216.36,187.78c0,0-0.27,0.17-0.34,0.46c-0.07,0.29,0.01,0.76,0.01,0.72c0-0.04,0.21-0.24,0.27-0.56
							C216.36,188.07,216.36,187.78,216.36,187.78z"/>
						<path class="st11" d="M217.09,178.23c0,0-0.27,0.17-0.34,0.46c-0.07,0.29,0.01,0.76,0.01,0.72c0-0.04,0.21-0.24,0.27-0.56
							C217.09,178.53,217.09,178.23,217.09,178.23z"/>
						<path class="st11" d="M215.78,190.29c0,0-0.27,0.17-0.34,0.46c-0.07,0.29,0.01,0.76,0.01,0.72c0-0.04,0.21-0.24,0.27-0.56
							C215.78,190.59,215.78,190.29,215.78,190.29z"/>
						<path class="st11" d="M209.18,190.55c0,0-0.27,0.17-0.34,0.46c-0.07,0.29,0.01,0.76,0.01,0.72c0-0.04,0.21-0.24,0.27-0.56
							S209.18,190.55,209.18,190.55z"/>
						<path class="st15" d="M215.03,192.63c0,0-0.27,0.17-0.34,0.46c-0.07,0.29,0.01,0.76,0.01,0.72c0-0.04,0.21-0.24,0.27-0.56
							C215.03,192.93,215.03,192.63,215.03,192.63z"/>
						<path class="st15" d="M208.45,191.89c0,0-0.11,0.32,0.01,0.59c0.11,0.27,0.45,0.58,0.43,0.55c-0.02-0.03,0.03-0.33-0.12-0.62
							S208.45,191.89,208.45,191.89z"/>
						<path class="st11" d="M216.87,187.05c0,0,0.37-0.24,0.64-0.19c0.27,0.04,0.5,0.08,0.5,0.08s-0.33,0.35-0.57,0.32
							C217.21,187.21,216.87,187.05,216.87,187.05z"/>
						<path class="st11" d="M218.85,186.26c0,0,0.37-0.24,0.64-0.19c0.27,0.04,0.5,0.08,0.5,0.08s-0.33,0.35-0.57,0.32
							C219.18,186.42,218.85,186.26,218.85,186.26z"/>
						<path class="st11" d="M218.11,184.03c0,0,0.37-0.24,0.64-0.19c0.27,0.04,0.5,0.08,0.5,0.08s-0.33,0.35-0.57,0.32
							C218.45,184.19,218.11,184.03,218.11,184.03z"/>
						<path class="st11" d="M214.47,178.04c0,0,0.01-0.47,0.19-0.7c0.18-0.23,0.32-0.43,0.32-0.43s0.1,0.5-0.06,0.7
							C214.77,177.82,214.47,178.04,214.47,178.04z"/>
						<path class="st11" d="M218.7,187.02c0,0-0.23,0.46-0.16,0.74c0.07,0.29,0.21,0.57,0.21,0.57s0.13-0.26,0.09-0.61
							C218.79,187.38,218.7,187.02,218.7,187.02z"/>
						<path class="st11" d="M218.76,182.23c0,0,0.24,0.45,0.5,0.52c0.26,0.08,0.55,0.08,0.55,0.08s-0.14-0.26-0.44-0.39
							C219.09,182.31,218.76,182.23,218.76,182.23z"/>
						<path class="st12" d="M215.14,182.07c0,0,0.25,0.45,0.51,0.52c0.26,0.07,0.55,0.07,0.55,0.07s-0.14-0.26-0.44-0.39
							C215.47,182.15,215.14,182.07,215.14,182.07z"/>
						<path class="st12" d="M212.8,184.04c0,0,0.28,0.31,0.53,0.37s0.49,0.1,0.49,0.1s-0.16-0.29-0.42-0.4
							C213.15,184,212.8,184.04,212.8,184.04z"/>
						<path class="st12" d="M215.6,183.77c0,0,0.4-0.01,0.61-0.16c0.22-0.16,0.41-0.32,0.41-0.32s-0.3-0.08-0.55,0.05
							S215.6,183.77,215.6,183.77z"/>
					</g>
				</g>
				<g>
					<path class="st16" d="M218.94,180.32c-0.18-0.43-0.55-0.19-0.78,0.11c0.03-0.52,0.11-1.27-0.64-1.08
						c-0.43,0.11-0.24,0.86-0.2,1.12c-0.4-0.13-0.73-0.25-0.93,0.25c-0.09,0.23,0.02,0.46,0.2,0.59c0.11,0.08,0.24,0.14,0.37,0.2
						c0.01,0.01,0.02,0.01,0.04,0.02c-0.28,0.21-0.34,0.59-0.29,0.85c0.15,0.71,1.03,0.38,1.17-0.2c0.19,0.33,0.55,0.75,0.81,0.52
						c0.33-0.29,0.25-0.9-0.16-1.2C218.84,181.22,219.19,180.92,218.94,180.32z"/>
					<path class="st17" d="M216.77,180.81c0,0,0.26,0.1,0.4,0.21c0.13,0.12,0.29,0.19,0.29,0.19v-0.1c0,0-0.1-0.17-0.29-0.25
						C216.98,180.78,216.77,180.81,216.77,180.81z"/>
					<path class="st17" d="M217.75,179.72c0.01,0,0.03,0.31,0.02,0.61c-0.01,0.31-0.02,0.43-0.02,0.43l0.13-0.13
						c0,0,0.04-0.23,0.01-0.51C217.86,179.84,217.75,179.72,217.75,179.72z"/>
					<path class="st17" d="M217.58,181.51c0,0-0.11,0.28-0.25,0.46c-0.14,0.18-0.32,0.44-0.32,0.44s0.3-0.18,0.44-0.34
						c0.14-0.16,0.2-0.49,0.2-0.49L217.58,181.51z"/>
					<path class="st17" d="M217.99,181.75c0,0,0.19,0.23,0.31,0.38c0.12,0.14,0.24,0.27,0.24,0.27s-0.17-0.42-0.3-0.57
						S217.99,181.75,217.99,181.75z"/>
					<path class="st6" d="M218.16,180.43c-0.2,0.04-0.59,0.19-0.71,0.46c-0.1,0.21-0.06,0.67,0.16,0.8
						c0.22,0.13,0.78,0.36,1.05,0.24c0.26-0.12,0.39-0.89,0.27-1.18C218.81,180.47,218.6,180.34,218.16,180.43z"/>
					<path class="st18" d="M218.6,180.53c-0.2-0.07-0.31,0.21-0.33,0.71c-0.02,0.5,0.25,0.63,0.39,0.56
						c0.11-0.05,0.25-0.52,0.24-0.82C218.89,180.68,218.76,180.58,218.6,180.53z"/>
				</g>
				<g>
					<path class="st16" d="M206.69,180.68c0.28-0.35,0.57-0.01,0.72,0.34c0.1-0.51,0.22-1.26,0.89-0.84c0.38,0.24,0.01,0.9-0.1,1.14
						c0.42-0.01,0.77-0.01,0.83,0.53c0.03,0.25-0.14,0.44-0.34,0.51c-0.13,0.05-0.27,0.05-0.4,0.07c-0.01,0-0.03,0-0.04,0.01
						c0.21,0.29,0.18,0.68,0.06,0.91c-0.33,0.64-1.08,0.05-1.07-0.56c-0.27,0.26-0.72,0.55-0.91,0.25c-0.24-0.38-0.01-0.95,0.46-1.1
						C206.56,181.57,206.29,181.17,206.69,180.68z"/>
					<path class="st17" d="M208.65,181.82c0,0-0.28,0.01-0.44,0.08c-0.16,0.07-0.32,0.09-0.32,0.09l0.03-0.1
						c0,0,0.14-0.13,0.34-0.15C208.45,181.72,208.65,181.82,208.65,181.82z"/>
					<path class="st17" d="M207.98,180.47c-0.01,0-0.11,0.29-0.18,0.58c-0.07,0.3-0.09,0.42-0.09,0.42l-0.09-0.17
						c0,0,0.02-0.24,0.12-0.49C207.85,180.55,207.98,180.47,207.98,180.47z"/>
					<path class="st17" d="M207.69,182.23c0,0,0.04,0.3,0.12,0.52c0.08,0.22,0.19,0.52,0.19,0.52s-0.24-0.27-0.33-0.46
						c-0.09-0.19-0.07-0.53-0.07-0.53L207.69,182.23z"/>
					<path class="st17" d="M207.23,182.34c0,0-0.24,0.17-0.39,0.27c-0.15,0.1-0.3,0.19-0.3,0.19s0.27-0.35,0.43-0.46
						C207.13,182.23,207.23,182.34,207.23,182.34z"/>
					<path class="st6" d="M207.41,181.02c0.18,0.1,0.52,0.37,0.56,0.66c0.04,0.24-0.12,0.66-0.36,0.72
						c-0.24,0.06-0.84,0.1-1.07-0.09c-0.22-0.19-0.14-0.97,0.04-1.21C206.78,180.86,207.01,180.8,207.41,181.02z"/>
					<path class="st18" d="M206.96,180.98c0.2,0,0.24,0.29,0.13,0.78c-0.11,0.49-0.4,0.53-0.52,0.42c-0.09-0.08-0.11-0.58-0.02-0.86
						C206.64,181.04,206.79,180.98,206.96,180.98z"/>
				</g>
				<g>
					<path class="st16" d="M213.4,177.45c-0.47-0.18-0.78,0.07-0.89,0.43c-0.11,0.36-0.14,0.7-0.14,0.7s-0.73-0.54-1.03-0.09
						c-0.31,0.45-0.12,0.72,0.22,0.85s0.57,0.14,0.57,0.14s-0.42,0.17-0.63,0.66c-0.2,0.49,0.47,0.98,0.83,0.61
						c0.35-0.37,0.45-0.77,0.45-0.77s0.04,0.65,0.28,0.89s0.84,0.12,0.9-0.44c0.03-0.28-0.4-0.67-0.4-0.67s0.76,0.03,0.97-0.32
						c0.25-0.4-0.11-0.97-0.59-0.9c-0.28,0.04-0.54,0.21-0.54,0.21s0.12-0.19,0.21-0.46C213.73,177.98,213.8,177.61,213.4,177.45z"
						/>
					<path class="st17" d="M211.53,178.75c0,0,0.26,0.2,0.47,0.17s0.18-0.08-0.01-0.14C211.8,178.72,211.53,178.75,211.53,178.75z"
						/>
					<path class="st17" d="M212.8,178.56c0-0.03,0.03-0.37,0.18-0.62c0.16-0.24,0.16-0.24,0.16-0.24s-0.07,0.26-0.16,0.46
						C212.9,178.36,212.8,178.56,212.8,178.56z"/>
					<path class="st17" d="M213.14,179.19c0,0,0.3-0.13,0.59-0.17c0.29-0.04,0.44,0.02,0.44,0.02s-0.3,0.11-0.52,0.15
						c-0.22,0.04-0.5,0.12-0.5,0.12L213.14,179.19z"/>
					<path class="st17" d="M212.41,179.55c0,0-0.19,0.13-0.31,0.34c-0.12,0.21-0.22,0.52-0.22,0.52s0.21-0.27,0.38-0.47
						c0.16-0.2,0.24-0.33,0.24-0.33L212.41,179.55z"/>
					<path class="st17" d="M212.83,179.6c0,0,0.15,0.21,0.31,0.46c0.16,0.24,0.37,0.4,0.37,0.4s-0.14-0.3-0.29-0.56
						c-0.16-0.27-0.24-0.39-0.24-0.39L212.83,179.6z"/>
					<path class="st6" d="M212.07,178.29c-0.31,0.3-0.45,0.95-0.19,1.19c0.25,0.24,0.77,0.34,0.93,0.28
						c0.16-0.06,0.54-0.31,0.46-0.8c-0.07-0.49-0.19-0.77-0.46-0.85C212.53,178.04,212.31,178.05,212.07,178.29z"/>
					<path class="st18" d="M212.49,178.2c-0.26,0.05-0.33,0.11-0.49,0.32c-0.16,0.22-0.22,0.52-0.13,0.72
						c0.1,0.2,0.61,0.29,0.86-0.06c0.25-0.34,0.32-0.7,0.16-0.82C212.73,178.24,212.62,178.18,212.49,178.2z"/>
				</g>
				<g>
					<path class="st16" d="M219.1,183.88c0.48,0.15,0.6,0.55,0.5,0.91c-0.1,0.37-0.25,0.66-0.25,0.66s0.88,0.01,0.89,0.58
						s-0.28,0.66-0.62,0.56c-0.35-0.1-0.54-0.25-0.54-0.25s0.26,0.4,0.17,0.93s-0.9,0.51-1-0.02c-0.1-0.52,0.03-0.91,0.03-0.91
						s-0.37,0.51-0.69,0.55c-0.32,0.04-0.75-0.43-0.5-0.93c0.12-0.25,0.68-0.29,0.68-0.29s-0.64-0.46-0.63-0.88
						c0.01-0.48,0.59-0.73,0.95-0.37c0.21,0.21,0.34,0.52,0.34,0.52s0-0.23,0.06-0.51C218.55,184.11,218.69,183.76,219.1,183.88z"/>
					<path class="st17" d="M219.95,186.12c0,0-0.31,0-0.47-0.16c-0.16-0.16-0.1-0.18,0.08-0.11
						C219.75,185.92,219.95,186.12,219.95,186.12z"/>
					<path class="st17" d="M219.01,185.17c0.01-0.02,0.17-0.32,0.17-0.62c0-0.3,0-0.3,0-0.3s-0.08,0.26-0.11,0.48
						C219.03,184.94,219.01,185.17,219.01,185.17z"/>
					<path class="st17" d="M218.4,185.46c0,0-0.18-0.3-0.4-0.51c-0.22-0.21-0.37-0.26-0.37-0.26s0.19,0.27,0.35,0.45
						c0.16,0.17,0.35,0.42,0.35,0.42L218.4,185.46z"/>
					<path class="st17" d="M218.82,186.22c0,0,0.09,0.23,0.08,0.48c-0.01,0.25-0.09,0.57-0.09,0.57s-0.03-0.35-0.06-0.62
						c-0.03-0.27-0.02-0.42-0.02-0.42L218.82,186.22z"/>
					<path class="st17" d="M218.45,185.99c0,0-0.24,0.08-0.49,0.18c-0.25,0.1-0.51,0.1-0.51,0.1s0.27-0.16,0.53-0.27
						c0.27-0.12,0.4-0.16,0.4-0.16L218.45,185.99z"/>
					<path class="st6" d="M219.75,185.4c0.1,0.44-0.13,1.06-0.46,1.1c-0.33,0.04-0.81-0.2-0.91-0.35c-0.1-0.15-0.28-0.59,0.03-0.94
						c0.32-0.35,0.56-0.51,0.82-0.4C219.5,184.91,219.68,185.06,219.75,185.4z"/>
					<path class="st18" d="M219.45,185.07c0.19,0.21,0.21,0.29,0.23,0.57c0.02,0.28-0.08,0.57-0.27,0.67
						c-0.18,0.1-0.65-0.15-0.68-0.59s0.1-0.77,0.3-0.77C219.24,184.94,219.36,184.97,219.45,185.07z"/>
				</g>
				<g>
					<path class="st16" d="M208.6,185.08c-0.49,0.11-0.64,0.49-0.56,0.87c0.07,0.38,0.21,0.68,0.21,0.68s-0.88-0.06-0.93,0.5
						c-0.05,0.56,0.23,0.68,0.58,0.61c0.35-0.07,0.55-0.2,0.55-0.2s-0.29,0.38-0.23,0.92c0.05,0.54,0.86,0.58,1,0.06
						c0.13-0.51,0.03-0.91,0.03-0.91s0.33,0.54,0.65,0.6c0.32,0.07,0.78-0.37,0.56-0.88c-0.11-0.26-0.66-0.35-0.66-0.35
						s0.67-0.4,0.69-0.82c0.02-0.48-0.54-0.77-0.92-0.44c-0.22,0.19-0.37,0.49-0.37,0.49s0.01-0.23-0.03-0.51
						C209.12,185.35,209.01,184.98,208.6,185.08z"/>
					<path class="st17" d="M207.59,187.24c0,0,0.31,0.03,0.48-0.12c0.17-0.14,0.11-0.17-0.08-0.12
						C207.8,187.06,207.59,187.24,207.59,187.24z"/>
					<path class="st17" d="M208.6,186.36c-0.01-0.02-0.15-0.34-0.13-0.63c0.02-0.3,0.02-0.3,0.02-0.3s0.07,0.26,0.08,0.49
						C208.59,186.14,208.6,186.36,208.6,186.36z"/>
					<path class="st17" d="M209.18,186.71c0,0,0.2-0.29,0.43-0.48c0.23-0.19,0.39-0.23,0.39-0.23s-0.21,0.26-0.38,0.42
						c-0.17,0.16-0.37,0.39-0.37,0.39L209.18,186.71z"/>
					<path class="st17" d="M208.72,187.43c0,0-0.1,0.22-0.11,0.47c-0.01,0.25,0.05,0.57,0.05,0.57s0.06-0.35,0.11-0.62
						c0.05-0.26,0.05-0.42,0.05-0.42L208.72,187.43z"/>
					<path class="st17" d="M209.1,187.24c0,0,0.23,0.1,0.48,0.22c0.25,0.12,0.5,0.14,0.5,0.14s-0.26-0.18-0.51-0.32
						c-0.26-0.14-0.39-0.2-0.39-0.2L209.1,187.24z"/>
					<path class="st6" d="M207.84,186.54c-0.13,0.43,0.06,1.07,0.39,1.14s0.82-0.14,0.93-0.28c0.11-0.14,0.32-0.57,0.03-0.95
						c-0.29-0.38-0.53-0.56-0.79-0.47C208.12,186.06,207.94,186.2,207.84,186.54z"/>
					<path class="st18" d="M208.16,186.23c-0.2,0.19-0.23,0.28-0.27,0.55c-0.03,0.27,0.05,0.57,0.22,0.69
						c0.17,0.12,0.66-0.1,0.72-0.53c0.06-0.44-0.05-0.78-0.25-0.79C208.38,186.12,208.26,186.14,208.16,186.23z"/>
				</g>
				<g>
					<path class="st16" d="M212.01,183.27c-0.06,0.35,0.56,0.88,0.56,0.88s-0.77,0.06-0.9,0.29c-0.13,0.23,0.01,0.76,0.35,0.84
						c0.33,0.08,0.79-0.28,0.79-0.28s0.01,0.53,0.15,0.94c0.14,0.41,0.75,0.25,0.8-0.18c0.06-0.44,0-0.78,0-0.78
						s0.42,0.24,0.73,0.26c0.31,0.02,0.58-0.94,0.24-1.05c-0.34-0.11-0.72-0.11-0.72-0.11s0.75-0.64,0.44-1.01
						c-0.31-0.37-0.52-0.38-0.76-0.17c-0.24,0.22-0.34,0.66-0.34,0.66s-0.33-0.62-0.61-0.8
						C212.46,182.59,212.1,182.79,212.01,183.27z"/>
					<path class="st17" d="M214.05,183.23c0,0-0.23,0.16-0.34,0.39c-0.12,0.23-0.21,0.42-0.21,0.42l0.08,0.07c0,0,0.1-0.21,0.25-0.4
						C213.96,183.54,214.01,183.37,214.05,183.23z"/>
					<path class="st17" d="M212.41,183.27c0,0,0.28,0.42,0.44,0.65c0.16,0.23,0.25,0.23,0.25,0.23l0.08-0.1c0,0-0.23-0.3-0.37-0.49
						S212.41,183.27,212.41,183.27z"/>
					<path class="st17" d="M212.02,184.75c0,0,0.24-0.1,0.53-0.18c0.29-0.09,0.44-0.12,0.44-0.12v0.18c0,0-0.2,0.05-0.51,0.12
						C212.31,184.79,212.02,184.75,212.02,184.75z"/>
					<path class="st17" d="M213.21,184.77c0,0-0.05,0.31,0.01,0.59c0.06,0.28,0.16,0.53,0.16,0.53s0.02-0.39,0-0.64
						c-0.02-0.25-0.04-0.47-0.04-0.47H213.21z"/>
					<path class="st17" d="M213.57,184.56c0.04-0.01,0.24,0.06,0.48,0.1c0.24,0.05,0.47,0,0.47,0s-0.27-0.1-0.47-0.14
						c-0.21-0.05-0.43-0.06-0.43-0.06L213.57,184.56z"/>
					<path class="st6" d="M213.05,183.63c-0.25,0.22-0.41,0.37-0.44,0.77c-0.03,0.4,0.32,0.81,0.68,0.79
						c0.36-0.02,0.77-0.54,0.76-0.86c-0.01-0.32-0.19-0.58-0.34-0.7C213.49,183.46,213.21,183.48,213.05,183.63z"/>
					<path class="st18" d="M213.29,183.72c-0.18,0.03-0.41,0.21-0.5,0.53c-0.08,0.32,0.05,0.53,0.2,0.66
						c0.16,0.14,0.47,0.12,0.7-0.22c0.23-0.34,0.19-0.53,0.1-0.7C213.7,183.78,213.49,183.68,213.29,183.72z"/>
				</g>
				<g>
					<path class="st16" d="M209.77,191.9c0.25,0.23,0.97-0.09,0.97-0.09s-0.34,0.77-0.22,1c0.12,0.24,0.6,0.36,0.83,0.09
						c0.23-0.28,0.18-0.89,0.18-0.89s0.42,0.25,0.82,0.33c0.39,0.07,0.57-0.59,0.26-0.86c-0.31-0.27-0.62-0.39-0.62-0.39
						s0.4-0.28,0.57-0.57c0.17-0.29-0.45-1.03-0.71-0.75c-0.26,0.27-0.45,0.63-0.45,0.63s-0.13-1.04-0.57-0.92
						c-0.44,0.12-0.56,0.3-0.51,0.64c0.05,0.34,0.35,0.66,0.35,0.66s-0.65,0-0.93,0.18S209.43,191.58,209.77,191.9z"/>
					<path class="st17" d="M210.75,189.94c0,0,0.01,0.29,0.14,0.52c0.13,0.23,0.23,0.42,0.23,0.42l0.1-0.04c0,0-0.12-0.2-0.19-0.43
						C210.95,190.18,210.84,190.04,210.75,189.94z"/>
					<path class="st17" d="M209.96,191.52c0,0,0.47-0.05,0.73-0.1s0.31-0.12,0.31-0.12l-0.04-0.12c0,0-0.35,0.07-0.58,0.11
						C210.17,191.33,209.96,191.52,209.96,191.52z"/>
					<path class="st17" d="M210.93,192.62c0,0,0.04-0.28,0.12-0.59c0.08-0.32,0.13-0.48,0.13-0.48l0.14,0.09
						c0,0-0.07,0.22-0.16,0.55C211.11,192.38,210.93,192.62,210.93,192.62z"/>
					<path class="st17" d="M211.54,191.5c0,0,0.22,0.21,0.47,0.28c0.25,0.08,0.49,0.11,0.49,0.11s-0.3-0.21-0.5-0.32
						c-0.2-0.11-0.39-0.2-0.39-0.2L211.54,191.5z"/>
					<path class="st17" d="M211.56,191.06c0.01-0.04,0.16-0.2,0.32-0.4c0.15-0.2,0.23-0.44,0.23-0.44s-0.21,0.21-0.35,0.38
						c-0.14,0.17-0.26,0.38-0.26,0.38L211.56,191.06z"/>
					<path class="st6" d="M210.56,191.09c0.05,0.35,0.09,0.57,0.39,0.8c0.3,0.23,0.79,0.1,0.96-0.25c0.17-0.35-0.04-1-0.3-1.15
						c-0.26-0.16-0.55-0.11-0.72-0.02C210.65,190.58,210.53,190.86,210.56,191.09z"/>
					<path class="st18" d="M210.75,190.91c-0.07,0.18-0.04,0.5,0.17,0.73c0.21,0.24,0.44,0.22,0.62,0.13
						c0.19-0.08,0.33-0.38,0.18-0.77c-0.15-0.39-0.33-0.44-0.5-0.45C211.01,190.55,210.83,190.7,210.75,190.91z"/>
				</g>
				<g>
					<path class="st16" d="M216.56,187.99c-0.32,0.05-0.58,0.87-0.58,0.87s-0.3-0.78-0.54-0.84c-0.24-0.06-0.65,0.26-0.61,0.63
						c0.04,0.37,0.49,0.73,0.49,0.73s-0.45,0.18-0.76,0.46c-0.31,0.28,0.03,0.86,0.42,0.78c0.39-0.08,0.67-0.26,0.67-0.26
						s-0.07,0.52,0.01,0.85c0.08,0.33,1,0.3,0.98-0.09c-0.02-0.39-0.14-0.78-0.14-0.78s0.8,0.57,1.01,0.13
						c0.21-0.44,0.16-0.66-0.1-0.85c-0.27-0.18-0.68-0.14-0.68-0.14s0.43-0.54,0.49-0.89C217.3,188.23,217.01,187.92,216.56,187.99z
						"/>
					<path class="st17" d="M217.26,190.09c0,0-0.21-0.18-0.45-0.23c-0.24-0.04-0.43-0.08-0.43-0.08l-0.04,0.11
						c0,0,0.22,0.03,0.43,0.12C216.97,190.1,217.13,190.1,217.26,190.09z"/>
					<path class="st17" d="M216.69,188.4c0,0-0.27,0.43-0.41,0.67s-0.12,0.33-0.12,0.33l0.11,0.05c0,0,0.18-0.34,0.3-0.55
						C216.69,188.69,216.69,188.4,216.69,188.4z"/>
					<path class="st17" d="M215.3,188.48c0,0,0.16,0.22,0.33,0.49c0.17,0.27,0.25,0.42,0.25,0.42l-0.15,0.06c0,0-0.11-0.2-0.27-0.49
						C215.35,188.79,215.3,188.48,215.3,188.48z"/>
					<path class="st17" d="M215.67,189.72c0,0-0.28,0.04-0.5,0.2c-0.22,0.16-0.4,0.33-0.4,0.33s0.34-0.11,0.55-0.21
						c0.21-0.1,0.39-0.2,0.39-0.2L215.67,189.72z"/>
					<path class="st17" d="M215.96,190.03c0.02,0.03,0.03,0.27,0.07,0.53c0.04,0.26,0.15,0.48,0.15,0.48s0-0.31-0.03-0.54
						c-0.03-0.23-0.09-0.46-0.09-0.46L215.96,190.03z"/>
					<path class="st6" d="M216.6,189.18c-0.27-0.19-0.45-0.3-0.8-0.21c-0.35,0.1-0.59,0.59-0.46,0.96c0.13,0.37,0.71,0.62,0.99,0.51
						c0.28-0.11,0.44-0.38,0.49-0.58C216.89,189.59,216.78,189.3,216.6,189.18z"/>
					<path class="st18" d="M216.6,189.46c-0.08-0.18-0.31-0.36-0.61-0.34c-0.3,0.02-0.44,0.22-0.5,0.43s0.05,0.53,0.41,0.66
						c0.37,0.13,0.52,0.02,0.63-0.12C216.67,189.91,216.69,189.66,216.6,189.46z"/>
				</g>
			</g>
			<g>
				<path class="st3" d="M209.89,200.89l0-1.24l-1.65,0.2c-0.31-0.11-0.57-0.17-0.85-0.22c-0.35-0.07-0.68,0.12-0.96,0.44
					l-0.69,0.08v1.34l0.01,0c-0.03,0.8,1.19,1.24,2.35,0.93C209.06,202.15,209.97,201.45,209.89,200.89L209.89,200.89z"/>
				<path class="st5" d="M207.39,198.28c-0.67-0.13-1.26,0.66-1.59,1.61c-0.33,0.95,1.02,1.53,2.3,1.18
					c1.28-0.35,2.43-1.44,1.41-1.99C208.48,198.53,207.99,198.39,207.39,198.28z"/>
				<path class="st19" d="M207.2,198.71c-0.42-0.08-0.79,0.41-1,1.01c-0.21,0.6,0.64,0.96,1.44,0.74c0.8-0.22,1.52-0.9,0.88-1.25
					C207.88,198.87,207.58,198.78,207.2,198.71z"/>
			</g>
			<g>
				<path class="st3" d="M207.84,203.35l0-0.58l0.16,0.03c0.04-0.07,0.09-0.13,0.15-0.17c0.91-0.77,1.77-0.11,2.21,0.63l0.25,0.05
					c0,0,0,0.43,0,0.62c0,0.03,0,0.05,0,0.08c0,0,0,0.01,0,0.01c0,0,0,0,0,0c-0.08,0.63-1.22,0.85-2.05,0.45
					C208.02,204.19,207.83,203.75,207.84,203.35C207.84,203.35,207.84,203.35,207.84,203.35z"/>
				<path class="st5" d="M210.57,202.99c0.32,0.86-1.05,1.23-2.01,0.76c-0.96-0.46-0.82-1.49-0.41-1.83
					C209.24,201,210.25,202.13,210.57,202.99z"/>
				<path class="st19" d="M209.86,202.81c0.19,0.52-0.63,0.74-1.21,0.46c-0.57-0.28-0.49-0.89-0.25-1.1
					C209.05,201.61,209.67,202.29,209.86,202.81z"/>
			</g>
			<g>
				<path class="st4" d="M221.12,200.21l0.01-1.11l-4.15-0.29l0.01,1.13l0,0c0,0.48,0.42,1.01,1.06,1.52
					c0.62,0.49,1.44,0.66,2.38,0.07C220.84,201.28,221.12,200.73,221.12,200.21z"/>
				<path class="st5" d="M217.2,198.37c-0.57,0.39,0.04,1.16,0.85,1.81c0.62,0.49,1.44,0.66,2.38,0.07c0.64-0.4,1.11-1.56,0.2-1.94
					C219.64,197.89,217.63,198.07,217.2,198.37z"/>
				<path class="st19" d="M217.63,198.59c-0.37,0.26,0.03,0.76,0.56,1.19c0.4,0.32,0.94,0.43,1.56,0.05
					c0.42-0.26,0.73-1.02,0.13-1.27C219.23,198.27,217.91,198.39,217.63,198.59z"/>
			</g>
			<g>
				<path class="st4" d="M217.45,201.96l-0.18,0.01c-0.08-0.07-0.18-0.13-0.3-0.17c-0.34-0.11-0.69-0.03-0.99,0.13
					c-0.05,0.03-0.1,0.06-0.14,0.1l-0.21,0.01c0,0,0,0.37,0,0.35c0,0,0,0,0,0c0.01,0.06,0.03,0.11,0.09,0.15
					c0.21,0.15,1.09,0.17,1.44,0.06c0.2-0.06,0.28-0.18,0.28-0.32c0,0,0,0,0,0V201.96z"/>
				<path class="st3" d="M216.98,201.45c-0.34-0.11-0.69-0.03-0.99,0.13c-0.3,0.17-0.47,0.47-0.26,0.61
					c0.21,0.15,1.09,0.17,1.44,0.06C217.64,202.12,217.49,201.61,216.98,201.45z"/>
				<path class="st5" d="M216.36,201.76c-0.13-0.04-0.27-0.01-0.38,0.05c-0.12,0.06-0.18,0.18-0.1,0.24
					c0.08,0.06,0.42,0.06,0.56,0.02C216.62,202.01,216.56,201.82,216.36,201.76z"/>
			</g>
		</g>
		<g>
			<g>
				<path class="st0" d="M199.47,200.77c0.81,0.25,1.66,0.46,2.51,0.31c1.45-0.26,2.58-1.36,3.5-2.56c-0.43-0.9-1.6-1.65-2.44-1.92
					c-0.96-0.3-1.79,0.32-2.65,0.76c-0.83,0.42-2,0.79-2.38,1.79c-0.16,0.42-0.18,0.79-0.11,1.11c0,0,0,0,0,0
					C198.35,200.23,199.03,200.64,199.47,200.77z"/>
				<path class="st1" d="M201.61,202.27c1.18,0.06,2.16-0.56,3.1-1.45c0.56-0.53,1.13-1.49,0.79-2.26
					c-0.01-0.01-0.02-0.03-0.02-0.04c-0.92,1.21-2.04,2.31-3.5,2.56c-0.85,0.15-1.7-0.06-2.51-0.31c-0.44-0.13-1.11-0.54-1.58-0.51
					c0,0,0,0,0,0C198.23,201.76,200.76,202.23,201.61,202.27z"/>
			</g>
			<path class="st1" d="M202.28,199.02c-0.28-0.19-0.54,0.1-0.77,0.22c-0.71,0.37-0.93-0.08-1.44-0.47
				c-0.11-0.09-0.22-0.15-0.36-0.15c-0.14,0-0.73,0.44-0.72,0.83c0.01,0.28,0.54,0.52,0.78,0.65c0.4,0.23,0.81,0.33,1.26,0.21
				c0.26-0.07,0.49-0.2,0.72-0.34c0.16-0.1,0.48-0.14,0.68-0.49C202.5,199.32,202.44,199.12,202.28,199.02z"/>
			<path class="st2" d="M203.36,197.28c-0.46-0.2-0.9-0.15-1.35,0.01c-0.41,0.15-1.06,0.25-1.16,0.58
				c-0.08,0.28,0.16,0.38,0.37,0.42c0.29,0.05,0.53-0.14,0.81-0.18c0.36-0.05,0.91,0.27,1.15,0.52c0.07,0.07,0.09,0.16,0.16,0.22
				c0.35,0.28,0.94,0.08,1.29-0.1c0.05-0.03,0.07-0.09,0.08-0.14C204.76,197.94,203.82,197.48,203.36,197.28z"/>
		</g>
	</g>
	<g>
		<path class="st0" d="M193.04,188.68c0,0-0.58-0.31-0.68-0.89c-0.11-0.65-0.33-0.98-0.65-1c-0.72-0.03-0.69,0.32-1.17,0.12
			c-0.42-0.17-1.13-0.46-1.76-0.26c-0.75,0.23-1.31,0.33-0.14,1.14c1.17,0.81,3.84,2.65,3.84,2.65L193.04,188.68z"/>
		<path class="st0" d="M198.68,186.81c0,0-0.58-0.31-0.68-0.89c-0.11-0.65-0.33-0.98-0.65-1c-0.72-0.03-0.69,0.32-1.17,0.12
			c-0.42-0.17-1.13-0.46-1.76-0.26c-0.75,0.23-1.31,0.33-0.14,1.14c1.17,0.81,3.84,2.65,3.84,2.65L198.68,186.81z"/>
		<path class="st20" d="M204.53,191.56c-0.71,0.24-1.52,0.09-3.47-1.08c-1.49-0.89-4.29-2.74-4.29-2.74l0.63-2.12
			c0,0,4.16,0.79,5.16,1.32S204.53,191.56,204.53,191.56z"/>
		<path class="st20" d="M197.99,191.51c0.29,0.7-0.47,3.02-0.5,3c-0.03-0.02-2.68-1.35-3.72-2.19c-1.46-1.19-2.43-2.33-2.43-2.33
			s0.06-0.98,0.52-1.45c0.88-0.9,1.36-0.54,1.36-0.54S197.42,190.13,197.99,191.51z"/>
		<path class="st21" d="M206.25,178c0.53,0.35,2.32,1.35,3.46,2.03c1.06,0.63,1.49,1.58,1.61,2c0.23,0.78-0.22,1.02-0.66,0.76
			c-0.07-0.04-0.33-0.46-0.62-1.11c-0.04-0.09-0.24,0-0.17,0.21c0.14,0.46,0.04,0.78-0.09,0.58c-0.14-0.21-0.22-0.99-0.75-1.35
			c-1.16-0.8-3.2-1.33-3.66-1.74c-0.74-0.68-2.47-3.2-2.47-3.2l1.4-1.73L206.25,178z"/>
		<path class="st6" d="M201.24,172.16c0,0,0.56-0.39,1.55,0c0.99,0.39,2.01,2.64,2.01,2.72c0,0.08-1,1.21-1.72,1.29
			C202.36,176.24,201.24,172.16,201.24,172.16z"/>
		<path class="st22" d="M196.43,174.66c0.16-0.66,2.17-2.06,2.17-2.06s1.12,0.91,1.51,1.22c0.38,0.3,1.01,1.07,1.06,1.14
			c0,0,0.01,0,0.01,0c-0.01-0.13-0.08-1.14-0.47-2.23c-0.12-0.34,0.06-1.34,0.06-1.34s0.16-0.04,0.38-0.08
			c0.34,0.38,1.01,1.4,1.37,1.82c0.35,0.41,1.45,1.83,1.07,3.15c-0.11,0.39,0.01,0.57-0.2,1.05c-0.23,0.54-0.21,1.58-0.18,2.14
			c0.03,0.64,0.62,2.34,0.62,2.34s-1.45,1.71-3.01,1.64c-1.82-0.08-3.11-1.39-3.11-1.39s0.44-2.8,0.38-3.96
			C198.08,178.11,195.89,176.86,196.43,174.66z"/>
		<path class="st23" d="M203.29,174.19l-1.69-2.53l-0.54,0.17c0,0,0.57,0.82,1.04,1.63c0.2,0.35,0.63,1.15,0.63,1.15L203.29,174.19z
			"/>
		<path class="st23" d="M200.42,175.52c0,0-1.05-1.78-1.28-2.28c-0.21-0.46-0.26-1.02-0.26-1.02s-0.68,0.18-0.52,0.74
			c0.22,0.74,1.42,2.76,1.42,2.76L200.42,175.52z"/>
		<g>
			<path class="st24" d="M201.33,171.36c0,0-0.46,1.33-0.27,1.94c0.17,0.26,0.33,1.1,0.24,1.82c-0.37-0.21-0.95-0.89-1.32-1.2
				c-0.85-0.69-1.05-0.99-1.1-1.44c0.21-0.58,0.59-2.85,0.59-2.85L201.33,171.36z"/>
		</g>
		<path class="st23" d="M196.59,183.17c0.39-2,1.02-3.2,1.02-3.2s0.66-0.1,1.04-0.16c0.66-0.11,0.83-0.5,0.97-1.9
			c0.08-0.71,0.15-1.62,0.09-2.29c1.49-0.54,2.6-0.88,3.5-1.54c0.68,1.06,0.84,1.76,0.69,2.58c-0.15,0.79-0.28,1.31-0.4,2.6
			c-0.07,0.69,1.27,5.72,1.66,7.49c0.39,1.77,0.88,3.2,0.03,4.36c-0.36,0.49-0.86,0.61-1.37,0.51c-0.68-0.13-1.35-0.64-1.65-1.14
			c-0.29-0.49-0.84-2.3-1.33-3.86c-0.05,2.19-0.23,4.83-0.43,5.87c-0.35,1.85-1.09,2.21-2.12,2.21c-1.71,0-1.85-1.89-1.96-2.6
			C196.23,191.39,196.28,184.75,196.59,183.17z"/>
		<path class="st20" d="M203.17,175.56c0.13,0.65,0.06,2.69-1.08,3c-1.03,0.28-1.3-0.96-1.54-1.92
			C201.89,176.34,203.17,175.56,203.17,175.56z"/>
		<path class="st20" d="M199.36,182l0.25,0.42c0,0-0.61,0.91-1.31,1.46c-0.7,0.55-0.96,0.75-0.96,0.75l-0.23-0.75
			c0,0,0.26-0.4,0.96-0.98C198.68,182.39,199.36,182,199.36,182z"/>
		<path class="st21" d="M197.97,175.78l1.95,4.73c0.47,0.36,1.75,1.93,2.65,3.18c0.2,0.28,0.39,0.31,0.97,0.49
			c0.82,0.26,0.93,0.54,1.16,0.62c0.23,0.08,0.21,0.23-0.05,0.27c-0.42,0.06-0.74-0.35-0.78-0.09c-0.03,0.19,0.07,0.26,0.33,0.75
			c0.26,0.49,0.4,0.94-0.07,1.12c-0.47,0.17-1,0.02-1.4-0.61c-0.3-0.46-0.8-1.26-1.1-1.6c-0.44-0.51-2.2-1.89-3.16-3.2
			c-0.6-0.81-2.04-4.05-2.04-4.05L197.97,175.78z"/>
		<path class="st6" d="M196.66,173.96c-0.47,0.42-1.12,1.82-0.64,3.13c0.48,1.3,0.75,1.96,0.75,1.96s0.71,0.03,1.3-0.24
			c0.6-0.28,1.12-0.78,1.12-0.78S198.13,172.67,196.66,173.96z"/>
		<g>
			<path class="st21" d="M199.51,167.31c0.72-0.65,2.52-0.98,3.33,0.87c0.84,1.94-0.75,4.58-1.73,4.23
				c-0.55-0.2-1.82-1.02-2.21-2.05C198.45,169.2,198.95,167.81,199.51,167.31z"/>
			<path class="st25" d="M200.95,166.68c0,0,0.19-0.86-0.25-0.96c-0.45-0.1-0.62,0.07-0.82-0.19c-0.19-0.26-0.77-0.43-1.19-0.12
				c-0.42,0.31-0.09,0.96-0.41,1.08c-0.32,0.12-0.88,0.38-0.98,0.74c-0.11,0.36,0.11,0.79,0,1.1c-0.11,0.31-0.55,0.58-0.54,1.07
				c0,0.39,0.73,0.9,0.81,1.25c0.12,0.5-0.42,0.76-0.78,0.65c0.02,0.07,0.65,0.52,1.32,0.11c0.88-0.54,0.77-2.07,0.77-2.07
				L200.95,166.68z"/>
			<path class="st23" d="M201.24,166.58c0,0-0.13-0.96-1.16-0.57c-0.79,0.29-0.39,1.03-0.39,1.03L201.24,166.58z"/>
			<path class="st10" d="M200.02,170.07c0,0,0.92,0.22,1.46,0c0.53-0.22,1-1.22,1-1.22c0.08,0.05,0.39,0.44,0.44,0.76
				c0.08,0.55,0,0.84,0,0.84s1.03-0.24,1.03-1.22c0-0.98-0.68-1.57-0.87-1.77c-0.48-0.48-1.27-1.46-2.67-0.88
				c-1.11-0.45-1.93,0.75-2.09,1.98c-0.06,0.48,0.02,0.98,0.41,1.61c0.28,0.43,0.37,1.23,0.37,1.23S199.7,170.9,200.02,170.07z"/>
			<path class="st21" d="M200.29,170.49c0,0-0.06-0.5-0.46-0.7c-0.4-0.2-0.45,0.66-0.18,0.98
				C199.92,171.08,200.29,170.49,200.29,170.49z"/>
		</g>
	</g>
</g>
</svg>
