<?xml version="1.0" encoding="utf-8"?>
<!-- Generator: Adobe Illustrator 24.0.0, SVG Export Plug-In . SVG Version: 6.00 Build 0)  -->
<svg version="1.1" id="Layer" xmlns="http://www.w3.org/2000/svg" xmlns:xlink="http://www.w3.org/1999/xlink" x="0px" y="0px"
	 viewBox="0 0 500.63 326.2" style="enable-background:new 0 0 500.63 326.2;" xml:space="preserve">
<style type="text/css">
	.st0{fill:#DE8D59;}
	.st1{fill:#5E6900;}
	.st2{fill:#EDAB80;}
	.st3{fill:#7AA937;}
	.st4{fill:#EDC2A6;}
	.st5{fill:#7B5A51;}
	.st6{fill:#CC9586;}
	.st7{fill:#593A3F;}
	.st8{fill:#946C61;}
</style>
<g id="TIERRA">
	<polygon class="st0" points="496.39,176.62 496.49,181.13 264.9,314.66 264.9,310.21 	"/>
	<g>
		<polygon class="st1" points="264.9,314.66 264.9,310.21 1.66,158.22 1.66,162.67 		"/>
	</g>
	<polygon class="st2" points="248.74,300.88 248.82,305.37 264.9,314.66 264.9,310.21 	"/>
	<g>
		<polygon class="st3" points="265,309.26 0,156.26 233.13,21.85 498.13,174.84 		"/>
	</g>
</g>
<g id="Camino">
	<polygon class="st4" points="216.16,144.07 384.81,241.28 354.11,259 185.47,161.79 	"/>
	<polygon class="st4" points="270.71,145.13 187,193.56 173.22,185.5 256.91,137.17 	"/>
	<g>
		<path class="st5" d="M261.74,177.18c0.36,0.81,0.37,1.75,0.21,2.62c-0.07,0.39-0.17,0.81-0.04,1.18c0.2,0.55,0.82,0.81,1.4,0.89
			c0.83,0.1,1.67-0.05,2.45-0.35c0.66-0.25,1.32-0.63,1.67-1.25c0.45-0.81,0.23-1.87-0.34-2.59c-0.57-0.72-1.44-1.16-2.33-1.43
			c-0.56-0.17-1.14-0.29-1.67-0.54c-0.4-0.19-0.76-0.56-1.18-0.69c-0.44-0.14-0.68,0.22-0.71,0.64
			C261.16,176.23,261.52,176.7,261.74,177.18z"/>
		<path class="st5" d="M254.53,142.43c-0.27,0.61-0.28,1.31-0.16,1.97c0.05,0.3,0.13,0.61,0.03,0.89c-0.15,0.41-0.62,0.61-1.05,0.67
			c-0.62,0.08-1.25-0.04-1.84-0.26c-0.5-0.19-0.99-0.47-1.25-0.94c-0.34-0.61-0.17-1.4,0.26-1.95c0.43-0.54,1.08-0.87,1.75-1.07
			c0.42-0.13,0.86-0.22,1.25-0.4c0.3-0.14,0.57-0.42,0.89-0.52c0.33-0.1,0.51,0.17,0.53,0.48
			C254.96,141.72,254.69,142.07,254.53,142.43z"/>
		<path class="st5" d="M248.17,168.58c0,0.33,0.09,0.68,0.16,0.94c0.11,0.4,0.19,0.82,0.12,1.23c-0.1,0.56-0.94,1.61-0.27,2.08
			c0.21,0.14,0.47,0.17,0.72,0.19c1.15,0.06,2.32-0.14,3.39-0.58c0.56-0.23,1.12-0.55,1.5-1.02c0.55-0.69,0.07-1.64-0.64-1.97
			c-0.53-0.24-1.12-0.25-1.66-0.46c-0.6-0.23-0.86-0.81-1.37-1.16c-0.3-0.2-0.66-0.32-1.02-0.28
			C248.51,167.61,248.16,168.03,248.17,168.58z"/>
		<g>
			<path class="st5" d="M225.35,157.44c2.06-0.09,1.72,0.92,2.15,1.73c0.5,0.93,2.95,0.98,3.78,1.83c0.44,0.46,0.28,1.05-0.16,1.51
				c-0.64,0.67-1.89,1.16-3.21,1.18c-1.33,0.02-2.65-0.48-3.04-1.21c-0.26-0.49-0.18-1.11-0.89-1.41c-0.95-0.41-2.79-0.64-2.8-1.54
				c0-0.19,0.12-0.38,0.29-0.54c0.35-0.35,0.87-0.63,1.43-0.88c0.68-0.3,1.45-0.57,2.3-0.64
				C225.24,157.44,225.29,157.44,225.35,157.44z"/>
			<path class="st6" d="M220.47,162.14c0.75,0.32,1.24,0.81,1.72,1.27c0.48,0.46,1.02,0.94,1.84,1.21c1.14,0.38,2.56,0.28,3.88,0.23
				c1.7-0.06,4.69-0.37,5.45,0.82c0.94,1.48-1.89,2.54-3.78,3.06c-2.06,0.57-4.29,0.94-6.55,1.1c-1.17,0.08-2.39,0.1-3.49-0.14
				c-1.46-0.31-2.53-1.04-3.34-1.8c-1-0.95-1.7-2.05-1.53-3.15C214.89,163.39,217.86,161.03,220.47,162.14z"/>
			<path class="st6" d="M192.69,176.5c0.75,0.32,1.24,0.81,1.72,1.27c0.48,0.46,1.02,0.94,1.84,1.21c1.14,0.38,2.56,0.28,3.88,0.23
				c1.7-0.06,4.69-0.37,5.45,0.82c0.94,1.48-1.89,2.54-3.78,3.06c-2.06,0.57-4.29,0.94-6.55,1.1c-1.17,0.08-2.39,0.1-3.49-0.14
				c-1.46-0.31-2.53-1.04-3.34-1.8c-1-0.95-1.7-2.05-1.53-3.15C187.11,177.75,190.08,175.39,192.69,176.5z"/>
			<path class="st7" d="M234.42,163.76c0.83,0.94,0.71,2.07,0.22,3.09c-0.49,1.02-1.31,1.98-1.85,2.99
				c-0.2,0.38-0.35,0.84,0.06,1.16c0.44,0.34,1.29,0.37,2.01,0.31c1.17-0.1,2.28-0.38,3.3-0.74c2.1-0.74,3.89-1.95,4.07-3.36
				c0.1-0.77-0.28-1.54-0.68-2.28c-0.78-1.41-2.02-3.35-4.81-3.78c-0.99-0.15-1.93-0.01-2.57,0.48
				C233.16,162.38,233.76,163.02,234.42,163.76z"/>
			<path class="st5" d="M212.3,165.9c0.29,0.17,0.48,0.38,0.49,0.63c0,0.22-0.08,0.44-0.05,0.65c0.07,0.5,0.7,0.9,1.12,1.33
				c0.33,0.34,0.55,0.72,0.52,1.11c-0.03,0.39-0.32,0.78-0.85,1.02c-0.53,0.23-1.25,0.29-1.9,0.21c-0.65-0.08-1.23-0.29-1.73-0.54
				c-0.89-0.46-1.53-1.11-1.56-1.8c-0.01-0.3,0.08-0.6,0.04-0.9c-0.02-0.14-0.05-0.32-0.2-0.44c-0.14-0.11-0.32-0.18-0.43-0.32
				c-0.43-0.53-0.06-1.09,0.79-1.4c0.65-0.23,1.45-0.18,2.17-0.07C211.25,165.48,211.87,165.65,212.3,165.9z"/>
			<path class="st5" d="M197.93,174.49c0.19,0.11,0.32,0.25,0.32,0.42c0,0.15-0.05,0.29-0.03,0.44c0.05,0.33,0.47,0.6,0.75,0.88
				c0.22,0.22,0.37,0.48,0.35,0.74c-0.02,0.26-0.21,0.52-0.57,0.68c-0.35,0.16-0.83,0.2-1.26,0.14c-0.43-0.05-0.82-0.19-1.15-0.36
				c-0.59-0.31-1.02-0.74-1.04-1.2c-0.01-0.2,0.05-0.4,0.03-0.6c-0.01-0.09-0.03-0.21-0.13-0.29c-0.1-0.08-0.21-0.12-0.28-0.21
				c-0.29-0.35-0.04-0.72,0.52-0.93c0.43-0.16,0.97-0.12,1.44-0.05C197.23,174.21,197.65,174.32,197.93,174.49z"/>
			<path class="st7" d="M224.46,171.27c1.15-0.11,2.28-0.31,3.34-0.6c0.91-0.24,2.07-0.57,3.09-0.3c0.23,0.06,0.42,0.16,0.59,0.27
				c0.8,0.53,1.24,1.19,0.89,1.86c-0.95,1.82-2.75,3.23-5.9,3.92c-2.18,0.48-4.89,0.5-6.96-0.16c-2.53-0.81-4.94-1.97-5.72-3.57
				c-0.32-0.66-0.21-1.62,0.95-2c1.2-0.39,2.74,0.25,3.9,0.43C220.52,171.41,222.53,171.46,224.46,171.27z"/>
		</g>
		<g>
			<path class="st7" d="M253.1,173.22c2.58-0.11,2.15,1.15,2.69,2.16c0.62,1.16,3.69,1.23,4.72,2.29c0.56,0.57,0.35,1.31-0.19,1.88
				c-0.8,0.84-2.36,1.45-4.02,1.47c-1.66,0.02-3.31-0.6-3.8-1.52c-0.33-0.61-0.22-1.38-1.11-1.76c-1.19-0.51-3.48-0.81-3.5-1.93
				c0-0.24,0.15-0.47,0.36-0.68c0.43-0.44,1.09-0.79,1.78-1.1c0.85-0.38,1.81-0.71,2.88-0.8
				C252.96,173.23,253.03,173.22,253.1,173.22z"/>
			<path class="st8" d="M249,179.01c0.75,0.32,1.24,0.81,1.72,1.27c0.48,0.46,1.02,0.94,1.84,1.21c1.14,0.38,2.56,0.28,3.88,0.23
				c1.7-0.06,4.69-0.37,5.45,0.82c0.94,1.48-1.89,2.54-3.78,3.06c-2.06,0.57-4.29,0.94-6.55,1.1c-1.17,0.08-2.39,0.1-3.49-0.14
				c-1.46-0.31-2.53-1.04-3.34-1.8c-1-0.95-1.7-2.05-1.53-3.15C243.42,180.26,246.39,177.89,249,179.01z"/>
			<path class="st7" d="M245.39,176.79c-0.74,0.74-2.19,1.2-3.67,1.24c-1.33,0.03-2.62-0.25-3.84-0.55
				c-1.11-0.28-2.21-0.58-3.28-0.91c-0.7-0.22-1.56-0.56-1.77-1.04c-0.1-0.22-0.01-0.47,0.19-0.67c0.2-0.2,0.51-0.36,0.85-0.48
				c0.44-0.16,0.91-0.11,1.37-0.21c0.48-0.1,0.97-0.26,1.34-0.46c0.85-0.45,1.38-1.07,2.02-1.61c0.79-0.67,1.8-1.25,2.97-1.7
				c0.77-0.3,1.63-0.54,2.55-0.57c0.92-0.03,1.9,0.19,2.38,0.64c0.66,0.63,0.18,1.45-0.41,2.11c-0.65,0.73-1.28,1.31-0.72,2.07
				C245.91,175.36,246.13,176.05,245.39,176.79z"/>
			<path class="st7" d="M239.48,179.38c0.46,0.27,0.78,0.61,0.78,1c0.01,0.35-0.12,0.7-0.07,1.05c0.12,0.8,1.12,1.43,1.8,2.13
				c0.53,0.54,0.88,1.15,0.84,1.78c-0.04,0.62-0.51,1.25-1.37,1.63c-0.85,0.37-2,0.47-3.04,0.34c-1.04-0.13-1.97-0.46-2.76-0.87
				c-1.42-0.74-2.45-1.77-2.5-2.88c-0.02-0.48,0.13-0.96,0.07-1.44c-0.03-0.23-0.08-0.51-0.32-0.7c-0.23-0.18-0.51-0.29-0.69-0.51
				c-0.69-0.85-0.1-1.75,1.26-2.24c1.05-0.38,2.33-0.29,3.47-0.11C237.8,178.71,238.8,178.98,239.48,179.38z"/>
		</g>
		<g>
			<path class="st5" d="M239.39,148.58c-1.9-0.08-1.58,0.85-1.99,1.59c-0.46,0.86-2.72,0.91-3.48,1.69
				c-0.41,0.42-0.26,0.96,0.14,1.39c0.59,0.62,1.74,1.07,2.97,1.09c1.22,0.01,2.45-0.45,2.8-1.12c0.24-0.45,0.16-1.02,0.82-1.3
				c0.88-0.38,2.57-0.59,2.58-1.42c0-0.18-0.11-0.35-0.26-0.5c-0.32-0.32-0.8-0.58-1.32-0.81c-0.63-0.28-1.34-0.53-2.12-0.59
				C239.49,148.58,239.44,148.58,239.39,148.58z"/>
			<path class="st8" d="M241.99,152.6c-0.75,0.32-1.24,0.81-1.72,1.27c-0.48,0.46-1.02,0.94-1.84,1.21
				c-1.14,0.38-2.56,0.28-3.88,0.23c-1.7-0.06-4.69-0.37-5.45,0.82c-0.94,1.48,1.89,2.54,3.78,3.06c2.06,0.57,4.29,0.94,6.55,1.1
				c1.17,0.08,2.39,0.1,3.49-0.14c1.46-0.31,2.53-1.04,3.34-1.8c1-0.95,1.7-2.05,1.53-3.15C247.58,153.85,244.6,151.49,241.99,152.6
				z"/>
			<path class="st7" d="M245.66,151.88c0.74,0.74,2.19,1.2,3.67,1.24c1.33,0.03,2.62-0.25,3.84-0.55c1.11-0.28,2.21-0.58,3.28-0.91
				c0.7-0.22,1.56-0.56,1.77-1.04c0.1-0.22,0.01-0.47-0.19-0.67c-0.2-0.2-0.51-0.36-0.85-0.48c-0.44-0.16-0.91-0.11-1.37-0.21
				c-0.48-0.1-0.97-0.26-1.34-0.46c-0.85-0.45-1.38-1.07-2.02-1.61c-0.79-0.67-1.8-1.25-2.97-1.7c-0.77-0.3-1.63-0.54-2.55-0.57
				c-0.92-0.03-1.9,0.19-2.38,0.64c-0.66,0.63-0.18,1.45,0.41,2.11c0.65,0.73,1.28,1.31,0.72,2.07
				C245.14,150.45,244.92,151.14,245.66,151.88z"/>
			<path class="st7" d="M200.99,177.29c0.74,0.74,2.19,1.2,3.67,1.24c1.33,0.03,2.62-0.25,3.84-0.55c1.11-0.28,2.21-0.58,3.28-0.91
				c0.7-0.22,1.56-0.56,1.77-1.04c0.1-0.22,0.01-0.47-0.19-0.67c-0.2-0.2-0.51-0.36-0.85-0.48c-0.44-0.16-0.91-0.11-1.37-0.21
				c-0.48-0.1-0.97-0.26-1.34-0.46c-0.85-0.45-1.38-1.07-2.02-1.61c-0.79-0.67-1.8-1.25-2.97-1.7c-0.77-0.3-1.63-0.54-2.55-0.57
				c-0.92-0.03-1.9,0.19-2.38,0.64c-0.66,0.63-0.18,1.45,0.41,2.11c0.65,0.73,1.28,1.31,0.72,2.07
				C200.48,175.86,200.26,176.55,200.99,177.29z"/>
			<path class="st6" d="M257.42,141.53c-0.41,0.24-0.68,0.54-0.69,0.88c0,0.31,0.11,0.62,0.07,0.92c-0.1,0.7-0.99,1.26-1.59,1.87
				c-0.47,0.48-0.78,1.02-0.74,1.56c0.04,0.55,0.45,1.1,1.21,1.44c0.75,0.33,1.76,0.41,2.68,0.3c0.92-0.11,1.74-0.41,2.43-0.77
				c1.25-0.65,2.16-1.56,2.2-2.54c0.02-0.42-0.11-0.84-0.06-1.26c0.03-0.2,0.07-0.45,0.28-0.62c0.2-0.16,0.45-0.25,0.6-0.45
				c0.61-0.75,0.09-1.54-1.11-1.97c-0.92-0.33-2.05-0.26-3.06-0.1C258.9,140.94,258.02,141.18,257.42,141.53z"/>
		</g>
		<path class="st5" d="M230.83,179.16c0.32-0.38,0.67-0.75,0.87-1.21c0.2-0.46,0.21-1.04-0.13-1.41c-0.32-0.35-0.87-0.42-1.33-0.3
			c-0.46,0.12-0.87,0.38-1.29,0.61c-1.1,0.59-2.28,0.73-3.48,1.02c-0.84,0.2-1.67,0.56-2.22,1.23c-0.7,0.86,0.15,1.58,0.8,2.1
			c0.84,0.67,1.81,1.17,2.81,1.56c0.71,0.28,1.51,0.51,2.22,0.23c0.52-0.21,0.91-0.67,1.1-1.19
			C230.51,180.94,230.25,179.86,230.83,179.16z"/>
		<path class="st5" d="M184.98,184.13c0.32-0.38,0.67-0.75,0.87-1.21c0.2-0.46,0.21-1.04-0.13-1.41c-0.32-0.35-0.87-0.42-1.33-0.3
			c-0.46,0.12-0.87,0.38-1.29,0.61c-1.1,0.59-2.28,0.73-3.48,1.02c-0.84,0.2-1.67,0.56-2.22,1.23c-0.7,0.86,0.15,1.58,0.8,2.1
			c0.84,0.67,1.81,1.17,2.81,1.56c0.71,0.28,1.51,0.51,2.22,0.23c0.52-0.21,0.91-0.67,1.1-1.19
			C184.66,185.91,184.4,184.84,184.98,184.13z"/>
		<path class="st5" d="M241.36,189.88c-0.09,0.2-0.13,0.41-0.11,0.65c0.07,0.71,0.59,1.31,1.17,1.69c0.82,0.55,1.89,0.69,2.85,0.53
			c1.31-0.22,2.49-0.94,3.58-1.69c0.62-0.43,3.44-2.13,1.53-2.86c-0.38-0.15-0.8-0.11-1.21-0.08c-0.87,0.06-1.81,0.02-2.51-0.51
			c-0.56-0.42-0.92-1.12-1.59-1.31c-0.53-0.16-1.12,0.07-1.52,0.45c-0.54,0.51-0.54,1.25-1.02,1.77
			C242.13,188.94,241.59,189.35,241.36,189.88z"/>
		<path class="st6" d="M184.85,188.22c-0.09,0.2-0.13,0.41-0.11,0.65c0.07,0.71,0.59,1.31,1.17,1.69c0.82,0.55,1.89,0.69,2.85,0.53
			c1.31-0.22,2.49-0.94,3.58-1.69c0.62-0.43,3.44-2.13,1.53-2.86c-0.38-0.15-0.8-0.11-1.21-0.08c-0.87,0.05-1.81,0.02-2.51-0.51
			c-0.56-0.42-0.92-1.12-1.59-1.31c-0.53-0.16-1.12,0.07-1.52,0.45c-0.54,0.51-0.54,1.25-1.02,1.77
			C185.63,187.28,185.09,187.7,184.85,188.22z"/>
	</g>
	<g>
		<path class="st5" d="M372.74,241.89c0.36,0.81,0.37,1.75,0.21,2.62c-0.07,0.39-0.17,0.81-0.04,1.18c0.2,0.55,0.82,0.81,1.4,0.89
			c0.83,0.1,1.67-0.05,2.45-0.35c0.66-0.25,1.32-0.63,1.67-1.25c0.45-0.81,0.23-1.87-0.34-2.59c-0.57-0.72-1.44-1.16-2.33-1.43
			c-0.56-0.17-1.14-0.29-1.67-0.54c-0.4-0.19-0.76-0.56-1.18-0.69c-0.44-0.14-0.68,0.22-0.71,0.64
			C372.16,240.93,372.52,241.41,372.74,241.89z"/>
		<path class="st5" d="M270.65,182.44c0,0.38,0.1,0.78,0.19,1.08c0.13,0.46,0.22,0.94,0.13,1.41c-0.11,0.65-1.08,1.85-0.31,2.38
			c0.24,0.16,0.54,0.2,0.83,0.21c1.32,0.07,2.66-0.16,3.89-0.66c0.65-0.27,1.28-0.63,1.72-1.18c0.63-0.79,0.08-1.88-0.74-2.26
			c-0.61-0.28-1.29-0.29-1.91-0.53c-0.58-0.22-0.97-0.75-1.45-1.12c-0.46-0.36-1.21-0.63-1.78-0.38
			C270.78,181.59,270.65,182,270.65,182.44z"/>
		<path class="st6" d="M300.75,199.2c0,0.34,0.09,0.69,0.17,0.96c0.11,0.41,0.19,0.84,0.12,1.25c-0.1,0.58-0.96,1.65-0.28,2.12
			c0.21,0.15,0.48,0.18,0.74,0.19c1.18,0.06,2.37-0.14,3.46-0.59c0.58-0.24,1.14-0.56,1.53-1.05c0.56-0.7,0.07-1.67-0.66-2.01
			c-0.54-0.25-1.15-0.26-1.7-0.47c-0.51-0.2-0.86-0.67-1.29-1c-0.41-0.32-1.07-0.56-1.58-0.34
			C300.86,198.43,300.74,198.8,300.75,199.2z"/>
		<path class="st7" d="M330.73,216.56c0,0.29,0.08,0.6,0.15,0.83c0.1,0.35,0.17,0.73,0.1,1.09c-0.09,0.5-0.84,1.43-0.24,1.84
			c0.18,0.13,0.42,0.15,0.64,0.17c1.02,0.05,2.06-0.12,3.01-0.51c0.5-0.21,0.99-0.48,1.33-0.91c0.49-0.61,0.06-1.45-0.57-1.74
			c-0.47-0.22-1-0.22-1.48-0.41c-0.45-0.17-0.75-0.58-1.12-0.87c-0.36-0.28-0.93-0.48-1.38-0.3
			C330.82,215.9,330.72,216.22,330.73,216.56z"/>
		<path class="st5" d="M359.17,233.29c0,0.33,0.09,0.68,0.16,0.94c0.11,0.4,0.19,0.82,0.12,1.23c-0.1,0.56-0.94,1.61-0.27,2.08
			c0.21,0.14,0.47,0.17,0.72,0.19c1.15,0.06,2.32-0.14,3.39-0.58c0.56-0.23,1.12-0.55,1.5-1.02c0.55-0.69,0.07-1.64-0.64-1.97
			c-0.53-0.24-1.12-0.25-1.66-0.46c-0.6-0.23-0.86-0.81-1.37-1.16c-0.3-0.2-0.66-0.32-1.02-0.28
			C359.51,232.31,359.17,232.74,359.17,233.29z"/>
		<g>
			<path class="st6" d="M275.98,187.63c2.58-0.11,2.15,1.15,2.69,2.16c0.62,1.16,3.69,1.23,4.72,2.29c0.56,0.57,0.35,1.31-0.19,1.88
				c-0.8,0.84-2.36,1.45-4.02,1.47c-1.66,0.02-3.31-0.6-3.8-1.52c-0.33-0.61-0.22-1.38-1.11-1.76c-1.19-0.51-3.48-0.81-3.5-1.93
				c0-0.24,0.15-0.47,0.36-0.68c0.43-0.44,1.09-0.79,1.78-1.1c0.85-0.38,1.81-0.71,2.88-0.8
				C275.84,187.64,275.91,187.64,275.98,187.63z"/>
			<path class="st5" d="M271.88,193.42c0.75,0.32,1.24,0.81,1.72,1.27c0.48,0.46,1.02,0.94,1.84,1.21c1.14,0.38,2.56,0.28,3.88,0.23
				c1.7-0.06,4.69-0.37,5.45,0.82c0.94,1.48-1.89,2.54-3.78,3.06c-2.06,0.57-4.29,0.94-6.55,1.1c-1.17,0.08-2.39,0.1-3.49-0.14
				c-1.46-0.31-2.53-1.04-3.34-1.8c-1-0.95-1.7-2.05-1.53-3.15C266.3,194.67,269.27,192.31,271.88,193.42z"/>
			<path class="st7" d="M285.83,195.04c0.83,0.94,0.71,2.07,0.22,3.09c-0.49,1.02-1.31,1.98-1.85,2.99
				c-0.2,0.38-0.35,0.84,0.06,1.16c0.44,0.34,1.29,0.37,2.01,0.31c1.17-0.1,2.28-0.38,3.3-0.74c2.1-0.74,3.89-1.95,4.07-3.36
				c0.1-0.77-0.28-1.54-0.68-2.28c-0.78-1.41-2.02-3.35-4.81-3.78c-0.99-0.15-1.93-0.01-2.57,0.48
				C284.57,193.66,285.18,194.3,285.83,195.04z"/>
			<path class="st7" d="M268.27,191.2c-0.74,0.74-2.19,1.2-3.67,1.24c-1.33,0.03-2.62-0.25-3.84-0.55
				c-1.11-0.28-2.21-0.58-3.28-0.91c-0.7-0.22-1.56-0.56-1.77-1.04c-0.1-0.22-0.01-0.47,0.19-0.67c0.2-0.2,0.51-0.36,0.85-0.48
				c0.44-0.16,0.91-0.11,1.37-0.21c0.48-0.1,0.97-0.26,1.34-0.46c0.85-0.45,1.38-1.07,2.02-1.61c0.79-0.67,1.8-1.25,2.97-1.7
				c0.77-0.3,1.63-0.54,2.55-0.57c0.92-0.03,1.9,0.19,2.38,0.64c0.66,0.63,0.18,1.45-0.41,2.11c-0.65,0.73-1.28,1.31-0.72,2.07
				C268.79,189.77,269.01,190.46,268.27,191.2z"/>
			<path class="st7" d="M262.36,193.79c0.46,0.27,0.78,0.61,0.78,1c0.01,0.35-0.12,0.7-0.07,1.05c0.12,0.8,1.12,1.43,1.8,2.13
				c0.53,0.54,0.88,1.15,0.84,1.78c-0.04,0.62-0.51,1.25-1.37,1.63c-0.85,0.37-2,0.47-3.04,0.34c-1.04-0.13-1.97-0.46-2.76-0.87
				c-1.42-0.74-2.45-1.77-2.5-2.88c-0.02-0.48,0.13-0.96,0.07-1.44c-0.03-0.23-0.08-0.51-0.32-0.7c-0.23-0.18-0.51-0.29-0.69-0.51
				c-0.69-0.85-0.1-1.75,1.26-2.24c1.05-0.38,2.33-0.29,3.47-0.11C260.68,193.12,261.68,193.39,262.36,193.79z"/>
			<path class="st7" d="M275.87,202.55c1.15-0.11,2.28-0.31,3.34-0.6c0.91-0.24,2.07-0.57,3.09-0.3c0.23,0.06,0.42,0.16,0.59,0.27
				c0.8,0.53,1.24,1.19,0.89,1.86c-0.95,1.82-2.75,3.23-5.9,3.92c-2.18,0.48-4.89,0.5-6.96-0.16c-2.53-0.81-4.94-1.97-5.72-3.57
				c-0.32-0.66-0.21-1.62,0.95-2c1.2-0.39,2.74,0.25,3.9,0.43C271.93,202.69,273.94,202.74,275.87,202.55z"/>
		</g>
		<g>
			<path class="st7" d="M305.64,204.27c2.58-0.11,2.15,1.15,2.69,2.16c0.62,1.16,3.69,1.23,4.72,2.29c0.56,0.57,0.35,1.31-0.19,1.88
				c-0.8,0.84-2.36,1.45-4.02,1.47c-1.66,0.02-3.31-0.6-3.8-1.52c-0.33-0.61-0.22-1.38-1.11-1.76c-1.19-0.51-3.48-0.81-3.5-1.93
				c0-0.24,0.15-0.47,0.36-0.68c0.43-0.44,1.09-0.79,1.78-1.1c0.85-0.38,1.81-0.71,2.88-0.8
				C305.5,204.28,305.57,204.27,305.64,204.27z"/>
			<path class="st7" d="M301.54,210.06c0.75,0.32,1.24,0.81,1.72,1.27c0.48,0.46,1.02,0.94,1.84,1.21c1.14,0.38,2.56,0.28,3.88,0.23
				c1.7-0.06,4.69-0.37,5.45,0.82c0.94,1.48-1.89,2.54-3.78,3.06c-2.06,0.57-4.29,0.94-6.55,1.1c-1.17,0.08-2.39,0.1-3.49-0.14
				c-1.46-0.31-2.53-1.04-3.34-1.8c-1-0.95-1.7-2.05-1.53-3.15C295.96,211.31,298.93,208.94,301.54,210.06z"/>
			<path class="st5" d="M315.49,211.68c0.83,0.94,0.71,2.07,0.22,3.09c-0.49,1.02-1.31,1.98-1.85,2.99
				c-0.2,0.38-0.35,0.84,0.06,1.16c0.44,0.34,1.29,0.37,2.01,0.31c1.17-0.1,2.28-0.38,3.3-0.74c2.1-0.74,3.89-1.95,4.07-3.36
				c0.1-0.77-0.28-1.54-0.68-2.28c-0.78-1.41-2.02-3.35-4.81-3.78c-0.99-0.15-1.93-0.01-2.57,0.48
				C314.24,210.3,314.84,210.94,315.49,211.68z"/>
			<path class="st7" d="M297.93,207.84c-0.74,0.74-2.19,1.2-3.67,1.24c-1.33,0.03-2.62-0.25-3.84-0.55
				c-1.11-0.28-2.21-0.58-3.28-0.91c-0.7-0.22-1.56-0.56-1.77-1.04c-0.1-0.22-0.01-0.47,0.19-0.67c0.2-0.2,0.51-0.36,0.85-0.48
				c0.44-0.16,0.91-0.11,1.37-0.21c0.48-0.1,0.97-0.26,1.34-0.46c0.85-0.45,1.38-1.07,2.02-1.61c0.79-0.67,1.8-1.25,2.97-1.7
				c0.77-0.3,1.63-0.54,2.55-0.57c0.92-0.03,1.9,0.19,2.38,0.64c0.66,0.63,0.18,1.45-0.41,2.11c-0.65,0.73-1.28,1.31-0.72,2.07
				C298.45,206.41,298.67,207.1,297.93,207.84z"/>
			<path class="st5" d="M292.02,210.43c0.46,0.27,0.78,0.61,0.78,1c0.01,0.35-0.12,0.7-0.07,1.05c0.12,0.8,1.12,1.43,1.8,2.13
				c0.53,0.54,0.88,1.15,0.84,1.78c-0.04,0.62-0.51,1.25-1.37,1.63c-0.85,0.37-2,0.47-3.04,0.34c-1.04-0.13-1.97-0.46-2.76-0.87
				c-1.42-0.74-2.45-1.77-2.5-2.88c-0.02-0.48,0.13-0.96,0.07-1.44c-0.03-0.23-0.08-0.51-0.32-0.7c-0.23-0.18-0.51-0.29-0.69-0.51
				c-0.69-0.85-0.1-1.75,1.26-2.24c1.05-0.38,2.33-0.29,3.47-0.11C290.34,209.76,291.34,210.03,292.02,210.43z"/>
			<path class="st6" d="M305.53,219.18c1.15-0.11,2.28-0.31,3.34-0.6c0.91-0.24,2.07-0.57,3.09-0.3c0.23,0.06,0.42,0.16,0.59,0.27
				c0.8,0.53,1.24,1.19,0.89,1.86c-0.95,1.82-2.75,3.23-5.9,3.92c-2.18,0.48-4.89,0.5-6.96-0.16c-2.53-0.81-4.94-1.97-5.72-3.57
				c-0.32-0.66-0.21-1.62,0.95-2c1.2-0.39,2.74,0.25,3.9,0.43C301.6,219.33,303.6,219.38,305.53,219.18z"/>
		</g>
		<g>
			<path class="st5" d="M335.57,221.06c2.58-0.11,2.15,1.15,2.69,2.16c0.62,1.16,3.69,1.23,4.72,2.29c0.56,0.57,0.35,1.31-0.19,1.88
				c-0.8,0.84-2.36,1.45-4.02,1.47c-1.66,0.02-3.31-0.6-3.8-1.52c-0.33-0.61-0.22-1.38-1.11-1.76c-1.19-0.51-3.48-0.81-3.5-1.93
				c0-0.24,0.15-0.47,0.36-0.68c0.43-0.44,1.09-0.79,1.78-1.1c0.85-0.38,1.81-0.71,2.88-0.8
				C335.43,221.07,335.5,221.06,335.57,221.06z"/>
			<path class="st6" d="M331.47,226.85c0.75,0.32,1.24,0.81,1.72,1.27c0.48,0.46,1.02,0.94,1.84,1.21c1.14,0.38,2.56,0.28,3.88,0.23
				c1.7-0.06,4.69-0.37,5.45,0.82c0.94,1.48-1.89,2.54-3.78,3.06c-2.06,0.57-4.29,0.94-6.55,1.1c-1.17,0.08-2.39,0.1-3.49-0.14
				c-1.46-0.31-2.53-1.04-3.34-1.8c-1-0.95-1.7-2.05-1.53-3.15C325.89,228.1,328.86,225.73,331.47,226.85z"/>
			<path class="st7" d="M345.42,228.47c0.83,0.94,0.71,2.07,0.22,3.09c-0.49,1.02-1.31,1.98-1.85,2.99
				c-0.2,0.38-0.35,0.84,0.06,1.16c0.44,0.34,1.29,0.37,2.01,0.31c1.17-0.1,2.28-0.38,3.3-0.74c2.1-0.74,3.89-1.95,4.07-3.36
				c0.1-0.77-0.28-1.54-0.68-2.28c-0.78-1.41-2.02-3.35-4.81-3.78c-0.99-0.15-1.93-0.01-2.57,0.48
				C344.16,227.09,344.77,227.73,345.42,228.47z"/>
			<path class="st7" d="M327.86,224.63c-0.74,0.74-2.19,1.2-3.67,1.24c-1.33,0.03-2.62-0.25-3.84-0.55
				c-1.11-0.28-2.21-0.58-3.28-0.91c-0.7-0.22-1.56-0.56-1.77-1.04c-0.1-0.22-0.01-0.47,0.19-0.67c0.2-0.2,0.51-0.36,0.85-0.48
				c0.44-0.16,0.91-0.11,1.37-0.21c0.48-0.1,0.97-0.26,1.34-0.46c0.85-0.45,1.38-1.07,2.02-1.61c0.79-0.67,1.8-1.25,2.97-1.7
				c0.77-0.3,1.63-0.54,2.55-0.57c0.92-0.03,1.9,0.19,2.38,0.64c0.66,0.63,0.18,1.45-0.41,2.11c-0.65,0.73-1.28,1.31-0.72,2.07
				C328.38,223.2,328.6,223.89,327.86,224.63z"/>
			<path class="st5" d="M321.95,227.22c0.46,0.27,0.78,0.61,0.78,1c0.01,0.35-0.12,0.7-0.07,1.05c0.11,0.8,1.12,1.43,1.8,2.13
				c0.53,0.54,0.88,1.15,0.84,1.78c-0.04,0.62-0.51,1.25-1.37,1.63c-0.85,0.37-2,0.47-3.04,0.34c-1.04-0.13-1.97-0.46-2.76-0.87
				c-1.42-0.74-2.45-1.77-2.5-2.88c-0.02-0.48,0.13-0.96,0.07-1.44c-0.03-0.23-0.08-0.51-0.32-0.7c-0.23-0.18-0.51-0.29-0.69-0.51
				c-0.69-0.85-0.1-1.75,1.26-2.24c1.05-0.38,2.33-0.29,3.47-0.11C320.27,226.55,321.27,226.82,321.95,227.22z"/>
			<path class="st7" d="M335.46,235.97c1.15-0.11,2.28-0.31,3.34-0.6c0.91-0.24,2.07-0.57,3.09-0.3c0.23,0.06,0.42,0.16,0.59,0.27
				c0.8,0.53,1.24,1.19,0.89,1.86c-0.95,1.82-2.75,3.23-5.9,3.92c-2.18,0.48-4.89,0.5-6.96-0.16c-2.53-0.81-4.94-1.97-5.72-3.57
				c-0.32-0.66-0.21-1.62,0.95-2c1.2-0.39,2.74,0.25,3.9,0.43C331.52,236.12,333.53,236.17,335.46,235.97z"/>
		</g>
		<g>
			<path class="st7" d="M364.1,237.93c2.58-0.11,2.15,1.15,2.69,2.16c0.62,1.16,3.69,1.23,4.72,2.29c0.56,0.57,0.35,1.31-0.19,1.88
				c-0.8,0.84-2.36,1.45-4.02,1.47c-1.66,0.02-3.31-0.6-3.8-1.52c-0.33-0.61-0.22-1.38-1.11-1.76c-1.19-0.51-3.48-0.81-3.5-1.93
				c0-0.24,0.15-0.47,0.36-0.68c0.43-0.44,1.09-0.79,1.78-1.1c0.85-0.38,1.81-0.71,2.88-0.8
				C363.96,237.94,364.03,237.93,364.1,237.93z"/>
			<path class="st8" d="M360,243.72c0.75,0.32,1.24,0.81,1.72,1.27c0.48,0.46,1.02,0.94,1.84,1.21c1.14,0.38,2.56,0.28,3.88,0.23
				c1.7-0.06,4.69-0.37,5.45,0.82c0.94,1.48-1.89,2.54-3.78,3.06c-2.06,0.57-4.29,0.94-6.55,1.1c-1.17,0.08-2.39,0.1-3.49-0.14
				c-1.46-0.31-2.53-1.04-3.34-1.8c-1-0.95-1.7-2.05-1.53-3.15C354.42,244.97,357.39,242.6,360,243.72z"/>
			<path class="st7" d="M356.4,241.5c-0.74,0.74-2.19,1.2-3.67,1.24c-1.33,0.03-2.62-0.25-3.84-0.55c-1.11-0.28-2.21-0.58-3.28-0.91
				c-0.7-0.22-1.56-0.56-1.77-1.04c-0.1-0.22-0.01-0.47,0.19-0.67c0.2-0.2,0.51-0.36,0.85-0.48c0.44-0.16,0.91-0.11,1.37-0.21
				c0.48-0.1,0.97-0.26,1.34-0.46c0.85-0.45,1.38-1.07,2.02-1.61c0.79-0.67,1.8-1.25,2.97-1.7c0.77-0.3,1.63-0.54,2.55-0.57
				c0.92-0.03,1.9,0.19,2.38,0.64c0.66,0.63,0.18,1.45-0.41,2.11c-0.65,0.73-1.28,1.31-0.72,2.07
				C356.91,240.06,357.13,240.76,356.4,241.5z"/>
			<path class="st7" d="M350.48,244.08c0.46,0.27,0.78,0.61,0.78,1c0.01,0.35-0.12,0.7-0.07,1.05c0.12,0.8,1.12,1.43,1.8,2.13
				c0.53,0.54,0.88,1.15,0.84,1.78c-0.04,0.62-0.51,1.25-1.37,1.63c-0.85,0.37-2,0.47-3.04,0.34c-1.04-0.13-1.97-0.46-2.76-0.87
				c-1.42-0.74-2.45-1.77-2.5-2.88c-0.02-0.48,0.13-0.96,0.07-1.44c-0.03-0.23-0.08-0.51-0.32-0.7c-0.23-0.18-0.51-0.29-0.69-0.51
				c-0.69-0.85-0.1-1.75,1.26-2.24c1.05-0.38,2.33-0.29,3.47-0.11C348.8,243.41,349.8,243.68,350.48,244.08z"/>
		</g>
		<path class="st7" d="M283.31,210.06c0.32-0.38,0.67-0.75,0.87-1.21c0.2-0.46,0.21-1.04-0.13-1.41c-0.32-0.35-0.87-0.42-1.33-0.3
			c-0.46,0.12-0.87,0.38-1.29,0.61c-1.1,0.59-2.28,0.73-3.48,1.02c-0.84,0.2-1.67,0.56-2.22,1.23c-0.7,0.86,0.15,1.58,0.8,2.1
			c0.84,0.67,1.81,1.17,2.81,1.56c0.71,0.28,1.51,0.51,2.22,0.23c0.52-0.21,0.91-0.67,1.1-1.19
			C282.99,211.84,282.73,210.76,283.31,210.06z"/>
		<path class="st6" d="M253.5,193.9c0.27-0.32,0.56-0.64,0.73-1.02c0.17-0.39,0.17-0.88-0.11-1.19c-0.27-0.3-0.73-0.35-1.12-0.25
			c-0.39,0.1-0.73,0.32-1.09,0.51c-0.93,0.49-1.92,0.62-2.93,0.86c-0.71,0.17-1.41,0.47-1.87,1.04c-0.59,0.73,0.12,1.33,0.67,1.77
			c0.71,0.57,1.53,0.99,2.37,1.32c0.6,0.24,1.28,0.43,1.87,0.2c0.44-0.17,0.77-0.57,0.93-1.01
			C253.22,195.4,253.01,194.49,253.5,193.9z"/>
		<path class="st7" d="M312.69,226.81c0.32-0.38,0.67-0.75,0.87-1.21c0.2-0.46,0.21-1.04-0.13-1.41c-0.32-0.35-0.87-0.42-1.33-0.3
			c-0.46,0.12-0.87,0.38-1.29,0.61c-1.1,0.59-2.28,0.73-3.48,1.02c-0.84,0.2-1.67,0.56-2.22,1.23c-0.7,0.86,0.15,1.58,0.8,2.1
			c0.84,0.67,1.81,1.17,2.81,1.56c0.71,0.28,1.51,0.51,2.22,0.23c0.52-0.21,0.91-0.67,1.1-1.19
			C312.36,228.59,312.11,227.51,312.69,226.81z"/>
		<path class="st5" d="M341.83,243.87c0.32-0.38,0.67-0.75,0.87-1.21c0.2-0.46,0.21-1.04-0.13-1.41c-0.32-0.35-0.87-0.42-1.33-0.3
			c-0.46,0.12-0.87,0.38-1.29,0.61c-1.1,0.59-2.28,0.73-3.48,1.02c-0.84,0.2-1.67,0.56-2.22,1.23c-0.7,0.86,0.15,1.58,0.8,2.1
			c0.84,0.67,1.81,1.17,2.81,1.56c0.71,0.28,1.51,0.51,2.22,0.23c0.52-0.21,0.91-0.67,1.1-1.19
			C341.51,245.65,341.25,244.57,341.83,243.87z"/>
		<path class="st5" d="M352.36,254.59c-0.09,0.2-0.13,0.41-0.11,0.65c0.07,0.71,0.59,1.31,1.17,1.69c0.82,0.55,1.89,0.69,2.85,0.53
			c1.31-0.22,2.49-0.94,3.58-1.69c0.62-0.43,3.44-2.13,1.53-2.86c-0.38-0.15-0.8-0.11-1.21-0.08c-0.87,0.06-1.81,0.02-2.51-0.51
			c-0.56-0.42-0.92-1.12-1.59-1.31c-0.53-0.16-1.12,0.07-1.52,0.45c-0.54,0.51-0.54,1.25-1.02,1.77
			C353.14,253.65,352.59,254.06,352.36,254.59z"/>
	</g>
</g>
</svg>
